<svg xmlns="http://www.w3.org/2000/svg" xmlns:xlink="http://www.w3.org/1999/xlink" width="800" height="800" viewBox="0 0 211.66666 211.66666"><defs><linearGradient id="a"><stop offset="0" stop-color="#fc0"/><stop offset=".148" stop-color="#fc0"/><stop offset=".299" stop-color="#d35f5f"/><stop offset=".501" stop-color="#784421"/><stop offset="1" stop-color="#a77300"/></linearGradient><radialGradient xlink:href="#a" id="b" cx="173.611" cy="203.381" fx="173.611" fy="203.381" r="90.713" gradientTransform="matrix(1.34974 -.00088 .00097 1.49226 -61.836 -101.39)" gradientUnits="userSpaceOnUse"/><filter id="c" color-interpolation-filters="sRGB"><feColorMatrix values="1.243 0 0 0.157683 -0.1215 0 1.243 0 0.157683 -0.1215 0 0 1.243 0.157683 -0.1215 0 0 0 1 0"/></filter></defs><path d="M172.167 77.678l-9.032 9.349c-4.967 5.141-9.823 10.235-10.79 11.318l-1.76 1.97.15 12.446c.109 8.92.043 12.38-.232 12.21-.211-.131-.385-.635-.385-1.12 0-1.059-.497-3.216-1.618-7.014-1.076-3.647-2.017-11.803-1.84-15.952l.139-3.252-.898.219c-.494.12-1.374.609-1.956 1.086-2.691 2.205-19.227 17.953-19.227 18.312 0 .1-.321.635-.714 1.187-.844 1.184-2.108 5.87-2.108 7.813 0 1.106-.281 1.676-1.499 3.03-.824.917-1.595 1.747-1.711 1.844-.117.097-.653.89-1.192 1.764-.54.873-1.685 2.655-2.544 3.96-.86 1.305-2.585 4.48-3.835 7.056-1.25 2.575-2.842 5.705-3.539 6.955-1.657 2.973-1.783 4.584-.878 11.262.466 3.441.735 7.323.735 10.629 0 5.816-.133 6.165-2.325 6.103-.663-.019-1.282.09-1.375.242-.094.152.387 7.16 1.069 15.575.682 8.415 1.304 17.057 1.383 19.206.11 3.017.466 5.226 1.565 9.71 2.063 8.412 3.132 11.929 4.175 13.724 1.272 2.189 4.634 5.95 5.914 6.615 1.755.912 3.704 2.637 3.704 3.279 0 .332 1.07 1.41 2.382 2.398 3.579 2.697 5.483 4.18 6.216 4.839.245.22.395.421.472.803 7.212-.148 14.926-.232 22.995-.232 33.645 0 61.634 1.395 68.853 3.275 2.482.14 3.723.096 4.01-.144.329-.272.538-2.126.72-6.375.25-5.87.271-5.991 1.035-5.991.43 0 2.04-.301 3.582-.669 1.54-.368 3.753-.853 4.918-1.078 5.747-1.114 18.265-4.05 18.877-4.43.544-.335.432-.683-.805-2.523-.991-1.472-1.169-2.068-1.256-4.216l-.102-2.502 2.931.645c3.434.755 6.403.85 6.895.221.573-.732 1.135-2.612 2.774-9.26 4.17-16.928 5.468-22.843 5.365-24.448l-.107-1.658-7.056-2.354-7.055-2.353 6.53.202c7.34.226 7.733.136 10.232-2.338 1.333-1.32 2.118-3.335 3.675-9.436.732-2.87.707-3.365-.333-6.49l-.887-2.662-6.257-2.603c-6.67-2.775-9.456-4.065-9.726-4.503-.092-.15 4.415-.272 10.017-.272 9.132 0 10.246-.062 10.786-.602.616-.616 3.418-9.919 3.844-12.763.204-1.361.064-1.939-1.021-4.196-2.785-5.79-3.333-6.507-5.676-7.435-1.174-.465-6.5-2.59-11.836-4.72-11.217-4.481-11.38-4.538-14.846-5.18-1.439-.266-4.998-1.376-7.908-2.468-2.91-1.09-7.078-2.64-9.26-3.442-2.183-.802-3.97-1.573-3.97-1.714 0-.606 1.17-1.03 5.822-2.109 8.075-1.873 21.479-5.224 22.59-5.646 1.88-.715 7.65-2.125 15.157-3.706 9.91-2.086 10.054-2.13 10.054-3.146 0-.739-.31-.909-2.91-1.592-1.6-.421-4.101-1.147-5.556-1.613-1.456-.466-11.933-3.539-23.284-6.828-42.697-12.375-39.492-11.571-41.324-10.36-.513.338-2.894 2.38-5.292 4.539a2508.79 2508.79 0 0 1-10.71 9.557c-3.493 3.099-7.62 6.848-9.172 8.333-1.553 1.485-2.865 2.7-2.917 2.702-.154.004 2.916-4.055 8.561-11.316 2.91-3.744 5.904-7.61 6.653-8.592.749-.982 2.517-3.215 3.928-4.96 2.258-2.793 2.546-3.313 2.393-4.314-.146-.95-.357-1.167-1.283-1.317-2.284-.37-25.216-2.337-28.095-2.409zm-31.859 103.214c.028-.028.183.115.488.406.35.335.541.706.423.824-.118.118-.406-.155-.638-.609-.202-.393-.3-.593-.273-.62zm1.133 2.51c.06.015.143.077.25.185.216.216.332.574.258.798-.175.526-.65.051-.65-.65 0-.248.041-.357.142-.333z" fill="url(#b)" filter="url(#c)" transform="translate(-116.83 -86.015) scale(1.1457)"/><path d="M80.678 1.674c-.884.016-.834.156-.284.392.445.191 1.582.36 2.526.376.945.016 1.718.21 1.718.432 0 .223-.193.405-.428.405-.236 0-.311.189-.168.42.143.231.609.31 1.035.175.46-.146 1.043.02 1.431.409.605.604.272.65-4.28.588-3.528-.049-5.068.077-5.405.441-.259.28-.28.405-.047.276.233-.13.67-.082.973.105.58.358 9.083.15 10.122-.248.9-.345 4.675-.573 11.924-.72 3.556-.072 7.543-.154 8.858-.182 1.315-.028 2.315-.124 2.222-.212-.092-.089-4.26-.534-9.262-.99-12.458-1.136-18.287-1.63-20.497-1.667a12.538 12.538 0 0 0-.438 0zm35.239 6.223c-.13.009-.329.054-.593.123-.462.12-1.004.654-1.206 1.185-.202.531-.688 1.087-1.08 1.236-.393.15-1.394 1.009-2.226 1.91-.832.9-1.901 2.052-2.376 2.558-.476.506-1.399 1.597-2.051 2.425-2.493 3.163-4.171 4.94-4.664 4.94-.281 0-.512.248-.512.55 0 .302-.74 1.166-1.642 1.92-1.862 1.553-6.441 7.047-6.441 7.727 0 .246-.277.735-.614 1.087-3.471 3.618-5.811 6.402-7.58 9.019-1.632 2.412-2.415 3.212-3.44 3.507-.729.21-1.66.797-2.07 1.302-.569.703-1.308.973-3.152 1.149-3.477.332-6.182.054-6.182-.635 0-.538.457-.728 1.466-.607.801.095 1.03-1.733.274-2.182-.376-.222-1.118-.82-1.651-1.33-.779-.745-.873-1.042-.484-1.511.638-.768.213-1.807-.738-1.807-.415 0-.855-.102-.98-.226-.434-.435.193-1.795.846-1.835.365-.022.208-.174-.35-.339-.556-.164-.978-.47-.939-.68.04-.21-.415-.377-1.01-.369-1.414.018-1.568-1.534-.173-1.732 1.363-.194 1.165-1.522-.303-2.033-1.162-.406-1.213-.375-1.213.725 0 .972-.156 1.14-1.01 1.091-.818-.047-1.01-.27-1.01-1.17 0-.611-.137-1.09-.304-1.063-.167.026-.714.026-1.216 0-.792-.042-.85-.15-.434-.815.387-.62.349-.896-.199-1.443-.372-.373-.677-.846-.677-1.052 0-.207-.253-.376-.563-.376-.638 0-1.222-1.826-.801-2.506.167-.27.092-.334-.19-.16-.257.159-.467.189-.467.067 0-.386 1.331-1.909 4.244-4.854 2.712-2.742 7.553-8.022 10.318-11.254.72-.841 1.213-1.624 1.096-1.741-.117-.117-4.24 4.026-9.16 9.208-8.949 9.421-8.949 9.421-8.835 23.868.115 14.48-.176 17.589-1.123 12.027-.246-1.445-1.023-4.607-1.726-7.026-1.429-4.915-2.663-14.806-2.414-19.346.142-2.588.107-2.714-.672-2.472-1.306.407-1.813.838-9.952 8.457-9.596 8.982-14.204 13.833-15.31 16.118-.754 1.557-1.222 3.599-1.879 8.194-.11.774-.93 2.164-2.027 3.436-3.176 3.687-5.754 7.89-10.967 17.884-5.712 10.95-5.382 9.09-3.946 22.246.34 3.112.617 7.704.618 10.205 0 5.235-.455 6.164-3.03 6.164-1.661 0-1.616-.326-.997 7.072.978 11.69 2.006 25.168 2.396 31.405.231 3.712.703 7.986 1.047 9.498 1.63 7.158 4.409 16.671 5.348 18.31 1.892 3.299 4.69 6.312 7.893 8.501 2.314 1.582 3.215 2.45 3.375 3.25.12.6.628 1.277 1.128 1.505.5.228 2.255 1.544 3.9 2.925 1.644 1.38 3.386 2.693 3.871 2.917 1.04.48 1.601 1.645 1.654 3.373.859.065 1.691.135 2.504.21.013-.03.03-.077.042-.095.366-.592 12.88-1.182 27.05-1.274 10.083-.065 32.853.811 44.662 1.72.612.047 1.247.088 1.873.133h6.513c6.21 0 12.25.312 18.053.901.821.005 1.854.043 3.17.09 5.626.203 5.626.203 5.893-4.158.147-2.398.267-5.479.267-6.845 0-2.694.427-3.453 1.94-3.453.894 0 20.574-4.28 27.541-5.989 1.654-.406 3.084-.967 3.177-1.247.093-.28-.41-1.317-1.119-2.305-1.093-1.522-1.324-2.262-1.522-4.876-.233-3.08-.233-3.08.941-2.83 3.247.692 9.251 1.477 9.85 1.287.95-.302 1.947-3.643 5.43-18.193 4.094-17.102 4.353-18.37 4.208-20.628-.126-1.973-.126-1.973-7.603-4.431-4.112-1.352-7.75-2.562-8.084-2.69-1.615-.615.497-.708 7.176-.314 6.566.387 7.444.362 8.613-.242 2.398-1.24 4.304-3.475 5.161-6.05 1.06-3.186 2.493-9.285 2.493-10.613 0-1.686-1.75-6.646-2.42-6.853-.336-.105-1.67-.628-2.962-1.163-1.293-.535-2.557-.973-2.81-.973-.833 0 .259.694 1.927 1.225 2.616.832 3.386 1.543 4.034 3.727.555 1.868.539 2.345-.202 5.916-1.218 5.868-2.427 9.616-3.38 10.476-1.434 1.295-3.196 1.633-7.588 1.456-2.3-.092-7.728-.248-12.062-.347-4.335-.098-8.003-.189-8.151-.201-.363-.03-1.145-3.767-1.145-5.468 0-.995-.35-1.713-1.29-2.654-1.287-1.286-1.29-1.3-1.181-5.055.123-4.233-.682-13.063-1.259-13.804-.573-.736-.21-3.05.62-3.961.439-.482.664-1.193.557-1.758-.177-.931-.135-.945 2.072-.669 2.145.268 5.343 1.335 10.868 3.626 1.378.572 3.015 1.017 3.637.99.623-.028 6.211-.023 12.42.01 10.37.056 11.345.002 12.01-.665.782-.783 3.898-11.244 4.265-14.317.202-1.689 0-2.318-2.09-6.467-1.272-2.529-2.644-4.94-3.047-5.36-.404-.42-3.16-1.72-6.124-2.888-2.964-1.169-8.39-3.345-12.058-4.835-8.8-3.576-10.566-4.177-13.717-4.668-3.4-.531-8.005-1.88-15.586-4.566-3.11-1.102-5.994-1.878-10.913-2.933-4.091-.879-4.631-1.149-4.362-2.178.19-.726.546-.813 3.292-.813 2.03 0 4.87-.424 8.339-1.245 9.438-2.233 25.766-6.409 30.724-7.858 2.668-.78 8.488-2.146 12.933-3.036 8.542-1.71 11.787-2.537 11.62-2.962-.055-.142-.1-.52-.1-.84 0-.76-3.5-1.334-4.153-.68-.25.25-1.052.453-1.781.453-2.998 0-18.952 2.998-22.561 4.24-1.896.652-10.74 2.803-13.944 3.39-1.223.225-4.77.61-7.882.857s-5.93.524-6.264.615c-.334.091-2.5.444-4.813.785-2.314.341-5.99 1.09-8.17 1.665-2.178.575-4.129.941-4.334.815-.497-.307-.546-9.57-.055-10.345.255-.403.386-.437.39-.102.004.278.185.506.404.506.461 0 .346-5.19-.132-5.962-.176-.283-.125-.505.115-.505.235 0 .428-.353.428-.785 0-.431.194-.904.432-1.051.237-.147.345-.492.239-.768-.106-.276-.03-.757.168-1.07.255-.404.363-.423.367-.065.004.278.279.506.612.506.438 0 .607-.45.607-1.617 0-1.708-.494-2.088-1.18-.91-.364.625-.414.597-.425-.245-.01-.825-.162-.923-1.123-.724-.611.127-.885.131-.607.01.278-.12.5-.613.493-1.095-.011-.79-.053-.806-.424-.169-.494.848-1.584.941-1.584.135 0-.315.136-.649.303-.742.166-.093.082-.116-.19-.051a.743.743 0 0 1-.754-.307c-.144-.233-.688-.343-1.208-.244-.805.154-.887.073-.556-.546.57-1.064 1.233-1.356 1.641-.721.304.47.414.47.716.003.212-.329 1.034-.545 2.021-.53.916.012 1.664-.125 1.664-.306 0-.44-2.26-.871-3.026-.577-.336.129-.611.027-.611-.226 0-.79.917-.846 3.637-.228 1.445.33 4.537.96 6.872 1.402 2.334.443 5.425 1.07 6.87 1.394 1.445.323 3.428.71 4.405.86.978.148 2.342.504 3.032.789.69.285 2.617.719 4.284.964 2.952.434 7.637 1.55 11.317 2.693 1 .311 2.865.842 4.143 1.18 1.278.339 3.28.874 4.446 1.19 1.167.315 3.85.77 5.962 1.01 2.112.241 4.294.534 4.85.65 2.42.51-1.223-.738-7.275-2.493-3.446-.999-8.447-2.453-11.115-3.23a7234.646 7234.646 0 0 0-34.947-10.088c-10.796-3.086-12.043-3.362-13.338-2.95-1.743.556-4.072 2.675-3.78 3.44.13.336-.053.557-.462.557-.372 0-1.71.893-2.973 1.984-1.264 1.09-3.958 3.41-5.988 5.153-10.63 9.128-18.337 16.42-18.337 17.347 0 .316-.145.575-.322.575-.177 0-1.43 1.046-2.783 2.324-3.772 3.561-4.575 4.196-4.575 3.624 0-.283 1.083-1.467 2.407-2.632s2.643-2.558 2.93-3.095c1.133-2.112 19.784-26.46 23.26-30.363.839-.943 1.053-1.239.662-1.212zm8.978 5.082c.447 0 .373.292-.308 1.212-.493.667-1.03 1.213-1.193 1.213-.164 0-.025-.546.308-1.213.332-.666.87-1.212 1.193-1.212zm1.88 1.275c.172-.012.301.066.301.265 0 .217-.288.505-.64.64-.393.15-.578.06-.48-.235.126-.377.532-.649.819-.67zm1.921.438c.449-.012.96.156 1.415.522.778.627.766.64-.345.402-.682-.147-1.4-.04-1.764.263-.518.43-.59.385-.463-.286.11-.572.58-.886 1.157-.901zm3.49 1.237c.106.01.015.155-.252.476-.582.702-.816.775-.816.255 0-.199.299-.476.663-.616.208-.08.342-.121.405-.115zm-2.314 1.142c.14.005.26.043.328.11.134.134-.104.23-.53.212-.471-.02-.567-.115-.244-.244a1.11 1.11 0 0 1 .446-.078zm15.763 6.467c-.14-.006-.3.02-.446.078-.323.129-.227.224.243.244.427.017.665-.078.53-.212-.066-.067-.187-.105-.327-.11zm-86.056 3.587a.406.406 0 0 0-.404.404c0 .223.182.405.404.405a.405.405 0 0 0 0-.81zm2.786 3.638c-.611 0-.782.18-.607.639.135.352.246.8.246.998 0 .197.273.254.606.126.952-.366.757-1.763-.245-1.763zm69.514 1.616c.222 0 .516.182.654.405.137.222.068.404-.155.404-.222 0-.516-.182-.653-.404-.138-.223-.069-.405.154-.405zM45.14 37.248c.302.004.693.12 1.05.345.304.193.486.53.404.748-.177.468-1.97-.233-1.97-.77 0-.22.214-.327.516-.323zM43.1 38.86c.161-.008.889.349 1.617.793.727.444 1.812.808 2.41.809.599 0 1.178.146 1.288.323.307.497 3.424 12.753 4.338 17.058.448 2.111.921 6.236 1.051 9.166.236 5.326.236 5.326-1.654 6.525-1.039.659-2.503 1.314-3.254 1.454-.75.141-1.473.543-1.608.894-.395 1.03-2.06.344-5.076-2.094-1.5-1.212-2.92-2.203-3.155-2.203-.235 0-.508-.228-.607-.506-.1-.278-.323-.373-.496-.211-.173.161-.083.572.2.913.441.532.377.606-.447.515-.95-.104-.963-.055-.984 3.542-.011 2.006-.165 3.882-.343 4.17-.178.287-.23.616-.114.731.206.207 4.732-1.123 12.603-3.704 8.938-2.93 13.646-3.892 23.62-4.827 10.764-1.01 21.786-.627 27.85.968.812.213 3.205.6 5.317.86 2.112.258 4.335.724 4.941 1.035.606.311 2.152.669 3.436.795 2.334.23 2.334.23 7.184-2.959 5.116-3.362 12.884-7.93 14.191-8.346.427-.135 1.638-.347 2.692-.471 1.813-.213 1.939-.165 2.347.906.396 1.042 1.149 7.225 1.785 14.672.143 1.672.49 3.213.772 3.436.298.234.626 1.846.782 3.84.149 1.889.528 4.279.842 5.311.437 1.432.496 2.822.25 5.86-.177 2.192-.345 6.986-.373 10.654-.027 3.668-.142 7.396-.254 8.286-.113.889-.57 8.073-1.015 15.964-.446 7.892-1.084 17.258-1.418 20.815-.345 3.671-.69 12.833-.796 21.192-.118 9.222-.357 15.235-.639 16.09-.247.75-.482 2.58-.52 4.069-.07 2.704-.07 2.705-4.306 2.602-2.33-.056-4.607-.186-5.061-.29-.639-.144-1.4-1.628-3.37-6.566-1.4-3.508-3.002-7.44-3.559-8.738a81.123 81.123 0 0 1-1.918-5.053c-1.133-3.367-1.781-3.755-5.889-3.524-1.667.094-3.577.188-4.244.21-.904.03-1.057.13-.601.398.82.481 7.266 1.689 7.672 1.437.63-.388 1.912 1.238 2.387 3.03.265 1 .652 2.183.86 2.628.207.444.827 2.172 1.376 3.84a428.88 428.88 0 0 0 2.412 7.028c1.39 3.936 1.59 4.81 1.5 6.612-.042.862-.197.906-2.975.84-11.96-.282-24.317-.837-30.819-1.383-4.223-.355-11.68-.72-16.57-.81-4.891-.092-12.348-.387-16.572-.657-4.223-.27-14.136-.496-22.028-.503-14.348-.013-14.348-.013-14.484-.977-.136-.964-.136-.964 4.446-.694 2.52.148 5.186.464 5.923.7.737.238 1.39.369 1.452.291.062-.078.43-1.135.817-2.349.388-1.213 1.695-4.214 2.904-6.669 1.21-2.454 3.243-7.007 4.518-10.12 2.318-5.658 2.318-5.658 3.727-5.77.774-.062 2.227.127 3.227.42 1.819.533 1.819.532 2.308 3.47.788 4.737 1.673 6.11 6.68 10.366 1.523 1.295 5.334 2.285 9.683 2.514 4.216.222 4.437.19 8.918-1.31 4.343-1.455 4.66-1.505 5.781-.922 4.716 2.447 7.465 3.833 8.468 4.267 1.639.71 8.261.635 11.253-.128 5.654-1.442 11.027-6.023 10.593-9.032-.328-2.272-.777-2.382-3.57-.878-1.386.745-3.343 1.87-4.35 2.499-1.007.629-3.099 1.44-4.648 1.8-5.362 1.25-13.778.702-15.315-.996-.738-.815-1.487-6.103-1.13-7.98.303-1.596.932-1.98 5.544-3.39 2.223-.678 6.47-2.089 9.435-3.134 5.394-1.9 5.394-1.9 11.198-7.045 6.125-5.43 6.367-5.72 7.278-8.72.757-2.496.71-4.429-.15-6.038-.714-1.34-4.593-4.146-5.73-4.146-.347 0-.99-.242-1.428-.54-.937-.633-7.934-3.334-9.69-3.74a12.336 12.336 0 0 1-2.3-.827c-.6-.301-3.6-1.12-6.67-1.82-4.488-1.024-6.41-1.266-9.824-1.233-8.325.081-19.271 2.4-27.484 5.823-5.197 2.166-6.275 3.41-5.914 6.832.626 5.943.495 5.634 4.195 9.902 1.905 2.196 4.182 4.898 5.06 6.005 1.782 2.245 2.804 2.963 5.753 4.048 1.112.408 2.194.895 2.405 1.08.211.186.854.338 1.429.338.574 0 2.402.465 4.062 1.035 1.66.569 3.816 1.295 4.792 1.614 2.466.806 2.762 1.144 3.097 3.535.644 4.606.273 6.021-1.946 7.422-1.5.947-1.912 1.022-4.313.79-7.061-.684-12.771-2.882-16.044-6.176-3.012-3.031-4.252-4.7-3.73-5.022.247-.153.334-.466.192-.695-.31-.502-3.795-1.29-5.703-1.29-.754 0-1.468-.159-1.588-.352-.485-.786-.159-23.042.35-23.865.11-.179.238-1.83.283-3.671.07-2.86.19-3.376.82-3.54.912-.239.928-.06-.232-2.612-.533-1.174-1.369-3.487-1.858-5.139-.488-1.652-1.12-3.38-1.405-3.84-.284-.459-.729-1.72-.989-2.802-.546-2.275-2.666-6.716-4.43-9.28-1.364-1.982-3.343-3.081-4.227-2.347-1.562 1.296-1.67 3.073-1.727 28.346-.06 26.562-.437 37.763-1.584 46.986-.742 5.962-.742 5.961-4.77 5.961-4.03 0-4.03 0-3.736-7.375.16-4.057.368-14.652.461-23.544.093-8.892.357-17.35.588-18.794.267-1.675.378-12.081.307-28.697-.113-26.069-.113-26.069.772-27.888.765-1.57.974-3.171 1.53-11.72.742-11.412.859-12.741 1.376-15.764.404-2.358.303-2.668-.933-2.89-.96-.173-1.663-2.36-.926-2.884.386-.274.383-.394-.013-.555-.489-.198-.73-1.35-.283-1.35.122 0 .661.5 1.2 1.111.725.825.981.942.99.454.007-.362-.374-.916-.849-1.23-1.075-.715-.784-1.884.896-3.603.649-.663 1.179-1.341 1.179-1.507 0-.166.64-.906 1.424-1.645 1.168-1.102 1.532-1.254 2.021-.848.712.591.807-.039.111-.735-.377-.377-.354-.485.105-.485.325 0 .817.364 1.095.808.3.48.34.81.098.81-.224 0-.408.363-.408.807 0 .445.182.808.404.808.222 0 .405-.233.405-.519 0-.285.682-1.093 1.515-1.796a157.05 157.05 0 0 0 3.738-3.306c1.223-1.117 2.355-2.036 2.517-2.044zm23.487.8a.35.35 0 0 1 .073.004c.112.022.195.117.195.294 0 .167-.204.371-.454.455-.25.083-.387-.053-.304-.303.093-.278.311-.438.49-.45zm-31.7 2.484c.165.006.361.097.523.259.61.61.27.951-.485.485-.32-.198-.449-.495-.285-.659a.324.324 0 0 1 .248-.085zm95.264 1.239c.109-.004.16.139.16.434 0 .792 1.056.937 1.325.183.1-.278.322-.374.496-.212.173.161.085.57-.196.91-.281.338-.834.615-1.228.615-.858 0-1.402-1.178-.815-1.765.108-.108.193-.163.258-.165zm-97.27 4.76c-.236 0-.316.181-.179.404.137.222.33.403.428.403.098 0 .178-.181.178-.403a.418.418 0 0 0-.428-.405zm-1.998 2.02a.405.405 0 0 0 0 .809.406.406 0 0 0 .405-.405.406.406 0 0 0-.405-.404zm111.375 0c-.098 0-.291.182-.428.404-.138.223-.058.405.178.405.235 0 .428-.182.428-.405 0-.222-.08-.404-.178-.404zm-115.82 6.063c.222 0 .404.182.404.404a.406.406 0 0 1-.405.404.406.406 0 0 1-.404-.404c0-.222.182-.404.404-.404zm143.44 6.217c1.14-.023 5.099.7 7.721 1.447 10.678 3.046 13.327 3.858 14.728 4.519.875.413 1.902.75 2.282.75.38 0 1.79.546 3.135 1.213 1.344.667 2.638 1.213 2.874 1.213 1.924 0 5.71 7.163 5.982 11.316.166 2.544-.901 9.243-1.882 11.822-.423 1.112-.423 1.112-4.98 1.06-2.506-.027-5.731-.203-7.167-.388a269.679 269.679 0 0 0-6.87-.748c-4.97-.479-4.696-.428-11.011-2.05-3.026-.777-5.946-1.263-7.684-1.28-2.804-.026-2.805-.026-2.674-2.503.117-2.206.23-2.49 1.032-2.605.89-.126.887-.14-.202-1.086-1.051-.914-1.07-.992-.395-1.676.4-.406.707-.513.707-.246 0 .51 2.706 1.171 3.116.761.137-.137-.346-.456-1.073-.71-1.25-.435-1.307-.54-1.047-1.92.152-.804.293-1.694.314-1.978.022-.304.496-.077 1.15.55 1.03.986 1.18 1.02 1.984.458.59-.413.72-.703.403-.898-.265-.164-.362-.706-.224-1.255.267-1.064-.35-1.344-.737-.334-.347.904-1.023.337-.767-.644.151-.577.435-.75.958-.583.667.211.747-.029.773-2.313.016-1.401.069-4.595.116-7.095.07-3.694-.021-4.547-.487-4.547-.315 0-.485-.087-.38-.192.036-.036.141-.055.304-.058zm2.03 1.108a1.115 1.115 0 0 0-.447.078c-.323.13-.227.225.244.244.426.018.665-.078.53-.212-.066-.067-.187-.104-.328-.11zm-2.344 6.417c.222 0 .291.182.154.404-.138.222-.432.404-.654.404-.222 0-.292-.182-.154-.404.137-.222.432-.404.654-.404zM38.85 72.798c1.035 0 1.357.149 1.2.556-.117.307-.009.761.24 1.01.335.336.33.454-.019.454-.26 0-.37.268-.244.596.241.628-.702 1.829-1.437 1.829-.238 0-.434.364-.434.808 0 .445-.155.809-.346.809-.19 0-.352-1.364-.36-3.031-.015-3.032-.015-3.032 1.4-3.032zm.293 1.212c-.346 0-.518.181-.38.404.137.222.421.404.63.404.21 0 .38-.182.38-.404 0-.223-.283-.404-.63-.404zm93.856.459c-.794-.001-1.986.65-3.903 1.916-3.326 2.196-6.203 4.9-5.214 4.9.332 0 2.937 1.179 5.79 2.62 2.852 1.44 5.369 2.505 5.593 2.366.48-.296.123-5.577-.622-9.23-.354-1.733-.743-2.572-1.644-2.572zm34.547 1.173c.209-.024.351.077.351.311 0 .18-.243.66-.541 1.067-.462.632-.576.65-.777.127-.13-.337-.031-.818.218-1.067.265-.265.54-.414.749-.438zM39.798 77.243c.21 0 .38.273.38.606 0 .625-.477.803-.932.348-.323-.323.042-.954.552-.954zm100.94 5.35a8.15 8.15 0 0 0-.676.05c-.972.107-1.972.405-2.223.662-.344.353-.06.398 1.16.182 2.102-.37 3.001-.923 1.74-.895zm-29.413 3.147c-.4-.004-.75.095-1.042.3-2.156 1.511-3.816 6.644-4.083 12.624-.434 9.709-.501 9.044.963 9.477.943.28 1.359.687 1.54 1.511.136.62.415 1.232.62 1.359.206.127.374 1.067.374 2.09 0 1.859 0 1.858-8.21 1.594-4.515-.146-10.562-.457-13.438-.693-2.877-.236-9.378-.47-14.448-.52-9.407-.092-10.036-.199-9.942-1.682.014-.222.117-.177.23.101.111.278.364.505.561.505.197 0 .261-.251.143-.56-.118-.307.357-1.807 1.056-3.334 3.625-7.918 4.504-12.335 2.482-12.48-.52-.037-1.097-.31-1.28-.608-.26-.418-2.563-.581-10.236-.723-9.902-.183-9.902-.183-10.946.861-1.298 1.298-1.332 2.573-.24 8.813.442 2.528.806 5.12.808 5.763.005 1.166.004 1.167-3.877.882-2.747-.202-3.8-.157-3.61.153.375.605 2.946 1.638 4.081 1.638 1.12 0 1.633.628.78.955-.838.321-.757 1.065.115 1.065.395 0 1.077.24 1.516.532.438.292 1.925.864 3.303 1.27 2.305.68 3.227.705 11.519.318 4.957-.232 9.74-.358 10.63-.282.889.077 8.437.417 16.773.756 8.336.34 16.43.716 17.986.837 1.556.12 5.102-.003 7.881-.273 4.676-.455 16.973-.728 16.975-.377 0 .085-.6.994-1.336 2.021-1.47 2.054-2.437 3.87-6.702 12.578-2.953 6.03-4.196 9.196-3.839 9.774.93 1.503 3.713-2.917 10.41-16.526.414-.844 1.642-2.666 2.727-4.051 2.294-2.925 2.44-3.674.787-4.005-.652-.13-1.274-.466-1.382-.746-.22-.573-8.763-1.667-10.469-1.341-.956.182-1.047.072-1.193-1.454-.086-.908.083-2.347.376-3.197.293-.85.423-1.722.289-1.938-.133-.216-.018-1.27.257-2.342.39-1.525.396-2.862.025-6.148-.805-7.14-2.212-10.382-5.637-12.994-1.294-.988-2.418-1.495-3.297-1.503zm50.477 8.124c.14.006.261.043.328.11.134.135-.104.23-.53.212-.471-.019-.567-.115-.244-.244.146-.058.306-.084.446-.078zm-1.203 3.588c.21 0 .493.182.63.404.137.222-.033.404-.38.404s-.63-.182-.63-.404c0-.222.171-.404.38-.404zM63.04 112.81c.346 0 .517.181.38.403-.138.223-.421.405-.63.405-.21 0-.381-.182-.381-.405 0-.222.284-.403.63-.403zm45.445.808a.405.405 0 1 0 .404.404.406.406 0 0 0-.404-.404zm59.458 18.063c1.448.042 5.437.947 14.304 3.202 7.753 1.972 8.715 2.288 9.083 2.985.422.8-.733 7.093-3.007 16.384-1.013 4.137-2.3 9.646-2.86 12.242-1.842 8.536-1.963 8.736-5.095 8.382-5.008-.567-19.871-4.927-20.632-6.053-.337-.498-.543-.312-.882.794-.303.988.158 1.604 2.577 3.446 2.73 2.079 2.803 2.137 6.073 4.888 4.071 3.426 6.558 6.185 6.385 7.084-.114.59-.964.856-4.58 1.43-4.476.712-13.275 1.88-22.225 2.954-5.703.683-5.449.67-5.484.285-.11-1.215.123-7.153.299-7.613.12-.314.568-.572.993-.572.703 0 .754-.228.55-2.473-.191-2.112-.134-2.439.395-2.236.39.15.62.01.62-.38 0-.339-.163-.516-.362-.393-.454.28-.941-.914-.599-1.468.146-.237.64.036 1.16.642 1.074 1.25 1.417 1.322 1.417.296 0-.418.293-1.002.65-1.298.655-.544.638-3.108-.04-5.623-.149-.556-.307-1.592-.351-2.303-.045-.71-.212-1.423-.372-1.583-.418-.418-.358-1.368.086-1.368.434 0 1.041 1.573.897 2.323-.053.278.093.506.325.506s.436-.136.453-.303c.208-2.027.158-3.22-.155-3.638-.242-.322-.212-.706.082-1.06.253-.305.347-.851.208-1.213-.31-.806.23-.847 1.258-.095.653.478.688.66.23 1.213-.357.43-.386.65-.086.65.25 0 .453-.176.453-.392 0-.215.277-.285.615-.155.503.192.43.421-.404 1.255-.56.56-1.02 1.176-1.02 1.368 0 .581.707.39.955-.258.286-.743 1.471-.808 1.471-.08 0 .289.227 1.015.505 1.614.59 1.27 2.054 1.464 3.202.425.694-.628.739-.616.739.202 0 .479.182.87.404.87.64 0 .475-.786-.43-2.056-.458-.644-.715-1.362-.571-1.596.144-.233.099-.644-.1-.912-.49-.658-.417-3.126.09-3.066.223.026.764.299 1.202.606.593.415.64.558.187.558-.336 0-.638.364-.671.808-.059.78-.028.784.89.102.723-.54.909-.996.778-1.92-.094-.667-.05-.94.096-.607.147.334.435.717.641.852.228.148.202.89-.065 1.88-.304 1.129-.312 1.971-.028 2.72.227.596.295 1.273.151 1.506-.148.239-.018.342.3.238.309-.102.617-.834.685-1.628.087-1.027.349-1.502.909-1.649 1.225-.32 1.035-2.146-.295-2.843-1.082-.567-1.082-.566-.202-1.037.733-.393.879-.364.879.178 0 .59.059.59.632.017.348-.347.524-.806.393-1.019-.132-.212.13-.584.58-.825 1.106-.592 1.033-1.15-.19-1.457-.556-.14-1.01-.503-1.01-.807 0-.812 1.89-1.912 2.852-1.66.688.18.747.116.346-.368-.267-.321-.368-.7-.225-.843.143-.143.26-.048.26.212 0 .259.272.47.606.47a.608.608 0 0 0 .606-.605.608.608 0 0 0-.606-.607c-.334 0-.607-.182-.607-.404 0-.222.163-.404.362-.404.375 0 .854-2.594.842-4.565-.006-1.024.073-1.088.844-.675.468.25.945.362 1.059.247.379-.378-.312-1.07-1.07-1.07-.664 0-.74-.349-.71-3.233.02-1.779.18-3.234.355-3.234s.217-.51.092-1.134c-.152-.762-.016-1.308.415-1.666.352-.293.64-.817.64-1.166 0-.538-.077-.528-.515.071-.522.714-2.127.534-1.68-.189.122-.199-.055-.361-.395-.361-.383 0-.53.23-.385.606.147.384-.006.606-.417.606-.918 0-.808-.519.381-1.802.73-.787 1.284-1.045 1.899-.884.478.125 1.081.05 1.34-.165.093-.076.291-.112.625-.103zm-.68 6.233a.499.499 0 0 0-.198.03c-.291.098-.61.416-.707.708-.1.303.05.454.354.353.292-.097.61-.416.707-.707.076-.228.01-.37-.156-.384zm-4.833 2.38c.362 0 .502.236.36.606-.127.333-.394.606-.592.606-.199 0-.362-.273-.362-.606 0-.334.268-.607.594-.607zm4.648 1.616c-.437 0-.795.273-.795.607 0 .333.253.606.563.606.31 0 .667-.273.795-.606.159-.413-.021-.607-.563-.607zm-3.262 2.807c.085-.01.183.03.286.132.134.134.167.473.074.754-.137.411-.232.41-.487-.001-.253-.41-.126-.859.127-.885zm-3.881 2.968c.206.005.47.043.79.115.723.162 1.533.297 1.802.3.268.004.58.25.694.546.218.569-.636.749-1.144.241-.164-.164-.512-.318-.774-.342a232.83 232.83 0 0 0-1.184-.107c-.39-.034-.708-.258-.708-.498 0-.177.18-.262.524-.255zm3.293 6.486c-.108.01-.18.098-.18.245 0 .235.183.428.405.428.223 0 .405-.08.405-.178 0-.098-.182-.291-.405-.428a.372.372 0 0 0-.225-.067zm-12.732 2.694c.235 0 .428.182.428.404 0 .222-.08.404-.179.404-.098 0-.29-.182-.428-.404-.137-.222-.057-.404.179-.404zm2.223.136a.369.369 0 0 1 .226.066c.222.137.404.33.404.428 0 .098-.182.178-.404.178a.418.418 0 0 1-.405-.428c0-.147.072-.234.18-.244zm.686 2.677c.384.035.61.696.633 1.936.02 1.056.1 2.17.179 2.475.185.723-.484.939-1.348.436-.77-.449-.935-3.464-.236-4.326.264-.325.497-.496.693-.52a.363.363 0 0 1 .079-.001zm9.06 3.041c-.296.045-.323.38.045.748.386.386.943.331.943-.092 0-.199-.273-.466-.606-.593a.778.778 0 0 0-.382-.063zm-13 2.788a.277.277 0 0 0-.158.048c-.222.137-.404.42-.404.63 0 .209.182.38.404.38.223 0 .404-.284.404-.63 0-.26-.102-.421-.247-.428zm.975 3.968c-.07.002-.19.115-.325.324-.215.333-.392.787-.392 1.01 0 .222.177.131.392-.202.216-.334.392-.789.392-1.01 0-.084-.025-.123-.067-.122zm-6.731 3.165c.33-.018.746.207.912.64.213.556.347.57.917.1.604-.498.621-.463.183.36-.266.5-.523.886-.571.859a59.992 59.992 0 0 0-.996-.5c-.5-.248-.91-.68-.91-.961 0-.323.207-.484.465-.498zm1.713 4.184a.275.275 0 0 0-.157.047c-.222.138-.404.422-.404.63 0 .21.182.38.404.38.223 0 .405-.283.405-.63 0-.259-.103-.42-.248-.427zM33.307 191.221c.223 0 .405.25.405.556 0 .306-.307.807-.682 1.112-.6.488-.65.466-.405-.186.153-.407.278-.907.278-1.111 0-.204.182-.371.404-.371zm95.487 8.487c1.726 0 1.733.003 1.112.405-.794.513-1.72.513-1.55 0 .075-.223.271-.405.438-.405zm9.35.405c.555 0 1.122.181 1.26.404.14.228-.19.404-.76.404-.556 0-1.124-.182-1.261-.404-.141-.229.19-.404.76-.404z"/></svg>