<svg xmlns="http://www.w3.org/2000/svg" width="32" height="32" viewBox="0 0 8.4666662 8.4666662"><path d="M.814 0A.814.814 0 0 0 0 .814v6.839c0 .45.364.814.814.814h6.839c.45 0 .814-.365.814-.814V.813A.814.814 0 0 0 7.653 0H.813zm.509.976h5.842a.32.32 0 0 1 .216.088l.01.006c.01.01.016.023.025.034.045.055.078.12.078.196v5.863a.3.3 0 0 1-.053.163.321.321 0 0 1-.277.164H1.303a.326.326 0 0 1-.326-.326V3.582H.98V1.3c0-.185.162-.324.344-.324z" clip-rule="evenodd" fill="#fff" fill-rule="evenodd" overflow="visible"/><path d="M.933 2.516L4.22 5.632l3.3-3.176M2.571 4.243L.681 6.211M5.9 4.243l1.89 1.968" fill="none" stroke="#fff" stroke-width=".8" stroke-linecap="square"/></svg>