<svg id="Layer_1" xmlns="http://www.w3.org/2000/svg" viewBox="0 0 398.57 114.53"><style>.st0{enable-background:new}.st1{fill:#fff}.st2{fill:none}</style><g id="Artwork"><g id="Horizontal_Version_1_"><g class="st0"><path class="st1" d="M290.1 73.35V53.26h3.84v16.86h8.74v3.22H290.1v.01zm15.45-17.14v-3.22H309v3.22h-3.45zm3.44 17.14h-3.45V58.88h3.45v14.47zm3.93-20.09h3.45v6.96h.05c.17-.22.39-.44.67-.64s.57-.37.9-.51c.33-.14.66-.26.99-.33.33-.09.65-.13.95-.13.93 0 1.76.2 2.48.62.72.4 1.33.95 1.82 1.62.49.67.86 1.43 1.11 2.28.26.85.37 1.72.37 2.62 0 1.13-.12 2.18-.36 3.14s-.61 1.8-1.09 2.5c-.48.7-1.09 1.26-1.81 1.66s-1.56.6-2.53.6c-.78 0-1.48-.16-2.09-.47-.62-.32-1.22-.77-1.84-1.36l-.39 1.55h-2.7V53.26h.02zm3.45 16.3c.18.15.36.3.51.45.16.15.33.29.53.4.19.12.43.22.68.31.26.09.57.13.95.13 1.04 0 1.84-.4 2.39-1.21.55-.81.83-1.98.83-3.52s-.28-2.71-.83-3.52c-.55-.81-1.35-1.21-2.39-1.21-.55 0-1.05.13-1.49.37-.44.26-.83.53-1.18.85v6.95zm11.8 3.79V58.88h3.17v2.48h.05c.43-.87.95-1.54 1.58-2 .63-.46 1.45-.71 2.49-.76v3.64c-.1-.02-.18-.03-.28-.03h-.33c-.43 0-.83.11-1.22.32-.39.21-.73.46-1.03.72-.3.27-.53.53-.71.78-.18.26-.27.43-.27.51v8.79h-3.45v.02zm16.86 0l-.22-1.26c-.7.48-1.4.86-2.1 1.13s-1.5.4-2.41.4c-.65 0-1.22-.11-1.71-.32-.49-.21-.89-.5-1.22-.86-.33-.36-.57-.77-.73-1.22-.17-.46-.26-.94-.26-1.44 0-1.65.68-2.93 2.03-3.82 1.35-.89 3.44-1.51 6.26-1.85v-1.22c0-.55-.2-.98-.6-1.28-.4-.3-.9-.45-1.51-.45-.82 0-1.47.18-1.95.54-.48.36-.89.78-1.22 1.23l-2.22-1.69c.22-.39.53-.75.92-1.07.39-.32.83-.61 1.32-.85.49-.24 1.01-.43 1.54-.55.53-.13 1.07-.18 1.62-.17.97.02 1.8.13 2.5.33s1.29.53 1.73.99c.46.46.79 1.05 1 1.8s.32 1.65.32 2.72v6.82c0 .37.02.73.05 1.09.03.35.11.69.22 1h-3.36zm-.36-6.93c-.57.11-1.15.23-1.72.36-.57.13-1.1.3-1.55.51-.47.21-.84.49-1.13.82-.29.33-.44.76-.44 1.26 0 .54.16.96.48 1.26s.71.45 1.19.45c.28 0 .56-.05.86-.15s.59-.22.86-.37c.28-.15.54-.32.8-.5.24-.18.47-.35.65-.5v-3.14zm6.67 6.93V58.88h3.17v2.48h.05c.43-.87.95-1.54 1.58-2 .63-.46 1.45-.71 2.49-.76v3.64c-.1-.02-.18-.03-.28-.03h-.33c-.43 0-.83.11-1.22.32-.39.21-.73.46-1.03.72-.3.27-.53.53-.71.78-.18.26-.27.43-.27.51v8.79h-3.45v.02zm9.86-17.14v-3.22h3.45v3.22h-3.45zm3.45 17.14h-3.45V58.88h3.45v14.47zm6.26-6.68c.04 1.5.34 2.58.92 3.21.57.64 1.27.96 2.09.96.8 0 1.43-.16 1.89-.49.47-.32.9-.73 1.33-1.23l2.5 1.55c-.67 1.04-1.5 1.79-2.49 2.26-.99.47-2.18.69-3.58.69-.95 0-1.8-.18-2.54-.53-.76-.35-1.39-.85-1.92-1.5s-.94-1.44-1.22-2.36c-.29-.93-.44-1.97-.44-3.12s.14-2.19.44-3.12c.29-.93.7-1.71 1.23-2.36.53-.65 1.19-1.15 1.98-1.5.78-.35 1.66-.53 2.64-.53.95 0 1.79.18 2.52.54.73.36 1.35.85 1.85 1.46s.88 1.32 1.14 2.13c.26.81.39 1.65.39 2.52v1.42h-8.74zm5.56-2.33c-.04-1-.3-1.78-.79-2.34-.49-.55-1.16-.83-1.99-.83-.84 0-1.5.28-1.99.83-.49.55-.76 1.33-.8 2.34h5.57zm13.05-1.65c-.35-.37-.76-.72-1.21-1.04-.46-.32-.95-.49-1.49-.49-.67 0-1.16.13-1.48.39-.32.27-.47.61-.47 1.03 0 .4.18.73.54.99.36.26.81.48 1.33.68.53.2 1.11.42 1.73.63.63.21 1.21.5 1.73.86.53.36.98.83 1.34 1.39.36.56.54 1.29.54 2.16 0 .76-.14 1.42-.4 1.95-.27.54-.64.99-1.12 1.35-.48.36-1.03.63-1.68.8s-1.35.26-2.12.26c-1.17 0-2.21-.26-3.13-.76-.92-.5-1.7-1.22-2.35-2.17L383.6 69c.4.55.88 1.04 1.44 1.46.54.42 1.19.63 1.94.63.62 0 1.11-.15 1.49-.46s.57-.7.57-1.18c0-.4-.18-.75-.54-1a5.9 5.9 0 0 0-1.33-.69c-.53-.2-1.11-.43-1.73-.65-.63-.23-1.21-.52-1.73-.87-.53-.35-.98-.8-1.34-1.33-.36-.53-.54-1.22-.54-2.05 0-.67.13-1.27.39-1.8.27-.53.62-.97 1.05-1.32.45-.35.96-.62 1.53-.81s1.18-.28 1.81-.28c.97 0 1.89.18 2.8.54.89.36 1.66.92 2.3 1.66l-2.19 1.84z"/></g><path id="Separator_5_" class="st1" d="M265.13 26.97h.71v76.04h-.71z"/><g id="SMU_Logo_5_"><path class="st1" d="M77.05 61.06c-.66-.32-.71-.5-.71-1.75 0-2.29.18-4.13.23-4.86.05-.5.15-.73.38-.73.29 0 .33.13.33.51 0 .42 0 1.04.15 1.69.73 3.41 3.9 4.68 7.14 4.68 4.62 0 6.89-3.17 6.89-6.11 0-3.17-1.39-4.99-5.55-8.25l-2.17-1.69c-5.1-3.98-6.26-6.84-6.26-9.94 0-4.92 3.85-8.25 9.97-8.25 1.87 0 3.27.18 4.48.45.92.18 1.3.23 1.69.23.38 0 .48.1.48.32 0 .23-.2 1.75-.2 4.86 0 .73-.1 1.04-.33 1.04-.29 0-.33-.23-.38-.6-.05-.54-.33-1.79-.63-2.29-.29-.5-1.6-2.43-6.02-2.43-3.32 0-5.93 1.98-5.93 5.31 0 2.62 1.34 4.18 5.88 7.71l1.34 1.01c5.69 4.27 7.04 7.1 7.04 10.77 0 1.87-.78 5.36-4.1 7.62-2.08 1.37-4.66 1.93-7.27 1.93-2.25-.01-4.46-.32-6.45-1.23zm63.32-4.83c.2 1.66.53 4.21 2.59 4.86 1.39.42 2.66.42 3.14.42.24 0 .38.05.38.23 0 .29-.44.42-1.01.42-1.06 0-6.26-.13-8.05-.29-1.1-.09-1.34-.21-1.34-.45 0-.18.1-.29.33-.32.24-.05.29-.83.2-1.64l-2.32-23.67h-.13l-11.8 23.85c-1.01 2.02-1.16 2.44-1.6 2.44-.33 0-.59-.47-1.49-2.11-1.25-2.25-5.4-10.2-5.63-10.64-.44-.83-5.82-11.84-6.35-13.08h-.2l-1.93 21.28c-.05.73-.05 1.56-.05 2.34 0 .7.53 1.28 1.25 1.43.81.18 1.54.23 1.83.23.2 0 .38.09.38.23 0 .32-.3.42-.88.42-1.78 0-4.1-.13-4.48-.13-.44 0-2.74.13-4.03.13-.48 0-.83-.1-.83-.42 0-.13.24-.23.48-.23.38 0 .71 0 1.45-.13 1.6-.29 1.75-2.05 1.93-3.8l3.47-29.91c.1-.5.23-.83.53-.83.29 0 .48.18.73.68l14.74 28.85 14.16-28.8c.2-.42.38-.73.73-.73.33 0 .48.36.59 1.22l3.21 28.15zm8.55-15.96c0-7.15 0-8.45-.1-9.91-.1-1.56-.48-2.29-2.05-2.61-.38-.1-1.21-.13-1.64-.13-.2 0-.38-.09-.38-.29 0-.27.24-.36.78-.36 2.17 0 5.11.13 5.55.13.44 0 3.32-.13 4.77-.13.53 0 .77.09.77.36 0 .18-.2.29-.38.29-.33 0-.63.05-1.21.13-1.3.18-1.68 1.01-1.78 2.61-.1 1.46-.1 2.76-.1 9.91v6.43c0 6.61 1.54 9.44 3.6 11.34 2.35 2.11 4.53 2.52 7.27 2.52 2.94 0 5.82-1.33 7.56-3.3 2.22-2.62 2.79-6.52 2.79-11.24v-5.73c0-7.15 0-8.45-.1-9.91-.1-1.56-.48-2.29-2.08-2.61-.38-.1-1.19-.13-1.63-.13-.2 0-.38-.09-.38-.29 0-.27.24-.36.77-.36 2.17 0 4.81.13 5.1.13.33 0 2.61-.13 4.06-.13.53 0 .78.09.78.36 0 .18-.2.29-.38.29-.33 0-.63 0-1.21.13-1.3.23-1.68 1.01-1.78 2.61-.1 1.46-.1 2.76-.1 9.91v4.92c0 4.96-.59 10.46-4.43 13.71-3.47 2.94-7.09 3.38-9.93 3.38-1.63 0-6.49-.18-9.91-3.26-2.35-2.16-4.2-5.36-4.2-12.05l-.03-6.72zM50.26 62.18l-9.65-8.83v-.01.01-.01.01l-9.64 8.83 9.62-3.11h.02zm-9.65-8.84l3.19-8.73 7.09-.85zm17.45-6.73l-7.17-2.85-.2-11.74zm-5.61-19.86h7.15l-8.91 5.27zM40.61 53.34l-3.19-8.73-7.08-.85zm-17.44-6.73l7.17-2.85.2-11.74zm5.61-19.86h-7.15l8.91 5.27zm36.4-17.54c-6.39 6.02-10.79 3.37-13.05 2.88-1.19-.48-2.67-.77-4.3-.77-3.9 0-7.07 1.66-7.07 3.71 0 .75.42 1.43 1.13 2.01.73-.68 1.86-1.22 3.22-1.54 1.37-.23 3.71-.44 6.49.29.24.06.51.15.8.21.33.1.63.18.89.23.12.03.21.05.35.06 7.24 1.61 11.59-2.02 11.59-2.02l-.05-5.06z"/><path class="st1" d="M39.97 72.48s-4.03-.02-6.01-.98c-3.57-1.72-4.27-7.02-4.71-11.4-.05-.48-3.38-1.52-4.96-2.99-2.58-2.35-2.17-9.7-2.17-10.17s-4.16-2.52-4.16-7.07c0-1.93.03-12.67.03-12.67-2.72-3.37-4.45-3.42-6.61-2.74-2.69.86-3.47 2.85-6.28 3.26l-.03 32.65c0 9.88 1.81 16.68 11.92 24.29 9.38 7.04 16.65 6.85 22.97 18.37.1.19.04-30.55.01-30.55zm36.57 8.13c-.18-.09-.21-.13-.21-.38 0-.6.05-1.27.05-1.43.02-.17.05-.29.13-.29.1 0 .12.1.12.18 0 .15.05.36.1.56.24.81.89 1.11 1.6 1.11 1 0 1.49-.66 1.49-1.25 0-.53-.17-1.04-1.1-1.75l-.51-.39c-1.22-.95-1.64-1.71-1.64-2.59 0-1.21 1.03-2.08 2.58-2.08.73 0 1.19.12 1.48.18.1.02.17.05.17.13 0 .15-.05.47-.05 1.31 0 .24-.03.33-.13.33-.09 0-.12-.06-.12-.2 0-.1-.06-.44-.3-.73-.17-.21-.5-.53-1.21-.53-.83 0-1.33.47-1.33 1.13 0 .5.27.88 1.18 1.58l.32.23c1.34 1.01 1.83 1.76 1.83 2.79 0 .63-.24 1.39-1.04 1.91-.54.35-1.18.45-1.76.45-.68.02-1.18-.06-1.65-.27zm7.15-4.96c0-1.66 0-1.98-.02-2.32-.03-.36-.13-.56-.38-.62-.12-.03-.27-.05-.39-.05s-.18-.02-.18-.12c0-.06.09-.09.27-.09.42 0 1.11.03 1.45.03.29 0 .93-.03 1.36-.03.15 0 .23.02.23.09 0 .09-.06.12-.18.12s-.2.02-.33.03c-.3.05-.38.24-.42.63-.02.35-.02.65-.02 2.32v1.93c0 1.06 0 1.93.05 2.39.03.3.12.5.45.53.15.02.39.05.56.05.12 0 .18.03.18.09 0 .09-.09.12-.21.12-.73 0-1.45-.03-1.75-.03-.24 0-.96.03-1.39.03-.15 0-.21-.03-.21-.12 0-.05.05-.09.18-.09.17 0 .3-.02.39-.05.21-.05.3-.23.32-.54.06-.45.06-1.33.06-2.39v-1.91h-.02zm5.69 3.6c.03.85.17 1.15.39 1.21.18.06.39.09.59.09.13 0 .2.02.2.09 0 .09-.1.12-.24.12-.73 0-1.16-.03-1.37-.03-.1 0-.62.03-1.19.03-.15 0-.24-.02-.24-.12 0-.06.06-.09.18-.09.15 0 .35-.02.5-.05.29-.09.33-.39.35-1.36l.1-6.47c0-.21.03-.38.15-.38s.23.15.42.33c.13.15 1.83 1.93 3.45 3.52.77.75 2.26 2.32 2.44 2.49h.05l-.12-4.92c-.02-.66-.12-.88-.38-.98-.17-.06-.44-.06-.59-.06-.13 0-.18-.03-.18-.1 0-.09.12-.1.29-.1.59 0 1.11.03 1.34.03.12 0 .54-.03 1.1-.03.15 0 .24.02.24.1 0 .06-.06.1-.2.1-.12 0-.2 0-.33.03-.32.09-.39.32-.42.93l-.12 6.91c0 .23-.05.33-.15.33-.12 0-.24-.12-.38-.24-.7-.66-2.13-2.1-3.29-3.22-1.21-1.18-2.46-2.55-2.66-2.76h-.03l.1 4.6zm16.67.77c0 .3-.02.32-.15.39-.73.36-1.81.5-2.67.5-2.72 0-5.14-1.27-5.14-4.3 0-1.75.93-2.97 1.93-3.59 1.06-.63 2.05-.71 2.99-.71.77 0 1.75.13 1.98.18s.63.12.88.12c.13.02.17.05.17.13 0 .12-.09.44-.09 1.79 0 .18-.03.23-.12.23s-.1-.05-.12-.15c-.03-.24-.09-.6-.38-.92-.33-.35-1.22-.85-2.47-.85-.62 0-1.43.05-2.2.68-.63.51-1.03 1.33-1.03 2.69 0 2.35 1.52 4.12 3.86 4.12.3 0 .68 0 .95-.12.17-.09.21-.21.21-.42v-1.01c0-.54 0-.96-.02-1.3-.02-.36-.12-.54-.48-.63-.1-.02-.29-.03-.44-.03-.1 0-.17-.02-.17-.09 0-.09.09-.12.23-.12.59 0 1.28.03 1.61.03.35 0 .93-.03 1.3-.03.15 0 .23.02.23.12 0 .06-.06.09-.15.09s-.17.02-.3.03c-.3.05-.42.24-.44.63V80c.02.02.03.02.03.02zm3.6-2.13c-.05 0-.09.02-.1.09l-.6 1.56c-.12.27-.17.53-.17.66 0 .2.1.33.45.33h.17c.13 0 .17.02.17.09 0 .09-.06.12-.2.12-.35 0-.83-.03-1.18-.03-.12 0-.73.03-1.31.03-.15 0-.21-.02-.21-.12 0-.06.05-.09.13-.09.1 0 .24-.02.35-.02.51-.06.73-.44.95-.98l2.79-6.88c.13-.32.2-.44.32-.44.1 0 .17.1.29.35.27.6 2.04 5.07 2.76 6.73.42.98.75 1.15.98 1.19.17.03.33.05.47.05.09 0 .15.02.15.09 0 .09-.1.12-.51.12-.39 0-1.21 0-2.11-.02-.2-.02-.33-.02-.33-.09 0-.06.05-.09.17-.1.09-.02.15-.12.1-.24l-.89-2.32c-.02-.05-.05-.09-.12-.09l-2.52.01zm2.27-.55c.05 0 .06-.03.05-.06l-1-2.7c-.02-.05-.02-.1-.06-.1-.03 0-.05.05-.06.1l-1.03 2.69c-.02.05 0 .09.05.09-.01-.02 2.05-.02 2.05-.02zm5.13-1.69c0-1.66 0-1.98-.02-2.32-.02-.36-.12-.54-.48-.63-.09-.02-.29-.03-.44-.03-.12 0-.18-.02-.18-.1 0-.09.06-.1.24-.1.59 0 1.3.03 1.61.03.45 0 1.1-.03 1.61-.03 1.39 0 1.89.47 2.08.63.24.23.54.73.54 1.3 0 1.56-1.16 2.66-2.74 2.66-.05 0-.18 0-.23-.02-.05-.02-.13-.02-.13-.1 0-.09.09-.12.32-.12.62 0 1.49-.7 1.49-1.81 0-.36-.03-1.1-.66-1.64a1.689 1.689 0 0 0-1.55-.39c-.05.02-.09.09-.09.2v4.39c0 1.01 0 1.87.05 2.34.03.32.1.54.44.6.15.02.39.05.56.05.12 0 .18.03.18.09 0 .09-.09.12-.21.12-.73 0-1.45-.03-1.72-.03-.24 0-.96.03-1.39.03-.15 0-.21-.03-.21-.12 0-.05.05-.09.18-.09.17 0 .3-.02.39-.05.21-.05.29-.29.32-.6.05-.47.05-1.33.05-2.32v-1.93h-.02l.01-.01zm6.12.96c0-1.87 1.27-4.28 4.6-4.28 2.77 0 4.5 1.6 4.5 4.1s-1.78 4.48-4.6 4.48c-3.2-.01-4.5-2.35-4.5-4.3zm7.54.2c0-2.46-1.45-3.97-3.26-3.97-1.28 0-2.74.7-2.74 3.42 0 2.28 1.28 4.09 3.42 4.09.77 0 2.58-.37 2.58-3.54zm3.94-1.16c0-1.66 0-1.98-.02-2.32-.03-.36-.12-.54-.48-.63-.09-.02-.29-.03-.44-.03-.12 0-.18-.02-.18-.1 0-.09.09-.1.24-.1.59 0 1.3.03 1.52.03.38 0 1.22-.03 1.56-.03.7 0 1.45.06 2.04.47.32.2.77.77.77 1.49 0 .81-.35 1.56-1.48 2.46 1 1.22 1.76 2.19 2.41 2.87.63.63 1.07.71 1.25.75.12.02.21.03.32.03.09 0 .13.03.13.09 0 .09-.09.12-.21.12h-1.06c-.63 0-.89-.05-1.19-.2-.48-.24-.89-.77-1.52-1.61-.45-.6-.96-1.34-1.1-1.51a.252.252 0 0 0-.2-.09l-.96-.02c-.05 0-.09.02-.09.09v.15c0 1.01 0 1.87.05 2.34.03.32.1.56.44.6.17.02.42.05.54.05.09 0 .13.03.13.09 0 .09-.09.12-.23.12-.65 0-1.46-.03-1.63-.03-.21 0-.92.03-1.36.03-.15 0-.21-.03-.21-.12 0-.05.05-.09.18-.09.17 0 .3-.02.39-.05.21-.05.29-.29.33-.6.05-.47.05-1.33.05-2.32.01-.02.01-1.93.01-1.93zm1.31.86c0 .12.02.17.1.2.23.09.56.12.85.12.45 0 .59-.05.8-.18.33-.24.66-.75.66-1.64 0-1.56-1.04-2.01-1.69-2.01-.29 0-.48.02-.6.05-.09.02-.1.06-.1.15v3.32h-.02v-.01z"/><path class="st1" d="M143.11 75.65c0-1.66 0-1.98-.02-2.32-.02-.36-.12-.54-.48-.63-.09-.02-.29-.03-.44-.03-.12 0-.18-.02-.18-.1 0-.09.09-.1.24-.1.3 0 .62.02.89.02.3.02.54.02.69.02.36 0 2.58 0 2.79-.02s.38-.05.48-.06c.05-.02.12-.05.18-.05.05 0 .06.05.06.1 0 .09-.05.21-.09.71-.02.12-.03.6-.05.73-.02.05-.03.12-.12.12s-.1-.05-.1-.15c0-.09-.02-.27-.06-.39-.09-.2-.18-.33-.75-.39-.2-.02-1.36-.05-1.58-.05-.05 0-.09.03-.09.12v2.77c0 .09.02.12.09.12.24 0 1.52 0 1.78-.02.27-.02.44-.05.53-.17.09-.09.12-.15.18-.15.05 0 .09.02.09.09 0 .06-.06.23-.1.8-.02.21-.05.66-.05.73 0 .09 0 .2-.1.2-.09 0-.1-.05-.1-.1-.02-.12-.02-.24-.05-.39-.05-.21-.21-.38-.63-.44-.21-.02-1.31-.03-1.58-.03-.05 0-.06.05-.06.12v.86c0 .36-.02 1.37 0 1.69.02.75.2.92 1.34.92.29 0 .75 0 1.04-.13.29-.13.42-.36.5-.81.02-.12.05-.17.12-.17.09 0 .09.09.09.2 0 .24-.09 1-.15 1.21-.09.29-.18.29-.6.29-.83 0-1.45-.02-1.93-.03-.48-.02-.83-.03-1.16-.03-.12 0-.36.02-.63.02-.24.02-.54.02-.77.02-.15 0-.21-.03-.21-.12 0-.05.05-.09.18-.09.17 0 .3-.02.39-.05.21-.05.29-.29.32-.6.05-.47.05-1.33.05-2.32v-1.92h.05zM154 72.51c.03-.18.1-.29.18-.29.09 0 .15.05.3.33l3.03 6.17 3.02-6.24c.09-.18.15-.27.24-.27s.17.12.2.33l1.01 6.76c.1.68.21 1.01.54 1.1.33.1.54.12.7.12.1 0 .18.02.18.09 0 .09-.13.12-.29.12-.29 0-1.81-.03-2.26-.06-.24-.02-.33-.05-.33-.12 0-.05.05-.1.12-.12s.1-.17.05-.47l-.66-4.81H160l-2.43 4.96c-.24.51-.32.62-.42.62-.1 0-.21-.21-.38-.54-.27-.5-1.15-2.17-1.28-2.49-.1-.23-.77-1.61-1.16-2.43h-.05l-.56 4.35c-.02.2-.03.33-.03.51 0 .21.15.3.33.35.2.05.36.05.47.05.09 0 .17.02.17.09 0 .1-.1.12-.27.12-.47 0-.96-.03-1.16-.03-.21 0-.75.03-1.1.03-.12 0-.2-.02-.2-.12 0-.05.06-.09.18-.09.09 0 .17 0 .33-.03.32-.06.39-.5.47-.86l1.09-7.13z"/><path class="st1" d="M165.8 77.89c-.06 0-.09.02-.1.09l-.6 1.56c-.12.27-.17.53-.17.66 0 .2.1.33.45.33h.17c.13 0 .17.02.17.09 0 .09-.06.12-.2.12-.35 0-.83-.03-1.18-.03-.12 0-.73.03-1.31.03-.15 0-.21-.02-.21-.12 0-.06.05-.09.13-.09.1 0 .24-.02.35-.02.51-.06.73-.44.95-.98l2.79-6.88c.13-.32.2-.44.32-.44.1 0 .17.1.29.35.27.6 2.04 5.07 2.76 6.73.44.98.75 1.15.98 1.19.17.03.33.05.47.05.09 0 .15.02.15.09 0 .09-.1.12-.51.12-.39 0-1.21 0-2.11-.02-.2-.02-.33-.02-.33-.09 0-.06.05-.09.17-.1.09-.02.15-.12.1-.24l-.89-2.32c-.02-.05-.06-.09-.12-.09l-2.52.01zm2.26-.55c.05 0 .06-.03.05-.06l-1-2.7c-.02-.05-.03-.1-.06-.1s-.05.05-.06.1l-1.03 2.69c-.02.05 0 .09.05.09-.01-.02 2.05-.02 2.05-.02z"/><path class="st1" d="M173.81 79.25c.02.85.17 1.15.38 1.21.18.06.39.09.59.09.12 0 .18.02.18.09 0 .09-.1.12-.24.12-.73 0-1.16-.03-1.37-.03-.1 0-.63.03-1.19.03-.15 0-.24-.02-.24-.12 0-.06.06-.09.18-.09.15 0 .35-.02.5-.05.29-.09.33-.39.35-1.36l.1-6.47c0-.21.03-.38.15-.38s.23.15.42.33c.13.15 1.83 1.93 3.45 3.52.77.75 2.26 2.32 2.46 2.49h.05l-.12-4.92c-.02-.66-.12-.88-.38-.98-.17-.06-.44-.06-.59-.06-.13 0-.18-.03-.18-.1 0-.09.13-.1.3-.1.59 0 1.11.03 1.34.03.12 0 .54-.03 1.1-.03.15 0 .24.02.24.1 0 .06-.06.1-.2.1-.12 0-.2 0-.33.03-.32.09-.39.32-.42.93l-.12 6.91c0 .23-.05.33-.15.33-.12 0-.27-.12-.38-.24-.7-.66-2.13-2.1-3.29-3.22-1.21-1.18-2.44-2.55-2.66-2.76h-.03l.1 4.6zm10.41-1.36c-.05 0-.09.02-.1.09l-.6 1.56c-.12.27-.17.53-.17.66 0 .2.1.33.45.33h.17c.13 0 .17.02.17.09 0 .09-.06.12-.18.12-.36 0-.83-.03-1.18-.03-.12 0-.73.03-1.31.03-.15 0-.21-.02-.21-.12 0-.06.05-.09.13-.09.1 0 .24-.02.35-.02.51-.06.73-.44.95-.98l2.79-6.88c.13-.32.2-.44.32-.44.1 0 .17.1.29.35.27.6 2.04 5.07 2.76 6.73.42.98.75 1.15.98 1.19.17.03.33.05.47.05.09 0 .15.02.15.09 0 .09-.1.12-.51.12-.39 0-1.21 0-2.11-.02-.2-.02-.33-.02-.33-.09 0-.06.05-.09.15-.1.09-.02.15-.12.1-.24l-.89-2.32c-.03-.05-.05-.09-.12-.09l-2.52.01zm2.28-.55c.05 0 .06-.03.05-.06l-1-2.7c-.02-.05-.02-.1-.05-.1-.03 0-.05.05-.06.1l-1.03 2.69c-.02.05 0 .09.05.09 0-.02 2.04-.02 2.04-.02zm11.87 2.68c0 .3-.02.32-.15.39-.73.36-1.81.5-2.69.5-2.72 0-5.14-1.27-5.14-4.3 0-1.75.93-2.97 1.94-3.59 1.06-.63 2.05-.71 2.99-.71.77 0 1.75.13 1.96.18.23.05.63.12.88.12.13.02.15.05.15.13 0 .12-.09.44-.09 1.79 0 .18-.03.23-.12.23s-.1-.05-.12-.15c-.03-.24-.09-.6-.38-.92-.33-.35-1.22-.85-2.47-.85-.62 0-1.43.05-2.2.68-.63.51-1.03 1.33-1.03 2.69 0 2.35 1.52 4.12 3.86 4.12.29 0 .68 0 .95-.12.17-.09.21-.21.21-.42v-2.31c-.02-.36-.12-.54-.48-.63-.09-.02-.29-.03-.44-.03-.1 0-.17-.02-.17-.09 0-.09.09-.12.23-.12.59 0 1.28.03 1.61.03.35 0 .93-.03 1.31-.03.15 0 .21.02.21.12 0 .06-.06.09-.15.09s-.17.02-.3.03c-.3.05-.42.24-.42.63-.02.33-.02.77-.02 1.31V80c.02.02.07.02.07.02zm3.17-4.37c0-1.66 0-1.98-.02-2.32-.02-.36-.12-.54-.48-.63-.09-.02-.29-.03-.44-.03-.12 0-.18-.02-.18-.1 0-.09.09-.1.24-.1.3 0 .62.02.89.02.3.02.54.02.7.02.36 0 2.58 0 2.79-.02s.38-.05.48-.06c.05-.02.12-.05.18-.05s.06.05.06.1c0 .09-.06.21-.09.71-.02.12-.03.6-.06.73-.02.05-.03.12-.12.12s-.1-.05-.1-.15c0-.09-.02-.27-.06-.39-.09-.2-.18-.33-.75-.39-.18-.02-1.36-.05-1.58-.05-.05 0-.09.03-.09.12v2.77c0 .09.02.12.09.12.24 0 1.52 0 1.78-.02.27-.02.44-.05.53-.17.09-.09.12-.15.18-.15.05 0 .09.02.09.09 0 .06-.05.23-.09.8-.02.21-.05.66-.05.73 0 .09 0 .2-.1.2-.09 0-.1-.05-.1-.1-.02-.12-.02-.24-.05-.39-.05-.21-.21-.38-.63-.44-.21-.02-1.31-.03-1.58-.03-.05 0-.06.05-.06.12v.86c0 .36-.02 1.37 0 1.69.03.75.2.92 1.33.92.3 0 .77 0 1.04-.13.29-.13.42-.36.5-.81.03-.12.05-.17.12-.17.09 0 .09.09.09.2 0 .24-.09 1-.15 1.21-.06.29-.18.29-.6.29-.83 0-1.45-.02-1.93-.03-.48-.02-.81-.03-1.16-.03-.12 0-.36.02-.63.02-.24.02-.54.02-.77.02-.15 0-.21-.03-.21-.12 0-.05.05-.09.18-.09.17 0 .3-.02.39-.05.21-.05.29-.29.32-.6.05-.47.05-1.33.05-2.32V75.7l.05-.05zm7.48-3.14c.03-.18.1-.29.2-.29.09 0 .15.05.3.33l3.03 6.17 3.02-6.24c.09-.18.15-.27.24-.27s.17.12.2.33l1.01 6.76c.1.68.21 1.01.54 1.1.32.1.54.12.7.12.1 0 .18.02.18.09 0 .09-.13.12-.29.12-.29 0-1.81-.03-2.26-.06-.24-.02-.32-.05-.32-.12 0-.05.05-.1.12-.12.06-.02.1-.17.05-.47l-.66-4.81h-.03l-2.43 4.96c-.27.51-.32.62-.42.62-.1 0-.21-.21-.38-.54-.27-.5-1.15-2.17-1.28-2.49-.1-.23-.77-1.61-1.16-2.43h-.05l-.59 4.35c-.03.2-.03.33-.03.51 0 .21.15.3.33.35.2.05.35.05.47.05.09 0 .17.02.17.09 0 .1-.1.12-.27.12-.47 0-.96-.03-1.16-.03-.21 0-.75.03-1.1.03-.12 0-.2-.02-.2-.12 0-.05.06-.09.18-.09.09 0 .17 0 .33-.03.32-.06.39-.5.45-.86l1.11-7.13zm11.26 3.14c0-1.66 0-1.98-.03-2.32-.02-.36-.12-.54-.48-.63-.09-.02-.29-.03-.44-.03-.12 0-.2-.02-.2-.1 0-.09.09-.1.24-.1.3 0 .63.02.89.02.29.02.54.02.69.02.35 0 2.58 0 2.79-.02s.38-.05.48-.06c.05-.02.12-.05.18-.05.05 0 .06.05.06.1 0 .09-.05.21-.1.71-.02.12-.03.6-.05.73-.02.05-.03.12-.12.12s-.1-.05-.1-.15c0-.09-.02-.27-.06-.39-.09-.2-.2-.33-.75-.39-.2-.02-1.36-.05-1.58-.05-.06 0-.09.03-.09.12v2.77c0 .09.02.12.09.12.24 0 1.52 0 1.78-.02.27-.02.44-.05.53-.17.09-.09.12-.15.18-.15.05 0 .09.02.09.09 0 .06-.05.23-.09.8-.02.21-.05.66-.05.73 0 .09 0 .2-.1.2-.09 0-.1-.05-.1-.1-.02-.12-.02-.24-.05-.39-.06-.21-.21-.38-.63-.44-.21-.02-1.31-.03-1.58-.03-.06 0-.06.05-.06.12v.86c0 .36-.02 1.37 0 1.69.02.75.2.92 1.33.92.29 0 .77 0 1.04-.13.29-.13.42-.36.5-.81.02-.12.05-.17.12-.17.09 0 .09.09.09.2 0 .24-.09 1-.15 1.21-.09.29-.18.29-.6.29-.83 0-1.45-.02-1.93-.03-.48-.02-.83-.03-1.16-.03-.12 0-.36.02-.63.02-.24.02-.54.02-.77.02-.15 0-.21-.03-.21-.12 0-.05.05-.09.18-.09.17 0 .3-.02.39-.05.21-.05.29-.29.33-.6.05-.47.05-1.33.05-2.32V75.7h.03v-.05zm7.7 3.6c.03.85.17 1.15.38 1.21.18.06.39.09.59.09.12 0 .2.02.2.09 0 .09-.1.12-.27.12-.73 0-1.16-.03-1.37-.03-.1 0-.63.03-1.19.03-.15 0-.24-.02-.24-.12 0-.06.06-.09.18-.09.15 0 .35-.02.5-.05.29-.09.33-.39.35-1.36l.1-6.47c0-.21.03-.38.15-.38s.21.15.42.33c.13.15 1.83 1.93 3.45 3.52.75.75 2.26 2.32 2.44 2.49h.06l-.12-4.92c-.02-.66-.12-.88-.38-.98-.17-.06-.44-.06-.6-.06-.13 0-.18-.03-.18-.1 0-.09.12-.1.29-.1.59 0 1.11.03 1.34.03.12 0 .54-.03 1.07-.03.15 0 .24.02.24.1 0 .06-.06.1-.2.1-.12 0-.2 0-.33.03-.32.09-.39.32-.42.93l-.12 6.91c0 .23-.05.33-.15.33-.12 0-.24-.12-.38-.24-.7-.66-2.13-2.1-3.29-3.22-1.21-1.18-2.44-2.55-2.66-2.76h-.03l.17 4.6zm11.45-6.15l-1.66.05c-.65.02-.92.09-1.07.32-.12.17-.17.3-.18.38-.02.09-.05.13-.12.13-.09 0-.1-.05-.1-.18 0-.18.21-1.18.23-1.27.03-.15.06-.2.13-.2.09 0 .2.12.48.13.32.03.75.05 1.11.05h4.4c.35 0 .6-.03.77-.05.17-.03.24-.05.3-.05s.09.06.09.23c0 .23-.03.98-.03 1.27-.02.12-.03.18-.1.18-.09 0-.12-.05-.12-.21l-.02-.12c-.02-.29-.32-.59-1.31-.62l-1.42-.03v4.48c0 1.01 0 1.87.05 2.34.03.32.1.54.44.6.17.02.39.05.56.05.12 0 .18.03.18.09 0 .09-.09.12-.21.12-.73 0-1.45-.03-1.75-.03-.27 0-.96.03-1.42.03-.15 0-.21-.03-.21-.12 0-.05.05-.09.18-.09.17 0 .3-.02.39-.05.21-.05.29-.29.32-.6.06-.47.06-1.33.06-2.32V73.1h.03zM76.66 88.7c0-1.66 0-1.98-.03-2.32-.02-.36-.12-.54-.48-.62-.09-.02-.29-.03-.44-.03-.12 0-.2-.02-.2-.1 0-.09.09-.1.24-.1.6 0 1.3.03 1.63.03.27 0 .96-.03 1.36-.03.17 0 .24.02.24.1 0 .09-.06.1-.18.1s-.18.02-.32.03c-.3.05-.38.24-.42.62-.03.35-.03.66-.03 2.32v1.52c0 1.6.32 2.26.86 2.69.5.39 1.01.45 1.39.45.48 0 1.1-.15 1.52-.6.62-.6.65-1.6.65-2.7V88.7c0-1.66 0-1.98-.03-2.32-.02-.36-.12-.54-.48-.62-.09-.02-.29-.03-.39-.03s-.18-.02-.18-.1c0-.09.09-.1.23-.1.56 0 1.27.03 1.28.03.13 0 .83-.03 1.27-.03.15 0 .23.02.23.1 0 .09-.06.1-.2.1-.12 0-.2.02-.33.03-.3.05-.38.24-.42.62-.02.35-.02.66-.02 2.32v1.18c0 1.21-.12 2.5-1.06 3.29-.8.66-1.6.8-2.32.8-.59 0-1.66-.03-2.47-.77-.56-.5-.98-1.31-.98-2.91v-1.6c.02.01.08.01.08.01zm10.65 3.62c.02.85.17 1.15.38 1.21.18.06.39.09.59.09.12 0 .2.02.2.09 0 .09-.1.12-.27.12-.73 0-1.16-.03-1.37-.03-.1 0-.63.03-1.19.03-.15 0-.24-.02-.24-.12 0-.06.06-.09.18-.09.15 0 .35 0 .5-.05.3-.09.33-.39.35-1.36l.1-6.47c0-.21.03-.36.15-.36s.21.15.42.33c.13.15 1.83 1.93 3.45 3.52.77.75 2.26 2.32 2.44 2.49h.06l-.12-4.92c-.02-.66-.12-.88-.38-.98-.17-.06-.44-.06-.6-.06-.13 0-.18-.03-.18-.1 0-.09.12-.1.29-.1.59 0 1.11.03 1.34.03.12 0 .54-.03 1.1-.03.15 0 .24.02.24.1 0 .06-.06.1-.2.1-.12 0-.2 0-.33.03-.32.09-.39.32-.42.93l-.12 6.91c0 .23-.05.33-.15.33-.12 0-.24-.12-.38-.24-.7-.66-2.13-2.1-3.29-3.22-1.21-1.18-2.44-2.55-2.64-2.76h-.03l.12 4.58zm9.96-3.62c0-1.66 0-1.98-.02-2.32-.02-.36-.13-.56-.38-.62-.12-.03-.27-.05-.39-.05s-.18-.02-.18-.12c0-.06.09-.09.27-.09.42 0 1.13.03 1.45.03.29 0 .93-.03 1.36-.03.15 0 .23.02.23.09 0 .09-.06.12-.18.12s-.2.02-.33.03c-.3.05-.38.24-.42.62-.03.35-.03.66-.03 2.32v1.93c0 1.06 0 1.93.05 2.39.03.3.12.5.45.53.15.02.39.03.56.03.12 0 .18.03.18.09 0 .09-.09.12-.21.12-.73 0-1.45-.03-1.75-.03-.24 0-.95.03-1.39.03-.15 0-.23-.03-.23-.12 0-.05.05-.09.18-.09.17 0 .3-.02.39-.03.21-.05.29-.23.32-.54.05-.47.05-1.33.05-2.39v-1.9h.02zm4.06-2.1c-.24-.6-.45-.73-.85-.83-.17-.05-.35-.05-.44-.05-.1 0-.13-.03-.13-.1 0-.09.12-.1.29-.1.6 0 1.22.03 1.61.03.29 0 .81-.03 1.37-.03.13 0 .24.02.24.1 0 .09-.06.1-.17.1-.18 0-.35.02-.44.09-.09.05-.12.13-.12.23 0 .15.1.45.27.85l1.91 4.96h.05c.48-1.19 1.93-4.73 2.19-5.45.05-.13.1-.3.1-.39 0-.09-.05-.18-.15-.2-.13-.05-.3-.05-.45-.05-.1 0-.18-.02-.18-.09 0-.09.1-.12.32-.12.56 0 1.03.03 1.18.03.18 0 .71-.03 1.04-.03.15 0 .23.02.23.1 0 .09-.06.1-.18.1s-.35 0-.54.13c-.15.1-.32.29-.62.98-.44 1.03-.73 1.63-1.33 2.97-.71 1.6-1.25 2.79-1.48 3.33-.3.63-.35.81-.51.81-.15 0-.21-.15-.42-.66l-2.79-6.71zm9.14 2.1c0-1.66 0-1.98-.02-2.32-.02-.36-.12-.54-.48-.62-.09-.02-.29-.03-.44-.03-.12 0-.18-.02-.18-.1 0-.09.09-.1.24-.1.3 0 .63.02.89.02.3.02.54.02.7.02.36 0 2.58 0 2.79-.02.21-.02.38-.05.48-.06.05-.02.12-.05.18-.05.05 0 .06.05.06.1 0 .09-.05.21-.09.71-.02.12-.03.6-.05.73-.02.05-.03.12-.12.12s-.1-.05-.1-.15c0-.09-.02-.27-.06-.39-.09-.2-.2-.33-.75-.39-.18-.02-1.36-.05-1.58-.05-.05 0-.09.03-.09.12V89c0 .09.02.12.09.12.24 0 1.52 0 1.78-.02.27-.02.44-.05.53-.17.09-.09.12-.15.18-.15.05 0 .09.02.09.09 0 .06-.05.23-.09.8-.02.21-.05.66-.05.73 0 .09 0 .2-.1.2-.09 0-.1-.05-.1-.1-.02-.12-.02-.24-.05-.39-.05-.21-.21-.38-.62-.44-.21-.02-1.31-.03-1.58-.03-.05 0-.06.05-.06.12v2.55c.02.77.2.92 1.33.92.29 0 .77 0 1.04-.13.29-.13.42-.36.5-.81.03-.12.05-.17.12-.17.09 0 .09.09.09.2 0 .24-.09 1-.15 1.21-.09.29-.18.29-.6.29-.83 0-1.45-.02-1.93-.03-.48-.02-.83-.03-1.16-.03-.12 0-.36.02-.63.02-.24.02-.54.02-.77.02-.15 0-.21-.03-.21-.12 0-.05.05-.09.18-.09.17 0 .3-.02.39-.03.21-.05.29-.29.32-.6.05-.47.05-1.33.05-2.32v-1.89h-.02l.05-.05zm7.07 0c0-1.66 0-1.98-.02-2.32-.03-.36-.12-.54-.48-.62-.09-.02-.29-.03-.44-.03-.12 0-.2-.02-.2-.1 0-.09.09-.1.24-.1.6 0 1.3.03 1.52.03.38 0 1.22-.03 1.58-.03.7 0 1.45.06 2.04.47.32.2.77.77.77 1.49 0 .81-.35 1.56-1.48 2.46 1 1.22 1.76 2.2 2.43 2.87.62.63 1.07.71 1.25.75.12.02.21.03.32.03.09 0 .13.03.13.09 0 .09-.09.12-.21.12h-1.06c-.62 0-.89-.05-1.19-.2-.48-.24-.89-.77-1.52-1.61-.45-.6-.96-1.34-1.1-1.51a.252.252 0 0 0-.2-.09l-.96-.02c-.05 0-.09.02-.09.09v.15c0 1.01 0 1.87.05 2.34.03.32.1.56.44.6.17.02.42.03.54.03.09 0 .13.03.13.09 0 .09-.09.12-.21.12-.65 0-1.46-.03-1.64-.03-.21 0-.92.03-1.36.03-.15 0-.21-.03-.21-.12 0-.05.05-.09.18-.09.17 0 .3-.02.39-.03.21-.05.29-.29.32-.6.05-.47.05-1.33.05-2.32l-.01-1.94zm1.32.87c0 .12.02.17.1.2.23.09.56.12.85.12.45 0 .59-.05.8-.18.33-.24.66-.75.66-1.64 0-1.56-1.04-2.01-1.71-2.01-.29 0-.48.02-.6.05-.09.02-.1.06-.1.15v3.31z"/><path class="st1" d="M125.22 93.68c-.18-.06-.21-.13-.21-.36 0-.6.05-1.27.05-1.43.02-.17.05-.29.13-.29.1 0 .12.1.12.18 0 .15.05.36.1.56.24.81.89 1.11 1.6 1.11 1 0 1.49-.66 1.49-1.25 0-.53-.17-1.04-1.1-1.75l-.51-.39c-1.22-.95-1.64-1.71-1.64-2.59 0-1.21 1.03-2.08 2.58-2.08.73 0 1.19.12 1.48.18.1.02.15.05.15.13 0 .15-.05.47-.05 1.31 0 .23-.03.33-.12.33-.06 0-.12-.06-.12-.2 0-.1-.06-.44-.29-.73-.17-.21-.5-.53-1.21-.53-.83 0-1.33.47-1.33 1.13 0 .5.24.88 1.18 1.58l.32.23c1.34 1.01 1.83 1.75 1.83 2.79 0 .63-.24 1.39-1.04 1.91-.56.35-1.18.45-1.78.45-.63-.01-1.15-.1-1.63-.29zm7.15-4.98c0-1.66 0-1.98-.02-2.32-.02-.36-.13-.56-.38-.62-.12-.03-.27-.05-.39-.05s-.18-.02-.18-.12c0-.06.09-.09.27-.09.42 0 1.13.03 1.45.03.29 0 .93-.03 1.36-.03.15 0 .23.02.23.09 0 .09-.06.12-.18.12s-.2.02-.33.03c-.3.05-.38.24-.42.62-.02.35-.02.66-.02 2.32v1.93c0 1.06 0 1.93.05 2.39.03.3.12.5.45.53.15.02.39.03.56.03.12 0 .18.03.18.09 0 .09-.09.12-.21.12-.73 0-1.45-.03-1.72-.03s-.96.03-1.42.03c-.15 0-.21-.03-.21-.12 0-.05.05-.09.18-.09.17 0 .3-.02.39-.03.21-.05.29-.23.32-.54.05-.47.05-1.33.05-2.39v-1.9h-.01zm6.56-2.55l-1.66.05c-.65.02-.92.09-1.07.32-.12.17-.17.3-.18.38-.03.09-.06.13-.12.13-.09 0-.1-.05-.1-.18 0-.18.21-1.18.23-1.27.03-.13.06-.21.13-.21.09 0 .2.12.48.13.32.03.75.05 1.11.05h4.4c.35 0 .6-.03.77-.05.17-.03.24-.05.3-.05.09 0 .09.06.09.23 0 .23-.03.98-.03 1.28-.02.12-.03.18-.1.18-.09 0-.12-.05-.12-.21l-.02-.12c-.02-.29-.33-.6-1.31-.62l-1.42-.03v4.48c0 1.01 0 1.87.05 2.34.03.32.1.54.44.6.15.02.39.03.56.03.12 0 .18.03.18.09 0 .09-.09.12-.21.12-.73 0-1.45-.03-1.75-.03-.24 0-.95.03-1.39.03-.15 0-.21-.03-.21-.12 0-.05.05-.09.18-.09.17 0 .3-.02.39-.03.23-.05.29-.29.32-.6.06-.47.06-1.33.06-2.32v-4.51z"/><path class="st1" d="M146.7 90.97c0-.6-.12-.83-.24-1.15-.09-.18-1.58-2.59-1.96-3.15-.29-.39-.54-.68-.77-.8a.994.994 0 0 0-.47-.15c-.09 0-.17-.02-.17-.1 0-.06.09-.1.21-.1.2 0 1.03.03 1.42.03.23 0 .7-.03 1.19-.03.12 0 .17.03.17.1s-.09.09-.24.12c-.1.02-.15.12-.15.2 0 .09.06.21.13.36.17.33 1.71 2.97 1.89 3.27.12-.27 1.51-2.67 1.66-3 .12-.23.15-.44.15-.56 0-.12-.05-.23-.23-.29-.1-.02-.2-.05-.2-.12 0-.09.05-.1.18-.1.36 0 .73.03 1.04.03.24 0 .98-.03 1.19-.03.12 0 .2.02.2.09 0 .09-.09.12-.21.12s-.33.05-.5.13c-.23.12-.35.23-.6.53-.36.44-1.93 3-2.13 3.49-.17.39-.17.73-.17 1.1v.89c0 .18 0 .63.03 1.1.02.32.12.56.45.6.15.02.39.03.54.03.12 0 .18.03.18.09 0 .09-.09.12-.23.12-.7 0-1.39-.03-1.71-.03-.29 0-.98.03-1.39.03-.15 0-.24-.02-.24-.12 0-.05.05-.09.18-.09.17 0 .3-.02.39-.03.21-.05.32-.29.35-.6.03-.47.03-.92.03-1.1.03 0 .03-.88.03-.88z"/></g><path class="st2" d="M-37.78-35.85h481v190.11h-481z"/></g></g></svg>