<svg xmlns="http://www.w3.org/2000/svg" width="14" height="14" viewBox="0 0 3.7041668 3.7041667"><g fill="#fff"><path d="M1.42.032c-.137.16-.328.279-.423.47-.056.14.02.339-.034.456C.884.802.93.58.853.448.707.593.53.717.421.896c-.033.225-.227.38-.306.587-.095.2.086.446-.072.622-.02.177.035.367.03.551.027.26.042.57.27.743.139.118.263.297.472.215.485-.021.97.027 1.454.036.158.077.294-.06.258-.21.14-.147.424-.033.543-.183-.043-.096-.044-.216.094-.136.193-.055.115-.336.2-.485.092-.167-.024-.301-.198-.303-.086-.075.199.047.242-.042.18-.125.168-.457-.092-.46-.078-.037-.275-.134-.064-.119.113.044.225.081.282-.014.044-.072.119-.153.13-.3-.022-.214-.34-.215-.521-.308-.206-.065-.416-.113-.62-.184-.108-.05.186-.042.245-.079.295-.076.591-.148.887-.223-.106-.08-.284-.069-.35-.12C2.948.377 2.593.267 2.232.178c-.17.112-.316.256-.468.39-.046.052-.228.244-.2.181.16-.189.305-.394.456-.587-.082-.171-.37-.079-.535-.127L1.452.034zM.53 1.06c.123.006.394.151.299.278-.1-.07-.24-.116-.178.066.202-.017.417-.14.637-.135.24-.026.48.012.713.062.168.018.375-.343.478-.115.02.192.068.38.066.574-.014.514-.08 1.029-.067 1.543.026.181-.158.14-.249.119-.06.143-.303.007-.436.042C1.347 3.472.9 3.447.451 3.449a.905.905 0 0 1-.028-.37c.01-.469.03-.939.018-1.408.035-.198.038-.405.071-.598z"/><path d="M2.338 1.31c-.09.012-.234.162-.058.167.154.133.109-.097.058-.166zm-.39.394c-.122.122-.147.373.004.479.2.005.18-.285.098-.408a.175.175 0 0 0-.102-.07zm-1.002.152c-.227-.065-.21.302-.033.3l.214.007c.068-.11.137-.359-.084-.302a1.268 1.268 0 0 0-.097-.005zm.482.504c-.186.02-.407.032-.54.177-.055.214.19.383.37.44.218-.025.194.284-.008.239-.148-.01-.258-.174-.344-.23.008.19.204.373.395.295.18-.08.334.103.509.052.107.028.284-.224.116-.16-.122.108-.521.118-.399-.122.178-.09.398-.115.52-.298.175-.253-.253-.323-.421-.373a.947.947 0 0 0-.198-.02z"/></g></svg>