<svg xmlns="http://www.w3.org/2000/svg" width="800" height="800" viewBox="0 0 211.66666 211.66666"><g fill="#fff"><path d="M81.188 2.234c-7.762 9.054-18.604 15.87-24.025 26.715C53.989 37 58.3 48.269 55.215 54.967c-4.472-8.91-1.82-21.553-6.29-29.05-8.239 8.26-18.335 15.287-24.506 25.466-1.873 12.811-12.92 21.628-17.402 33.429-5.42 11.431 4.884 25.416-4.114 35.416-1.18 10.053 2.001 20.898 1.755 31.372 1.523 14.839 2.359 32.447 15.295 42.297 7.923 6.687 14.986 16.882 26.908 12.202 27.587-1.188 55.175 1.55 82.763 2.084 8.979 4.37 16.726-3.474 14.7-11.945 7.96-8.393 24.135-1.9 30.878-10.43-2.426-5.49-2.48-12.272 5.385-7.768 10.953-3.103 6.501-19.125 11.353-27.568 5.262-9.494-1.343-17.148-11.245-17.243-4.898-4.272 11.296 2.662 13.755-2.421 10.242-7.1 9.599-26.025-5.253-26.19-4.439-2.066-15.615-7.619-3.595-6.752 6.396 2.501 12.768 4.607 16.031-.793 2.497-4.131 6.757-8.71 7.395-17.042-1.247-12.217-19.405-12.26-29.664-17.58-11.706-3.716-23.69-6.446-35.308-10.471-6.096-2.817 10.585-2.381 13.964-4.472 16.807-4.352 33.672-8.45 50.503-12.694-6.023-4.62-16.177-3.935-19.977-6.887-20.287-5.982-40.498-12.27-61.045-17.319-9.63 6.385-17.968 14.56-26.6 22.18-2.638 2.973-13.02 13.894-11.432 10.316 9.122-10.747 17.411-22.458 26.008-33.423-4.69-9.753-21.088-4.465-30.508-7.218l-1.89-.119-1.89-.11zM30.652 60.766c6.965.34 22.382 8.597 16.995 15.806-5.642-4.026-13.65-6.602-10.142 3.783 11.49-.973 23.726-7.957 36.262-7.72 13.65-1.46 27.348.683 40.617 3.53 9.521 1.048 21.32-19.501 27.208-6.516 1.084 10.907 3.843 21.656 3.764 32.644-.802 29.284-4.55 58.57-3.855 87.842 1.5 10.31-8.994 7.992-14.158 6.773-3.376 8.137-17.257.421-24.81 2.366-25.462-1.24-50.935-2.662-76.437-2.56-1.967-4.964-2.359-13.703-1.614-20.997.61-26.73 1.675-53.485 1.045-80.211 1.996-11.255 2.147-23.011 4.025-34.035l1.1-.705z"/><path d="M133.51 75.03c-5.185.629-13.342 9.184-3.327 9.435 8.76 7.563 6.21-5.523 3.328-9.436zm-22.204 22.383c-6.964 6.922-8.362 21.202.215 27.249 11.407.269 10.262-16.222 5.598-23.208a9.951 9.951 0 0 0-5.813-4.041zm-57.069 8.637c-12.904-3.717-11.983 17.212-1.846 17.057l12.183.413c3.868-6.234 7.77-20.398-4.814-17.169-1.837-.153-3.678-.289-5.523-.301zm27.47 28.68c-10.583 1.17-23.202 1.82-30.784 10.116-3.086 12.147 10.794 21.755 21.09 25.041 12.434-1.435 11.075 16.146-.46 13.557-8.388-.56-14.655-9.89-19.591-13.013.489 10.747 11.61 21.207 22.486 16.737 10.3-4.556 19.043 5.877 28.977 2.972 6.094 1.563 16.175-12.77 6.604-9.17-6.932 6.189-29.643 6.755-22.675-6.902 10.127-5.066 22.647-6.563 29.587-16.948 9.968-14.378-14.437-18.4-23.977-21.248-3.701-.754-7.477-1.178-11.257-1.142z"/></g></svg>