<svg xmlns="http://www.w3.org/2000/svg" width="800" height="800" viewBox="0 0 211.66666 211.66666"><path d="M83.652 16.06l-9.032 9.35c-4.967 5.142-9.823 10.235-10.79 11.318l-1.76 1.97.15 12.446c.109 8.92.043 12.38-.232 12.21-.211-.131-.384-.635-.384-1.12 0-1.058-.498-3.216-1.619-7.014-1.076-3.647-2.017-11.803-1.84-15.952l.139-3.252-.898.219c-.494.12-1.374.609-1.956 1.086-2.691 2.205-19.226 17.953-19.226 18.312 0 .1-.322.635-.715 1.187-.844 1.184-2.107 5.87-2.107 7.813 0 1.106-.282 1.676-1.5 3.03-.824.917-1.595 1.747-1.711 1.844-.117.097-.653.891-1.192 1.764-.54.873-1.685 2.656-2.544 3.96-.86 1.306-2.585 4.48-3.835 7.056-1.25 2.575-2.842 5.705-3.539 6.955-1.657 2.973-1.783 4.584-.878 11.262.466 3.441.735 7.323.735 10.629 0 5.816-.133 6.165-2.325 6.103-.663-.019-1.281.09-1.375.242-.094.152.387 7.16 1.069 15.575.682 8.415 1.304 17.058 1.383 19.206.11 3.017.466 5.227 1.566 9.71 2.062 8.412 3.132 11.929 4.175 13.724 1.27 2.189 4.633 5.95 5.913 6.615 1.755.912 3.705 2.637 3.705 3.28 0 .331 1.07 1.408 2.38 2.397 3.58 2.697 5.484 4.18 6.217 4.839.245.22.395.421.472.803 7.212-.148 14.926-.232 22.995-.232 33.645 0 61.634 1.395 68.853 3.275 2.482.14 3.723.096 4.011-.144.328-.272.537-2.126.719-6.375.25-5.87.271-5.991 1.035-5.991.43 0 2.041-.301 3.582-.669 1.54-.368 3.753-.853 4.918-1.078 5.747-1.114 18.265-4.05 18.878-4.43.543-.335.432-.683-.806-2.522-.991-1.473-1.169-2.069-1.256-4.217l-.102-2.502 2.931.645c3.434.756 6.403.851 6.895.221.573-.732 1.135-2.612 2.774-9.26 4.17-16.928 5.468-22.843 5.365-24.448l-.107-1.658-7.056-2.353-7.055-2.354 6.53.202c7.34.226 7.733.136 10.232-2.338 1.333-1.32 2.118-3.335 3.675-9.436.732-2.87.707-3.365-.333-6.49l-.887-2.662-6.257-2.603c-6.67-2.775-9.456-4.065-9.726-4.503-.092-.15 4.415-.271 10.017-.271 9.132 0 10.246-.063 10.786-.603.616-.616 3.418-9.918 3.844-12.763.205-1.361.064-1.938-1.021-4.196-2.785-5.79-3.333-6.507-5.676-7.435-1.174-.465-6.5-2.59-11.836-4.72-11.216-4.48-11.38-4.538-14.846-5.18-1.439-.266-4.998-1.376-7.908-2.468-2.91-1.09-7.078-2.64-9.26-3.442-2.183-.802-3.97-1.573-3.97-1.714 0-.606 1.17-1.03 5.822-2.109 8.075-1.873 21.48-5.224 22.59-5.646 1.881-.715 7.65-2.125 15.157-3.706 9.91-2.085 10.054-2.13 10.054-3.146 0-.739-.31-.909-2.91-1.592-1.6-.421-4.101-1.147-5.556-1.613-1.455-.466-11.933-3.539-23.284-6.828-42.697-12.375-39.492-11.57-41.324-10.36-.512.338-2.894 2.38-5.292 4.539a2508.79 2508.79 0 0 1-10.71 9.558c-3.493 3.098-7.62 6.847-9.172 8.332-1.553 1.485-2.865 2.7-2.917 2.702-.154.004 2.916-4.054 8.561-11.316 2.91-3.744 5.904-7.61 6.653-8.592.749-.982 2.517-3.215 3.929-4.96 2.257-2.793 2.545-3.313 2.392-4.314-.146-.95-.357-1.167-1.283-1.317-2.284-.37-25.216-2.337-28.095-2.409zM51.793 119.275c.028-.028.183.115.488.407.35.334.541.705.423.823-.118.119-.405-.155-.638-.608-.202-.394-.3-.594-.273-.622zm1.133 2.51c.06.015.143.077.25.185.216.216.332.575.258.798-.175.526-.65.051-.65-.65 0-.248.041-.357.142-.333z" fill="#cf8034"/><path d="M83.877 14.92c-.772.014-.728.136-.248.342.388.167 1.38.315 2.205.328.825.014 1.5.183 1.5.377 0 .195-.169.353-.374.353-.206 0-.272.165-.147.367.125.202.531.271.904.153.401-.128.91.018 1.249.357.527.527.237.568-3.735.513-3.08-.042-4.425.067-4.719.386-.226.244-.244.352-.04.24.202-.113.585-.071.849.092.506.313 7.928.13 8.834-.217.785-.3 4.08-.5 10.407-.628 3.105-.063 6.584-.135 7.732-.16 1.148-.024 2.021-.107 1.94-.184-.08-.077-3.718-.466-8.084-.864-10.874-.992-15.961-1.424-17.89-1.455a10.944 10.944 0 0 0-.383 0zm30.757 5.431a3.288 3.288 0 0 0-.517.108c-.403.105-.876.57-1.052 1.034-.177.464-.601.95-.944 1.08-.342.13-1.216.88-1.942 1.666a555.6 555.6 0 0 1-2.074 2.233 40.074 40.074 0 0 0-1.79 2.116c-2.176 2.761-3.64 4.313-4.071 4.313-.246 0-.447.216-.447.48 0 .263-.645 1.017-1.434 1.675-1.624 1.356-5.621 6.15-5.621 6.744 0 .215-.242.642-.536.95-3.03 3.157-5.072 5.587-6.616 7.871-1.424 2.106-2.108 2.803-3.002 3.062-.636.183-1.45.695-1.807 1.136-.497.614-1.142.849-2.751 1.002-3.035.29-5.397.048-5.397-.554 0-.47.4-.635 1.28-.53.7.084.9-1.512.239-1.904-.327-.194-.976-.716-1.44-1.161-.68-.65-.763-.91-.423-1.319.557-.67.186-1.577-.644-1.577-.362 0-.747-.089-.855-.197-.38-.38.168-1.567.738-1.602.318-.02.181-.152-.306-.296-.485-.143-.854-.41-.82-.594.035-.183-.362-.328-.881-.321-1.234.015-1.369-1.34-.151-1.512 1.19-.17 1.017-1.328-.265-1.775-1.014-.354-1.058-.327-1.058.634 0 .847-.136.995-.882.951-.714-.04-.882-.235-.882-1.02 0-.534-.119-.952-.264-.929-.146.023-.624.023-1.062 0-.691-.036-.741-.13-.379-.71.338-.542.305-.783-.173-1.26-.325-.326-.591-.739-.591-.919 0-.18-.221-.328-.491-.328-.557 0-1.067-1.593-.7-2.187.146-.237.08-.292-.166-.14-.224.139-.407.165-.407.059 0-.338 1.162-1.667 3.704-4.237C70.121 30 74.347 25.39 76.76 22.57c.628-.734 1.059-1.418.957-1.52-.102-.102-3.7 3.515-7.996 8.038-7.81 8.223-7.81 8.223-7.71 20.832.099 12.64-.155 15.352-.982 10.497-.214-1.26-.892-4.02-1.506-6.131-1.247-4.291-2.324-12.924-2.107-16.887.124-2.258.094-2.369-.586-2.157-1.14.355-1.583.731-8.687 7.381-8.376 7.84-12.398 12.075-13.363 14.069-.658 1.36-1.067 3.14-1.64 7.152-.096.675-.812 1.888-1.769 2.999-2.772 3.218-5.022 6.887-9.573 15.61-4.985 9.557-4.697 7.934-3.444 19.416.297 2.717.54 6.725.54 8.908 0 4.57-.398 5.38-2.645 5.38-1.45 0-1.41-.284-.87 6.173.854 10.203 1.75 21.967 2.09 27.41.203 3.24.615 6.972.915 8.291 1.423 6.248 3.848 14.551 4.668 15.981 1.651 2.88 4.093 5.51 6.889 7.42 2.02 1.382 2.806 2.139 2.946 2.837.105.523.548 1.114.985 1.313.437.2 1.968 1.349 3.403 2.554 1.435 1.205 2.956 2.35 3.38 2.546.906.418 1.397 1.435 1.443 2.944.75.056 1.476.118 2.185.184.012-.027.027-.068.037-.083.32-.518 11.243-1.032 23.61-1.112 8.801-.058 28.675.708 38.982 1.5.535.041 1.089.077 1.635.117h5.685c5.42 0 10.693.272 15.758.786.716.004 1.617.038 2.766.08 4.911.176 4.911.176 5.144-3.63.128-2.094.233-4.783.233-5.975 0-2.351.373-3.014 1.694-3.014.78 0 17.957-3.735 24.038-5.227 1.444-.354 2.691-.844 2.773-1.09.081-.244-.358-1.149-.977-2.01-.954-1.33-1.156-1.975-1.328-4.256-.204-2.69-.204-2.69.821-2.471 2.834.604 8.075 1.29 8.597 1.123.83-.263 1.7-3.18 4.74-15.879 3.573-14.927 3.8-16.033 3.673-18.004-.11-1.723-.11-1.723-6.636-3.868-3.59-1.18-6.765-2.237-7.056-2.347-1.41-.538.433-.619 6.263-.275 5.73.337 6.497.316 7.518-.212 2.093-1.082 3.757-3.032 4.505-5.28.925-2.78 2.175-8.104 2.175-9.263 0-1.472-1.528-5.8-2.111-5.982-.294-.091-1.458-.548-2.586-1.015-1.129-.467-2.232-.85-2.452-.85-.728 0 .225.606 1.681 1.07 2.284.726 2.956 1.347 3.522 3.253.484 1.63.47 2.047-.177 5.164-1.063 5.121-2.118 8.393-2.95 9.143-1.252 1.13-2.79 1.426-6.623 1.272a789.106 789.106 0 0 0-10.529-.303 943.063 943.063 0 0 1-7.114-.176c-.316-.026-1-3.288-1-4.773 0-.868-.304-1.495-1.125-2.316-1.123-1.123-1.126-1.135-1.03-4.412.107-3.695-.596-11.402-1.1-12.049-.5-.642-.184-2.663.541-3.457.383-.42.58-1.041.486-1.535-.154-.812-.117-.824 1.809-.583 1.873.234 4.663 1.165 9.486 3.165 1.203.499 2.631.887 3.175.863.543-.024 5.421-.02 10.84.01 9.05.048 9.902.001 10.483-.581.682-.683 3.402-9.814 3.723-12.497.176-1.473-.001-2.023-1.824-5.645-1.111-2.206-2.308-4.311-2.66-4.678-.353-.366-2.759-1.5-5.346-2.52s-7.323-2.92-10.524-4.22c-7.68-3.121-9.222-3.646-11.973-4.075-2.968-.463-6.987-1.64-13.604-3.985-2.714-.962-5.232-1.639-9.525-2.56-3.57-.767-4.042-1.003-3.807-1.901.165-.633.477-.71 2.873-.71 1.772 0 4.25-.37 7.278-1.086 8.238-1.95 22.49-5.594 26.817-6.86 2.329-.68 7.409-1.872 11.29-2.649 7.455-1.492 10.287-2.214 10.142-2.585-.049-.124-.089-.454-.089-.733 0-.663-3.055-1.165-3.624-.595-.219.218-.918.397-1.555.397-2.616 0-16.542 2.617-19.692 3.7-1.654.57-9.374 2.447-12.17 2.96-1.068.195-4.163.532-6.88.747-2.716.216-5.176.457-5.467.537-.291.08-2.182.387-4.202.685-2.02.298-5.228.952-7.13 1.453-1.901.502-3.604.822-3.783.711-.434-.268-.477-8.353-.048-9.03.222-.35.337-.38.34-.088.004.243.162.442.353.442.402 0 .302-4.53-.116-5.204-.153-.247-.109-.44.1-.44.206 0 .374-.309.374-.686 0-.376.17-.79.377-.917.208-.128.302-.43.21-.67-.093-.241-.027-.661.146-.935.223-.352.316-.368.32-.056.003.242.244.441.535.441.382 0 .529-.392.529-1.411 0-1.49-.43-1.823-1.03-.794-.318.545-.362.52-.37-.214-.01-.72-.142-.805-.981-.632-.533.11-.772.114-.53.009.243-.106.437-.536.431-.956-.01-.689-.047-.704-.37-.147-.432.74-1.383.821-1.383.117 0-.274.119-.566.264-.648.146-.081.072-.1-.165-.044a.649.649 0 0 1-.659-.268c-.126-.204-.6-.3-1.054-.213-.703.135-.774.064-.486-.476.498-.93 1.077-1.184 1.433-.63.265.411.362.411.625.003.185-.287.902-.475 1.764-.463.8.01 1.453-.109 1.453-.267 0-.384-1.973-.76-2.642-.503-.293.112-.533.023-.533-.198 0-.688.8-.738 3.175-.198 1.26.287 3.96.837 5.997 1.223 2.037.387 4.736.934 5.997 1.216 1.261.283 2.992.62 3.845.75.853.13 2.044.441 2.646.69.602.249 2.284.627 3.74.841 2.576.38 6.665 1.353 9.878 2.351.873.272 2.5.735 3.615 1.03 1.116.296 2.863.763 3.881 1.038 1.019.276 3.36.673 5.204.883 1.843.21 3.748.465 4.233.567 2.113.445-1.068-.645-6.35-2.176-3.008-.872-7.373-2.141-9.701-2.82a6314.626 6314.626 0 0 0-30.503-8.805c-9.423-2.693-10.511-2.934-11.642-2.574-1.521.484-3.555 2.334-3.299 3.001.113.295-.047.487-.404.487-.324 0-1.492.78-2.595 1.731a3241.58 3241.58 0 0 1-5.226 4.498C102.527 40.042 95.8 46.406 95.8 47.215c0 .276-.127.502-.281.502-.155 0-1.248.913-2.43 2.029-3.292 3.108-3.992 3.662-3.992 3.163 0-.247.945-1.28 2.1-2.297 1.156-1.017 2.307-2.233 2.559-2.702.988-1.844 17.267-23.095 20.3-26.501.733-.823.92-1.082.578-1.058zm7.837 4.436c.39 0 .326.255-.269 1.058-.43.583-.899 1.059-1.041 1.059-.143 0-.022-.476.268-1.059.29-.582.76-1.058 1.042-1.058zm1.64 1.113c.151-.01.264.057.264.231 0 .19-.251.44-.559.559-.343.132-.505.053-.419-.205.11-.33.465-.567.715-.585zm1.678.382c.391-.01.838.136 1.234.456.68.547.67.559-.3.35-.596-.127-1.222-.034-1.54.23-.452.375-.516.337-.404-.249.095-.5.507-.773 1.01-.787zm3.046 1.08c.092.01.013.135-.22.416-.508.612-.712.675-.712.222 0-.173.26-.415.579-.538.181-.07.298-.105.353-.1zm-2.02.996c.123.006.228.038.286.097.118.117-.09.2-.463.185-.41-.017-.494-.1-.213-.213a.97.97 0 0 1 .39-.069zm13.758 5.645a.968.968 0 0 0-.39.068c-.28.113-.197.196.214.213.372.016.58-.068.463-.185-.059-.058-.164-.09-.287-.096zm-75.112 3.131a.354.354 0 0 0-.353.353c0 .194.16.353.353.353a.354.354 0 0 0 0-.706zm2.432 3.175c-.534 0-.683.158-.53.558.118.307.215.699.215.871 0 .172.238.222.529.11.83-.319.66-1.539-.214-1.539zm60.673 1.411c.194 0 .452.16.571.353.12.194.06.353-.134.353s-.451-.159-.571-.353c-.12-.194-.06-.353.134-.353zm-75.708 4.25c.264.004.605.104.916.301.266.169.425.463.353.653-.154.408-1.719-.203-1.719-.672 0-.192.187-.286.45-.282zm-1.781 1.407c.14-.007.776.305 1.41.692.636.387 1.583.705 2.105.706.522 0 1.028.127 1.124.282.268.434 2.988 11.131 3.786 14.888.391 1.844.804 5.444.918 8.001.206 4.65.206 4.65-1.444 5.695-.907.576-2.185 1.147-2.84 1.27-.655.123-1.286.474-1.404.78-.345.9-1.798.3-4.43-1.828-1.31-1.058-2.549-1.923-2.754-1.923-.205 0-.444-.199-.53-.441-.087-.243-.281-.326-.433-.185-.15.141-.072.5.175.798.385.463.329.528-.39.45-.83-.092-.841-.05-.859 3.09-.01 1.751-.145 3.389-.3 3.64-.155.25-.2.538-.1.638.18.18 4.131-.98 11.001-3.233 7.802-2.557 11.91-3.397 20.616-4.213 9.395-.881 19.016-.547 24.308.845.71.186 2.799.524 4.642.75 1.843.226 3.784.633 4.312.904.529.272 1.879.584 3 .694 2.036.2 2.036.2 6.27-2.582 4.465-2.936 11.245-6.923 12.386-7.285.372-.118 1.43-.303 2.35-.412 1.582-.186 1.692-.143 2.048.792.346.908 1.003 6.306 1.559 12.805.124 1.46.427 2.805.673 3 .26.204.547 1.611.683 3.35.13 1.65.46 3.736.735 4.637.381 1.25.433 2.463.218 5.115-.155 1.913-.302 6.097-.326 9.298-.023 3.202-.123 6.456-.222 7.233-.098.776-.497 7.046-.886 13.934-.388 6.888-.945 15.064-1.237 18.168-.301 3.204-.602 11.2-.695 18.497-.103 8.049-.311 13.297-.557 14.043-.216.655-.42 2.253-.455 3.552-.06 2.36-.06 2.36-3.758 2.272-2.033-.05-4.021-.163-4.417-.253-.558-.127-1.222-1.422-2.942-5.732-1.222-3.062-2.62-6.494-3.106-7.627a70.807 70.807 0 0 1-1.674-4.41c-.99-2.939-1.555-3.277-5.14-3.076-1.455.082-3.122.165-3.704.184-.79.025-.923.114-.525.347.716.42 6.342 1.474 6.697 1.255.549-.34 1.668 1.08 2.083 2.644.231.873.569 1.905.75 2.293.181.388.722 1.896 1.201 3.351a374.34 374.34 0 0 0 2.105 6.135c1.214 3.436 1.388 4.198 1.31 5.772-.037.752-.172.79-2.597.733-10.438-.246-21.224-.73-26.9-1.207-3.686-.31-10.194-.628-14.463-.708-4.268-.08-10.777-.337-14.464-.573-3.686-.235-12.338-.433-19.226-.439-12.524-.011-12.524-.011-12.643-.853-.119-.841-.119-.84 3.88-.605 2.2.13 4.527.405 5.17.612.644.206 1.215.32 1.268.253.054-.068.375-.99.713-2.05.34-1.06 1.48-3.679 2.535-5.821 1.056-2.142 2.83-6.117 3.943-8.833 2.024-4.939 2.024-4.939 3.253-5.037.676-.054 1.944.111 2.817.367 1.587.465 1.587.464 2.014 3.03.688 4.133 1.46 5.332 5.83 9.047 1.33 1.13 4.657 1.993 8.453 2.193 3.68.194 3.872.166 7.783-1.143 3.791-1.27 4.067-1.313 5.046-.805 4.117 2.137 6.516 3.346 7.391 3.725 1.43.62 7.21.554 9.822-.112 4.935-1.259 9.625-5.257 9.246-7.883-.286-1.983-.677-2.08-3.116-.767a83.608 83.608 0 0 0-3.797 2.181c-.879.55-2.704 1.257-4.057 1.572-4.68 1.09-12.025.612-13.367-.87-.644-.711-1.297-5.326-.986-6.965.264-1.393.813-1.729 4.84-2.958 1.94-.593 5.645-1.824 8.234-2.736 4.708-1.658 4.708-1.659 9.774-6.15 5.346-4.738 5.557-4.991 6.352-7.61.661-2.179.62-3.866-.13-5.27-.624-1.17-4.01-3.62-5.002-3.62-.303 0-.864-.21-1.246-.47-.818-.554-6.925-2.91-8.458-3.264a10.768 10.768 0 0 1-2.008-.723c-.522-.263-3.142-.978-5.82-1.589-3.919-.893-5.597-1.104-8.576-1.075-7.266.07-16.82 2.094-23.989 5.082-4.536 1.89-5.477 2.976-5.162 5.963.547 5.188.432 4.918 3.662 8.642 1.662 1.918 3.65 4.276 4.416 5.242 1.556 1.96 2.448 2.587 5.022 3.533.97.357 1.915.781 2.099.943.184.162.745.295 1.247.295.501 0 2.097.406 3.545.903 1.449.497 3.331 1.13 4.183 1.41 2.153.703 2.411.998 2.703 3.084.563 4.021.239 5.256-1.698 6.48-1.309.825-1.669.89-3.764.688-6.164-.597-11.148-2.515-14.004-5.39-2.63-2.646-3.711-4.103-3.257-4.384.216-.133.292-.406.169-.606-.271-.438-3.313-1.127-4.978-1.127-.658 0-1.282-.138-1.386-.307-.424-.685-.139-20.11.306-20.83.096-.155.207-1.597.247-3.204.06-2.496.165-2.946.715-3.09.796-.208.81-.052-.202-2.28-.466-1.024-1.195-3.043-1.622-4.485-.427-1.442-.979-2.95-1.227-3.351-.248-.401-.636-1.502-.863-2.446-.477-1.986-2.327-5.862-3.867-8.1-1.19-1.73-2.917-2.69-3.69-2.049-1.362 1.132-1.457 2.683-1.506 24.742-.052 23.183-.382 32.96-1.383 41.01-.647 5.204-.647 5.204-4.164 5.204-3.516 0-3.516 0-3.26-6.438.14-3.541.321-12.789.402-20.55.08-7.76.312-15.143.513-16.404.234-1.461.33-10.545.268-25.047-.098-22.754-.099-22.754.674-24.342.668-1.37.85-2.768 1.336-10.23.648-9.96.749-11.12 1.2-13.758.353-2.059.265-2.33-.814-2.524-.838-.15-1.451-2.06-.808-2.516.337-.24.334-.344-.011-.484-.427-.174-.638-1.18-.247-1.18.106 0 .577.437 1.046.97.634.72.858.823.866.397.006-.316-.328-.8-.741-1.074-.94-.624-.686-1.644.781-3.145.566-.579 1.03-1.17 1.03-1.315 0-.145.558-.79 1.242-1.435 1.02-.962 1.337-1.095 1.764-.74.622.515.705-.035.097-.642-.329-.33-.309-.424.092-.424.283 0 .713.318.955.706.262.418.297.706.086.706-.196 0-.356.317-.356.705 0 .388.159.705.353.705.194 0 .353-.203.353-.453 0-.249.595-.954 1.322-1.567a137.07 137.07 0 0 0 3.263-2.886c1.067-.975 2.056-1.777 2.197-1.784zm20.5.698a.257.257 0 0 1 .064.004c.098.02.17.101.17.256 0 .146-.178.325-.397.397-.218.073-.337-.046-.264-.264.08-.242.27-.383.427-.393zm-27.668 2.168a.719.719 0 0 1 .456.226c.533.533.235.83-.423.423-.28-.172-.392-.431-.249-.574a.283.283 0 0 1 .216-.075zm83.149 1.082c.094-.003.139.121.139.379 0 .69.922.818 1.157.159.087-.243.281-.326.433-.185.15.14.074.498-.172.794-.245.295-.727.537-1.07.537-.75 0-1.225-1.028-.712-1.54.094-.094.168-.142.225-.145zm-84.901 4.154c-.206 0-.276.159-.156.353.12.194.288.352.374.352.085 0 .155-.158.155-.352 0-.194-.168-.353-.373-.353zm-1.743 1.763a.354.354 0 0 0 0 .706.354.354 0 0 0 .353-.353.354.354 0 0 0-.353-.353zm97.21 0c-.085 0-.253.16-.373.353-.12.194-.05.353.156.353.205 0 .373-.159.373-.353 0-.194-.07-.353-.155-.353zm-101.09 5.292c.193 0 .352.16.352.353a.354.354 0 0 1-.353.353.354.354 0 0 1-.353-.353c0-.194.16-.353.353-.353zm125.198 5.427c.995-.02 4.45.61 6.74 1.263 9.32 2.658 11.632 3.368 12.854 3.944.765.36 1.66.655 1.993.655.331 0 1.563.477 2.736 1.059 1.173.582 2.302 1.058 2.509 1.058 1.679 0 4.984 6.253 5.22 9.877.145 2.22-.786 8.068-1.642 10.32-.37.97-.37.97-4.347.925-2.187-.025-5.002-.178-6.255-.34a235.384 235.384 0 0 0-5.997-.652c-4.338-.418-4.098-.374-9.61-1.79-2.642-.678-5.19-1.102-6.707-1.117-2.448-.023-2.448-.023-2.334-2.185.102-1.925.2-2.174.901-2.273.776-.11.774-.123-.177-.949-.917-.797-.933-.865-.344-1.463.348-.354.617-.447.617-.214 0 .445 2.361 1.022 2.72.665.119-.12-.303-.399-.938-.62-1.09-.38-1.14-.472-.913-1.677.133-.701.256-1.478.274-1.726.019-.265.433-.067 1.004.48.898.86 1.03.891 1.731.4.515-.36.629-.613.352-.784-.231-.143-.315-.616-.195-1.095.233-.928-.306-1.173-.644-.292-.303.79-.892.294-.669-.562.132-.503.38-.654.837-.509.581.185.65-.025.674-2.018.014-1.224.06-4.01.101-6.193.061-3.225-.019-3.97-.425-3.97-.274 0-.423-.074-.331-.167.03-.03.123-.047.265-.05zm1.772.967a.97.97 0 0 0-.39.068c-.281.113-.197.196.214.213.372.015.58-.068.463-.185-.059-.058-.165-.09-.287-.096zm-2.046 5.6c.195 0 .255.16.135.354-.12.194-.377.352-.57.352-.195 0-.255-.158-.136-.352.12-.194.377-.353.571-.353zm-114.09 2.47c.905 0 1.185.13 1.049.487-.103.267-.008.664.21.881.292.293.287.396-.017.396-.227 0-.323.234-.213.52.21.549-.613 1.597-1.255 1.597-.208 0-.378.317-.378.705 0 .388-.136.706-.303.706-.166 0-.307-1.19-.314-2.646-.013-2.646-.013-2.646 1.222-2.646zm.257 1.059c-.302 0-.452.158-.332.352.12.194.368.353.55.353.183 0 .332-.159.332-.353 0-.194-.247-.352-.55-.352zm81.92.4c-.693 0-1.734.569-3.406 1.673-2.904 1.917-5.415 4.277-4.551 4.277.29 0 2.563 1.029 5.053 2.286 2.49 1.257 4.687 2.187 4.882 2.066.419-.259.108-4.868-.543-8.056-.308-1.513-.648-2.245-1.434-2.246zm30.154 1.024c.182-.02.306.068.306.272 0 .157-.212.576-.472.931-.403.551-.503.568-.678.111-.113-.295-.028-.714.19-.932.231-.23.472-.36.654-.382zM48.196 80.88c.182 0 .332.238.332.529 0 .545-.417.7-.814.303-.282-.282.037-.832.482-.832zm88.103 4.669a7.113 7.113 0 0 0-.59.044c-.848.093-1.72.353-1.94.578-.3.308-.053.347 1.013.16 1.834-.325 2.619-.807 1.517-.782zm-25.673 2.747a1.523 1.523 0 0 0-.909.262c-1.882 1.319-3.33 5.8-3.564 11.019-.378 8.474-.437 7.893.84 8.272.824.244 1.187.6 1.345 1.318.119.542.363 1.076.542 1.186.179.111.325.932.325 1.825 0 1.622 0 1.622-7.165 1.39-3.941-.126-9.22-.398-11.73-.604-2.51-.206-8.185-.41-12.61-.453-8.211-.08-8.76-.174-8.678-1.469.013-.194.102-.154.2.089.098.242.319.44.49.44.172 0 .229-.22.126-.488-.103-.268.311-1.578.921-2.91 3.164-6.912 3.931-10.767 2.166-10.893-.454-.033-.957-.271-1.117-.53-.226-.366-2.236-.508-8.934-.632-8.642-.16-8.642-.16-9.554.752-1.133 1.132-1.163 2.245-.21 7.692.386 2.206.704 4.47.706 5.03.004 1.018.003 1.018-3.384.77-2.398-.177-3.318-.138-3.15.133.326.528 2.57 1.43 3.561 1.43.977 0 1.425.548.681.833-.731.28-.661.93.1.93.345 0 .94.21 1.323.464.383.255 1.68.754 2.883 1.109 2.012.593 2.817.615 10.054.277 4.327-.202 8.502-.313 9.278-.246.777.067 7.365.364 14.64.66 7.277.296 14.34.625 15.7.73 1.357.106 4.453-.002 6.878-.237 4.081-.398 14.814-.636 14.816-.33.001.074-.524.868-1.165 1.764-1.283 1.793-2.128 3.378-5.85 10.979-2.577 5.262-3.663 8.026-3.35 8.531.81 1.312 3.24-2.547 9.084-14.425.363-.736 1.434-2.327 2.382-3.536 2.001-2.553 2.13-3.206.686-3.495-.57-.114-1.112-.407-1.206-.652-.192-.5-7.648-1.455-9.138-1.17-.834.16-.914.063-1.04-1.269-.077-.793.071-2.048.327-2.79s.369-1.504.252-1.692c-.116-.189-.015-1.109.225-2.044.34-1.331.346-2.498.022-5.367-.703-6.232-1.931-9.061-4.92-11.341-1.13-.862-2.111-1.305-2.879-1.312zm44.059 7.091c.122.005.227.038.286.097.117.117-.091.2-.463.185-.411-.017-.494-.1-.213-.213a.968.968 0 0 1 .39-.069zm-1.05 3.131c.182 0 .43.16.55.353.12.194-.03.353-.332.353-.303 0-.55-.159-.55-.353 0-.194.15-.353.332-.353zM68.48 111.923c.302 0 .451.159.331.353-.12.194-.367.353-.55.353-.182 0-.332-.16-.332-.353 0-.194.248-.353.55-.353zm39.666.706a.353.353 0 1 0 .353.353.354.354 0 0 0-.353-.353zm51.897 15.766c1.263.037 4.745.827 12.485 2.795 6.767 1.72 7.607 1.997 7.928 2.605.368.698-.64 6.191-2.625 14.3-.884 3.612-2.008 8.42-2.496 10.685-1.608 7.451-1.714 7.626-4.447 7.317-4.371-.495-17.345-4.3-18.008-5.283-.294-.435-.475-.273-.77.693-.265.862.137 1.4 2.249 3.007 2.383 1.815 2.446 1.865 5.3 4.267 3.554 2.99 5.724 5.398 5.573 6.182-.099.516-.84.748-3.997 1.25-3.907.62-11.587 1.64-19.399 2.577-4.978.597-4.756.585-4.786.25-.097-1.061.107-6.244.26-6.645.106-.275.496-.5.868-.5.613 0 .657-.199.48-2.159-.167-1.843-.117-2.128.344-1.95.34.13.542.007.542-.332 0-.297-.142-.451-.316-.344-.397.245-.822-.797-.523-1.281.127-.207.558.032 1.012.56.938 1.092 1.237 1.154 1.237.258 0-.364.256-.874.567-1.133.572-.474.557-2.712-.034-4.907-.13-.485-.269-1.39-.307-2.01-.039-.62-.185-1.242-.324-1.382-.365-.365-.313-1.195.075-1.195.378 0 .908 1.374.782 2.029-.046.242.082.441.284.441.203 0 .38-.119.395-.265.182-1.769.138-2.81-.135-3.175-.21-.281-.185-.616.071-.925.221-.266.303-.743.182-1.058-.27-.704.2-.74 1.098-.084.57.418.6.577.2 1.06-.31.374-.336.566-.075.566.218 0 .396-.153.396-.341 0-.188.242-.25.537-.136.439.168.375.368-.353 1.095-.489.49-.89 1.027-.89 1.194 0 .508.617.341.834-.224.249-.65 1.284-.706 1.284-.07 0 .252.198.886.44 1.408.515 1.108 1.793 1.278 2.795.371.606-.548.645-.538.645.176 0 .418.159.76.353.76.558 0 .414-.686-.375-1.795-.4-.562-.625-1.189-.499-1.392.126-.204.086-.563-.088-.797-.427-.574-.363-2.729.08-2.676.194.023.666.261 1.049.53.517.362.559.486.163.486-.293 0-.557.318-.586.706-.051.68-.024.684.776.088.632-.47.794-.87.68-1.676-.082-.582-.044-.82.084-.529.128.291.38.626.56.743.198.13.176.777-.057 1.641-.265.986-.273 1.721-.025 2.374.198.52.257 1.112.132 1.315-.13.208-.016.299.262.207.27-.088.538-.728.597-1.42.077-.897.305-1.312.794-1.44 1.069-.279.903-1.873-.258-2.48-.944-.496-.944-.495-.176-.906.64-.343.767-.318.767.155 0 .514.052.516.552.015.304-.303.458-.703.343-.89-.115-.185.113-.509.507-.72.965-.516.9-1.003-.167-1.271-.485-.122-.882-.439-.882-.705 0-.708 1.65-1.669 2.49-1.45.6.158.653.103.302-.32-.232-.28-.32-.611-.196-.736.125-.125.226-.041.226.185s.238.411.53.411a.53.53 0 0 0 .529-.529.53.53 0 0 0-.53-.529c-.29 0-.529-.159-.529-.353 0-.194.142-.352.316-.352.328 0 .745-2.265.735-3.985-.005-.894.064-.95.737-.59.408.22.824.317.924.217.33-.33-.273-.934-.933-.934-.58 0-.647-.305-.62-2.822.017-1.553.156-2.823.309-2.823s.19-.445.08-.99c-.133-.665-.014-1.142.362-1.454.308-.255.56-.713.56-1.017 0-.47-.068-.461-.45.062-.456.623-1.857.465-1.467-.165.107-.174-.048-.316-.344-.316-.334 0-.462.201-.336.53.128.334-.005.528-.364.528-.801 0-.706-.453.332-1.573.637-.687 1.12-.912 1.657-.771.417.109.944.044 1.17-.144.081-.067.255-.098.546-.09zm-.594 5.44a.435.435 0 0 0-.172.027 1.103 1.103 0 0 0-.617.617c-.089.265.044.397.308.309.255-.085.533-.363.618-.618.066-.198.008-.322-.137-.335zm-4.218 2.077c.316 0 .438.207.315.53-.112.29-.345.528-.518.528-.173 0-.315-.238-.315-.529 0-.29.233-.529.518-.529zm4.057 1.411c-.382 0-.694.238-.694.53 0 .29.22.529.491.529.27 0 .583-.238.695-.53.138-.36-.02-.529-.492-.529zm-2.847 2.45c.073-.008.16.025.249.115.117.117.146.414.064.658-.12.36-.202.359-.424 0-.221-.358-.11-.75.11-.773zm-3.388 2.59c.18.005.41.038.69.1.63.142 1.338.26 1.572.264.234.003.507.217.606.476.19.496-.555.653-.998.21-.143-.143-.447-.277-.676-.299a203.22 203.22 0 0 0-1.033-.093c-.34-.03-.618-.225-.618-.434 0-.155.157-.23.457-.223zm2.874 5.662c-.094.01-.156.085-.156.213 0 .206.159.374.353.374.194 0 .353-.07.353-.155 0-.086-.159-.254-.353-.374a.324.324 0 0 0-.197-.058zm-11.113 2.35c.206 0 .374.16.374.354 0 .194-.07.353-.156.353-.085 0-.254-.16-.374-.353-.12-.194-.05-.353.156-.353zm1.941.12a.322.322 0 0 1 .197.058c.194.12.352.288.352.373 0 .086-.158.156-.352.156-.194 0-.353-.168-.353-.374 0-.128.062-.204.156-.213zm.598 2.336c.336.03.533.608.553 1.69.018.922.088 1.894.156 2.16.161.631-.422.82-1.176.381-.673-.391-.816-3.024-.206-3.776.23-.283.433-.433.605-.453a.317.317 0 0 1 .068-.001zm7.908 2.655c-.258.039-.282.33.04.652.337.337.823.29.823-.08 0-.173-.238-.406-.53-.518a.68.68 0 0 0-.333-.054zm-11.347 2.434a.241.241 0 0 0-.137.04c-.194.12-.353.368-.353.55 0 .183.159.332.353.332.194 0 .352-.247.352-.55 0-.226-.089-.367-.215-.372zm.851 3.462c-.061.002-.165.101-.283.283-.188.291-.342.688-.342.882 0 .194.154.114.342-.177.188-.29.342-.688.342-.882 0-.072-.022-.106-.059-.106zm-5.875 2.764c.29-.016.651.18.796.557.187.486.303.5.801.089.527-.435.542-.405.16.313-.233.436-.457.774-.499.75-.042-.024-.432-.22-.869-.437-.437-.216-.794-.593-.794-.838 0-.282.18-.422.405-.434zm1.496 3.651a.24.24 0 0 0-.137.041c-.194.12-.353.368-.353.55 0 .183.159.332.353.332.194 0 .353-.247.353-.55 0-.226-.09-.367-.216-.373zM42.53 180.362c.194 0 .353.219.353.486s-.268.704-.595.97c-.524.427-.566.407-.353-.162.133-.355.243-.792.243-.97 0-.178.158-.324.352-.324zm83.344 7.408c1.506 0 1.513.002.97.353-.693.448-1.501.448-1.352 0 .065-.194.237-.353.382-.353zm8.16.353c.486 0 .98.159 1.1.353.124.2-.165.353-.663.353-.485 0-.98-.16-1.1-.353-.123-.2.166-.353.664-.353z"/></svg>