<?xml version="1.0" encoding="UTF-8" standalone="no"?>
<!-- Created with Inkscape (http://www.inkscape.org/) -->

<svg
   xmlns:dc="http://purl.org/dc/elements/1.1/"
   xmlns:cc="http://creativecommons.org/ns#"
   xmlns:rdf="http://www.w3.org/1999/02/22-rdf-syntax-ns#"
   xmlns:svg="http://www.w3.org/2000/svg"
   xmlns="http://www.w3.org/2000/svg"
   xmlns:sodipodi="http://sodipodi.sourceforge.net/DTD/sodipodi-0.dtd"
   xmlns:inkscape="http://www.inkscape.org/namespaces/inkscape"
   version="1.1"
   id="svg10"
   xml:space="preserve"
   width="128"
   height="128"
   viewBox="0 0 128 127.99999"
   sodipodi:docname="favicon.svg"
   inkscape:version="0.92pre2 15127"><metadata
     id="metadata16"><rdf:RDF><cc:Work
         rdf:about=""><dc:format>image/svg+xml</dc:format><dc:type
           rdf:resource="http://purl.org/dc/dcmitype/StillImage" /><dc:title></dc:title></cc:Work></rdf:RDF></metadata><defs
     id="defs14"><clipPath
       clipPathUnits="userSpaceOnUse"
       id="clipPath26"><path
         d="M 0,595.275 H 841.89 V 0 H 0 Z"
         id="path24"
         inkscape:connector-curvature="0" /></clipPath></defs><sodipodi:namedview
     pagecolor="#ffffff"
     bordercolor="#666666"
     borderopacity="1"
     objecttolerance="10"
     gridtolerance="10"
     guidetolerance="10"
     inkscape:pageopacity="0"
     inkscape:pageshadow="2"
     inkscape:window-width="1304"
     inkscape:window-height="746"
     id="namedview12"
     showgrid="false"
     inkscape:pagecheckerboard="true"
     fit-margin-top="0"
     fit-margin-left="0"
     fit-margin-right="0"
     fit-margin-bottom="0"
     showguides="true"
     inkscape:guide-bbox="true"
     inkscape:zoom="1.9207789"
     inkscape:cx="88.671886"
     inkscape:cy="59.061528"
     inkscape:window-x="-8"
     inkscape:window-y="-8"
     inkscape:window-maximized="1"
     inkscape:current-layer="g18"><sodipodi:guide
       position="-110.37189,64.03652"
       orientation="0,1"
       id="guide4054"
       inkscape:locked="false" /><sodipodi:guide
       position="64.03652,153.0629"
       orientation="1,0"
       id="guide4058"
       inkscape:locked="false" /></sodipodi:namedview><g
     id="g18"
     inkscape:groupmode="layer"
     inkscape:label="FOS_V"
     transform="matrix(1.3333333,0,0,-1.3333333,-513.02665,594.79217)"><g
       id="g399"
       transform="translate(18.75199,7.0990293)"><g
         transform="translate(421.9927,383.7441)"
         id="g52"><path
           inkscape:connector-curvature="0"
           id="path54"
           style="fill:#1a2c6b;fill-opacity:1;fill-rule:nonzero;stroke:none"
           d="M 0,0 -7.939,7.266 V 7.273 L -7.944,7.271 -7.949,7.273 V 7.266 L -15.892,0 l 7.94,2.563 h 0.015 z" /></g><g
         transform="translate(414.0503,391.0225)"
         id="g56"><path
           inkscape:connector-curvature="0"
           id="path58"
           style="fill:#1a2c6b;fill-opacity:1;fill-rule:nonzero;stroke:none"
           d="m 0,0 2.618,7.188 5.84,0.7 z" /></g><g
         transform="translate(428.4199,396.5713)"
         id="g60"><path
           inkscape:connector-curvature="0"
           id="path62"
           style="fill:#1a2c6b;fill-opacity:1;fill-rule:nonzero;stroke:none"
           d="m 0,0 -5.912,2.339 -0.164,9.666 z" /></g><g
         transform="translate(423.791,412.9258)"
         id="g64"><path
           inkscape:connector-curvature="0"
           id="path66"
           style="fill:#1a2c6b;fill-opacity:1;fill-rule:nonzero;stroke:none"
           d="M 0,0 5.895,0.005 -1.443,-4.361 Z" /></g><g
         transform="translate(414.0454,391.0225)"
         id="g68"><path
           inkscape:connector-curvature="0"
           id="path70"
           style="fill:#917641;fill-opacity:1;fill-rule:nonzero;stroke:none"
           d="m 0,0 -2.62,7.188 -5.837,0.7 z" /></g><g
         transform="translate(399.6772,396.5713)"
         id="g72"><path
           inkscape:connector-curvature="0"
           id="path74"
           style="fill:#917641;fill-opacity:1;fill-rule:nonzero;stroke:none"
           d="M 0,0 5.908,2.339 6.07,12.005 Z" /></g><g
         transform="translate(404.3032,412.9258)"
         id="g76"><path
           inkscape:connector-curvature="0"
           id="path78"
           style="fill:#917641;fill-opacity:1;fill-rule:nonzero;stroke:none"
           d="M 0,0 -5.894,0.005 1.444,-4.361 Z" /></g><g
         transform="translate(434.2773,427.3643)"
         id="g80"><path
           inkscape:connector-curvature="0"
           id="path82"
           style="fill:#917641;fill-opacity:1;fill-rule:nonzero;stroke:none"
           d="m 0,0 c -5.262,-4.961 -8.883,-2.782 -10.744,-2.382 -0.977,0.395 -2.206,0.631 -3.539,0.631 -3.217,0 -5.827,-1.371 -5.827,-3.061 0,-0.615 0.346,-1.18 0.937,-1.658 0.599,0.559 1.531,1.009 2.64,1.274 1.138,0.192 3.066,0.352 5.357,-0.231 0.201,-0.057 0.422,-0.12 0.656,-0.175 v -0.002 c 0.278,-0.086 0.528,-0.147 0.745,-0.184 0.097,-0.022 0.179,-0.041 0.287,-0.063 5.955,-1.317 9.539,1.674 9.539,1.674 z" /></g><g
         transform="translate(413.52,375.2588)"
         id="g84"><path
           inkscape:connector-curvature="0"
           id="path86"
           style="fill:#1a2c6b;fill-opacity:1;fill-rule:nonzero;stroke:none"
           d="m 0,0 c 0,0 -3.318,0.011 -4.946,0.805 -2.946,1.421 -3.509,5.785 -3.882,9.394 -0.041,0.394 -2.78,1.261 -4.083,2.459 -2.12,1.934 -1.795,7.985 -1.795,8.375 0,0.39 -3.433,2.069 -3.433,5.815 0,1.582 0.028,10.434 0.028,10.434 -2.235,2.774 -3.659,2.811 -5.449,2.256 -2.214,-0.711 -2.856,-2.35 -5.167,-2.679 0,-0.506 -0.023,-26.888 -0.023,-26.888 0,-8.137 1.49,-13.744 9.821,-20 7.722,-5.788 13.706,-5.648 18.924,-15.135 C 0.081,-25.314 0.022,0 0,0" /></g></g></g></svg>