<?xml version="1.0" encoding="UTF-8" standalone="no"?>
<!-- Created with Inkscape (http://www.inkscape.org/) -->

<svg
   xmlns:dc="http://purl.org/dc/elements/1.1/"
   xmlns:cc="http://creativecommons.org/ns#"
   xmlns:rdf="http://www.w3.org/1999/02/22-rdf-syntax-ns#"
   xmlns:svg="http://www.w3.org/2000/svg"
   xmlns="http://www.w3.org/2000/svg"
   xmlns:sodipodi="http://sodipodi.sourceforge.net/DTD/sodipodi-0.dtd"
   xmlns:inkscape="http://www.inkscape.org/namespaces/inkscape"
   width="300"
   height="300"
   viewBox="0 0 79.374997 79.374999"
   version="1.1"
   id="svg8"
   inkscape:version="0.92pre2 15127"
   sodipodi:docname="favicon.svg">
  <defs
     id="defs2">
    <clipPath
       id="clipPath26"
       clipPathUnits="userSpaceOnUse">
      <path
         inkscape:connector-curvature="0"
         id="path24"
         d="M 0,595.275 H 841.89 V 0 H 0 Z" />
    </clipPath>
  </defs>
  <sodipodi:namedview
     id="base"
     pagecolor="#ffffff"
     bordercolor="#666666"
     borderopacity="1.0"
     inkscape:pageopacity="0.0"
     inkscape:pageshadow="2"
     inkscape:zoom="3.0009658"
     inkscape:cx="150.78645"
     inkscape:cy="146.10916"
     inkscape:document-units="px"
     inkscape:current-layer="layer3"
     showgrid="false"
     inkscape:pagecheckerboard="true"
     fit-margin-top="0"
     fit-margin-left="0"
     fit-margin-right="0"
     fit-margin-bottom="0"
     inkscape:measure-start="75.7614,109.602"
     inkscape:measure-end="92.429,99.2475"
     inkscape:window-width="2560"
     inkscape:window-height="1377"
     inkscape:window-x="-8"
     inkscape:window-y="-8"
     inkscape:window-maximized="1"
     units="px" />
  <metadata
     id="metadata5">
    <rdf:RDF>
      <cc:Work
         rdf:about="">
        <dc:format>image/svg+xml</dc:format>
        <dc:type
           rdf:resource="http://purl.org/dc/dcmitype/StillImage" />
        <dc:title />
      </cc:Work>
    </rdf:RDF>
  </metadata>
  <g
     inkscape:groupmode="layer"
     id="layer2"
     inkscape:label="Layer 2"
     transform="translate(-9.9066291,52.115813)" />
  <g
     inkscape:label="Layer 1"
     inkscape:groupmode="layer"
     id="layer1"
     transform="translate(-320.67328,-225.98699)" />
  <g
     inkscape:groupmode="layer"
     id="layer3"
     inkscape:label="Layer 3"
     transform="translate(-9.9066291,52.115813)">
    <rect
       style="fill:#1a2c6b;fill-opacity:1;stroke:none;stroke-width:0.15875;stroke-miterlimit:4;stroke-dasharray:none;stroke-opacity:0.98999999"
       id="rect33"
       width="79.375"
       height="79.375"
       x="9.9066277"
       y="-52.115814" />
    <g
       id="g1493"
       transform="matrix(0.264583,0,0,0.264583,21.658892,17.44683)">
      <path
         inkscape:connector-curvature="0"
         id="path573"
         d="m 201.25699,-253.08733 c -24.47757,3.52923 -49.11573,8.37326 -71.85398,18.40044 -10.11734,4.91035 -22.34092,11.4194 -24.18566,23.67794 -0.16252,51.62085 -0.0213,103.24958 -0.0677,154.873166 1e-5,-31.877934 96.10798,-43.557624 96.10798,-43.557624 z"
         style="fill:#ffffff;fill-opacity:1;stroke:none;stroke-width:0.9447338;stroke-linecap:butt;stroke-linejoin:miter;stroke-miterlimit:4;stroke-dasharray:none;stroke-opacity:1"
         transform="translate(-7.9166664e-8,-2.0833335e-6)" />
      <g
         transform="matrix(3.314034,0,0,-3.314034,133.2639,-84.257954)"
         id="g52">
        <path
           inkscape:connector-curvature="0"
           id="path54"
           style="fill:#1a2c6b;fill-opacity:1;fill-rule:nonzero;stroke:none"
           d="M -0.53269758,0 -8.4716977,7.266 v 0.007 l -0.005,-0.002 -0.005,0.002 V 7.266 L -16.424698,0 -8.4846977,2.563 h 0.015 z" />
      </g>
      <g
         transform="matrix(3.314034,0,0,-3.314034,106.94256,-108.37887)"
         id="g56">
        <path
           inkscape:connector-curvature="0"
           id="path58"
           style="fill:#1a2c6b;fill-opacity:1;fill-rule:nonzero;stroke:none"
           d="m -0.53269758,0 2.61799988,7.188 5.84,0.7 z" />
      </g>
      <g
         transform="matrix(3.314034,0,0,-3.314034,154.56396,-126.76775)"
         id="g60">
        <path
           inkscape:connector-curvature="0"
           id="path62"
           style="fill:#1a2c6b;fill-opacity:1;fill-rule:nonzero;stroke:none"
           d="m -0.53269758,0 -5.91200012,2.339 -0.164,9.666 z" />
      </g>
      <g
         transform="matrix(3.314034,0,0,-3.314034,139.22357,-180.96707)"
         id="g64">
        <path
           inkscape:connector-curvature="0"
           id="path66"
           style="fill:#1a2c6b;fill-opacity:1;fill-rule:nonzero;stroke:none"
           d="m -0.53269758,0 5.89499988,0.005 -7.338,-4.366 z" />
      </g>
      <g
         transform="matrix(3.314034,0,0,-3.314034,106.9263,-108.37887)"
         id="g68">
        <path
           inkscape:connector-curvature="0"
           id="path70"
           style="opacity:1;fill:#ffffff;fill-opacity:1;fill-rule:nonzero;stroke:none;stroke-width:0.28346458;stroke-linecap:butt;stroke-linejoin:miter;stroke-miterlimit:4;stroke-dasharray:none;stroke-dashoffset:0;stroke-opacity:1"
           d="m -0.53269758,0 -2.62000012,7.188 -5.837,0.7 z" />
      </g>
      <g
         transform="matrix(3.314034,0,0,-3.314034,59.309629,-126.76775)"
         id="g72">
        <path
           inkscape:connector-curvature="0"
           id="path74"
           style="opacity:1;fill:#ffffff;fill-opacity:1;fill-rule:nonzero;stroke:none;stroke-width:0.28346458;stroke-linecap:butt;stroke-linejoin:miter;stroke-miterlimit:4;stroke-dasharray:none;stroke-dashoffset:0;stroke-opacity:1"
           d="m -0.53269758,0 5.90799988,2.339 0.162,9.666 z" />
      </g>
      <g
         style="opacity:1;fill:#9a7a49;fill-opacity:1;stroke:none;stroke-width:0.28346458;stroke-linecap:butt;stroke-linejoin:miter;stroke-miterlimit:4;stroke-dasharray:none;stroke-dashoffset:0;stroke-opacity:1"
         transform="matrix(3.314034,0,0,-3.314034,74.640339,-180.96707)"
         id="g76">
        <path
           inkscape:connector-curvature="0"
           id="path78"
           style="fill:#ffffff;fill-opacity:1;fill-rule:nonzero;stroke:none;stroke-width:0.28346458;stroke-linecap:butt;stroke-linejoin:miter;stroke-miterlimit:4;stroke-dasharray:none;stroke-dashoffset:0;stroke-opacity:1"
           d="M -0.53269758,0 -6.4266977,0.005 0.91130239,-4.361 Z" />
      </g>
      <g
         transform="matrix(3.314034,0,0,-3.314034,173.97557,-228.81673)"
         id="g80">
        <path
           inkscape:connector-curvature="0"
           id="path82"
           style="fill:#1a2c6b;fill-opacity:1;fill-rule:nonzero;stroke:none"
           d="M -0.53269758,0 C -5.7946977,-4.961 -9.4156977,-2.782 -11.276698,-2.382 c -0.977,0.395 -2.206,0.631 -3.539,0.631 -3.217,0 -5.827,-1.371 -5.827,-3.061 0,-0.615 0.346,-1.18 0.937,-1.658 0.599,0.559 1.531,1.009 2.64,1.274 1.138,0.192 3.066,0.352 5.357,-0.231 0.201,-0.057 0.422,-0.12 0.656,-0.175 v -0.002 c 0.278,-0.086 0.528,-0.147 0.745001,-0.184 0.097,-0.022 0.179,-0.041 0.287,-0.063 5.9549993,-1.317 9.53899942,1.674 9.53899942,1.674 z" />
      </g>
      <g
         transform="matrix(3.314034,0,0,-3.314034,105.1851,-56.137365)"
         id="g84">
        <path
           inkscape:connector-curvature="0"
           id="path86"
           style="opacity:1;fill:#ffffff;fill-opacity:1;fill-rule:nonzero;stroke:none;stroke-width:0.28346458;stroke-linecap:butt;stroke-linejoin:miter;stroke-miterlimit:4;stroke-dasharray:none;stroke-dashoffset:0;stroke-opacity:1"
           d="m 0,0 c 0,0 -3.318,0.011 -4.946,0.805 -2.946,1.421 -3.509,5.785 -3.882,9.394 -0.041,0.394 -2.78,1.261 -4.083,2.459 -2.12,1.934 -1.795,7.985 -1.795,8.375 0,0.39 -3.433,2.069 -3.433,5.815 0,1.582 0.028,10.434 0.028,10.434 -2.235,2.774 -3.659,2.811 -5.449,2.256 -2.214,-0.711 -2.856,-2.35 -5.167,-2.679 0,-0.506 -0.023,-26.888 -0.023,-26.888 0,-8.137 1.49,-13.744 9.821,-20 7.722,-5.788 13.706,-5.648 18.924,-15.135 C 0.081,-25.314 0.022,0 0,0" />
      </g>
      <g
         style="opacity:1;fill:#9a7a49;fill-opacity:1;stroke:none;stroke-width:0.28507066;stroke-linecap:butt;stroke-linejoin:miter;stroke-miterlimit:4;stroke-dasharray:none;stroke-dashoffset:0;stroke-opacity:1"
         id="g1415"
         transform="matrix(3.314034,0,0,-3.314034,133.2142,-84.257934)">
        <path
           inkscape:connector-curvature="0"
           id="path1413"
           transform="matrix(0.75000002,0,0,-0.75000002,-65.289482,43.62018)"
           d="m 75.744141,48.462891 v 0.0098 l -10.591797,9.6875 10.58789,-3.417968 h 0.01953 v -6.267579 l -0.002,-0.002 v -0.0098 l -0.0078,0.002 z"
           style="fill:#ffffff;fill-opacity:1;fill-rule:nonzero;stroke:none;stroke-width:0.3800942;stroke-linecap:butt;stroke-linejoin:miter;stroke-miterlimit:4;stroke-dasharray:none;stroke-dashoffset:0;stroke-opacity:1" />
      </g>
    </g>
  </g>
</svg>
