<svg xmlns="http://www.w3.org/2000/svg" width="128" height="128" viewBox="0 0 128 127.99999"><path d="M74.633 73.668L64.048 63.98v-.01l-.007.003-.007-.002v.009l-10.59 9.688 10.586-3.417h.02zm-10.59-9.705l3.49-9.584 7.787-.933zm19.16-7.398l-7.883-3.119-.219-12.888z" fill="#1a2c6b"/><path d="M77.03 34.76l7.86-.008-9.783 5.822z" fill="#1a2c6b"/><path d="M64.037 63.963l-3.494-9.584-7.782-.933zm-19.158-7.398l7.877-3.119.216-12.888z" fill="#917641"/><path d="M51.047 34.76l-7.859-.008 9.784 5.822zm39.965-19.252c-7.016 6.614-11.844 3.71-14.325 3.176-1.303-.527-2.941-.842-4.719-.842-4.289 0-7.769 1.828-7.769 4.082 0 .82.461 1.573 1.25 2.21.798-.745 2.04-1.345 3.52-1.698a17.341 17.341 0 0 1 7.142.308c.268.076.563.16.875.233v.003c.37.114.704.196.993.245.13.03.239.055.383.084 7.94 1.756 12.718-2.232 12.718-2.232z" fill="#917641"/><path d="M63.336 84.982s-4.424-.015-6.595-1.074c-3.928-1.894-4.678-7.713-5.176-12.525-.054-.525-3.706-1.681-5.444-3.279-2.826-2.578-2.393-10.646-2.393-11.166 0-.52-4.577-2.759-4.577-7.754 0-2.109.037-13.912.037-13.912-2.98-3.698-4.879-3.748-7.265-3.008-2.952.948-3.808 3.134-6.89 3.572l-.03 35.851c0 10.85 1.986 18.325 13.094 26.667 10.296 7.717 18.275 7.53 25.232 20.18.115.2.036-33.552.007-33.552" fill="#1a2c6b"/></svg>