<svg xmlns="http://www.w3.org/2000/svg" width="300" height="300" viewBox="0 0 79.374997 79.374999"><path d="M65.001 2.6c-6.476.934-12.995 2.215-19.01 4.868-2.678 1.3-5.912 3.022-6.4 6.265-.043 13.658-.006 27.318-.018 40.977 0-8.434 25.429-11.525 25.429-11.525z" fill="#9a7a49"/><path d="M46.545 47.27l-6.962-6.372v-.006l-.004.002-.004-.002v.006L32.61 47.27l6.962-2.247h.013zm-6.965-6.383l2.296-6.302 5.12-.614z" fill="#fff"/><path d="M52.18 36.022l-5.184-2.05-.143-8.476z" fill="#fff"/><path d="M48.121 21.682l5.17-.005-6.435 3.829z" fill="#fff"/><path d="M39.576 40.887l-2.297-6.302-5.118-.614zm-12.599-4.865l5.18-2.05.143-8.476z" fill="#9a7a49"/><path d="M31.034 21.682l-5.168-.005 6.434 3.829z" fill="#9a7a49"/><path d="M57.316 9.022c-4.614 4.35-7.789 2.439-9.42 2.088-.857-.346-1.935-.553-3.104-.553-2.82 0-5.109 1.202-5.109 2.684 0 .54.303 1.035.822 1.454.525-.49 1.342-.885 2.314-1.117a11.404 11.404 0 0 1 4.698.202c.176.05.37.105.575.154v.001c.244.076.463.13.653.162.085.019.157.036.252.055 5.221 1.155 8.364-1.468 8.364-1.468z" fill="#fff"/><path d="M39.582 54.71s-2.909-.01-4.336-.706c-2.584-1.246-3.077-5.073-3.404-8.237-.036-.346-2.438-1.106-3.58-2.156-1.86-1.696-1.574-7.002-1.574-7.344 0-.342-3.01-1.814-3.01-5.099 0-1.387.024-9.149.024-9.149-1.96-2.432-3.208-2.464-4.778-1.978-1.941.624-2.504 2.06-4.53 2.35l-.02 23.576c0 7.135 1.306 12.051 8.61 17.536 6.772 5.076 12.019 4.953 16.594 13.271.075.132.024-22.064.004-22.064" fill="#9a7a49"/><path d="M39.562 40.892v.007l-6.966 6.37 6.963-2.247h.013V40.9l-.001-.001v-.007l-.005.001z" fill="#9a7a49"/></svg>