<svg xmlns="http://www.w3.org/2000/svg" width="300" height="300" viewBox="0 0 79.374997 79.374999"><g transform="translate(-9.907 52.116)"><rect width="79.375" height="79.375" x="9.907" y="-52.116" rx="0" ry="0" fill="#fff"/><path fill="#fff" d="M36.546-7.984h12.946V7.608H36.546z"/><path d="M74.762-49.516c-6.412.934-12.867 2.216-18.824 4.869-2.65 1.299-5.853 3.021-6.336 6.264-.043 13.658-.006 27.319-.018 40.977 0-8.434 25.178-11.524 25.178-11.524z" fill="#9a7a49"/><path d="M56.597-4.846l-6.961-6.371v-.007l-.004.002-.005-.002v.007l-6.965 6.37 6.963-2.247h.013zm-6.964-6.382l2.296-6.303 5.12-.614z" fill="#fff"/><path d="M62.233-16.094l-5.184-2.05-.144-8.476z" fill="#fff"/><path d="M58.174-30.434l5.169-.004-6.434 3.828z" fill="#fff"/><path d="M24.442-49.516c6.412.934 12.867 2.216 18.824 4.869 2.65 1.299 5.853 3.021 6.336 6.264.043 13.658.006 27.319.018 40.977C49.62-5.84 24.442-8.93 24.442-8.93z" fill="none"/><path d="M49.629-11.228l-2.298-6.303-5.118-.614zM37.03-16.094l5.18-2.05.142-8.476z" fill="#9a7a49"/><path d="M41.086-30.434l-5.168-.004 6.434 3.828z" fill="#9a7a49"/><path d="M67.369-43.094c-4.614 4.35-7.79 2.44-9.421 2.088-.857-.346-1.934-.553-3.103-.553-2.82 0-5.11 1.202-5.11 2.684 0 .54.304 1.035.822 1.454.525-.49 1.343-.885 2.315-1.117a11.404 11.404 0 0 1 4.697.202c.176.05.37.106.575.154v.002c.244.075.463.129.654.16.085.02.157.037.251.056 5.222 1.155 8.364-1.468 8.364-1.468z" fill="#fff"/><path d="M49.635 2.594s-2.91-.01-4.337-.706c-2.583-1.246-3.077-5.073-3.404-8.237-.036-.345-2.437-1.106-3.58-2.156-1.859-1.696-1.574-7.002-1.574-7.344 0-.342-3.01-1.814-3.01-5.098 0-1.388.025-9.15.025-9.15-1.96-2.432-3.209-2.464-4.778-1.978-1.942.624-2.504 2.061-4.53 2.35L24.425-6.15c0 7.135 1.306 12.051 8.611 17.537 6.771 5.075 12.018 4.952 16.594 13.27.075.132.023-22.064.004-22.064" fill="#9a7a49"/><path d="M49.614-11.224v.007l-6.965 6.37 6.963-2.247h.013v-4.122l-.002-.001v-.007l-.005.002z" fill="#9a7a49"/></g></svg>