<?xml version="1.0" encoding="UTF-8" standalone="no"?>
<!-- Created with Inkscape (http://www.inkscape.org/) -->

<svg
   xmlns:dc="http://purl.org/dc/elements/1.1/"
   xmlns:cc="http://creativecommons.org/ns#"
   xmlns:rdf="http://www.w3.org/1999/02/22-rdf-syntax-ns#"
   xmlns:svg="http://www.w3.org/2000/svg"
   xmlns="http://www.w3.org/2000/svg"
   xmlns:sodipodi="http://sodipodi.sourceforge.net/DTD/sodipodi-0.dtd"
   xmlns:inkscape="http://www.inkscape.org/namespaces/inkscape"
   width="22"
   version="1.1"
   height="22"
   viewBox="0 0 5.8208332 5.8208335"
   id="svg9"
   sodipodi:docname="feedback_in_love.svg"
   inkscape:version="0.92.1 r15371">
  <sodipodi:namedview
     pagecolor="#ffffff"
     bordercolor="#666666"
     borderopacity="1"
     objecttolerance="10"
     gridtolerance="10"
     guidetolerance="10"
     inkscape:pageopacity="0"
     inkscape:pageshadow="2"
     inkscape:window-width="1579"
     inkscape:window-height="1056"
     id="namedview11"
     showgrid="false"
     inkscape:pagecheckerboard="true"
     inkscape:zoom="10.727273"
     inkscape:cx="-8.5762712"
     inkscape:cy="11"
     inkscape:window-x="590"
     inkscape:window-y="183"
     inkscape:window-maximized="0"
     inkscape:current-layer="layer2" />
  <defs
     id="defs4" />
  <metadata
     id="metadata7">
    <rdf:RDF>
      <cc:Work
         rdf:about="">
        <dc:format>image/svg+xml</dc:format>
        <dc:type
           rdf:resource="http://purl.org/dc/dcmitype/StillImage" />
        <dc:title />
      </cc:Work>
    </rdf:RDF>
  </metadata>
  <g
     inkscape:groupmode="layer"
     id="layer2"
     inkscape:label="Capa 2"
     style="display:inline">
    <path
       style="fill:#e9afaf;stroke-width:1.04830909"
       d="M 10.953125 0.93164062 A 10.114406 10.114406 0 0 0 0.83984375 11.046875 A 10.114406 10.114406 0 0 0 10.953125 21.160156 A 10.114406 10.114406 0 0 0 21.068359 11.046875 A 10.114406 10.114406 0 0 0 10.953125 0.93164062 z M 4.8613281 7.0039062 C 4.9762485 7.0097962 5.0868435 7.0283259 5.1894531 7.0605469 C 5.3942544 7.1263109 5.6468061 7.2669321 5.8808594 7.4492188 L 6 7.5410156 L 6.1171875 7.4492188 C 6.4296902 7.2058172 6.7321006 7.0579044 7.0117188 7.0117188 C 7.1159239 6.9890416 7.4107495 7.0011407 7.5351562 7.0351562 C 8.0965042 7.1436287 8.5640104 7.4843268 8.8125 7.9628906 C 8.9412005 8.2123394 9 8.4543142 9 8.7460938 C 9 9.1429817 8.9031718 9.517808 8.7109375 9.8671875 C 8.5632222 10.137802 8.3978902 10.342931 8.1191406 10.607422 C 7.7429831 10.964965 7.3828406 11.209356 6.6054688 11.632812 C 6.3249598 11.786639 6.1352303 11.897944 6.0605469 11.953125 C 6.027665 11.99092 5.9979191 12 5.9960938 12 C 5.9942438 12 5.9742349 11.978011 5.9511719 11.962891 L 5.9511719 11.958984 C 5.8898639 11.910984 5.6847524 11.777935 5.3574219 11.585938 C 4.6706081 11.181862 4.2869271 10.915615 3.9375 10.59375 C 3.4264966 10.122972 3.1281085 9.6323082 3.0273438 9.0976562 C 2.9996814 8.9525226 2.9909398 8.6435609 3.0097656 8.5097656 C 3.0817811 7.9968081 3.3708368 7.5569152 3.8203125 7.2773438 C 4.1333557 7.0831705 4.516567 6.9862253 4.8613281 7.0039062 z M 14.861328 7.0039062 C 14.976249 7.0097962 15.086843 7.0283259 15.189453 7.0605469 C 15.394254 7.1263109 15.646806 7.2669321 15.880859 7.4492188 L 16 7.5410156 L 16.117188 7.4492188 C 16.429689 7.2058172 16.732101 7.0579045 17.011719 7.0117188 C 17.115924 6.9890418 17.410749 7.0011413 17.535156 7.0351562 C 18.096504 7.1436291 18.56401 7.4843268 18.8125 7.9628906 C 18.9412 8.2123394 19 8.4543142 19 8.7460938 C 19 9.1429818 18.903169 9.517808 18.710938 9.8671875 C 18.563222 10.137802 18.39789 10.342931 18.119141 10.607422 C 17.742983 10.964965 17.382841 11.209355 16.605469 11.632812 C 16.32496 11.786639 16.13523 11.897944 16.060547 11.953125 C 16.027665 11.99092 15.997919 12 15.996094 12 C 15.994294 12 15.974232 11.978011 15.951172 11.962891 L 15.951172 11.958984 C 15.889862 11.910984 15.684752 11.777936 15.357422 11.585938 C 14.670608 11.181868 14.286927 10.915615 13.9375 10.59375 C 13.426497 10.122972 13.128109 9.6323082 13.027344 9.0976562 C 12.999674 8.9525225 12.990946 8.6435609 13.009766 8.5097656 C 13.081776 7.9968081 13.370838 7.5569153 13.820312 7.2773438 C 14.133356 7.0831705 14.516567 6.9862252 14.861328 7.0039062 z M 14 14 C 14 16.001298 12.500004 17 11 17 C 9.5000015 16.995767 8 16.001287 8 14.007812 C 8 14.007812 9.2656315 14.003906 9.5 14.003906 C 12.265628 14.003944 9.94675 14.000127 11 14.003906 C 12.052237 14.000127 9.7373052 14.003906 12.5 14.003906 C 12.737303 14.003906 14 14 14 14 z "
       transform="scale(0.26458333)"
       id="path16" />
  </g>
</svg>
