<svg xmlns="http://www.w3.org/2000/svg" width="800" height="800" viewBox="0 0 211.66666 211.66666"><defs><filter id="a" color-interpolation-filters="sRGB"><feColorMatrix values="1.243 0 0 0.157683 -0.1215 0 1.243 0 0.157683 -0.1215 0 0 1.243 0.157683 -0.1215 0 0 0 1 0"/></filter></defs><path d="M303.951 11.266l-39.11 40.48c-21.51 22.265-42.536 44.32-46.726 49.012l-7.62 8.53.653 53.894c.47 38.622.184 53.603-1.007 52.867-.915-.566-1.664-2.747-1.664-4.846 0-4.585-2.155-13.925-7.008-30.373-4.66-15.793-8.734-51.11-7.967-69.076l.6-14.078-3.887.945c-2.138.52-5.95 2.636-8.47 4.701-11.655 9.549-83.255 77.744-83.255 79.295 0 .437-1.394 2.75-3.095 5.14-3.652 5.13-9.125 25.424-9.125 33.833 0 4.79-1.222 7.258-6.493 13.12-3.57 3.973-6.905 7.567-7.41 7.987-.504.42-2.826 3.856-5.162 7.637-2.336 3.78-7.295 11.5-11.018 17.15-3.722 5.651-11.193 19.399-16.603 30.551-5.41 11.153-12.305 24.706-15.322 30.117-7.179 12.872-7.724 19.849-3.805 48.768 2.019 14.899 3.182 31.711 3.182 46.023 0 25.188-.574 26.699-10.067 26.43-2.868-.081-5.549.39-5.955 1.047-.406.657 1.676 31.005 4.63 67.443a6677.85 6677.85 0 0 1 1.935 24.524c71.787 167.132 166.816 235.738 323.59 239.31 62.88-2.077 139.002-6.839 197.943-40.982 10.167-1.777 20.606-3.756 31.146-5.527 5.954-1.365 12.68-2.823 16.64-3.59 24.887-4.822 79.093-17.537 81.745-19.176 2.353-1.454 1.871-2.964-3.488-10.928-4.291-6.376-5.06-8.955-5.44-18.258l-.441-10.834 12.695 2.793c14.87 3.272 27.724 3.684 29.856.957 2.479-3.17 4.916-11.31 12.01-40.101 18.058-73.299 23.678-98.912 23.23-105.862l-.463-7.18-30.55-10.189-30.551-10.191 28.275.873c31.788.98 33.486.592 44.308-10.123 5.77-5.712 9.17-14.44 15.913-40.858 3.171-12.425 3.061-14.574-1.444-28.101l-3.84-11.53-27.093-11.273c-28.882-12.017-40.945-17.6-42.116-19.498-.398-.646 19.12-1.176 43.375-1.176 39.546 0 44.367-.27 46.705-2.609 2.667-2.668 14.802-42.948 16.649-55.266.884-5.894.277-8.394-4.424-18.168-12.06-25.073-14.43-28.176-24.576-32.195a36523.34 36523.34 0 0 1-51.252-20.441c-48.57-19.401-49.276-19.648-64.287-22.426-6.231-1.153-21.642-5.963-34.244-10.688a8017.568 8017.568 0 0 0-40.1-14.906c-9.452-3.473-17.185-6.813-17.185-7.422 0-2.626 5.063-4.46 25.207-9.133 34.97-8.113 93.01-22.618 97.82-24.447 8.145-3.096 33.123-9.204 65.633-16.047 42.91-9.032 43.537-9.227 43.537-13.625 0-3.197-1.346-3.934-12.604-6.894-6.931-1.823-17.757-4.965-24.058-6.983C746 117.675 700.63 104.37 651.48 90.125 466.59 36.541 480.47 40.021 472.537 45.264c-2.218 1.466-12.53 10.31-22.914 19.656-10.384 9.345-31.256 27.969-46.379 41.385-15.123 13.416-32.995 29.652-39.717 36.082-6.721 6.429-12.403 11.695-12.629 11.7-.665.018 12.63-17.557 37.073-49.001 12.602-16.212 25.566-32.953 28.808-37.205 3.243-4.252 10.897-13.919 17.01-21.48 9.775-12.092 11.024-14.343 10.36-18.676-.632-4.118-1.546-5.053-5.555-5.704-9.891-1.605-109.19-10.118-121.656-10.43zM166.068 458.19c.228.055.887.667 2.041 1.77 1.519 1.45 2.343 3.054 1.83 3.566-.511.512-1.755-.672-2.761-2.634-.875-1.706-1.303-2.568-1.182-2.69.015-.015.04-.02.072-.012zm4.682 10.868a.448.448 0 0 1 .15.011c.262.062.618.331 1.086.8.935.934 1.438 2.488 1.116 3.454-.76 2.278-2.815.224-2.815-2.812 0-.94.137-1.418.463-1.453z" transform="scale(.26458)" fill="#fac" filter="url(#a)"/><path d="M150.439 169.476a75.8 75.8 0 0 1-105.005 21.566A75.8 75.8 0 0 1 23.866 86.038a75.8 75.8 0 0 1 105.004-21.57 75.8 75.8 0 0 1 21.572 105.003" fill="#1a2c6b" stroke="red" stroke-width=".942" stroke-linecap="round" stroke-linejoin="round"/></svg>