<svg xmlns="http://www.w3.org/2000/svg" width="22" height="22" viewBox="0 0 5.8208332 5.8208335"><path d="M2.91.234A2.676 2.676 0 0 0 .234 2.91 2.676 2.676 0 0 0 2.91 5.587 2.676 2.676 0 0 0 5.587 2.91 2.676 2.676 0 0 0 2.91.234zM1.72 1.852a.397.397 0 0 1 .397.397.397.397 0 0 1-.397.397.397.397 0 0 1-.397-.397.397.397 0 0 1 .397-.397zm2.381 0a.397.397 0 0 1 .397.397.397.397 0 0 1-.397.397.397.397 0 0 1-.397-.397.397.397 0 0 1 .397-.397zM1.766 3.704h.161a1.323 1.588 0 0 0 .983.53 1.323 1.588 0 0 0 .983-.53h.161a1.323 1.588 0 0 1-1.144.794 1.323 1.588 0 0 1-1.144-.794z" fill="#fea"/></svg>