<svg xmlns="http://www.w3.org/2000/svg" width="22" height="22" viewBox="0 0 5.8208332 5.8208335"><path d="M2.91.234A2.676 2.676 0 0 0 .234 2.91 2.676 2.676 0 0 0 2.91 5.587 2.676 2.676 0 0 0 5.587 2.91 2.676 2.676 0 0 0 2.91.234zm.907 1.745l.665.167a.397.397 30 0 1-.037.309.397.397 30 0 1-.542.145.397.397 30 0 1-.146-.542.397.397 30 0 1 .06-.079zm-1.814.01a.397.397 60 0 1 .06.079.397.397 60 0 1-.145.542.397.397 60 0 1-.542-.146.397.397 60 0 1-.037-.309l.664-.166zm.906 1.45a1.058 1.72 0 0 1 .616.323.794.53 0 0 1 .444-.26v.104A.794.53 0 0 0 3.704 4a.794.53 0 0 0 .265.394v.105A.794.53 0 0 1 3.439 4a.794.53 0 0 1 .009-.072 1.058 1.588 0 0 0-.538-.224 1.058 1.588 0 0 0-.537.224.794.53 0 0 1 .008.072.794.53 0 0 1-.529.498v-.105a.794.53 0 0 0 .265-.394.794.53 0 0 0-.265-.393v-.104a.794.53 0 0 1 .443.26 1.058 1.72 0 0 1 .614-.322z" fill="#afe9c6"/></svg>