<?xml version="1.0" encoding="UTF-8" standalone="no"?>
<!-- Created with Inkscape (http://www.inkscape.org/) -->

<svg
   xmlns:dc="http://purl.org/dc/elements/1.1/"
   xmlns:cc="http://creativecommons.org/ns#"
   xmlns:rdf="http://www.w3.org/1999/02/22-rdf-syntax-ns#"
   xmlns:svg="http://www.w3.org/2000/svg"
   xmlns="http://www.w3.org/2000/svg"
   xmlns:sodipodi="http://sodipodi.sourceforge.net/DTD/sodipodi-0.dtd"
   xmlns:inkscape="http://www.inkscape.org/namespaces/inkscape"
   width="22"
   version="1.1"
   height="22"
   viewBox="0 0 5.8208332 5.8208335"
   id="svg9"
   sodipodi:docname="feedback_sad.svg"
   inkscape:version="0.92.1 r15371">
  <sodipodi:namedview
     pagecolor="#ffffff"
     bordercolor="#666666"
     borderopacity="1"
     objecttolerance="10"
     gridtolerance="10"
     guidetolerance="10"
     inkscape:pageopacity="0"
     inkscape:pageshadow="2"
     inkscape:window-width="1668"
     inkscape:window-height="1081"
     id="namedview11"
     showgrid="false"
     inkscape:pagecheckerboard="true"
     inkscape:zoom="10.727273"
     inkscape:cx="-8.5762712"
     inkscape:cy="11"
     inkscape:window-x="391"
     inkscape:window-y="77"
     inkscape:window-maximized="0"
     inkscape:current-layer="layer2" />
  <defs
     id="defs4" />
  <metadata
     id="metadata7">
    <rdf:RDF>
      <cc:Work
         rdf:about="">
        <dc:format>image/svg+xml</dc:format>
        <dc:type
           rdf:resource="http://purl.org/dc/dcmitype/StillImage" />
        <dc:title />
      </cc:Work>
    </rdf:RDF>
  </metadata>
  <g
     inkscape:groupmode="layer"
     id="layer2"
     inkscape:label="Capa 2">
    <path
       style="fill:#ffeeaa;stroke-width:1.04830909"
       d="M 11 0.88476562 A 10.114406 10.114406 0 0 0 0.88476562 11 A 10.114406 10.114406 0 0 0 11 21.115234 A 10.114406 10.114406 0 0 0 21.115234 11 A 10.114406 10.114406 0 0 0 11 0.88476562 z M 14.427734 7.4804688 L 16.939453 8.109375 A 1.5 1.5000452 30 0 1 16.798828 9.2773438 A 1.5 1.5000452 30 0 1 14.75 9.8261719 A 1.5 1.5000452 30 0 1 14.201172 7.7773438 A 1.5 1.5000452 30 0 1 14.427734 7.4804688 z M 7.5703125 7.5175781 A 1.5000452 1.5 60 0 1 7.7988281 7.8144531 A 1.5000452 1.5 60 0 1 7.25 9.8632812 A 1.5000452 1.5 60 0 1 5.1992188 9.3144531 A 1.5000452 1.5 60 0 1 5.0605469 8.1464844 L 7.5703125 7.5175781 z M 10.994141 13 A 4.000001 6.4999737 0 0 1 10.998047 13 A 4.000001 6.4999737 0 0 1 14.367188 16 L 13.974609 16 A 4.0000002 6.0000004 0 0 0 10.998047 14 A 4.0000002 6.0000004 0 0 0 8.0234375 16 L 7.6328125 16 A 4.000001 6.4999737 0 0 1 10.994141 13 z "
       transform="scale(0.26458333)"
       id="path16" />
  </g>
</svg>
