<svg xmlns="http://www.w3.org/2000/svg" width="22" height="22" viewBox="0 0 5.8208332 5.8208335"><path d="M2.91.234A2.676 2.676 0 0 0 .234 2.91 2.676 2.676 0 0 0 2.91 5.587 2.676 2.676 0 0 0 5.587 2.91 2.676 2.676 0 0 0 2.91.234zm.907 1.745l.665.167a.397.397 30 0 1-.037.309.397.397 30 0 1-.542.145.397.397 30 0 1-.146-.542.397.397 30 0 1 .06-.079zm-1.814.01a.397.397 60 0 1 .06.079.397.397 60 0 1-.145.542.397.397 60 0 1-.542-.146.397.397 60 0 1-.037-.309l.664-.166zm.906 1.45a1.058 1.72 0 0 1 .892.794h-.104a1.058 1.588 0 0 0-.787-.529 1.058 1.588 0 0 0-.787.53H2.02a1.058 1.72 0 0 1 .889-.794z" fill="#fea"/></svg>