<?xml version="1.0" encoding="UTF-8" standalone="no"?>
<!-- Created with Inkscape (http://www.inkscape.org/) -->

<svg
   xmlns:dc="http://purl.org/dc/elements/1.1/"
   xmlns:cc="http://creativecommons.org/ns#"
   xmlns:rdf="http://www.w3.org/1999/02/22-rdf-syntax-ns#"
   xmlns:svg="http://www.w3.org/2000/svg"
   xmlns="http://www.w3.org/2000/svg"
   xmlns:xlink="http://www.w3.org/1999/xlink"
   xmlns:sodipodi="http://sodipodi.sourceforge.net/DTD/sodipodi-0.dtd"
   xmlns:inkscape="http://www.inkscape.org/namespaces/inkscape"
   width="800"
   height="800"
   viewBox="0 0 211.66666 211.66666"
   version="1.1"
   id="svg8"
   inkscape:version="0.92.1 r15371"
   sodipodi:docname="feedback_2.svg">
  <defs
     id="defs2">
    <linearGradient
       inkscape:collect="always"
       id="linearGradient819">
      <stop
         style="stop-color:#ffcc00;stop-opacity:1"
         offset="0"
         id="stop815" />
      <stop
         id="stop825"
         offset="0.14798291"
         style="stop-color:#ffcc00;stop-opacity:1" />
      <stop
         style="stop-color:#d35f5f;stop-opacity:1"
         offset="0.29870713"
         id="stop827" />
      <stop
         id="stop823"
         offset="0.50057054"
         style="stop-color:#784421;stop-opacity:1" />
      <stop
         style="stop-color:#a77300;stop-opacity:1"
         offset="1"
         id="stop817" />
    </linearGradient>
    <radialGradient
       inkscape:collect="always"
       xlink:href="#linearGradient819"
       id="radialGradient821"
       cx="173.61081"
       cy="203.38066"
       fx="173.61081"
       fy="203.38066"
       r="90.713287"
       gradientTransform="matrix(1.3497358,-8.7516261e-4,9.6757892e-4,1.4922633,-61.836133,-101.39094)"
       gradientUnits="userSpaceOnUse" />
    <filter
       style="color-interpolation-filters:sRGB;"
       inkscape:label="Lightness-Contrast"
       id="filter987">
      <feColorMatrix
         values="1.243 0 0 0.157683 -0.1215 0 1.243 0 0.157683 -0.1215 0 0 1.243 0.157683 -0.1215 0 0 0 1 0"
         id="feColorMatrix985" />
    </filter>
  </defs>
  <sodipodi:namedview
     id="base"
     pagecolor="#ffffff"
     bordercolor="#666666"
     borderopacity="1.0"
     inkscape:pageopacity="0.0"
     inkscape:pageshadow="2"
     inkscape:zoom="0.49497475"
     inkscape:cx="-36.168254"
     inkscape:cy="190.9297"
     inkscape:document-units="mm"
     inkscape:current-layer="g4627"
     showgrid="false"
     inkscape:pagecheckerboard="true"
     fit-margin-top="0"
     fit-margin-left="0"
     fit-margin-right="0"
     fit-margin-bottom="0"
     inkscape:window-width="1920"
     inkscape:window-height="1018"
     inkscape:window-x="1358"
     inkscape:window-y="-8"
     inkscape:window-maximized="1"
     units="px" />
  <metadata
     id="metadata5">
    <rdf:RDF>
      <cc:Work
         rdf:about="">
        <dc:format>image/svg+xml</dc:format>
        <dc:type
           rdf:resource="http://purl.org/dc/dcmitype/StillImage" />
        <dc:title />
      </cc:Work>
    </rdf:RDF>
  </metadata>
  <g
     inkscape:groupmode="layer"
     id="layer2"
     inkscape:label="base"
     transform="translate(0,-132.29165)">
    <g
       id="g845"
       transform="matrix(1.1456967,0,0,1.1456967,-116.83081,46.276635)">
      <path
         inkscape:connector-curvature="0"
         id="path307"
         d="m 172.16725,77.67844 -9.03203,9.348267 c -4.96758,5.141736 -9.82345,10.235384 -10.79105,11.318689 l -1.75959,1.969394 0.15089,12.44627 c 0.10824,8.91922 0.0427,12.37919 -0.23254,12.20907 -0.21127,-0.13056 -0.38447,-0.63408 -0.38447,-1.11879 0,-1.05886 -0.49765,-3.21615 -1.61851,-7.01456 -1.07621,-3.64714 -2.0167,-11.80306 -1.83967,-15.952 l 0.13848,-3.251486 -0.89762,0.218592 c -0.49377,0.120228 -1.37385,0.608807 -1.95596,1.085722 -2.69134,2.205112 -19.22672,17.953742 -19.22672,18.312062 0,0.10089 -0.32165,0.63504 -0.71469,1.18701 -0.84336,1.1844 -2.10735,5.87107 -2.10735,7.81296 0,1.10621 -0.28191,1.67628 -1.49916,3.03031 -0.8246,0.91729 -1.59498,1.74732 -1.71151,1.84433 -0.11652,0.097 -0.65278,0.89059 -1.19218,1.76372 -0.53938,0.87312 -1.68442,2.65544 -2.54402,3.96048 -0.85961,1.30502 -2.58501,4.47986 -3.8344,7.05538 -1.24939,2.57552 -2.84189,5.70548 -3.5388,6.95513 -1.6578,2.97263 -1.78348,4.58383 -0.8785,11.26235 0.46625,3.44075 0.73483,7.32306 0.73483,10.62829 0,5.81675 -0.13279,6.16561 -2.32492,6.10351 -0.66238,-0.0188 -1.2813,0.0901 -1.37509,0.24184 -0.0938,0.15171 0.38729,7.16045 1.06918,15.57528 0.68188,8.41483 1.30426,17.05724 1.38284,19.20554 0.11036,3.01736 0.46665,5.22669 1.56581,9.71052 2.06203,8.4117 3.13198,11.92833 4.17494,13.72371 1.27137,2.1886 4.6338,5.9501 5.91386,6.6151 1.75487,0.9117 3.70416,2.63723 3.70416,3.27887 0,0.3322 1.06974,1.40929 2.38125,2.39779 3.57908,2.69756 5.48328,4.17985 6.21615,4.83898 0.24514,0.22047 0.39489,0.42145 0.47234,0.80305 7.2118,-0.14783 14.9258,-0.23151 22.99496,-0.23151 33.6451,0 61.63379,1.3946 68.85315,3.27474 2.48209,0.14075 3.72235,0.0956 4.01061,-0.14366 0.32801,-0.2722 0.53724,-2.12681 0.71882,-6.37533 0.25088,-5.86922 0.27157,-5.99136 1.03561,-5.99136 0.42894,0 2.04052,-0.30087 3.58119,-0.66869 1.54064,-0.36783 3.75385,-0.85296 4.91804,-1.07849 5.7471,-1.11341 18.26546,-4.05016 18.87792,-4.42867 0.54337,-0.33583 0.43198,-0.68424 -0.80566,-2.52336 -0.99092,-1.47253 -1.16853,-2.06839 -1.25624,-4.2168 l -0.10181,-2.50165 2.93161,0.64492 c 3.434,0.75552 6.40228,0.85091 6.89467,0.22117 0.57256,-0.73228 1.13533,-2.61178 2.77347,-9.26093 4.17039,-16.92728 5.46843,-22.84266 5.36506,-24.4476 l -0.10697,-1.65778 -7.05538,-2.35335 -7.05541,-2.35334 6.52984,0.20153 c 7.34108,0.22627 7.73306,0.1367 10.23247,-2.33783 1.33242,-1.31919 2.11741,-3.33485 3.67469,-9.4356 0.7325,-2.86956 0.70702,-3.36572 -0.33329,-6.48953 l -0.88678,-2.66237 -6.25697,-2.60346 c -6.66983,-2.77512 -9.45571,-4.0649 -9.72603,-4.50308 -0.092,-0.14922 4.4156,-0.2713 10.01696,-0.2713 9.13257,0 10.24597,-0.0624 10.7859,-0.60255 0.6159,-0.61619 3.41815,-9.91852 3.84471,-12.76304 0.20416,-1.36119 0.064,-1.93846 -1.02163,-4.19561 -2.785,-5.79026 -3.33272,-6.50715 -5.67563,-7.43521 -1.17404,-0.46504 -6.5002,-2.5893 -11.83595,-4.72063 -11.21667,-4.48042 -11.37944,-4.53744 -14.84614,-5.17902 -1.43899,-0.26631 -4.99761,-1.37689 -7.90803,-2.46806 -2.91041,-1.09118 -7.0776,-2.64014 -9.26041,-3.44217 -2.18282,-0.80203 -3.96875,-1.57344 -3.96875,-1.71411 0,-0.60641 1.16895,-1.02964 5.82083,-2.10891 8.07574,-1.87364 21.47935,-5.22377 22.59034,-5.64617 1.88092,-0.71512 7.64963,-2.12547 15.15721,-3.70572 9.9096,-2.08584 10.05416,-2.13102 10.05416,-3.14657 0,-0.73846 -0.3107,-0.90855 -2.91041,-1.59216 -1.60073,-0.42092 -4.10104,-1.14631 -5.55625,-1.6123 -1.45521,-0.466 -11.93271,-3.538949 -23.28334,-6.828528 -42.69779,-12.374458 -39.49252,-11.57075 -41.3246,-10.360091 -0.51229,0.338527 -2.89354,2.381047 -5.29167,4.539258 -2.39813,2.158209 -7.21797,6.459289 -10.71044,9.557556 -3.4925,3.098275 -7.61984,6.847565 -9.17205,8.332315 -1.55223,1.48474 -2.86461,2.70076 -2.91663,2.70216 -0.1537,0.004 2.91637,-4.05449 8.56123,-11.316112 2.91044,-3.743996 5.90399,-7.610338 6.65284,-8.59224 0.74882,-0.981902 2.5168,-3.214171 3.92843,-4.960421 2.25729,-2.792351 2.54561,-3.312231 2.3921,-4.312915 -0.14587,-0.951 -0.35672,-1.166907 -1.2826,-1.317232 -2.28417,-0.370852 -25.21579,-2.336839 -28.09494,-2.408639 z m -31.85906,103.21385 c 0.0281,-0.0281 0.18309,0.1151 0.48784,0.40618 0.35068,0.33493 0.54097,0.70547 0.4227,0.82371 -0.11822,0.11826 -0.40526,-0.15556 -0.63767,-0.60874 -0.20199,-0.39385 -0.30092,-0.59309 -0.27287,-0.62115 z m 1.13276,2.50992 c 0.0605,0.0143 0.14259,0.0764 0.25064,0.18449 0.21582,0.21586 0.33174,0.57475 0.25733,0.79788 -0.17531,0.52596 -0.64957,0.0517 -0.64957,-0.64957 0,-0.24817 0.0407,-0.35667 0.1416,-0.3328 z"
         style="fill:url(#radialGradient821);fill-opacity:1;stroke-width:0.35277781;filter:url(#filter987)" />
      <path
         id="path10"
         d="m 172.39205,76.537411 c -0.77202,0.01455 -0.72797,0.136385 -0.24805,0.342617 0.38806,0.166751 1.38043,0.314505 2.20504,0.328144 0.82462,0.01363 1.49913,0.183211 1.49913,0.377238 0,0.194029 -0.16814,0.352951 -0.37362,0.352951 -0.2055,0 -0.27155,0.164981 -0.14676,0.366901 0.1248,0.201922 0.53149,0.270618 0.90382,0.152447 0.40135,-0.127386 0.90984,0.01789 1.24902,0.357085 0.52761,0.527608 0.23719,0.567946 -3.73517,0.513146 -3.08029,-0.04249 -4.42413,0.06717 -4.71806,0.385506 -0.22607,0.244768 -0.24464,0.352972 -0.0413,0.240294 0.20329,-0.112678 0.58543,-0.07126 0.84956,0.09198 0.50616,0.31282 7.92801,0.130908 8.8346,-0.216524 0.78499,-0.300829 4.0805,-0.499878 10.40712,-0.628386 3.10444,-0.06306 6.58383,-0.134543 7.73183,-0.159163 1.148,-0.02463 2.02073,-0.107923 1.93993,-0.185001 -0.0808,-0.07708 -3.71864,-0.466067 -8.08426,-0.864032 -10.87386,-0.991243 -15.96144,-1.423233 -17.8909,-1.454689 -0.14471,-0.0024 -0.2716,-0.0026 -0.38189,-5.3e-4 z m 30.7573,5.431711 c -0.11384,0.008 -0.28675,0.0472 -0.51728,0.107487 -0.40294,0.105373 -0.87642,0.571042 -1.05265,1.034563 -0.17623,0.463518 -0.60064,0.948849 -0.9431,1.079002 -0.34247,0.130154 -1.21664,0.88006 -1.94252,1.666566 -0.72588,0.786505 -1.65934,1.791385 -2.07429,2.232937 -0.41495,0.441553 -1.22056,1.394053 -1.79007,2.116667 -2.176,2.76098 -3.6403,4.312399 -4.07055,4.312399 -0.24567,0 -0.447,0.215879 -0.447,0.479557 0,0.263678 -0.64499,1.017913 -1.43351,1.675868 -1.62457,1.355566 -5.62188,6.150552 -5.62188,6.743772 0,0.21475 -0.2411,0.64198 -0.53588,0.9493 -3.02927,3.15808 -5.07187,5.58797 -6.61613,7.87187 -1.4238,2.10573 -2.10755,2.80326 -3.00137,3.06131 -0.6367,0.18382 -1.45003,0.69537 -1.80713,1.13637 -0.49703,0.61381 -1.14193,0.84865 -2.75125,1.00252 -3.03482,0.29015 -5.39657,0.0476 -5.39657,-0.55449 0,-0.46948 0.39914,-0.63466 1.28003,-0.52968 0.69941,0.0834 0.89955,-1.5127 0.23874,-1.90428 -0.32743,-0.19403 -0.97579,-0.71644 -1.44074,-1.16117 -0.67952,-0.64996 -0.76231,-0.90897 -0.42219,-1.31878 0.55644,-0.67047 0.18593,-1.57717 -0.64441,-1.57717 -0.3618,0 -0.74648,-0.0886 -0.85473,-0.19688 -0.37956,-0.37957 0.16759,-1.56715 0.73794,-1.60197 0.31841,-0.0194 0.18143,-0.15156 -0.30592,-0.29559 -0.48507,-0.14336 -0.85357,-0.41087 -0.81907,-0.59428 0.0345,-0.18342 -0.36252,-0.32803 -0.88212,-0.32143 -1.23346,0.0156 -1.36864,-1.3391 -0.15089,-1.51205 1.18994,-0.169 1.01716,-1.32775 -0.26459,-1.77457 -1.01424,-0.35356 -1.05833,-0.32731 -1.05833,0.63355 0,0.84782 -0.13607,0.9949 -0.8816,0.95188 -0.71426,-0.0412 -0.88192,-0.23521 -0.88212,-1.02112 -1.4e-4,-0.53358 -0.11906,-0.95108 -0.26458,-0.92811 -0.14552,0.023 -0.62323,0.023 -1.06144,0 -0.69131,-0.0362 -0.74121,-0.13075 -0.37878,-0.71107 0.33767,-0.54072 0.30423,-0.78201 -0.17364,-1.25987 -0.3251,-0.3251 -0.59117,-0.73812 -0.59117,-0.91829 0,-0.18017 -0.22093,-0.32763 -0.49093,-0.32763 -0.55703,0 -1.06668,-1.593676 -0.6997,-2.187464 0.14617,-0.236495 0.0804,-0.291756 -0.16588,-0.139526 -0.22401,0.138449 -0.40721,0.16464 -0.40721,0.05839 0,-0.337375 1.16183,-1.666325 3.70416,-4.23695 2.36677,-2.393111 6.59257,-7.001894 9.00617,-9.822656 0.62815,-0.734121 1.05854,-1.417791 0.95653,-1.519804 -0.10202,-0.102013 -3.70027,3.514574 -7.99589,8.037235 -7.81017,8.223019 -7.81004,8.223213 -7.71064,20.832325 0.0997,12.63965 -0.15396,15.35247 -0.98082,10.49755 -0.2148,-1.26118 -0.89268,-4.02031 -1.50637,-6.13193 -1.24692,-4.29053 -2.3239,-12.92372 -2.10685,-16.886309 0.12372,-2.258623 0.0938,-2.368862 -0.58652,-2.156973 -1.13975,0.354994 -1.58237,0.730864 -8.68681,7.380942 -8.37575,7.8401 -12.39768,12.0743 -13.36301,14.0684 -0.65811,1.35948 -1.06659,3.14119 -1.63969,7.15253 -0.0964,0.67501 -0.81208,1.88828 -1.76889,2.99878 -2.77269,3.21808 -5.02246,6.88671 -9.57306,15.6099 -4.98556,9.55696 -4.69755,7.93411 -3.44423,19.41639 0.2965,2.71639 0.53915,6.72465 0.5395,8.90747 8e-4,4.56977 -0.39718,5.38003 -2.6448,5.38003 -1.44955,0 -1.40989,-0.28402 -0.86971,6.17327 0.85353,10.20304 1.75085,21.96705 2.09083,27.41073 0.20235,3.24007 0.61369,6.97087 0.91415,8.29045 1.42254,6.24763 3.84807,14.55114 4.66794,15.98094 1.65117,2.87961 4.09325,5.51002 6.88898,7.42073 2.02021,1.38068 2.8065,2.13817 2.94607,2.836 0.10472,0.52361 0.54816,1.1146 0.98496,1.31362 0.43679,0.19902 1.96827,1.34808 3.40341,2.55333 1.43514,1.20525 2.95567,2.35086 3.37912,2.5461 0.90702,0.41819 1.39774,1.43541 1.44383,2.94401 0.74946,0.0565 1.47579,0.1182 2.18489,0.18396 0.0121,-0.0268 0.0272,-0.0678 0.0367,-0.0832 0.31963,-0.51721 11.24305,-1.03177 23.61044,-1.11207 8.80094,-0.0571 28.67505,0.70796 38.98212,1.50068 0.53433,0.0411 1.08859,0.077 1.63504,0.11627 h 5.68441 c 5.42018,0 10.6934,0.27245 15.7577,0.78652 0.71687,0.004 1.61778,0.0378 2.76624,0.0791 4.91151,0.17663 4.9115,0.17661 5.14439,-3.62975 0.12809,-2.09349 0.23306,-4.78212 0.23306,-5.97431 0,-2.35135 0.37266,-3.01429 1.69343,-3.01429 0.77969,0 17.95731,-3.73521 24.03833,-5.22707 1.44365,-0.35416 2.69146,-0.84421 2.77296,-1.08882 0.0815,-0.2446 -0.35784,-1.1495 -0.97669,-2.01125 -0.95438,-1.32894 -1.15609,-1.97513 -1.3286,-4.25607 -0.20338,-2.68922 -0.2033,-2.68922 0.82166,-2.47065 2.83356,0.60424 8.07432,1.28913 8.59637,1.12344 0.82946,-0.26325 1.70022,-3.17986 4.74028,-15.87913 3.57334,-14.92686 3.79907,-16.03346 3.67316,-18.00459 -0.11002,-1.72241 -0.10989,-1.72239 -6.63629,-3.86798 -3.58951,-1.18008 -6.76486,-2.2362 -7.05589,-2.34714 -1.40977,-0.53739 0.43326,-0.61845 6.26318,-0.27492 5.73071,0.33769 6.49712,0.31624 7.51737,-0.21135 2.09302,-1.08235 3.75712,-3.03255 4.50515,-5.2803 0.92538,-2.78071 2.17558,-8.10409 2.17558,-9.263 0,-1.4721 -1.52779,-5.80074 -2.1115,-5.98207 -0.29374,-0.0913 -1.45744,-0.54776 -2.58589,-1.01492 -1.12845,-0.46717 -2.23201,-0.84956 -2.45205,-0.84956 -0.72783,0 0.22528,0.60592 1.68155,1.06918 2.28356,0.72642 2.95528,1.34724 3.52124,3.25303 0.48439,1.63109 0.47004,2.04734 -0.17674,5.16403 -1.06287,5.12168 -2.11814,8.39302 -2.94969,9.14363 -1.25245,1.13055 -2.79028,1.42575 -6.62337,1.27124 -2.00718,-0.0809 -6.74501,-0.21703 -10.52855,-0.30282 -3.78354,-0.0858 -6.98486,-0.16491 -7.1143,-0.17571 -0.31647,-0.0264 -0.99942,-3.28801 -0.99942,-4.77283 0,-0.868 -0.30485,-1.49497 -1.12603,-2.31614 -1.12286,-1.12285 -1.12583,-1.13526 -1.03043,-4.41213 0.10754,-3.69486 -0.59516,-11.40217 -1.09864,-12.04888 -0.50004,-0.6423 -0.18418,-2.66263 0.54054,-3.45715 0.38334,-0.42027 0.57977,-1.04091 0.48627,-1.53479 -0.15387,-0.81237 -0.11742,-0.82408 1.80868,-0.58343 1.87265,0.23397 4.66343,1.16519 9.48572,3.16518 1.20303,0.49894 2.63178,0.88739 3.175,0.86352 0.54322,-0.0239 5.42132,-0.0198 10.83965,0.009 9.05147,0.0487 9.90257,0.002 10.48412,-0.58085 0.6818,-0.68274 3.40158,-9.81352 3.72225,-12.49639 0.17612,-1.47351 -10e-4,-2.0228 -1.82418,-5.64462 -1.11069,-2.20667 -2.30779,-4.31181 -2.6603,-4.67827 -0.35251,-0.36645 -2.75781,-1.50072 -5.34489,-2.52077 -2.58707,-1.02005 -7.32297,-2.91911 -10.52443,-4.2199 -7.68067,-3.12073 -9.22219,-3.64542 -11.97291,-4.07469 -2.96821,-0.46321 -6.98728,-1.64036 -13.60382,-3.98528 -2.71366,-0.96173 -5.232,-1.63857 -9.525,-2.56005 -3.57107,-0.76652 -4.04246,-1.00226 -3.80752,-1.90066 0.16561,-0.63331 0.4769,-0.71004 2.87321,-0.71004 1.77179,0 4.25101,-0.36999 7.27863,-1.08623 8.23765,-1.94878 22.48917,-5.594 26.81696,-6.859 2.32833,-0.68057 7.40817,-1.87261 11.28872,-2.64945 7.4554,-1.49249 10.28743,-2.21464 10.14253,-2.58538 -0.0485,-0.1241 -0.0884,-0.45362 -0.0884,-0.73277 0,-0.66323 -3.05485,-1.16454 -3.62459,-0.5948 -0.21825,0.21825 -0.91774,0.39636 -1.55442,0.39636 -2.61635,0 -16.54193,2.61694 -19.69182,3.70055 -1.65477,0.56927 -9.37416,2.4464 -12.17084,2.95951 -1.06715,0.19579 -4.16279,0.53232 -6.87916,0.74776 -2.71639,0.21545 -5.17685,0.45693 -5.46789,0.5364 -0.29104,0.0795 -2.18163,0.38763 -4.20129,0.68523 -2.01967,0.2976 -5.2279,0.95149 -7.1298,1.45314 -1.90189,0.50166 -3.60469,0.82174 -3.78375,0.71107 -0.43334,-0.2678 -0.47638,-8.35334 -0.0481,-9.02942 0.22262,-0.35139 0.33707,-0.38119 0.34107,-0.0884 0.003,0.24253 0.16133,0.44131 0.35243,0.44131 0.4023,0 0.30157,-4.52985 -0.11576,-5.20381 -0.15299,-0.24708 -0.10906,-0.4408 0.10026,-0.4408 0.20548,0 0.37362,-0.30811 0.37362,-0.684718 0,-0.376605 0.16999,-0.789681 0.37724,-0.917773 0.20703,-0.12809 0.30107,-0.429742 0.20877,-0.670243 -0.0923,-0.240506 -0.0263,-0.660865 0.14676,-0.93431 0.22274,-0.351856 0.31639,-0.368411 0.32039,-0.05633 0.003,0.242533 0.2433,0.441315 0.53434,0.441315 0.38217,0 0.52917,-0.392147 0.52917,-1.411283 0,-1.490614 -0.43067,-1.822603 -1.02992,-0.79375 -0.31771,0.54541 -0.36152,0.520571 -0.37052,-0.214458 -0.009,-0.719521 -0.14183,-0.804997 -0.98081,-0.631486 -0.53316,0.110302 -0.77171,0.114268 -0.52917,0.0088 0.24253,-0.105484 0.43646,-0.535622 0.43046,-0.956013 -0.01,-0.688758 -0.0465,-0.703583 -0.37052,-0.147278 -0.43119,0.74032 -1.38286,0.821473 -1.38286,0.117821 0,-0.274872 0.11906,-0.566642 0.26459,-0.648022 0.14552,-0.08138 0.0715,-0.101182 -0.16485,-0.04444 -0.23632,0.05674 -0.53291,-0.06386 -0.65888,-0.267685 -0.12597,-0.203832 -0.60031,-0.299677 -1.0542,-0.212907 -0.70276,0.134342 -0.77472,0.06348 -0.48575,-0.476457 0.49726,-0.929155 1.0762,-1.183497 1.43298,-0.629935 0.26498,0.411114 0.36137,0.411167 0.62477,0.0026 0.18486,-0.28675 0.90217,-0.474921 1.76423,-0.46302 0.79884,0.01103 1.45211,-0.108522 1.45211,-0.266134 0,-0.384503 -1.97234,-0.760704 -2.6417,-0.503846 -0.29317,0.112498 -0.5333,0.02347 -0.5333,-0.197403 0,-0.688562 0.80089,-0.738532 3.175,-0.198438 1.26118,0.286909 3.96028,0.837573 5.99757,1.223698 2.0373,0.386125 4.73587,0.933347 5.99705,1.215946 1.26118,0.282599 2.99137,0.620218 3.84472,0.750342 0.85336,0.130125 2.044,0.440463 2.64584,0.689364 0.60185,0.248899 2.28461,0.627245 3.73982,0.841293 2.57659,0.378989 6.66588,1.352278 9.87795,2.35076 0.87313,0.271414 2.50014,0.735152 3.6158,1.030427 1.11566,0.295275 2.86225,0.762217 3.8809,1.037664 1.01865,0.275445 3.36004,0.672685 5.2033,0.882635 1.84327,0.209949 3.74826,0.465244 4.23333,0.567404 2.11309,0.44504 -1.0674,-0.645134 -6.35,-2.176611 -3.00744,-0.871884 -7.37288,-2.140995 -9.70121,-2.819982 -9.33707,-2.722867 -20.63605,-5.984171 -30.50305,-8.80463 -9.42253,-2.693407 -10.51094,-2.933921 -11.64167,-2.574003 -1.52141,0.48428 -3.55452,2.334193 -3.2985,3.001366 0.11287,0.294132 -0.0471,0.486794 -0.40411,0.486794 -0.3248,0 -1.49252,0.779045 -2.5952,1.731158 -1.10266,0.952114 -3.45456,2.976176 -5.22655,4.497917 -9.27795,7.967661 -16.00471,14.331421 -16.00471,15.141141 0,0.2761 -0.1266,0.50178 -0.28112,0.50178 -0.15452,0 -1.24748,0.91315 -2.42931,2.02881 -3.2923,3.10796 -3.99252,3.66207 -3.99252,3.1626 0,-0.2466 0.9453,-1.28005 2.10064,-2.29702 1.15534,-1.01697 2.30663,-2.23283 2.55799,-2.70164 0.98839,-1.84343 17.26764,-23.095067 20.30057,-26.501226 0.73288,-0.823098 0.91977,-1.081696 0.57826,-1.057817 z m 7.83673,4.435906 c 0.39033,0 0.3256,0.254486 -0.26871,1.058333 -0.43035,0.582081 -0.89914,1.058333 -1.0418,1.058333 -0.14267,0 -0.0217,-0.476252 0.26872,-1.058333 0.29038,-0.582083 0.75916,-1.058333 1.04179,-1.058333 z m 1.64073,1.11311 c 0.15021,-0.01093 0.26303,0.05711 0.26303,0.230991 0,0.189439 -0.25137,0.440719 -0.55862,0.558623 -0.34353,0.131842 -0.50499,0.05316 -0.41909,-0.204639 0.10986,-0.329589 0.46433,-0.566767 0.71468,-0.584975 z m 1.6769,0.381889 c 0.3913,-0.01042 0.83806,0.136273 1.23455,0.455784 0.67898,0.547172 0.66885,0.559133 -0.30075,0.350883 -0.59556,-0.127911 -1.22191,-0.03451 -1.53996,0.229444 -0.45202,0.375131 -0.5153,0.336317 -0.40359,-0.249079 0.0954,-0.499999 0.50665,-0.773621 1.00975,-0.787032 z m 3.04633,1.080037 c 0.0918,0.0092 0.0129,0.134723 -0.22014,0.415478 -0.50805,0.612155 -0.7121,0.675867 -0.7121,0.222207 0,-0.173268 0.26029,-0.415221 0.57877,-0.537435 0.18157,-0.06967 0.29837,-0.105799 0.35347,-0.10025 z m -2.02003,0.99632 c 0.12255,0.0051 0.22767,0.03751 0.28628,0.09612 0.11723,0.117226 -0.0911,0.200321 -0.46302,0.185002 -0.41097,-0.01693 -0.49432,-0.100293 -0.21291,-0.212905 0.12734,-0.05096 0.26709,-0.07326 0.38965,-0.06822 z m 13.75833,5.644618 c -0.12256,-0.0051 -0.26231,0.01725 -0.38964,0.06821 -0.28143,0.112615 -0.19805,0.195977 0.21291,0.212908 0.37193,0.01532 0.58024,-0.06778 0.46302,-0.185002 -0.0586,-0.05861 -0.16374,-0.09107 -0.28629,-0.09612 z m -75.11222,3.131074 c -0.19402,0 -0.35295,0.158925 -0.35295,0.352952 0,0.194026 0.15893,0.352948 0.35295,0.352948 0.19403,0 0.35244,-0.158922 0.35244,-0.352948 0,-0.194027 -0.15841,-0.352952 -0.35244,-0.352952 z m 2.43138,3.175004 c -0.53316,0 -0.68268,0.15807 -0.52917,0.5581 0.11773,0.30691 0.21446,0.69868 0.21446,0.87075 0,0.17207 0.23812,0.22175 0.52916,0.11007 0.83069,-0.31877 0.6606,-1.53892 -0.21445,-1.53892 z m 60.67382,1.41128 c 0.19402,0 0.45111,0.15892 0.57102,0.35295 0.11992,0.19403 0.0592,0.35243 -0.13487,0.35243 -0.19403,0 -0.4506,-0.1584 -0.57051,-0.35243 -0.11992,-0.19403 -0.0597,-0.35295 0.13436,-0.35295 z m -75.70805,4.24935 c 0.26382,0.004 0.60506,0.10449 0.91571,0.30128 0.26618,0.16862 0.42515,0.4625 0.35295,0.65319 -0.15439,0.40798 -1.71876,-0.20346 -1.71876,-0.6718 0,-0.19257 0.18629,-0.28624 0.4501,-0.28267 z m -1.7818,1.40715 c 0.14083,-0.007 0.776,0.30462 1.41128,0.69195 0.63528,0.38733 1.58215,0.7052 2.10427,0.7059 0.52213,7.9e-4 1.02794,0.12756 1.12344,0.28215 0.26819,0.43395 2.9887,11.13151 3.78634,14.8885 0.39134,1.84326 0.80434,5.44347 0.91777,8.00055 0.20625,4.64923 0.20613,4.6492 -1.44332,5.69526 -0.9072,0.57533 -2.18537,1.14685 -2.84014,1.26969 -0.65477,0.12283 -1.2865,0.47397 -1.40405,0.78031 -0.34498,0.89899 -1.79789,0.29944 -4.43074,-1.8278 -1.30949,-1.05802 -2.54841,-1.92339 -2.75332,-1.92339 -0.20491,0 -0.4436,-0.19878 -0.5302,-0.44132 -0.0866,-0.24254 -0.2813,-0.32531 -0.43253,-0.18448 -0.15123,0.14083 -0.0726,0.49938 0.17467,0.79736 0.3848,0.46368 0.32849,0.52857 -0.39068,0.44959 -0.82887,-0.091 -0.84064,-0.0484 -0.85834,3.09128 -0.01,1.75076 -0.14463,3.38812 -0.29973,3.63906 -0.1551,0.25093 -0.20009,0.53836 -0.0997,0.63872 0.1802,0.18019 4.13064,-0.98047 11.00088,-3.23288 7.80133,-2.55766 11.91024,-3.39758 20.61528,-4.2137 9.39563,-0.88086 19.01594,-0.54666 24.3086,0.84491 0.70961,0.18658 2.79831,0.52438 4.64157,0.75034 1.84327,0.22597 3.78369,0.63292 4.3124,0.90434 0.52871,0.27142 1.87826,0.58333 2.99879,0.6935 2.03732,0.2003 2.03708,0.20031 6.27042,-2.58227 4.4655,-2.93519 11.24576,-6.92267 12.38684,-7.28483 0.3721,-0.1181 1.42941,-0.30317 2.34921,-0.41134 1.58274,-0.18614 1.69229,-0.14378 2.04845,0.79116 0.34626,0.90898 1.00314,6.306 1.55856,12.80594 0.12469,1.45929 0.42694,2.80421 0.67386,2.99878 0.25967,0.20463 0.54627,1.61192 0.68265,3.35122 0.12932,1.64924 0.46008,3.73554 0.73484,4.63641 0.38107,1.24944 0.43292,2.46292 0.21807,5.11545 -0.15491,1.91253 -0.30156,6.09668 -0.32556,9.29814 -0.0239,3.20145 -0.12381,6.45601 -0.22221,7.23211 -0.0984,0.77611 -0.49698,7.04658 -0.88573,13.93456 -0.38876,6.88798 -0.94575,15.06344 -1.23765,18.16788 -0.30127,3.20414 -0.60195,11.20089 -0.69505,18.49654 -0.10276,8.04949 -0.31088,13.29758 -0.55707,14.04359 -0.21621,0.6551 -0.42054,2.25319 -0.45424,3.55172 -0.0613,2.36099 -0.0614,2.3611 -3.75843,2.2717 -2.03336,-0.0492 -4.02113,-0.1628 -4.4173,-0.2527 -0.55754,-0.12654 -1.22216,-1.42151 -2.94194,-5.73143 -1.22198,-3.06239 -2.61969,-6.4945 -3.10575,-7.62693 -0.48606,-1.13242 -1.23936,-3.11715 -1.67432,-4.41006 -0.98883,-2.93932 -1.55471,-3.27789 -5.13974,-3.0763 -1.45521,0.0818 -3.12208,0.16445 -3.70416,0.18345 -0.78936,0.0257 -0.92275,0.11419 -0.52504,0.34726 0.71653,0.41993 6.34203,1.47393 6.69674,1.25471 0.5493,-0.33949 1.66819,1.08041 2.08309,2.64428 0.23164,0.87313 0.56915,1.90534 0.75034,2.2934 0.18119,0.38805 0.72192,1.89601 1.20148,3.35122 0.47956,1.45521 1.42659,4.21589 2.10478,6.13502 1.21399,3.43532 1.3874,4.19782 1.31,5.77123 -0.037,0.75247 -0.17209,0.79049 -2.59674,0.73329 -10.43893,-0.24642 -21.22466,-0.73043 -26.89965,-1.20717 -3.68654,-0.30969 -10.19511,-0.62785 -14.46372,-0.70745 -4.26862,-0.0796 -10.7772,-0.33762 -14.46372,-0.57309 -3.68653,-0.23548 -12.33875,-0.43325 -19.22673,-0.43925 -12.52362,-0.0111 -12.52368,-0.0113 -12.64264,-0.85266 -0.11896,-0.84133 -0.11862,-0.84127 3.8809,-0.60565 2.19973,0.12959 4.52612,0.4049 5.16971,0.61185 0.64359,0.20692 1.21392,0.32102 1.26762,0.25322 0.0537,-0.0678 0.37447,-0.99057 0.71314,-2.05001 0.33868,-1.05944 1.47933,-3.67882 2.53473,-5.82083 1.05541,-2.14202 2.82985,-6.11667 3.94291,-8.83305 2.02374,-4.93892 2.02365,-4.93891 3.25303,-5.0369 0.67616,-0.0539 1.94375,0.11123 2.81688,0.3669 1.5875,0.46486 1.58754,0.46448 2.01435,3.02927 0.68796,4.13403 1.46048,5.33289 5.83014,9.04751 1.32947,1.13017 4.65606,1.99366 8.45219,2.19367 3.67975,0.19386 3.87269,0.16552 7.78351,-1.1436 3.7911,-1.26907 4.06692,-1.31288 5.0462,-0.80461 4.11646,2.13652 6.51552,3.34564 7.39076,3.72484 1.43079,0.6199 7.21074,0.55375 9.82214,-0.11214 4.93497,-1.25837 9.62484,-5.25698 9.24595,-7.88324 -0.28608,-1.9829 -0.67768,-2.07919 -3.11661,-0.76636 -1.20882,0.65068 -2.91706,1.63218 -3.79615,2.18126 -0.87908,0.54907 -2.70488,1.25634 -4.05711,1.57148 -4.67949,1.09055 -12.0258,0.61248 -13.36714,-0.86971 -0.64405,-0.71165 -1.29764,-5.3265 -0.98651,-6.96495 0.26461,-1.39347 0.81378,-1.72907 4.8395,-2.95848 1.94028,-0.59252 5.64604,-1.82355 8.23516,-2.73575 4.70747,-1.65855 4.70777,-1.65892 9.77356,-6.14949 5.34571,-4.73874 5.55727,-4.99191 6.35206,-7.61091 0.66115,-2.17864 0.61943,-3.86578 -0.12971,-5.26996 -0.62381,-1.16927 -4.0097,-3.6189 -5.00227,-3.6189 -0.30292,0 -0.86372,-0.21166 -1.24644,-0.47077 -0.81769,-0.55359 -6.92495,-2.91087 -8.45736,-3.2644 -0.58209,-0.13428 -1.48574,-0.45942 -2.00815,-0.72244 -0.52241,-0.26302 -3.14179,-0.97799 -5.82083,-1.58905 -3.91771,-0.89358 -5.59596,-1.10419 -8.57519,-1.07539 -7.26628,0.0703 -16.82048,2.09453 -23.98871,5.08186 -4.53651,1.89058 -5.47732,2.97676 -5.16248,5.96347 0.54685,5.18755 0.43266,4.91745 3.66231,8.64236 1.66223,1.91714 3.64968,4.27593 4.41627,5.24154 1.55544,1.95927 2.4472,2.58671 5.0214,3.53312 0.97014,0.35667 1.91476,0.78113 2.09909,0.94309 0.18432,0.16197 0.74536,0.29456 1.24695,0.29456 0.50158,0 2.09714,0.40659 3.54553,0.90331 1.44839,0.49669 3.33071,1.13085 4.18269,1.40921 2.1526,0.70329 2.41124,0.99828 2.70319,3.08508 0.56252,4.02082 0.23846,5.25586 -1.69861,6.47868 -1.30854,0.82604 -1.66841,0.89174 -3.76411,0.68885 -6.16353,-0.5967 -11.14736,-2.51486 -14.00379,-5.38986 -2.62881,-2.6459 -3.71121,-4.10278 -3.25665,-4.38371 0.21628,-0.13363 0.29207,-0.40666 0.16846,-0.60668 -0.27068,-0.43797 -3.31268,-1.12654 -4.97747,-1.12654 -0.65809,0 -1.28208,-0.13804 -1.38648,-0.30696 -0.42361,-0.68542 -0.13831,-20.11094 0.30593,-20.82974 0.0963,-0.15576 0.20751,-1.59781 0.24701,-3.20446 0.0614,-2.4955 0.16591,-2.94595 0.71572,-3.08973 0.79555,-0.20804 0.80918,-0.0526 -0.20258,-2.27996 -0.46532,-1.02439 -1.19501,-3.04279 -1.6216,-4.485 -0.42659,-1.4422 -0.97881,-2.95016 -1.2268,-3.35122 -0.24801,-0.40106 -0.63626,-1.50171 -0.863,-2.44584 -0.47699,-1.98623 -2.32724,-5.8619 -3.86694,-8.09976 -1.19057,-1.73046 -2.9177,-2.68968 -3.6897,-2.04897 -1.363,1.13118 -1.45738,2.68255 -1.50689,24.74164 -0.052,23.18333 -0.38176,32.96022 -1.38286,41.01041 -0.64709,5.20347 -0.64719,5.2033 -4.16357,5.2033 -3.51637,0 -3.51653,2.6e-4 -3.26078,-6.43785 0.14066,-3.54101 0.32176,-12.78854 0.40256,-20.54965 0.0808,-7.76111 0.31183,-15.14299 0.51315,-16.40417 0.23326,-1.46148 0.33038,-10.54474 0.26768,-25.04704 -0.0984,-22.75417 -0.0986,-22.75417 0.67438,-24.34167 0.66738,-1.37065 0.84991,-2.76795 1.33532,-10.23038 0.64791,-9.96028 0.74942,-11.12054 1.20096,-13.75834 0.35239,-2.05858 0.26471,-2.32911 -0.81442,-2.52336 -0.8381,-0.15085 -1.45113,-2.05994 -0.80822,-2.51664 0.33702,-0.23939 0.33454,-0.34406 -0.0109,-0.48421 -0.42699,-0.17325 -0.6381,-1.17873 -0.24753,-1.17873 0.10633,0 0.57733,0.43639 1.04696,0.96996 0.63334,0.71957 0.85707,0.82184 0.86506,0.39584 0.006,-0.31587 -0.32722,-0.79907 -0.74103,-1.07383 -0.93878,-0.62332 -0.68503,-1.64391 0.78186,-3.14451 0.56586,-0.57888 1.02888,-1.17053 1.02888,-1.31517 0,-0.14464 0.55922,-0.79077 1.24282,-1.43557 1.01974,-0.96185 1.3368,-1.09474 1.76423,-0.74001 0.62135,0.5157 0.70458,-0.0344 0.0971,-0.64182 -0.32928,-0.32925 -0.30898,-0.42323 0.0915,-0.42323 0.28318,0 0.71314,0.31733 0.95549,0.70538 0.26122,0.41823 0.29615,0.7059 0.0853,0.7059 -0.19568,0 -0.35605,0.31733 -0.35605,0.70539 0,0.38805 0.15892,0.70538 0.35295,0.70538 0.19403,0 0.35295,-0.20389 0.35295,-0.4532 0,-0.24931 0.59532,-0.95443 1.32292,-1.56735 0.72761,-0.61292 2.19569,-1.9117 3.26285,-2.88613 1.06715,-0.97443 2.05542,-1.77727 2.19625,-1.78387 z m 20.50004,0.69815 c 0.0223,-0.001 0.0436,-2.6e-4 0.0641,0.004 0.0981,0.0191 0.17053,0.10139 0.17053,0.25632 0,0.14552 -0.17859,0.32411 -0.39687,0.39687 -0.21828,0.0728 -0.33738,-0.0463 -0.26458,-0.26458 0.0807,-0.24208 0.27102,-0.38226 0.42685,-0.39223 z m -27.66756,2.16835 c 0.14341,0.005 0.3143,0.0844 0.45578,0.22582 0.53302,0.53302 0.23561,0.83042 -0.42323,0.42323 -0.27978,-0.17293 -0.39169,-0.43151 -0.24856,-0.57464 0.0537,-0.0537 0.12996,-0.0774 0.21601,-0.0744 z m 83.14894,1.08106 c 0.0945,-0.003 0.13901,0.12149 0.13901,0.37931 0,0.69099 0.92178,0.81788 1.15703,0.15916 0.0866,-0.24253 0.2813,-0.32583 0.43253,-0.185 0.15122,0.14083 0.0744,0.49802 -0.17105,0.79375 -0.24543,0.29573 -0.72771,0.53744 -1.07125,0.53744 -0.74887,0 -1.22382,-1.02824 -0.71158,-1.54048 0.094,-0.094 0.1686,-0.14213 0.22531,-0.14418 z m -84.90129,4.15428 c -0.20547,0 -0.27547,0.15892 -0.15554,0.35294 0.11992,0.19403 0.28802,0.35244 0.37361,0.35244 0.0856,0 0.15555,-0.15841 0.15555,-0.35244 0,-0.19402 -0.16814,-0.35294 -0.37362,-0.35294 z m -1.74304,1.76371 c -0.19404,0 -0.35244,0.15892 -0.35244,0.35295 0,0.19403 0.1584,0.35295 0.35244,0.35295 0.19403,0 0.35294,-0.15892 0.35294,-0.35295 0,-0.19403 -0.15891,-0.35295 -0.35294,-0.35295 z m 97.21112,0 c -0.0856,0 -0.2537,0.15892 -0.37362,0.35295 -0.11992,0.19403 -0.0499,0.35295 0.15555,0.35295 0.20548,0 0.37362,-0.15892 0.37362,-0.35295 0,-0.19403 -0.07,-0.35295 -0.15555,-0.35295 z m -101.09151,5.29167 c 0.19403,0 0.35295,0.15892 0.35295,0.35295 0,0.19403 -0.15892,0.35295 -0.35295,0.35295 -0.19402,0 -0.35295,-0.15892 -0.35295,-0.35295 0,-0.19403 0.15893,-0.35295 0.35295,-0.35295 z m 125.19857,5.42654 c 0.99547,-0.02 4.45102,0.6106 6.74016,1.26349 9.31988,2.65817 11.63174,3.36743 12.85451,3.94394 0.76405,0.36023 1.66042,0.65526 1.99212,0.65526 0.3317,0 1.56307,0.47625 2.73627,1.05833 1.17319,0.58209 2.30222,1.05834 2.50889,1.05834 1.67922,0 4.98436,6.25272 5.22087,9.87743 0.14485,2.22001 -0.78628,8.06763 -1.64279,10.31875 -0.36913,0.97014 -0.36903,0.97026 -4.34651,0.92553 -2.18761,-0.0246 -5.00253,-0.17745 -6.25543,-0.33952 -1.2529,-0.16207 -3.95148,-0.45567 -5.99705,-0.65267 -4.33772,-0.41775 -4.09796,-0.37322 -9.61027,-1.78904 -2.64111,-0.67836 -5.18992,-1.10296 -6.70708,-1.11725 -2.44718,-0.023 -2.44751,-0.0228 -2.33319,-2.18487 0.10183,-1.92588 0.20053,-2.17425 0.90072,-2.27377 0.77633,-0.11033 0.7738,-0.1224 -0.17673,-0.94826 -0.91771,-0.79734 -0.93335,-0.86515 -0.34468,-1.46296 0.3487,-0.35411 0.61701,-0.44738 0.61701,-0.21446 0,0.44536 2.36185,1.02245 2.71973,0.66456 0.11943,-0.11943 -0.30223,-0.39835 -0.93689,-0.6196 -1.09023,-0.38005 -1.14051,-0.47225 -0.91312,-1.6769 0.13236,-0.70126 0.25526,-1.47814 0.27336,-1.72599 0.0193,-0.26495 0.43325,-0.0668 1.00459,0.48059 0.89783,0.86017 1.02976,0.89074 1.73117,0.39946 0.51498,-0.36071 0.62817,-0.61319 0.35191,-0.78393 -0.23148,-0.14305 -0.31563,-0.61569 -0.19534,-1.09503 0.23308,-0.92862 -0.30582,-1.17296 -0.64388,-0.29197 -0.30291,0.78938 -0.8925,0.29409 -0.6687,-0.56172 0.13162,-0.50335 0.37939,-0.65397 0.83613,-0.50902 0.58153,0.18457 0.65127,-0.025 0.67438,-2.01848 0.0141,-1.22349 0.0598,-4.01059 0.10128,-6.19341 0.0612,-3.22433 -0.0188,-3.96877 -0.42478,-3.96875 -0.27491,1e-5 -0.42396,-0.0752 -0.33176,-0.16744 0.0312,-0.0312 0.12289,-0.0478 0.2651,-0.0506 z m 1.77198,0.96738 c -0.12255,-0.005 -0.26231,0.0172 -0.38964,0.0682 -0.28142,0.11262 -0.19754,0.19598 0.21343,0.21291 0.37192,0.0153 0.58025,-0.0678 0.46302,-0.185 -0.0586,-0.0586 -0.16425,-0.0911 -0.28681,-0.0961 z m -2.04535,5.6007 c 0.19405,0 0.25428,0.15892 0.13436,0.35294 -0.11992,0.19403 -0.37648,0.35244 -0.57051,0.35244 -0.19405,0 -0.25479,-0.15841 -0.13488,-0.35244 0.11992,-0.19402 0.377,-0.35294 0.57103,-0.35294 z m -114.08969,2.46961 c 0.90397,0 1.18461,0.1303 1.048,0.48628 -0.10261,0.26739 -0.008,0.66393 0.20929,0.8816 0.29251,0.2925 0.28817,0.39584 -0.0165,0.39584 -0.22677,0 -0.32268,0.23381 -0.2129,0.51986 0.21049,0.54854 -0.61309,1.59681 -1.25471,1.59681 -0.20789,0 -0.37827,0.31732 -0.37827,0.70538 0,0.38805 -0.13601,0.7059 -0.30231,0.7059 -0.1663,0 -0.30771,-1.19063 -0.31471,-2.64584 -0.0125,-2.64583 -0.0124,-2.64583 1.22215,-2.64583 z m 0.25632,1.05833 c -0.30245,0 -0.4522,0.15841 -0.33228,0.35244 0.11991,0.19403 0.36779,0.35295 0.55035,0.35295 0.18258,0 0.33177,-0.15892 0.33177,-0.35295 0,-0.19403 -0.24734,-0.35244 -0.54984,-0.35244 z m 81.92059,0.4005 c -0.69351,-5.3e-4 -1.73419,0.56833 -3.40703,1.67276 -2.90347,1.91691 -5.41425,4.27674 -4.55063,4.27674 0.28945,0 2.56323,1.0288 5.05293,2.28617 2.48971,1.25737 4.68656,2.18704 4.88239,2.06602 0.41822,-0.25847 0.10744,-4.86819 -0.54312,-8.05635 -0.30862,-1.51241 -0.64857,-2.24463 -1.43454,-2.24534 z m 30.1532,1.02422 c 0.18228,-0.021 0.30644,0.0673 0.30644,0.27182 0,0.15694 -0.21249,0.57586 -0.47233,0.93121 -0.40289,0.55099 -0.50269,0.56742 -0.67799,0.11059 -0.11305,-0.29462 -0.0275,-0.71406 0.19017,-0.93173 0.23108,-0.23108 0.47143,-0.36093 0.65371,-0.38189 z m -111.50328,1.39734 c 0.18258,0 0.33228,0.23812 0.33228,0.52916 0,0.54554 -0.41661,0.70063 -0.81391,0.30334 -0.28184,-0.28184 0.0368,-0.8325 0.48163,-0.8325 z m 88.10367,4.66896 c -0.15738,0.004 -0.35332,0.0177 -0.59014,0.0439 -0.84811,0.0938 -1.7209,0.35382 -1.93994,0.57826 -0.30073,0.30813 -0.0527,0.34724 1.01286,0.15916 1.83434,-0.32378 2.6189,-0.8062 1.51722,-0.78135 z m -25.67286,2.74712 c -0.34892,-0.003 -0.65402,0.0833 -0.90899,0.262 -1.882,1.31912 -3.33102,5.79942 -3.56412,11.01896 -0.37843,8.47404 -0.43743,7.89359 0.84026,8.27185 0.82382,0.24389 1.1861,0.59943 1.3441,1.31878 0.11899,0.54172 0.36299,1.07529 0.54209,1.18598 0.1791,0.11069 0.32556,0.93172 0.32556,1.82417 0,1.62264 -3e-5,1.62223 -7.16545,1.39113 -3.94098,-0.12709 -9.21907,-0.39894 -11.72952,-0.60461 -2.51045,-0.20567 -8.18515,-0.4096 -12.61008,-0.4532 -8.21143,-0.0808 -8.76043,-0.17403 -8.67803,-1.46864 0.0124,-0.19403 0.10209,-0.15417 0.19999,0.0884 0.0979,0.24254 0.31864,0.4408 0.49041,0.4408 0.17174,0 0.22811,-0.2198 0.12506,-0.48835 -0.10306,-0.26855 0.31147,-1.57823 0.92139,-2.91041 3.16432,-6.91148 3.9313,-10.76696 2.16627,-10.89288 -0.4544,-0.0324 -0.95744,-0.27132 -1.11776,-0.53072 -0.22591,-0.36553 -2.2359,-0.50754 -8.93382,-0.63148 -8.64214,-0.15992 -8.6422,-0.15984 -9.55394,0.75189 -1.13245,1.13245 -1.16279,2.24566 -0.2098,7.69204 0.38604,2.20627 0.7039,4.4695 0.7059,5.02966 0.004,1.01848 0.003,1.0186 -3.38378,0.76998 -2.39798,-0.17602 -3.31787,-0.13714 -3.15071,0.13333 0.32687,0.5289 2.57084,1.42989 3.56154,1.42989 0.97709,0 1.42499,0.54808 0.6811,0.83354 -0.73152,0.28071 -0.66141,0.93017 0.10025,0.93017 0.34489,0 0.9402,0.20894 1.32292,0.46406 0.38272,0.25511 1.68002,0.75371 2.88302,1.10845 2.01218,0.59337 2.81697,0.61558 10.05417,0.2775 4.32679,-0.20214 8.50188,-0.31268 9.27799,-0.24598 0.77611,0.0667 7.36441,0.36372 14.64045,0.65991 7.27604,0.29619 14.34007,0.62488 15.69827,0.73019 1.35819,0.10532 4.45381,-0.002 6.87916,-0.23772 4.08089,-0.39714 14.81416,-0.63562 14.81616,-0.32918 5.3e-4,0.0738 -0.52439,0.86742 -1.16582,1.76372 -1.28303,1.79281 -2.12761,3.37825 -5.84977,10.97866 -2.57732,5.26268 -3.6626,8.02662 -3.35071,8.53126 0.81061,1.31161 3.24039,-2.54656 9.08524,-14.42496 0.36222,-0.73611 1.43378,-2.32719 2.38125,-3.5357 2.00176,-2.55325 2.13008,-3.20673 0.68678,-3.49539 -0.56968,-0.11394 -1.11233,-0.4073 -1.20613,-0.65164 -0.19186,-0.49996 -7.64876,-1.45514 -9.13794,-1.17046 -0.83445,0.1595 -0.9143,0.0629 -1.04129,-1.26866 -0.0756,-0.79288 0.072,-2.04855 0.32763,-2.79053 0.25592,-0.74198 0.36923,-1.50334 0.2527,-1.69189 -0.11654,-0.18855 -0.0155,-1.1084 0.22428,-2.0438 0.34109,-1.33098 0.34587,-2.49789 0.0222,-5.3666 -0.70313,-6.2322 -1.93084,-9.06176 -4.92013,-11.34142 -1.1301,-0.86183 -2.11075,-1.30506 -2.87837,-1.31207 z m 44.0583,7.09156 c 0.12256,0.005 0.22768,0.0375 0.28629,0.0961 0.11722,0.11722 -0.0911,0.20031 -0.46302,0.185 -0.41097,-0.0169 -0.49433,-0.10029 -0.21291,-0.21291 0.12733,-0.051 0.26709,-0.0733 0.38964,-0.0682 z m -1.05006,3.13107 c 0.18257,0 0.42992,0.15892 0.54984,0.35295 0.1199,0.19403 -0.0293,0.35295 -0.33177,0.35295 -0.30249,0 -0.54983,-0.15892 -0.54983,-0.35295 0,-0.19403 0.14918,-0.35295 0.33176,-0.35295 z m -85.15399,13.4059 c 0.30245,0 0.45169,0.1584 0.33177,0.35243 -0.11991,0.19403 -0.36727,0.35296 -0.54984,0.35296 -0.18258,0 -0.33228,-0.15893 -0.33228,-0.35296 0,-0.19403 0.24786,-0.35243 0.55035,-0.35243 z m 39.66632,0.70539 c -0.19403,0 -0.35244,0.15891 -0.35244,0.35294 0,0.19402 0.15841,0.35244 0.35244,0.35244 0.19403,0 0.35295,-0.15842 0.35295,-0.35244 0,-0.19403 -0.15892,-0.35294 -0.35295,-0.35294 z m 51.89709,15.76647 c 1.26342,0.0363 4.74482,0.8265 12.48503,2.79466 6.76683,1.72066 7.60643,1.99671 7.92768,2.60553 0.36805,0.69751 -0.64034,6.19078 -2.62516,14.2999 -0.88397,3.61152 -2.00721,8.41974 -2.49597,10.68514 -1.60755,7.45099 -1.71334,7.6256 -4.44676,7.31634 -4.37107,-0.49453 -17.34444,-4.30039 -18.0082,-5.28288 -0.29407,-0.43528 -0.47452,-0.27293 -0.7705,0.69298 -0.26408,0.86183 0.13812,1.39966 2.24948,3.00706 2.38382,1.8148 2.44643,1.86522 5.30045,4.26692 3.55375,2.99054 5.72431,5.39847 5.5733,6.18257 -0.0993,0.5154 -0.841,0.74739 -3.99769,1.24902 -3.90671,0.62081 -11.58644,1.64115 -19.3983,2.57762 -4.97822,0.59678 -4.75618,0.58527 -4.78678,0.24908 -0.0965,-1.06025 0.1071,-6.24363 0.26096,-6.64456 0.10538,-0.27461 0.49558,-0.49919 0.86713,-0.49919 0.61328,0 0.65773,-0.19921 0.48008,-2.15904 -0.16712,-1.84368 -0.11711,-2.12852 0.34468,-1.95131 0.34036,0.13061 0.54105,0.008 0.54105,-0.33124 0,-0.29643 -0.14204,-0.451 -0.31574,-0.34365 -0.39658,0.2451 -0.82209,-0.7976 -0.52297,-1.28158 0.12751,-0.20633 0.55795,0.0319 1.01234,0.56069 0.93764,1.0912 1.23714,1.15391 1.23714,0.25787 0,-0.3643 0.25521,-0.87408 0.56689,-1.13275 0.57201,-0.47477 0.55658,-2.7129 -0.0341,-4.90771 -0.13055,-0.48507 -0.26887,-1.38984 -0.30747,-2.01021 -0.0386,-0.62038 -0.18445,-1.24175 -0.32401,-1.38131 -0.36503,-0.36499 -0.31304,-1.19476 0.0749,-1.19476 0.37836,0 0.90854,1.37362 0.7829,2.0283 -0.0465,0.24253 0.0812,0.44131 0.2837,0.44131 0.20253,0 0.38042,-0.11906 0.39532,-0.26458 0.18155,-1.76909 0.13743,-2.81094 -0.13539,-3.175 -0.21094,-0.28149 -0.18534,-0.61627 0.0713,-0.92553 0.22114,-0.26643 0.30302,-0.74269 0.18191,-1.05833 -0.26998,-0.70356 0.20024,-0.73936 1.0976,-0.0832 0.57051,0.41717 0.60057,0.57681 0.20051,1.05885 -0.31126,0.37501 -0.33667,0.56689 -0.0749,0.56689 0.21778,0 0.39584,-0.15364 0.39584,-0.34158 0,-0.18797 0.24176,-0.24917 0.53692,-0.13591 0.43881,0.16839 0.37432,0.36827 -0.35295,1.09554 -0.48919,0.48918 -0.88936,1.02668 -0.88936,1.19425 0,0.50725 0.61593,0.34095 0.83303,-0.2248 0.24894,-0.64871 1.28364,-0.70538 1.28364,-0.0703 0,0.25235 0.19827,0.88646 0.4408,1.4087 0.51473,1.10835 1.79258,1.27791 2.79466,0.37104 0.60604,-0.54846 0.64493,-0.53794 0.64493,0.17622 0,0.41813 0.15893,0.76016 0.35294,0.76016 0.55776,0 0.41419,-0.68666 -0.37517,-1.79524 -0.4003,-0.56221 -0.62466,-1.18883 -0.49867,-1.39268 0.12601,-0.20385 0.0863,-0.5623 -0.0879,-0.79634 -0.42705,-0.57401 -0.36299,-2.72872 0.0796,-2.67632 0.19402,0.023 0.66631,0.2611 1.04903,0.52917 0.51759,0.36254 0.55893,0.48731 0.16278,0.48731 -0.29293,0 -0.55629,0.31737 -0.58549,0.70538 -0.0513,0.68097 -0.0244,0.6842 0.77618,0.0884 0.63206,-0.47043 0.79379,-0.86933 0.68006,-1.67587 -0.0821,-0.58207 -0.0443,-0.82021 0.0837,-0.52916 0.12802,0.29103 0.37976,0.62539 0.55966,0.7431 0.1982,0.12967 0.17599,0.77653 -0.0568,1.64124 -0.26528,0.98509 -0.27303,1.72064 -0.0248,2.3735 0.19783,0.52026 0.25719,1.11174 0.13178,1.31465 -0.12913,0.20871 -0.0156,0.29904 0.262,0.20774 0.26954,-0.0887 0.53838,-0.72785 0.59738,-1.42059 0.0764,-0.89689 0.30495,-1.31135 0.79375,-1.43918 1.06889,-0.27951 0.90325,-1.87314 -0.25787,-2.48151 -0.94419,-0.49471 -0.94401,-0.49445 -0.17621,-0.90537 0.64046,-0.34276 0.76739,-0.31722 0.76739,0.15555 0,0.51405 0.0516,0.51534 0.55191,0.015 0.3034,-0.30342 0.45742,-0.70357 0.34261,-0.88936 -0.11482,-0.18578 0.11346,-0.50977 0.50695,-0.72036 0.9648,-0.51635 0.9011,-1.00384 -0.1664,-1.27176 -0.48507,-0.12174 -0.88212,-0.4388 -0.88212,-0.70434 0,-0.70875 1.65021,-1.66921 2.49029,-1.44953 0.60028,0.15697 0.65215,0.10177 0.30179,-0.32039 -0.23275,-0.28047 -0.32104,-0.61173 -0.19637,-0.73639 0.12466,-0.12466 0.22634,-0.0414 0.22634,0.185 0,0.22637 0.23812,0.41135 0.52917,0.41135 0.29104,0 0.52917,-0.23813 0.52917,-0.52917 0,-0.29104 -0.23813,-0.52916 -0.52917,-0.52916 -0.29105,0 -0.52917,-0.15893 -0.52917,-0.35296 0,-0.19403 0.14209,-0.35243 0.31574,-0.35243 0.32746,0 0.74504,-2.26453 0.73484,-3.98477 -0.005,-0.8938 0.0639,-0.9493 0.73691,-0.58911 0.40843,0.21893 0.82417,0.31581 0.92397,0.21601 0.33051,-0.3305 -0.2724,-0.9338 -0.93327,-0.9338 -0.57988,0 -0.6469,-0.30477 -0.6196,-2.82256 0.0169,-1.55222 0.15579,-2.82205 0.30902,-2.82205 0.1532,0 0.18951,-0.44568 0.0806,-0.99012 -0.13306,-0.66531 -0.0144,-1.14205 0.36173,-1.45418 0.30776,-0.25542 0.55966,-0.71315 0.55966,-1.01751 0,-0.47008 -0.0676,-0.46108 -0.4501,0.062 -0.45559,0.62304 -1.85675,0.46562 -1.4671,-0.16485 0.10735,-0.1737 -0.0478,-0.31575 -0.34416,-0.31575 -0.33386,0 -0.46178,0.20111 -0.3359,0.52917 0.12859,0.33508 -0.005,0.52917 -0.3638,0.52917 -0.80133,0 -0.70557,-0.45316 0.33228,-1.57303 0.63673,-0.68703 1.12027,-0.91196 1.65726,-0.77153 0.41704,0.10906 0.94394,0.0444 1.17047,-0.14366 0.0804,-0.0667 0.25363,-0.0983 0.54519,-0.0899 z m -0.59376,5.43998 c -0.0482,-0.004 -0.10645,0.004 -0.1726,0.0264 -0.25466,0.0849 -0.53211,0.36287 -0.61701,0.61753 -0.0882,0.2646 0.0439,0.39671 0.3085,0.30851 0.25467,-0.0849 0.53264,-0.36287 0.61754,-0.61753 0.0661,-0.19844 0.008,-0.32246 -0.13643,-0.33486 z m -4.21834,2.07688 c 0.31574,0 0.4384,0.20682 0.31471,0.52916 -0.11168,0.29104 -0.34453,0.52917 -0.5178,0.52917 -0.17327,0 -0.31523,-0.23813 -0.31523,-0.52917 0,-0.29104 0.23337,-0.52916 0.51832,-0.52916 z m 4.05711,1.41128 c -0.38213,0 -0.69453,0.23799 -0.69453,0.52916 0,0.29104 0.22116,0.52917 0.49144,0.52917 0.27029,0 0.58284,-0.23813 0.69454,-0.52917 0.13812,-0.35993 -0.019,-0.52916 -0.49145,-0.52916 z m -2.84737,2.44946 c 0.0736,-0.008 0.15943,0.0256 0.24908,0.11524 0.11697,0.11741 0.14623,0.41345 0.0646,0.65836 -0.1195,0.35891 -0.20252,0.35859 -0.42478,-0.001 -0.22068,-0.35705 -0.10961,-0.74969 0.1111,-0.77256 z m -3.38791,2.59106 c 0.17973,0.004 0.41068,0.037 0.68988,0.0997 0.6306,0.1417 1.33834,0.26004 1.57252,0.26304 0.23419,0.003 0.50686,0.21722 0.60616,0.47593 0.19044,0.49629 -0.55531,0.6534 -0.99839,0.21033 -0.14305,-0.14304 -0.44708,-0.27729 -0.67592,-0.29869 -0.22884,-0.0214 -0.69398,-0.0634 -1.03353,-0.093 -0.33955,-0.0296 -0.61753,-0.22515 -0.61753,-0.4346 0,-0.15455 0.15727,-0.22919 0.45681,-0.22272 z m 2.87425,5.66115 c -0.0939,0.009 -0.15606,0.085 -0.15606,0.21342 0,0.20547 0.15893,0.37363 0.35294,0.37363 0.19404,0 0.35296,-0.07 0.35296,-0.15555 0,-0.0856 -0.15892,-0.25371 -0.35296,-0.37362 -0.0728,-0.045 -0.14056,-0.0635 -0.19688,-0.0579 z m -11.11302,2.35076 c 0.20548,0 0.37362,0.15892 0.37362,0.35295 0,0.19403 -0.0699,0.35295 -0.15554,0.35295 -0.0856,0 -0.25371,-0.15892 -0.37362,-0.35295 -0.11991,-0.19403 -0.0499,-0.35295 0.15554,-0.35295 z m 1.94097,0.11886 c 0.0563,-0.006 0.12412,0.0129 0.19689,0.0579 0.19403,0.11992 0.35243,0.28802 0.35243,0.37362 0,0.0856 -0.1584,0.15555 -0.35243,0.15555 -0.19403,0 -0.35296,-0.16814 -0.35296,-0.37362 0,-0.12842 0.0622,-0.20413 0.15607,-0.21342 z m 0.59841,2.3368 c 0.33514,0.0304 0.5327,0.6072 0.55294,1.68982 0.0172,0.92163 0.0872,1.89381 0.15554,2.1606 0.16155,0.63051 -0.42219,0.8193 -1.17615,0.38034 -0.67266,-0.39164 -0.81607,-3.02398 -0.20567,-3.776 0.23005,-0.28343 0.4333,-0.43305 0.60461,-0.45372 0.0236,-0.003 0.0464,-0.003 0.0687,-10e-4 z m 7.90805,2.65462 c -0.25874,0.0387 -0.28211,0.33078 0.0393,0.65216 0.33714,0.3371 0.8232,0.28975 0.8232,-0.0801 0,-0.17327 -0.23812,-0.40612 -0.52916,-0.5178 -0.13444,-0.0516 -0.24707,-0.0672 -0.33331,-0.0543 z m -11.34763,2.43345 c -0.0422,-0.002 -0.0884,0.0114 -0.13694,0.0413 -0.19403,0.11991 -0.35296,0.36727 -0.35296,0.54983 0,0.18258 0.15893,0.33177 0.35296,0.33177 0.19403,0 0.35243,-0.24734 0.35243,-0.54984 0,-0.22691 -0.089,-0.36752 -0.21549,-0.3731 z m 0.85163,3.46283 c -0.0616,0.002 -0.16564,0.10077 -0.28319,0.28267 -0.18809,0.29104 -0.3421,0.68757 -0.3421,0.8816 0,0.19403 0.15401,0.11483 0.3421,-0.17621 0.18808,-0.29104 0.3421,-0.68809 0.3421,-0.88212 0,-0.0728 -0.0219,-0.10681 -0.0589,-0.10594 z m -5.8751,2.76314 c 0.28897,-0.0157 0.65093,0.18003 0.79582,0.55759 0.18647,0.48594 0.30322,0.49897 0.80098,0.0884 0.52702,-0.43473 0.54218,-0.40469 0.15968,0.31316 -0.23263,0.43656 -0.45697,0.77414 -0.49868,0.75034 -0.0417,-0.0238 -0.43262,-0.22046 -0.86919,-0.43667 -0.43656,-0.21621 -0.79375,-0.59368 -0.79375,-0.83871 0,-0.28208 0.18039,-0.4219 0.40514,-0.43408 z m 1.49552,3.65197 c -0.0422,-0.002 -0.0884,0.0108 -0.13695,0.0408 -0.19403,0.11992 -0.35294,0.36777 -0.35294,0.55035 0,0.18259 0.15891,0.33177 0.35294,0.33177 0.19404,0 0.35296,-0.24735 0.35296,-0.54984 0,-0.22685 -0.0895,-0.36749 -0.21601,-0.37311 z m -97.85657,12.56462 c 0.19402,0 0.35295,0.21846 0.35295,0.48575 0,0.26728 -0.26794,0.70418 -0.59531,0.97049 -0.52397,0.4262 -0.56637,0.40659 -0.35295,-0.16227 0.13334,-0.35542 0.24288,-0.7918 0.24288,-0.96997 0,-0.17815 0.1584,-0.324 0.35243,-0.324 z m 83.34376,7.40833 c 1.50624,0 1.51284,0.002 0.97048,0.35295 -0.69311,0.44791 -1.50167,0.44791 -1.35237,0 0.0647,-0.19403 0.23637,-0.35295 0.38189,-0.35295 z m 8.16074,0.35295 c 0.48507,0 0.97977,0.15841 1.09968,0.35243 0.12315,0.19926 -0.1654,0.35295 -0.66353,0.35295 -0.48507,0 -0.98027,-0.15892 -1.10019,-0.35295 -0.12314,-0.19925 0.16591,-0.35243 0.66404,-0.35243 z"
         style="fill:#000000;stroke-width:0.35277781"
         inkscape:connector-curvature="0" />
    </g>
  </g>
  <g
     inkscape:groupmode="layer"
     id="layer5"
     inkscape:label="yellow face"
     style="display:inline" />
  <g
     style="display:inline"
     inkscape:label="frown"
     id="g4627"
     inkscape:groupmode="layer">
    <g
       id="g35"
       transform="translate(6,-2)">
      <path
         d="M 30.616017,220.97842 A 68.153725,68.153725 0 0 1 126.45265,210.73671 68.153725,68.153725 0 0 1 136.69754,306.573 68.153725,68.153725 0 0 1 40.861588,316.82107 68.153725,68.153725 0 0 1 30.610338,220.98546"
         sodipodi:open="true"
         sodipodi:end="3.8204124"
         sodipodi:start="3.8205451"
         sodipodi:ry="68.153725"
         sodipodi:rx="68.153725"
         sodipodi:cy="263.77747"
         sodipodi:cx="83.655357"
         sodipodi:type="arc"
         id="path4495"
         style="fill:#ffd5e5;fill-opacity:1;stroke:none;stroke-width:0.26499999;stroke-linecap:round;stroke-miterlimit:4;stroke-dasharray:none"
         transform="translate(0,-132.29165)" />
      <path
         d="m 30.621695,220.97139 a 68.153732,68.153732 0 0 1 95.836645,-10.24171 68.153732,68.153732 0 0 1 10.24489,95.8363 68.153732,68.153732 0 0 1 -95.835963,10.24807 68.153732,68.153732 0 0 1 -10.251251,-95.83562"
         sodipodi:open="true"
         sodipodi:end="3.8204124"
         sodipodi:start="3.8205451"
         sodipodi:ry="68.153732"
         sodipodi:rx="68.153732"
         sodipodi:cy="263.77045"
         sodipodi:cx="83.661041"
         sodipodi:type="arc"
         id="path4495-9"
         style="display:inline;fill:#ffe680;fill-opacity:1;stroke:none;stroke-width:0.26499999;stroke-linecap:round;stroke-miterlimit:4;stroke-dasharray:none"
         transform="translate(0,-132.29165)" />
      <path
         sodipodi:nodetypes="czc"
         inkscape:connector-curvature="0"
         id="path4619"
         d="m 129.36808,-186.16174 c -3.82515,24.99579 -23.11299,43.26718 -45.687628,43.27996 -22.574643,0.0128 -41.878852,-18.23677 -45.726423,-43.22821"
         style="fill:none;fill-opacity:1;stroke:#550000;stroke-width:8.5;stroke-linecap:round;stroke-miterlimit:4;stroke-dasharray:none"
         transform="scale(1,-1)" />
      <g
         id="g4625"
         transform="translate(0.8074913)">
        <ellipse
           ry="14.165284"
           rx="10.95805"
           cy="117.58781"
           cx="56.393867"
           id="ellipse4621"
           style="display:inline;fill:#000000;fill-opacity:1;stroke:#550000;stroke-width:0;stroke-linecap:round;stroke-miterlimit:4;stroke-dasharray:none" />
        <ellipse
           ry="14.165284"
           rx="10.95805"
           cy="117.58781"
           cx="109.31323"
           id="ellipse4623"
           style="display:inline;fill:#000000;fill-opacity:1;stroke:#550000;stroke-width:0;stroke-linecap:round;stroke-miterlimit:4;stroke-dasharray:none" />
      </g>
    </g>
  </g>
</svg>
