<svg xmlns="http://www.w3.org/2000/svg" width="22" height="22" viewBox="0 0 5.8208332 5.8208335"><path d="M2.898.246A2.676 2.676 0 0 0 .222 2.923a2.676 2.676 0 0 0 2.676 2.676 2.676 2.676 0 0 0 2.676-2.676A2.676 2.676 0 0 0 2.898.246zM1.286 1.853a.35.35 0 0 1 .087.015.636.636 0 0 1 .183.103l.031.024.032-.024a.542.542 0 0 1 .236-.116.479.479 0 0 1 .476.252.43.43 0 0 1 .05.207.607.607 0 0 1-.076.297.749.749 0 0 1-.157.196c-.1.094-.195.159-.4.27a1.697 1.697 0 0 0-.162.098s-.005-.006-.011-.01a1.984 1.984 0 0 0-.158-.1 2.068 2.068 0 0 1-.375-.262.72.72 0 0 1-.241-.396.455.455 0 0 1 .21-.482.49.49 0 0 1 .275-.072zm2.646 0a.35.35 0 0 1 .087.015.636.636 0 0 1 .183.103l.031.024.031-.024a.542.542 0 0 1 .237-.116.479.479 0 0 1 .476.252.43.43 0 0 1 .05.207.607.607 0 0 1-.076.297.749.749 0 0 1-.157.196c-.1.094-.195.159-.4.27a1.697 1.697 0 0 0-.162.098s-.005-.006-.012-.01a1.984 1.984 0 0 0-.157-.1 2.068 2.068 0 0 1-.375-.262.72.72 0 0 1-.241-.396.455.455 0 0 1 .21-.482.49.49 0 0 1 .275-.072zm-.228 1.851c0 .53-.397.794-.794.794-.396-.001-.793-.264-.793-.792h.397c.731 0 .118-.002.396 0 .279-.002-.334 0 .397 0l.397-.002z" fill="#e9afaf"/></svg>