<?xml version="1.0" encoding="UTF-8" standalone="no"?>
<!-- Created with Inkscape (http://www.inkscape.org/) -->

<svg
   xmlns:dc="http://purl.org/dc/elements/1.1/"
   xmlns:cc="http://creativecommons.org/ns#"
   xmlns:rdf="http://www.w3.org/1999/02/22-rdf-syntax-ns#"
   xmlns:svg="http://www.w3.org/2000/svg"
   xmlns="http://www.w3.org/2000/svg"
   xmlns:sodipodi="http://sodipodi.sourceforge.net/DTD/sodipodi-0.dtd"
   xmlns:inkscape="http://www.inkscape.org/namespaces/inkscape"
   width="31.999998"
   height="31.999998"
   viewBox="0 0 8.4666662 8.4666662"
   version="1.1"
   id="svg8"
   inkscape:version="0.92.1 r15371"
   sodipodi:docname="feedback_email.svg">
  <defs
     id="defs2" />
  <sodipodi:namedview
     id="base"
     pagecolor="#ffffff"
     bordercolor="#666666"
     borderopacity="1.0"
     inkscape:pageopacity="0.0"
     inkscape:pageshadow="2"
     inkscape:zoom="16"
     inkscape:cx="12.003808"
     inkscape:cy="13.63328"
     inkscape:document-units="mm"
     inkscape:current-layer="layer1"
     showgrid="false"
     fit-margin-top="0"
     fit-margin-left="0"
     fit-margin-right="0"
     fit-margin-bottom="0"
     inkscape:pagecheckerboard="true"
     units="px"
     showguides="true"
     inkscape:guide-bbox="true"
     inkscape:window-width="1690"
     inkscape:window-height="1035"
     inkscape:window-x="473"
     inkscape:window-y="193"
     inkscape:window-maximized="0">
    <sodipodi:guide
       position="4.5953654,3.636536"
       orientation="0,1"
       id="guide4523"
       inkscape:locked="false" />
    <sodipodi:guide
       position="0.97052247,6.2323913"
       orientation="1,0"
       id="guide4525"
       inkscape:locked="false" />
    <sodipodi:guide
       position="7.4835468,5.296948"
       orientation="1,0"
       id="guide4527"
       inkscape:locked="false" />
    <sodipodi:guide
       position="4.2211881,4.6538307"
       orientation="1,0"
       id="guide4529"
       inkscape:locked="false" />
    <sodipodi:guide
       position="-2.3386084,4.5252072"
       orientation="0,1"
       id="guide4533"
       inkscape:locked="false" />
  </sodipodi:namedview>
  <metadata
     id="metadata5">
    <rdf:RDF>
      <cc:Work
         rdf:about="">
        <dc:format>image/svg+xml</dc:format>
        <dc:type
           rdf:resource="http://purl.org/dc/dcmitype/StillImage" />
        <dc:title />
      </cc:Work>
    </rdf:RDF>
  </metadata>
  <g
     inkscape:label="Layer 1"
     inkscape:groupmode="layer"
     id="layer1"
     transform="translate(183.39405,-165.01071)">
    <g
       style="overflow:visible"
       id="g4491"
       transform="matrix(0.26458333,0,0,0.26458333,-183.39405,165.01071)">
      <path
         style="clip-rule:evenodd;fill:#ffffff;fill-rule:evenodd"
         d="M 3.0761719 0 C 1.3771719 0 -1.1842379e-015 1.3771719 0 3.0761719 L 0 28.923828 C 0 30.622828 1.3771719 32 3.0761719 32 L 28.923828 32 C 30.623828 32 32 30.622828 32 28.923828 L 32 3.0761719 C 32 1.3771719 30.623828 -1.1842379e-015 28.923828 0 L 3.0761719 0 z M 5 3.6875 L 27.021484 3.6875 C 27.028968 3.6875 27.035503 3.6912817 27.042969 3.6914062 L 27.078125 3.6914062 C 27.396242 3.6914062 27.678271 3.8211965 27.896484 4.0195312 C 27.907263 4.0288318 27.921187 4.0333297 27.931641 4.0429688 C 27.97097 4.0812507 27.99534 4.1306149 28.029297 4.1738281 C 28.200724 4.3789566 28.322266 4.6252398 28.322266 4.9140625 L 28.322266 27.074219 C 28.322266 27.305817 28.238135 27.506523 28.123047 27.6875 C 27.909298 28.05176 27.53021 28.308594 27.078125 28.308594 L 4.9238281 28.308594 C 4.2438281 28.308594 3.6933594 27.755172 3.6933594 27.076172 L 3.6933594 13.539062 L 3.6992188 13.539062 L 3.6992188 4.9140625 C 3.6992188 4.2148877 4.3131087 3.6875 5 3.6875 z "
         id="instagram_1_" />
    </g>
    <path
       style="fill:none;stroke:#ffffff;stroke-width:0.80000001;stroke-linecap:square;stroke-linejoin:miter;stroke-miterlimit:4;stroke-dasharray:none;stroke-opacity:1"
       d="m -182.46144,167.52685 3.28851,3.11625 3.30035,-3.17676"
       id="path4531"
       inkscape:connector-curvature="0" />
    <path
       style="fill:none;stroke:#ffffff;stroke-width:0.80000001;stroke-linecap:square;stroke-linejoin:miter;stroke-miterlimit:4;stroke-dasharray:none;stroke-opacity:1"
       d="m -180.82299,169.25379 -1.88993,1.96773"
       id="path4535"
       inkscape:connector-curvature="0" />
    <path
       style="fill:none;stroke:#ffffff;stroke-width:0.80000001;stroke-linecap:square;stroke-linejoin:miter;stroke-miterlimit:4;stroke-dasharray:none;stroke-opacity:1"
       d="m -177.49449,169.25379 1.88993,1.96773"
       id="path4535-0"
       inkscape:connector-curvature="0" />
  </g>
</svg>
