<?xml version="1.0" encoding="UTF-8" standalone="no"?>
<!-- Created with Inkscape (http://www.inkscape.org/) -->

<svg
   xmlns:dc="http://purl.org/dc/elements/1.1/"
   xmlns:cc="http://creativecommons.org/ns#"
   xmlns:rdf="http://www.w3.org/1999/02/22-rdf-syntax-ns#"
   xmlns:svg="http://www.w3.org/2000/svg"
   xmlns="http://www.w3.org/2000/svg"
   xmlns:sodipodi="http://sodipodi.sourceforge.net/DTD/sodipodi-0.dtd"
   xmlns:inkscape="http://www.inkscape.org/namespaces/inkscape"
   width="22"
   version="1.1"
   height="22"
   viewBox="0 0 5.8208332 5.8208335"
   id="svg9"
   sodipodi:docname="feedback_plain.svg"
   inkscape:version="0.92.1 r15371">
  <sodipodi:namedview
     pagecolor="#ffffff"
     bordercolor="#666666"
     borderopacity="1"
     objecttolerance="10"
     gridtolerance="10"
     guidetolerance="10"
     inkscape:pageopacity="0"
     inkscape:pageshadow="2"
     inkscape:window-width="1406"
     inkscape:window-height="961"
     id="namedview11"
     showgrid="false"
     inkscape:pagecheckerboard="true"
     inkscape:zoom="10.727273"
     inkscape:cx="-8.5762712"
     inkscape:cy="11"
     inkscape:window-x="349"
     inkscape:window-y="50"
     inkscape:window-maximized="0"
     inkscape:current-layer="layer2" />
  <defs
     id="defs4" />
  <metadata
     id="metadata7">
    <rdf:RDF>
      <cc:Work
         rdf:about="">
        <dc:format>image/svg+xml</dc:format>
        <dc:type
           rdf:resource="http://purl.org/dc/dcmitype/StillImage" />
        <dc:title />
      </cc:Work>
    </rdf:RDF>
  </metadata>
  <g
     inkscape:groupmode="layer"
     id="layer2"
     inkscape:label="Capa 2">
    <path
       style="fill:#ffeeaa;stroke-width:1.04830909"
       d="M 11 0.88476562 A 10.114406 10.114406 0 0 0 0.88476562 11 A 10.114406 10.114406 0 0 0 11 21.115234 A 10.114406 10.114406 0 0 0 21.115234 11 A 10.114406 10.114406 0 0 0 11 0.88476562 z M 5.5 10 L 7.5 10 C 7.776986 10 8 10.223014 8 10.5 C 8 10.776986 7.776986 11 7.5 11 L 5.5 11 C 5.223014 11 5 10.776986 5 10.5 C 5 10.223014 5.223014 10 5.5 10 z M 14.5 10 L 16.5 10 C 16.776986 10 17 10.223014 17 10.5 C 17 10.776986 16.776986 11 16.5 11 L 14.5 11 C 14.223014 11 14 10.776986 14 10.5 C 14 10.223014 14.223014 10 14.5 10 z M 8.5 14 L 13.5 14 C 13.776986 14 14 14.223014 14 14.5 C 14 14.776986 13.776986 15 13.5 15 L 8.5 15 C 8.223014 15 8 14.776986 8 14.5 C 8 14.223014 8.223014 14 8.5 14 z "
       transform="scale(0.26458333)"
       id="path16" />
  </g>
</svg>
