<?xml version="1.0" encoding="UTF-8" standalone="no"?>
<!-- Created with Inkscape (http://www.inkscape.org/) -->

<svg
   xmlns:dc="http://purl.org/dc/elements/1.1/"
   xmlns:cc="http://creativecommons.org/ns#"
   xmlns:rdf="http://www.w3.org/1999/02/22-rdf-syntax-ns#"
   xmlns:svg="http://www.w3.org/2000/svg"
   xmlns="http://www.w3.org/2000/svg"
   xmlns:sodipodi="http://sodipodi.sourceforge.net/DTD/sodipodi-0.dtd"
   xmlns:inkscape="http://www.inkscape.org/namespaces/inkscape"
   width="22"
   version="1.1"
   height="22"
   viewBox="0 0 5.8208332 5.8208335"
   id="svg9"
   sodipodi:docname="feedback_smile.svg"
   inkscape:version="0.92.1 r15371">
  <sodipodi:namedview
     pagecolor="#ffffff"
     bordercolor="#666666"
     borderopacity="1"
     objecttolerance="10"
     gridtolerance="10"
     guidetolerance="10"
     inkscape:pageopacity="0"
     inkscape:pageshadow="2"
     inkscape:window-width="1644"
     inkscape:window-height="994"
     id="namedview11"
     showgrid="false"
     inkscape:pagecheckerboard="true"
     inkscape:zoom="10.727273"
     inkscape:cx="-8.5762712"
     inkscape:cy="11"
     inkscape:window-x="0"
     inkscape:window-y="0"
     inkscape:window-maximized="0"
     inkscape:current-layer="layer2" />
  <defs
     id="defs4" />
  <metadata
     id="metadata7">
    <rdf:RDF>
      <cc:Work
         rdf:about="">
        <dc:format>image/svg+xml</dc:format>
        <dc:type
           rdf:resource="http://purl.org/dc/dcmitype/StillImage" />
        <dc:title />
      </cc:Work>
    </rdf:RDF>
  </metadata>
  <g
     inkscape:groupmode="layer"
     id="layer2"
     inkscape:label="Capa 2">
    <path
       style="fill:#ffeeaa;stroke-width:1.04830909"
       d="M 11 0.88476562 A 10.114406 10.114406 0 0 0 0.88476562 11 A 10.114406 10.114406 0 0 0 11 21.115234 A 10.114406 10.114406 0 0 0 21.115234 11 A 10.114406 10.114406 0 0 0 11 0.88476562 z M 6.5 7 A 1.5 1.5 0 0 1 8 8.5 A 1.5 1.5 0 0 1 6.5 10 A 1.5 1.5 0 0 1 5 8.5 A 1.5 1.5 0 0 1 6.5 7 z M 15.5 7 A 1.5 1.5 0 0 1 17 8.5 A 1.5 1.5 0 0 1 15.5 10 A 1.5 1.5 0 0 1 14 8.5 A 1.5 1.5 0 0 1 15.5 7 z M 6.6738281 14 L 7.2832031 14 A 5.0000001 6.0000001 0 0 0 11 16 A 5.0000001 6.0000001 0 0 0 14.714844 14 L 15.322266 14 A 5.0000001 6.0000001 0 0 1 11 17 A 5.0000001 6.0000001 0 0 1 6.6738281 14 z "
       transform="scale(0.26458333)"
       id="path16" />
  </g>
</svg>
