<svg xmlns="http://www.w3.org/2000/svg" width="697.358" height="124.862" viewBox="0 0 697.35759 124.86155"><defs><clipPath id="a"><path d="M0 595.276h841.89V0H0z"/></clipPath></defs><g clip-path="url(#a)" opacity=".987" stroke="#000" stroke-width=".525" transform="matrix(1.33333 0 0 -1.33333 -416.956 548.66)" stroke-opacity=".99"><path d="M389.012 341.359c-.992.475-1.066.743-1.066 2.58 0 3.394.28 6.108.355 7.197.072.75.214 1.084.57 1.084.429 0 .492-.207.492-.754 0-.603 0-1.557.22-2.502 1.07-5.026 5.772-6.932 10.555-6.932 6.836 0 10.186 4.689 10.186 9.036 0 4.683-2.067 7.401-8.196 12.218l-3.213 2.513c-7.552 5.902-9.259 10.11-9.259 14.724 0 7.267 5.699 12.22 14.755 12.22 2.777 0 4.844-.268 6.626-.673 1.351-.274 1.93-.344 2.5-.344.567 0 .709-.135.709-.468 0-.345-.29-2.586-.29-7.202 0-1.085-.142-1.558-.493-1.558-.428 0-.497.34-.574.88-.069.812-.5 2.651-.925 3.398-.423.742-2.35 3.595-8.912 3.595-4.914 0-8.76-2.918-8.76-7.873 0-3.872 1.992-6.18 8.691-11.398l1.993-1.507c8.419-6.307 10.411-10.517 10.411-15.946 0-2.784-1.141-7.943-6.064-11.27-3.062-2.034-6.912-2.85-10.753-2.85-3.36 0-6.633.474-9.558 1.832" fill="#0f2b72" fill-opacity=".988" stroke="#0f2b72"/><path d="M389.012 341.359c-.992.475-1.066.743-1.066 2.58 0 3.394.28 6.108.355 7.197.072.75.214 1.084.57 1.084.429 0 .492-.207.492-.754 0-.603 0-1.557.22-2.502 1.07-5.026 5.772-6.932 10.555-6.932 6.836 0 10.186 4.689 10.186 9.036 0 4.683-2.067 7.401-8.196 12.218l-3.213 2.513c-7.552 5.902-9.259 10.11-9.259 14.724 0 7.267 5.699 12.22 14.755 12.22 2.777 0 4.844-.268 6.626-.673 1.351-.274 1.93-.344 2.5-.344.567 0 .709-.135.709-.468 0-.345-.29-2.586-.29-7.202 0-1.085-.142-1.558-.493-1.558-.428 0-.497.34-.574.88-.069.812-.5 2.651-.925 3.398-.423.742-2.35 3.595-8.912 3.595-4.914 0-8.76-2.918-8.76-7.873 0-3.872 1.992-6.18 8.691-11.398l1.993-1.507c8.419-6.307 10.411-10.517 10.411-15.946 0-2.784-1.141-7.943-6.064-11.27-3.062-2.034-6.912-2.85-10.753-2.85-3.36 0-6.633.474-9.558 1.832zm93.7 7.149c.284-2.445.781-6.246 3.845-7.197 2.073-.615 3.92-.615 4.638-.615.357 0 .562-.065.562-.331 0-.418-.639-.618-1.494-.618-1.564 0-9.268.2-11.905.414-1.633.128-1.99.33-1.99.675 0 .27.143.414.5.475.365.067.424 1.22.282 2.443l-3.427 35.026h-.205l-17.464-35.292c-1.5-2.997-1.714-3.602-2.358-3.602-.495 0-.855.678-2.209 3.125-1.845 3.324-7.977 15.073-8.332 15.74-.642 1.226-8.633 17.522-9.414 19.352h-.286l-2.848-31.498c-.068-1.08-.068-2.311-.068-3.463 0-1.022.78-1.892 1.854-2.102 1.208-.272 2.275-.344 2.702-.344.288 0 .576-.132.576-.331 0-.48-.434-.618-1.29-.618-2.638 0-6.056.2-6.63.2-.637 0-4.06-.2-5.978-.2-.715 0-1.22.139-1.22.618 0 .2.365.33.721.33.567 0 1.064 0 2.13.206 2.358.41 2.572 3.055 2.856 5.636l5.132 44.262c.142.745.351 1.22.783 1.22.429 0 .717-.27 1.073-1.017l21.805-42.7 20.954 42.632c.284.61.572 1.085 1.075 1.085.498 0 .712-.536.855-1.83z" fill="#0f2b72" fill-opacity=".988" stroke="#0f2b72"/><path d="M482.712 348.508c.284-2.445.781-6.246 3.845-7.197 2.073-.615 3.92-.615 4.638-.615.357 0 .562-.065.562-.331 0-.418-.639-.618-1.494-.618-1.564 0-9.268.2-11.905.414-1.633.128-1.99.33-1.99.675 0 .27.143.414.5.475.365.067.424 1.22.282 2.443l-3.427 35.026h-.205l-17.464-35.292c-1.5-2.997-1.714-3.602-2.358-3.602-.495 0-.855.678-2.209 3.125-1.845 3.324-7.977 15.073-8.332 15.74-.642 1.226-8.633 17.522-9.414 19.352h-.286l-2.848-31.498c-.068-1.08-.068-2.311-.068-3.463 0-1.022.78-1.892 1.854-2.102 1.208-.272 2.275-.344 2.702-.344.288 0 .576-.132.576-.331 0-.48-.434-.618-1.29-.618-2.638 0-6.056.2-6.63.2-.637 0-4.06-.2-5.978-.2-.715 0-1.22.139-1.22.618 0 .2.365.33.721.33.567 0 1.064 0 2.13.206 2.358.41 2.572 3.055 2.856 5.636l5.132 44.262c.142.745.351 1.22.783 1.22.429 0 .717-.27 1.073-1.017l21.805-42.7 20.954 42.632c.284.61.572 1.085 1.075 1.085.498 0 .712-.536.855-1.83zm12.66 23.6c0 10.593 0 12.496-.146 14.667-.14 2.309-.71 3.39-3.056 3.866-.578.14-1.79.203-2.429.203-.291 0-.574.132-.574.414 0 .404.36.539 1.141.539 3.21 0 7.56-.206 8.2-.206.64 0 4.913.206 7.055.206.783 0 1.14-.135 1.14-.539 0-.282-.283-.414-.569-.414-.502 0-.93-.063-1.786-.203-1.918-.27-2.49-1.492-2.633-3.866-.14-2.171-.14-4.074-.14-14.667v-9.5c0-9.78 2.28-13.986 5.342-16.77 3.496-3.12 6.705-3.736 10.762-3.736 4.35 0 8.63 1.971 11.189 4.89 3.283 3.87 4.136 9.643 4.136 16.63v8.486c0 10.593 0 12.496-.142 14.667-.146 2.309-.71 3.39-3.065 3.866-.569.14-1.779.203-2.42.203-.287 0-.57.132-.57.414 0 .404.356.539 1.14.539 3.21 0 7.124-.206 7.552-.206.499 0 3.858.206 5.987.206.783 0 1.143-.135 1.143-.539 0-.282-.286-.414-.567-.414-.502 0-.927 0-1.787-.203-1.923-.337-2.492-1.492-2.637-3.866-.137-2.171-.137-4.074-.137-14.667v-7.261c0-7.335-.862-15.478-6.558-20.299-5.137-4.345-10.481-5.022-14.693-5.022-2.417 0-9.616.27-14.675 4.823-3.496 3.184-6.203 7.932-6.203 17.847z" fill="#0f2b72" fill-opacity=".988" stroke="#0f2b72"/><path d="M495.372 372.108c0 10.593 0 12.496-.146 14.667-.14 2.309-.71 3.39-3.056 3.866-.578.14-1.79.203-2.429.203-.291 0-.574.132-.574.414 0 .404.36.539 1.141.539 3.21 0 7.56-.206 8.2-.206.64 0 4.913.206 7.055.206.783 0 1.14-.135 1.14-.539 0-.282-.283-.414-.569-.414-.502 0-.93-.063-1.786-.203-1.918-.27-2.49-1.492-2.633-3.866-.14-2.171-.14-4.074-.14-14.667v-9.5c0-9.78 2.28-13.986 5.342-16.77 3.496-3.12 6.705-3.736 10.762-3.736 4.35 0 8.63 1.971 11.189 4.89 3.283 3.87 4.136 9.643 4.136 16.63v8.486c0 10.593 0 12.496-.142 14.667-.146 2.309-.71 3.39-3.065 3.866-.569.14-1.779.203-2.42.203-.287 0-.57.132-.57.414 0 .404.356.539 1.14.539 3.21 0 7.124-.206 7.552-.206.499 0 3.858.206 5.987.206.783 0 1.143-.135 1.143-.539 0-.282-.286-.414-.567-.414-.502 0-.927 0-1.787-.203-1.923-.337-2.492-1.492-2.637-3.866-.137-2.171-.137-4.074-.137-14.667v-7.261c0-7.335-.862-15.478-6.558-20.299-5.137-4.345-10.481-5.022-14.693-5.022-2.417 0-9.616.27-14.675 4.823-3.496 3.184-6.203 7.932-6.203 17.847zM349.88 351.445l-7.926 7.25v.01l-.005-.002-.003.002v-.01l-7.931-7.25 7.927 2.558h.014zm-7.926 7.27l2.612 7.173 5.83.703zm14.341 5.535l-5.897 2.341-.167 9.645zm-4.621 16.327l5.893.004-7.33-4.353z" fill="#0f2b72" fill-opacity=".988" stroke="#0f2b72"/><path d="M341.946 358.715l-2.612 7.173-5.833.703zM327.6 364.25l5.9 2.341.166 9.645z" fill="#987c4d" fill-opacity=".992" stroke="#987c4d"/><path d="M332.222 380.577l-5.888.004 7.332-4.353zm29.925 14.418c-5.259-4.952-8.869-2.777-10.728-2.378-.977.393-2.204.627-3.535.627-3.212 0-5.816-1.369-5.816-3.056 0-.61.345-1.177.932-1.65.601.558 1.533 1.007 2.643 1.27 1.135.195 3.054.347 5.342-.23.203-.058.424-.122.66-.179.276-.087.523-.143.74-.185.098-.022.18-.043.283-.058 5.952-1.318 9.524 1.667 9.524 1.667z" fill="#987c4d" fill-opacity=".992" stroke="#987c4d"/><path d="M341.42 342.974s-3.313.01-4.938.802c-2.94 1.417-3.501 5.778-3.872 9.379-.041.395-2.778 1.258-4.08 2.452-2.118 1.936-1.793 7.975-1.793 8.36 0 .392-3.427 2.073-3.427 5.812 0 1.579.03 10.417.03 10.417-2.234 2.769-3.656 2.807-5.44 2.25-2.212-.71-2.85-2.345-5.158-2.673l-.025-26.85c0-8.116 1.49-13.722 9.806-19.961 7.71-5.782 13.682-5.64 18.89-15.112.089-.15.033 25.124.008 25.124" fill="#0f2b72" fill-opacity=".988" stroke="#0f2b72"/></g><path opacity=".987" fill="#0f2b72" fill-opacity=".988" stroke="#0f2b72" stroke-width=".1" stroke-opacity=".988" d="M339.85 23.61h.93v74.968h-.93z"/><path d="M394.498 89.021v7.032h-37.781V32.068h8.203v56.953zm16.219-56.953v8.157h-7.922v-8.157zm-.234 16.64v47.345h-7.36V48.709zm18.327 47.345h-3.562V32.068h7.36v24.516q5.062-9.188 13.968-9.188 8.157 0 13.641 6.422 5.531 6.422 5.531 18.657 0 10.546-5.437 17.718-5.39 7.125-14.063 7.125-9.656 0-14.812-9.093zm3.798-18.563q.515 7.266 4.453 10.547 3.984 3.281 8.39 3.281 5.625 0 9.047-4.875 3.469-4.875 3.469-13.36 0-9.14-3.328-14.343-3.328-5.25-9.234-5.25-4.641 0-8.391 3.75-3.703 3.703-4.406 9.61zm51.562 18.563h-7.36V48.709h6.47V59.77q3.421-7.828 6.843-10.125 3.469-2.343 7.078-2.343 1.125 0 2.907.187v7.031h-1.5q-6.094 0-10.125 4.547-4.032 4.547-4.313 11.953zm61.406 0h-7.312q-.422-2.25-.844-8.532-4.875 9.797-16.594 9.797-7.968 0-12.234-4.218-4.266-4.22-4.266-10.125 0-7.172 6.094-11.766 6.094-4.64 20.719-4.64 1.969 0 6.281.187 0-5.625-.89-8.11-.844-2.53-3.657-4.03-2.812-1.5-7.406-1.5-11.203 0-13.031 8.53l-6.797-1.171q2.484-13.079 20.906-13.079 9.797 0 13.875 4.36 4.125 4.312 4.125 15v20.11q0 5.015 1.031 9.187zM537.42 72.38q-4.5-.281-6.844-.281-8.718 0-13.546 2.859-4.829 2.86-4.829 8.344 0 3.468 2.579 5.906 2.625 2.437 7.546 2.437 6.657 0 10.922-4.828 4.313-4.828 4.313-11.343 0-1.313-.14-3.094zm29.25 23.673h-7.36V48.709h6.47V59.77q3.421-7.828 6.843-10.125 3.469-2.343 7.078-2.343 1.125 0 2.907.187v7.031h-1.5q-6.094 0-10.125 4.547-4.032 4.547-4.313 11.953zm31.922-63.985v8.157h-7.922v-8.157zm-.234 16.64v47.345h-7.36V48.709zm46.031 33.235l6.844 1.407q-1.875 6.046-7.313 10.03-5.437 3.938-12.797 3.938-9.703 0-15.703-6.797-6-6.843-6-17.906 0-11.297 6.235-18.234 6.234-6.985 15.656-6.985 9.281 0 14.906 6.422 5.672 6.422 5.813 19.22h-34.407q0 10.733 4.5 14.483t9.516 3.75q9.047 0 12.75-9.328zm-.422-14.39q-.094-3.985-1.312-7.078-1.22-3.094-4.125-5.25-2.907-2.204-6.985-2.204-5.484 0-9.328 3.938-3.797 3.937-4.266 10.594zm12.843 16.218l7.032-1.453q2.344 8.953 14.813 8.953 4.593 0 7.78-2.062 3.188-2.063 3.188-5.813 0-5.578-8.11-7.078l-9.983-1.875q-5.86-1.125-9.329-4.406-3.468-3.281-3.468-8.672 0-5.953 4.734-9.937 4.734-4.032 12.75-4.032 15.422 0 19.031 12.047l-6.75 1.453q-2.906-7.406-11.953-7.406-4.5 0-7.406 1.875-2.86 1.828-2.86 5.156 0 5.25 7.36 6.61l9.234 1.64q14.485 2.625 14.485 14.016 0 6.516-5.391 10.547-5.39 3.984-14.344 3.984-16.828 0-20.812-13.547z" style="line-height:25px;-inkscape-font-specification:'Franklin Gothic Book, Normal';font-variant-ligatures:normal;font-variant-caps:normal;font-variant-numeric:normal;font-feature-settings:normal;text-align:start" font-weight="400" font-size="96" font-family="Franklin Gothic Book" letter-spacing="0" word-spacing="0" opacity=".987" fill="#0f2b72" fill-opacity=".988"/></svg>