<?xml version="1.0" encoding="UTF-8" standalone="no"?>
<!-- Created with Inkscape (http://www.inkscape.org/) -->

<svg
   xmlns:dc="http://purl.org/dc/elements/1.1/"
   xmlns:cc="http://creativecommons.org/ns#"
   xmlns:rdf="http://www.w3.org/1999/02/22-rdf-syntax-ns#"
   xmlns:svg="http://www.w3.org/2000/svg"
   xmlns="http://www.w3.org/2000/svg"
   xmlns:sodipodi="http://sodipodi.sourceforge.net/DTD/sodipodi-0.dtd"
   xmlns:inkscape="http://www.inkscape.org/namespaces/inkscape"
   version="1.1"
   id="svg10"
   xml:space="preserve"
   width="697.3576"
   height="124.86155"
   viewBox="0 0 697.35759 124.86155"
   sodipodi:docname="logo_white.svg"
   inkscape:version="0.92pre2 15127"><metadata
     id="metadata16"><rdf:RDF><cc:Work
         rdf:about=""><dc:format>image/svg+xml</dc:format><dc:type
           rdf:resource="http://purl.org/dc/dcmitype/StillImage" /><dc:title></dc:title></cc:Work></rdf:RDF></metadata><defs
     id="defs14"><clipPath
       clipPathUnits="userSpaceOnUse"
       id="clipPath26"><path
         d="M 0,595.276 H 841.89 V 0 H 0 Z"
         id="path24"
         inkscape:connector-curvature="0" /></clipPath></defs><sodipodi:namedview
     pagecolor="#ffffff"
     bordercolor="#666666"
     borderopacity="1"
     objecttolerance="10"
     gridtolerance="10"
     guidetolerance="10"
     inkscape:pageopacity="0"
     inkscape:pageshadow="2"
     inkscape:window-width="1711"
     inkscape:window-height="1054"
     id="namedview12"
     showgrid="false"
     inkscape:pagecheckerboard="true"
     showguides="true"
     inkscape:guide-bbox="true"
     fit-margin-top="0"
     fit-margin-left="0"
     fit-margin-right="0"
     fit-margin-bottom="0"
     inkscape:zoom="2.62"
     inkscape:cx="65.188809"
     inkscape:cy="123.6482"
     inkscape:window-x="308"
     inkscape:window-y="116"
     inkscape:window-maximized="0"
     inkscape:current-layer="g18"><sodipodi:guide
       position="147.84159,28.752269"
       orientation="0,1"
       id="guide3993"
       inkscape:locked="false" /><sodipodi:guide
       position="261.63687,98.903919"
       orientation="0,1"
       id="guide3995"
       inkscape:locked="false" /></sodipodi:namedview><g
     id="g18"
     inkscape:groupmode="layer"
     inkscape:label="FOH_H"
     transform="matrix(1.3333333,0,0,-1.3333333,-416.95586,548.66039)"><g
       clip-path="url(#clipPath26)"
       id="g22"><g
         transform="translate(371.9121,352.3703)"
         id="g28"><path
           inkscape:connector-curvature="0"
           id="path30"
           style="fill:#ffffff;fill-opacity:1;fill-rule:nonzero;stroke:none;stroke-width:1.79999995"
           d="m 17.099641,-11.0116 c -0.9918,0.4752 -1.0656,0.7434 -1.0656,2.5794 0,3.3948 0.2808,6.1092 0.3546,7.1982 0.072,0.7488 0.2142,1.0836 0.5706,1.0836 0.4284,0 0.4914,-0.207 0.4914,-0.7542 0,-0.603 0,-1.557 0.2196,-2.502 1.071,-5.0256 5.7726,-6.9318 10.5552,-6.9318 6.8364,0 10.1862,4.689 10.1862,9.036 0,4.6836 -2.0664,7.4016 -8.1954,12.2184 l -3.213,2.5128 c -7.5528,5.9022 -9.2592,10.1106 -9.2592,14.724 0,7.2666 5.6988,12.2202 14.7546,12.2202 2.7774,0 4.8438,-0.2682 6.6258,-0.6732 1.3518,-0.2736 1.9296,-0.3438 2.5002,-0.3438 0.567,0 0.7092,-0.135 0.7092,-0.468 0,-0.3456 -0.2898,-2.5866 -0.2898,-7.2018 0,-1.0854 -0.1422,-1.5588 -0.4932,-1.5588 -0.4284,0 -0.4968,0.3402 -0.5742,0.8802 -0.0684,0.8118 -0.5004,2.6514 -0.9252,3.3984 -0.423,0.7416 -2.349,3.5946 -8.9118,3.5946 -4.914,0 -8.7606,-2.9178 -8.7606,-7.8732 0,-3.8718 1.9926,-6.1794 8.6922,-11.3976 l 1.9926,-1.5066 c 8.4186,-6.3072 10.4112,-10.5174 10.4112,-15.9462 0,-2.7846 -1.1412,-7.9434 -6.0642,-11.2698 -3.0618,-2.034 -6.912,-2.8512 -10.7532,-2.8512 -3.3606,0 -6.633,0.4752 -9.558,1.8324" /></g><g
         transform="translate(371.9121,352.3703)"
         id="g32"><path
           inkscape:connector-curvature="0"
           id="path34"
           style="fill:none;stroke:#ffffff;stroke-width:0.55979997;stroke-linecap:butt;stroke-linejoin:miter;stroke-miterlimit:4;stroke-dasharray:none;stroke-opacity:1"
           d="m 17.099641,-11.0116 c -0.9918,0.4752 -1.0656,0.7434 -1.0656,2.5794 0,3.3948 0.2808,6.1092 0.3546,7.1982 0.072,0.7488 0.2142,1.0836 0.5706,1.0836 0.4284,0 0.4914,-0.207 0.4914,-0.7542 0,-0.603 0,-1.557 0.2196,-2.502 1.071,-5.0256 5.7726,-6.9318 10.5552,-6.9318 6.8364,0 10.1862,4.689 10.1862,9.036 0,4.6836 -2.0664,7.4016 -8.1954,12.2184 l -3.213,2.5128 c -7.5528,5.9022 -9.2592,10.1106 -9.2592,14.724 0,7.2666 5.6988,12.2202 14.7546,12.2202 2.7774,0 4.8438,-0.2682 6.6258,-0.6732 1.3518,-0.2736 1.9296,-0.3438 2.5002,-0.3438 0.567,0 0.7092,-0.135 0.7092,-0.468 0,-0.3456 -0.2898,-2.5866 -0.2898,-7.2018 0,-1.0854 -0.1422,-1.5588 -0.4932,-1.5588 -0.4284,0 -0.4968,0.3402 -0.5742,0.8802 -0.0684,0.8118 -0.5004,2.6514 -0.9252,3.3984 -0.423,0.7416 -2.349,3.5946 -8.9118,3.5946 -4.914,0 -8.7606,-2.9178 -8.7606,-7.8732 0,-3.8718 1.9926,-6.1794 8.6922,-11.3976 l 1.9926,-1.5066 c 8.4186,-6.3072 10.4112,-10.5174 10.4112,-15.9462 0,-2.7846 -1.1412,-7.9434 -6.0642,-11.2698 -3.0618,-2.034 -6.912,-2.8512 -10.7532,-2.8512 -3.3606,0 -6.633,0.4752 -9.558,1.8324 z" /></g><g
         transform="translate(423.9678,356.342)"
         id="g36"><path
           inkscape:connector-curvature="0"
           id="path38"
           style="fill:#ffffff;fill-opacity:1;fill-rule:nonzero;stroke:none;stroke-width:1.79999995"
           d="m 58.744201,-7.83424 c 0.2844,-2.4444 0.7812,-6.246 3.8448,-7.1964 2.0736,-0.6156 3.9204,-0.6156 4.6386,-0.6156 0.3564,0 0.5616,-0.0648 0.5616,-0.3312 0,-0.4176 -0.639,-0.6174 -1.494,-0.6174 -1.5642,0 -9.2682,0.1998 -11.9052,0.414 -1.6326,0.1278 -1.989,0.3294 -1.989,0.675 0,0.27 0.1422,0.414 0.4986,0.4752 0.3654,0.0666 0.4248,1.2204 0.2826,2.4426 l -3.4272,35.0262 h -0.2052 l -17.4636,-35.2926 c -1.4994,-2.997 -1.7136,-3.6018 -2.358,-3.6018 -0.495,0 -0.855,0.6786 -2.2086,3.1248 -1.845,3.3246 -7.9776,15.0732 -8.3322,15.741 -0.6426,1.2258 -8.6328,17.5212 -9.4139998,19.3518 h -0.2862 l -2.8476,-31.4982 c -0.0684,-1.08 -0.0684,-2.3112 -0.0684,-3.4632 0,-1.0224 0.7794,-1.8918 1.854,-2.1024 1.2078,-0.2718 2.2751998,-0.3438 2.7017998,-0.3438 0.288,0 0.576,-0.1314 0.576,-0.3312 0,-0.4788 -0.4338,-0.6174 -1.2906,-0.6174 -2.6369998,0 -6.0551996,0.1998 -6.6293996,0.1998 -0.6372,0 -4.05900002,-0.1998 -5.9778,-0.1998 -0.7146,0 -1.2204,0.1386 -1.2204,0.6174 0,0.1998 0.3654,0.3312 0.7218,0.3312 0.567,0 1.0638,0 2.12939998,0.2052 2.35800002,0.4104 2.57220002,3.0546 2.85660002,5.6358 l 5.1317998,44.262 c 0.1422,0.7452 0.351,1.2204 0.783,1.2204 0.4284,0 0.7164,-0.27 1.0728,-1.017 l 21.8051998,-42.6996 20.9538,42.6312 c 0.2844,0.6102 0.5724,1.0854 1.0746,1.0854 0.4986,0 0.7128,-0.5364 0.855,-1.8306 z" /></g><g
         transform="translate(423.9678,356.342)"
         id="g40"><path
           inkscape:connector-curvature="0"
           id="path42"
           style="fill:none;stroke:#ffffff;stroke-width:0.55979997;stroke-linecap:butt;stroke-linejoin:miter;stroke-miterlimit:4;stroke-dasharray:none;stroke-opacity:1"
           d="m 58.744201,-7.83424 c 0.2844,-2.4444 0.7812,-6.246 3.8448,-7.1964 2.0736,-0.6156 3.9204,-0.6156 4.6386,-0.6156 0.3564,0 0.5616,-0.0648 0.5616,-0.3312 0,-0.4176 -0.639,-0.6174 -1.494,-0.6174 -1.5642,0 -9.2682,0.1998 -11.9052,0.414 -1.6326,0.1278 -1.989,0.3294 -1.989,0.675 0,0.27 0.1422,0.414 0.4986,0.4752 0.3654,0.0666 0.4248,1.2204 0.2826,2.4426 l -3.4272,35.0262 h -0.2052 l -17.4636,-35.2926 c -1.4994,-2.997 -1.7136,-3.6018 -2.358,-3.6018 -0.495,0 -0.855,0.6786 -2.2086,3.1248 -1.845,3.3246 -7.9776,15.0732 -8.3322,15.741 -0.6426,1.2258 -8.6328,17.5212 -9.4139998,19.3518 h -0.2862 l -2.8476,-31.4982 c -0.0684,-1.08 -0.0684,-2.3112 -0.0684,-3.4632 0,-1.0224 0.7794,-1.8918 1.854,-2.1024 1.2078,-0.2718 2.2751998,-0.3438 2.7017998,-0.3438 0.288,0 0.576,-0.1314 0.576,-0.3312 0,-0.4788 -0.4338,-0.6174 -1.2906,-0.6174 -2.6369998,0 -6.0551996,0.1998 -6.6293996,0.1998 -0.6372,0 -4.05900002,-0.1998 -5.9778,-0.1998 -0.7146,0 -1.2204,0.1386 -1.2204,0.6174 0,0.1998 0.3654,0.3312 0.7218,0.3312 0.567,0 1.0638,0 2.12939998,0.2052 2.35800002,0.4104 2.57220002,3.0546 2.85660002,5.6358 l 5.1317998,44.262 c 0.1422,0.7452 0.351,1.2204 0.783,1.2204 0.4284,0 0.7164,-0.27 1.0728,-1.017 l 21.8051998,-42.6996 20.9538,42.6312 c 0.2844,0.6102 0.5724,1.0854 1.0746,1.0854 0.4986,0 0.7128,-0.5364 0.855,-1.8306 z" /></g><g
         transform="translate(431.001,369.4533)"
         id="g44"><path
           inkscape:connector-curvature="0"
           id="path46"
           style="fill:#ffffff;fill-opacity:1;fill-rule:nonzero;stroke:none;stroke-width:1.79999995"
           d="m 64.370761,2.6548 c 0,10.593 0,12.4956 -0.1458,14.6664 -0.1404,2.3094 -0.7092,3.3912 -3.0564,3.8664 -0.5778,0.1404 -1.7892,0.2034 -2.4282,0.2034 -0.2916,0 -0.5742,0.1314 -0.5742,0.414 0,0.4032 0.36,0.5382 1.1412,0.5382 3.2094,0 7.56,-0.2052 8.199,-0.2052 0.6408,0 4.914,0.2052 7.056,0.2052 0.783,0 1.1394,-0.135 1.1394,-0.5382 0,-0.2826 -0.2826,-0.414 -0.5688,-0.414 -0.5022,0 -0.9306,-0.063 -1.7856,-0.2034 -1.9188,-0.27 -2.4912,-1.4922 -2.6334,-3.8664 -0.1404,-2.1708 -0.1404,-4.0734 -0.1404,-14.6664 v -9.5004 c 0,-9.7794 2.2806,-13.986 5.3424,-16.7706 3.4956,-3.1194 6.705,-3.735 10.7622,-3.735 4.3506,0 8.6292,1.971 11.1888,4.8906 3.283199,3.87 4.136399,9.6426 4.136399,16.6284 v 8.487 c 0,10.593 0,12.4956 -0.1422,14.6664 -0.1458,2.3094 -0.711,3.3912 -3.065399,3.8664 -0.5688,0.1404 -1.7784,0.2034 -2.4192,0.2034 -0.288,0 -0.5706,0.1314 -0.5706,0.414 0,0.4032 0.3564,0.5382 1.1394,0.5382 3.211199,0 7.124399,-0.2052 7.552799,-0.2052 0.4986,0 3.8574,0.2052 5.9868,0.2052 0.783,0 1.143,-0.135 1.143,-0.5382 0,-0.2826 -0.2862,-0.414 -0.567,-0.414 -0.5022,0 -0.927,0 -1.7874,-0.2034 -1.9224,-0.3366 -2.4912,-1.4922 -2.637,-3.8664 -0.1368,-2.1708 -0.1368,-4.0734 -0.1368,-14.6664 v -7.2612 c 0,-7.335 -0.8622,-15.4782 -6.557399,-20.2986 -5.1372,-4.3452 -10.4814,-5.022 -14.6934,-5.022 -2.4174,0 -9.6156,0.27 -14.6754,4.8222 -3.4956,3.1842 -6.2028,7.9326 -6.2028,17.847 z" /></g><g
         transform="translate(431.001,369.4533)"
         id="g48"><path
           inkscape:connector-curvature="0"
           id="path50"
           style="fill:none;stroke:#ffffff;stroke-width:0.55979997;stroke-linecap:butt;stroke-linejoin:miter;stroke-miterlimit:4;stroke-dasharray:none;stroke-opacity:1"
           d="m 64.370761,2.6548 c 0,10.593 0,12.4956 -0.1458,14.6664 -0.1404,2.3094 -0.7092,3.3912 -3.0564,3.8664 -0.5778,0.1404 -1.7892,0.2034 -2.4282,0.2034 -0.2916,0 -0.5742,0.1314 -0.5742,0.414 0,0.4032 0.36,0.5382 1.1412,0.5382 3.2094,0 7.56,-0.2052 8.199,-0.2052 0.6408,0 4.914,0.2052 7.056,0.2052 0.783,0 1.1394,-0.135 1.1394,-0.5382 0,-0.2826 -0.2826,-0.414 -0.5688,-0.414 -0.5022,0 -0.9306,-0.063 -1.7856,-0.2034 -1.9188,-0.27 -2.4912,-1.4922 -2.6334,-3.8664 -0.1404,-2.1708 -0.1404,-4.0734 -0.1404,-14.6664 v -9.5004 c 0,-9.7794 2.2806,-13.986 5.3424,-16.7706 3.4956,-3.1194 6.705,-3.735 10.7622,-3.735 4.3506,0 8.6292,1.971 11.1888,4.8906 3.283199,3.87 4.136399,9.6426 4.136399,16.6284 v 8.487 c 0,10.593 0,12.4956 -0.1422,14.6664 -0.1458,2.3094 -0.711,3.3912 -3.065399,3.8664 -0.5688,0.1404 -1.7784,0.2034 -2.4192,0.2034 -0.288,0 -0.5706,0.1314 -0.5706,0.414 0,0.4032 0.3564,0.5382 1.1394,0.5382 3.211199,0 7.124399,-0.2052 7.552799,-0.2052 0.4986,0 3.8574,0.2052 5.9868,0.2052 0.783,0 1.143,-0.135 1.143,-0.5382 0,-0.2826 -0.2862,-0.414 -0.567,-0.414 -0.5022,0 -0.927,0 -1.7874,-0.2034 -1.9224,-0.3366 -2.4912,-1.4922 -2.637,-3.8664 -0.1368,-2.1708 -0.1368,-4.0734 -0.1368,-14.6664 v -7.2612 c 0,-7.335 -0.8622,-15.4782 -6.557399,-20.2986 -5.1372,-4.3452 -10.4814,-5.022 -14.6934,-5.022 -2.4174,0 -9.6156,0.27 -14.6754,4.8222 -3.4956,3.1842 -6.2028,7.9326 -6.2028,17.847 z" /></g><g
         transform="translate(349.8809,351.4455)"
         id="g52"><path
           inkscape:connector-curvature="0"
           id="path54"
           style="fill:#ffffff;fill-opacity:1;fill-rule:nonzero;stroke:none"
           d="M 0,0 -7.927,7.25 V 7.259 L -7.932,7.257 -7.935,7.259 V 7.25 L -15.866,0 -7.939,2.558 h 0.014 z" /></g><g
         transform="translate(341.9541,358.715)"
         id="g56"><path
           inkscape:connector-curvature="0"
           id="path58"
           style="fill:#ffffff;fill-opacity:1;fill-rule:nonzero;stroke:none"
           d="m 0,0 2.612,7.173 5.83,0.703 z" /></g><g
         transform="translate(356.2949,364.2502)"
         id="g60"><path
           inkscape:connector-curvature="0"
           id="path62"
           style="fill:#ffffff;fill-opacity:1;fill-rule:nonzero;stroke:none"
           d="m 0,0 -5.897,2.341 -0.167,9.645 z" /></g><g
         transform="translate(351.6738,380.5773)"
         id="g64"><path
           inkscape:connector-curvature="0"
           id="path66"
           style="fill:#ffffff;fill-opacity:1;fill-rule:nonzero;stroke:none"
           d="m 0,0 5.893,0.004 -7.33,-4.353 z" /></g><g
         transform="translate(341.9463,358.715)"
         id="g68"><path
           inkscape:connector-curvature="0"
           id="path70"
           style="fill:#ffffff;fill-opacity:1;fill-rule:nonzero;stroke:none"
           d="M 0,0 -2.612,7.173 -8.445,7.876 Z" /></g><g
         transform="translate(327.6006,364.2502)"
         id="g72"><path
           inkscape:connector-curvature="0"
           id="path74"
           style="fill:#ffffff;fill-opacity:1;fill-rule:nonzero;stroke:none"
           d="m 0,0 5.9,2.341 0.165,9.645 z" /></g><g
         transform="translate(332.2217,380.5773)"
         id="g76"><path
           inkscape:connector-curvature="0"
           id="path78"
           style="fill:#ffffff;fill-opacity:1;fill-rule:nonzero;stroke:none"
           d="M 0,0 -5.888,0.004 1.444,-4.349 Z" /></g><g
         transform="translate(362.1475,394.9953)"
         id="g80"><path
           inkscape:connector-curvature="0"
           id="path82"
           style="fill:#ffffff;fill-opacity:1;fill-rule:nonzero;stroke:none"
           d="m 0,0 c -5.259,-4.952 -8.869,-2.777 -10.728,-2.378 -0.977,0.393 -2.204,0.627 -3.535,0.627 -3.212,0 -5.816,-1.369 -5.816,-3.056 0,-0.61 0.345,-1.177 0.932,-1.651 0.601,0.559 1.533,1.008 2.643,1.27 1.135,0.196 3.054,0.348 5.342,-0.229 0.203,-0.058 0.424,-0.122 0.66,-0.179 0.276,-0.087 0.523,-0.143 0.739,-0.185 0.099,-0.022 0.18,-0.043 0.284,-0.058 5.952,-1.318 9.524,1.667 9.524,1.667 z" /></g><g
         transform="translate(341.4209,342.9738)"
         id="g84"><path
           inkscape:connector-curvature="0"
           id="path86"
           style="fill:#ffffff;fill-opacity:1;fill-rule:nonzero;stroke:none"
           d="m 0,0 c 0,0 -3.314,0.01 -4.939,0.802 -2.94,1.417 -3.501,5.778 -3.872,9.379 -0.041,0.395 -2.778,1.258 -4.08,2.452 -2.118,1.936 -1.793,7.975 -1.793,8.361 0,0.391 -3.427,2.072 -3.427,5.811 0,1.579 0.03,10.417 0.03,10.417 -2.234,2.769 -3.656,2.807 -5.439,2.25 -2.213,-0.709 -2.851,-2.345 -5.159,-2.673 0,-0.507 -0.025,-26.85 -0.025,-26.85 0,-8.116 1.49,-13.722 9.806,-19.961 7.71,-5.782 13.682,-5.639 18.89,-15.112 C 0.081,-25.274 0.025,0 0,0" /></g><g
         transform="translate(371.4854,336.2854)"
         id="g88" /><g
         transform="translate(377.3584,340.3713)"
         id="g92" /><g
         transform="translate(382.0479,337.4016)"
         id="g96" /><g
         transform="translate(395.752,336.7805)"
         id="g100" /><g
         transform="translate(400.5811,338.9758)"
         id="g104" /><g
         transform="translate(404.7959,340.3713)"
         id="g108" /><g
         transform="translate(416.0283,339.4084)"
         id="g112" /><g
         transform="translate(420.3477,339.6594)"
         id="g116" /><g
         transform="translate(426.2178,340.3713)"
         id="g120" /><g
         transform="translate(435.1729,342.9436)"
         id="g124" /><g
         transform="translate(446.7412,338.9758)"
         id="g128" /><g
         transform="translate(451.4688,337.4016)"
         id="g132" /><g
         transform="translate(461.8945,338.9758)"
         id="g136" /><g
         transform="translate(471.6641,336.7805)"
         id="g140" /><g
         transform="translate(474.2598,340.3713)"
         id="g144" /><g
         transform="translate(480.4238,342.9436)"
         id="g148" /><g
         transform="translate(489.6719,340.3713)"
         id="g152" /><g
         transform="translate(496.0088,337.4016)"
         id="g156" /><g
         transform="translate(505.4209,342.4758)"
         id="g160" /><g
         transform="translate(371.5977,329.635)"
         id="g164" /><g
         transform="translate(380.3398,326.6652)"
         id="g168" /><g
         transform="translate(388.5332,329.635)"
         id="g172" /><g
         transform="translate(391.8721,331.3625)"
         id="g176" /><g
         transform="translate(399.3799,329.635)"
         id="g180" /><g
         transform="translate(406.2861,328.924)"
         id="g184" /><g
         transform="translate(411.5166,325.552)"
         id="g188" /><g
         transform="translate(417.3896,329.635)"
         id="g192" /><g
         transform="translate(422.7871,331.7395)"
         id="g196" /><g
         transform="translate(429.1787,327.7736)"
         id="g200" /></g><rect
       style="fill:#ffffff;stroke-width:0.7110368"
       id="rect3983"
       width="0.69766366"
       height="56.226196"
       x="567.60352"
       y="-393.78842"
       transform="scale(1,-1)" /><g
       aria-label="Libraries"
       transform="matrix(0.75000002,0,0,-0.75000002,8.6945867,578.30695)"
       style="font-style:normal;font-variant:normal;font-weight:normal;font-stretch:normal;font-size:96px;line-height:25px;font-family:'Franklin Gothic Book';-inkscape-font-specification:'Franklin Gothic Book, Normal';font-variant-ligatures:normal;font-variant-caps:normal;font-variant-numeric:normal;font-feature-settings:normal;text-align:start;letter-spacing:0px;word-spacing:0px;writing-mode:lr-tb;text-anchor:start;opacity:0.95999995;fill:#ffffff;fill-opacity:1;stroke:none;stroke-width:0.1;stroke-linecap:butt;stroke-linejoin:miter;stroke-miterlimit:4;stroke-dasharray:none;stroke-opacity:1"
       id="flowRoot3985"><path
         d="m 799.86133,311.43696 v 7.03125 h -37.78125 v -63.98438 h 8.20312 v 56.95313 z"
         id="path4561"
         inkscape:connector-curvature="0" /><path
         d="m 816.08008,254.48383 v 8.15625 h -7.92188 v -8.15625 z m -0.23438,16.64063 v 47.34375 h -7.35937 v -47.34375 z"
         id="path4563"
         inkscape:connector-curvature="0" /><path
         d="m 834.17383,318.46821 h -3.5625 v -63.98438 h 7.35937 v 24.51563 q 5.0625,-9.1875 13.96875,-9.1875 8.15625,0 13.64063,6.42187 5.53125,6.42188 5.53125,18.65625 0,10.54688 -5.4375,17.71875 -5.39063,7.125 -14.0625,7.125 -9.65625,0 -14.8125,-9.09375 z m 3.79687,-18.5625 q 0.51563,7.26562 4.45313,10.54687 3.98437,3.28125 8.39062,3.28125 5.625,0 9.04688,-4.875 3.46875,-4.875 3.46875,-13.35937 0,-9.14063 -3.32813,-14.34375 -3.32812,-5.25 -9.23437,-5.25 -4.64063,0 -8.39063,3.75 -3.70312,3.70312 -4.40625,9.60937 z"
         id="path4565"
         inkscape:connector-curvature="0" /><path
         d="m 889.5332,318.46821 h -7.35937 v -47.34375 h 6.46875 v 11.0625 q 3.42187,-7.82813 6.84375,-10.125 3.46875,-2.34375 7.07812,-2.34375 1.125,0 2.90625,0.1875 v 7.03125 h -1.5 q -6.09375,0 -10.125,4.54687 -4.03125,4.54688 -4.3125,11.95313 z"
         id="path4567"
         inkscape:connector-curvature="0" /><path
         d="m 950.93945,318.46821 h -7.3125 q -0.42187,-2.25 -0.84375,-8.53125 -4.875,9.79687 -16.59375,9.79687 -7.96875,0 -12.23437,-4.21875 -4.26563,-4.21875 -4.26563,-10.125 0,-7.17187 6.09375,-11.76562 6.09375,-4.64063 20.71875,-4.64063 1.96875,0 6.28125,0.1875 0,-5.625 -0.89062,-8.10937 -0.84375,-2.53125 -3.65625,-4.03125 -2.8125,-1.5 -7.40625,-1.5 -11.20313,0 -13.03125,8.53125 l -6.79688,-1.17188 q 2.48438,-13.07812 20.90625,-13.07812 9.79688,0 13.875,4.35937 4.125,4.3125 4.125,15 v 20.10938 q 0,5.01562 1.03125,9.1875 z m -8.15625,-23.67188 q -4.5,-0.28125 -6.84375,-0.28125 -8.71875,0 -13.54687,2.85938 -4.82813,2.85937 -4.82813,8.34375 0,3.46875 2.57813,5.90625 2.625,2.4375 7.54687,2.4375 6.65625,0 10.92188,-4.82813 4.3125,-4.82812 4.3125,-11.34375 0,-1.3125 -0.14063,-3.09375 z"
         id="path4569"
         inkscape:connector-curvature="0" /><path
         d="m 972.0332,318.46821 h -7.35937 v -47.34375 h 6.46875 v 11.0625 q 3.42187,-7.82813 6.84375,-10.125 3.46875,-2.34375 7.07812,-2.34375 1.125,0 2.90625,0.1875 v 7.03125 h -1.5 q -6.09375,0 -10.125,4.54687 -4.03125,4.54688 -4.3125,11.95313 z"
         id="path4571"
         inkscape:connector-curvature="0" /><path
         d="m 1003.9551,254.48383 v 8.15625 h -7.9219 v -8.15625 z m -0.2344,16.64063 v 47.34375 h -7.35937 v -47.34375 z"
         id="path4573"
         inkscape:connector-curvature="0" /><path
         d="m 1049.752,304.35883 6.8437,1.40625 q -1.875,6.04688 -7.3125,10.03125 -5.4375,3.9375 -12.7969,3.9375 -9.7031,0 -15.7031,-6.79687 -6,-6.84375 -6,-17.90625 0,-11.29688 6.2344,-18.23438 6.2344,-6.98437 15.6562,-6.98437 9.2813,0 14.9063,6.42187 5.6719,6.42188 5.8125,19.21875 h -34.4063 q 0,10.73438 4.5,14.48438 4.5,3.75 9.5157,3.75 9.0468,0 12.75,-9.32813 z m -0.4219,-14.39062 q -0.094,-3.98438 -1.3125,-7.07813 -1.2188,-3.09375 -4.125,-5.25 -2.9063,-2.20312 -6.9844,-2.20312 -5.4844,0 -9.3281,3.9375 -3.7969,3.9375 -4.2656,10.59375 z"
         id="path4575"
         inkscape:connector-curvature="0" /><path
         d="m 1062.1738,306.18696 7.0313,-1.45313 q 2.3437,8.95313 14.8125,8.95313 4.5937,0 7.7812,-2.0625 3.1875,-2.0625 3.1875,-5.8125 0,-5.57813 -8.1093,-7.07813 l -9.9844,-1.875 q -5.8594,-1.125 -9.3281,-4.40625 -3.4688,-3.28125 -3.4688,-8.67187 0,-5.95313 4.7344,-9.9375 4.7344,-4.03125 12.75,-4.03125 15.4219,0 19.0312,12.04687 l -6.75,1.45313 q -2.9062,-7.40625 -11.9531,-7.40625 -4.5,0 -7.4062,1.875 -2.8594,1.82812 -2.8594,5.15625 0,5.25 7.3594,6.60937 l 9.2343,1.64063 q 14.4844,2.625 14.4844,14.01562 0,6.51563 -5.3906,10.54688 -5.3906,3.98437 -14.3438,3.98437 -16.8281,0 -20.8125,-13.54687 z"
         id="path4577"
         inkscape:connector-curvature="0" /></g></g></svg>