<?xml version="1.0" encoding="utf-8"?>
<!-- Generator: Adobe Illustrator 23.0.1, SVG Export Plug-In . SVG Version: 6.00 Build 0)  -->
<svg version="1.1" id="Layer_1" xmlns="http://www.w3.org/2000/svg" xmlns:xlink="http://www.w3.org/1999/xlink" x="0px" y="0px"
	 viewBox="0 0 398.57 114.53" style="enable-background:new 0 0 398.57 114.53;" xml:space="preserve">
<style type="text/css">
	.st0{enable-background:new    ;}
	.st1{fill:#FFFFFF;}
	.st2{fill:none;}
</style>
<g id="Guide">
	<g id="Vertical_Version">
	</g>
	<g id="Horizontal_Version">
	</g>
</g>
<g id="Artwork">
	<g id="Vertical_Version_1_">
	</g>
	<g id="Horizontal_Version_1_">
		<g class="st0">
			<path class="st1" d="M290.1,73.35V53.26h3.84v16.86h8.74v3.22H290.1V73.35z"/>
			<path class="st1" d="M305.55,56.21v-3.22h3.45v3.22H305.55z M308.99,73.35h-3.45V58.88h3.45V73.35z"/>
			<path class="st1" d="M312.92,53.26h3.45v6.96h0.05c0.17-0.22,0.39-0.44,0.67-0.64s0.57-0.37,0.9-0.51
				c0.33-0.14,0.66-0.26,0.99-0.33c0.33-0.09,0.65-0.13,0.95-0.13c0.93,0,1.76,0.2,2.48,0.62c0.72,0.4,1.33,0.95,1.82,1.62
				c0.49,0.67,0.86,1.43,1.11,2.28c0.26,0.85,0.37,1.72,0.37,2.62c0,1.13-0.12,2.18-0.36,3.14s-0.61,1.8-1.09,2.5
				c-0.48,0.7-1.09,1.26-1.81,1.66s-1.56,0.6-2.53,0.6c-0.78,0-1.48-0.16-2.09-0.47c-0.62-0.32-1.22-0.77-1.84-1.36l-0.39,1.55h-2.7
				V53.26H312.92z M316.37,69.56c0.18,0.15,0.36,0.3,0.51,0.45c0.16,0.15,0.33,0.29,0.53,0.4c0.19,0.12,0.43,0.22,0.68,0.31
				c0.26,0.09,0.57,0.13,0.95,0.13c1.04,0,1.84-0.4,2.39-1.21c0.55-0.81,0.83-1.98,0.83-3.52s-0.28-2.71-0.83-3.52
				c-0.55-0.81-1.35-1.21-2.39-1.21c-0.55,0-1.05,0.13-1.49,0.37c-0.44,0.26-0.83,0.53-1.18,0.85L316.37,69.56L316.37,69.56z"/>
			<path class="st1" d="M328.17,73.35V58.88h3.17v2.48h0.05c0.43-0.87,0.95-1.54,1.58-2c0.63-0.46,1.45-0.71,2.49-0.76v3.64
				c-0.1-0.02-0.18-0.03-0.28-0.03c-0.1,0-0.2,0-0.33,0c-0.43,0-0.83,0.11-1.22,0.32c-0.39,0.21-0.73,0.46-1.03,0.72
				c-0.3,0.27-0.53,0.53-0.71,0.78c-0.18,0.26-0.27,0.43-0.27,0.51v8.79h-3.45V73.35z"/>
			<path class="st1" d="M345.03,73.35l-0.22-1.26c-0.7,0.48-1.4,0.86-2.1,1.13s-1.5,0.4-2.41,0.4c-0.65,0-1.22-0.11-1.71-0.32
				c-0.49-0.21-0.89-0.5-1.22-0.86c-0.33-0.36-0.57-0.77-0.73-1.22c-0.17-0.46-0.26-0.94-0.26-1.44c0-1.65,0.68-2.93,2.03-3.82
				c1.35-0.89,3.44-1.51,6.26-1.85v-1.22c0-0.55-0.2-0.98-0.6-1.28c-0.4-0.3-0.9-0.45-1.51-0.45c-0.82,0-1.47,0.18-1.95,0.54
				c-0.48,0.36-0.89,0.78-1.22,1.23l-2.22-1.69c0.22-0.39,0.53-0.75,0.92-1.07c0.39-0.32,0.83-0.61,1.32-0.85
				c0.49-0.24,1.01-0.43,1.54-0.55c0.53-0.13,1.07-0.18,1.62-0.17c0.97,0.02,1.8,0.13,2.5,0.33c0.7,0.2,1.29,0.53,1.73,0.99
				c0.46,0.46,0.79,1.05,1,1.8s0.32,1.65,0.32,2.72v6.82c0,0.37,0.02,0.73,0.05,1.09c0.03,0.35,0.11,0.69,0.22,1
				C348.4,73.35,345.03,73.35,345.03,73.35z M344.67,66.42c-0.57,0.11-1.15,0.23-1.72,0.36c-0.57,0.13-1.1,0.3-1.55,0.51
				c-0.47,0.21-0.84,0.49-1.13,0.82c-0.29,0.33-0.44,0.76-0.44,1.26c0,0.54,0.16,0.96,0.48,1.26s0.71,0.45,1.19,0.45
				c0.28,0,0.56-0.05,0.86-0.15s0.59-0.22,0.86-0.37c0.28-0.15,0.54-0.32,0.8-0.5c0.24-0.18,0.47-0.35,0.65-0.5V66.42z"/>
			<path class="st1" d="M351.34,73.35V58.88h3.17v2.48h0.05c0.43-0.87,0.95-1.54,1.58-2c0.63-0.46,1.45-0.71,2.49-0.76v3.64
				c-0.1-0.02-0.18-0.03-0.28-0.03s-0.2,0-0.33,0c-0.43,0-0.83,0.11-1.22,0.32c-0.39,0.21-0.73,0.46-1.03,0.72
				c-0.3,0.27-0.53,0.53-0.71,0.78c-0.18,0.26-0.27,0.43-0.27,0.51v8.79h-3.45V73.35z"/>
			<path class="st1" d="M361.2,56.21v-3.22h3.45v3.22H361.2z M364.65,73.35h-3.45V58.88h3.45V73.35z"/>
			<path class="st1" d="M370.91,66.67c0.04,1.5,0.34,2.58,0.92,3.21c0.57,0.64,1.27,0.96,2.09,0.96c0.8,0,1.43-0.16,1.89-0.49
				c0.47-0.32,0.9-0.73,1.33-1.23l2.5,1.55c-0.67,1.04-1.5,1.79-2.49,2.26c-0.99,0.47-2.18,0.69-3.58,0.69
				c-0.95,0-1.8-0.18-2.54-0.53c-0.76-0.35-1.39-0.85-1.92-1.5c-0.53-0.65-0.94-1.44-1.22-2.36c-0.29-0.93-0.44-1.97-0.44-3.12
				s0.14-2.19,0.44-3.12c0.29-0.93,0.7-1.71,1.23-2.36c0.53-0.65,1.19-1.15,1.98-1.5c0.78-0.35,1.66-0.53,2.64-0.53
				c0.95,0,1.79,0.18,2.52,0.54c0.73,0.36,1.35,0.85,1.85,1.46c0.5,0.61,0.88,1.32,1.14,2.13c0.26,0.81,0.39,1.65,0.39,2.52v1.42
				h-8.74V66.67z M376.47,64.34c-0.04-1-0.3-1.78-0.79-2.34c-0.49-0.55-1.16-0.83-1.99-0.83c-0.84,0-1.5,0.28-1.99,0.83
				c-0.49,0.55-0.76,1.33-0.8,2.34H376.47z"/>
			<path class="st1" d="M389.52,62.69c-0.35-0.37-0.76-0.72-1.21-1.04c-0.46-0.32-0.95-0.49-1.49-0.49c-0.67,0-1.16,0.13-1.48,0.39
				c-0.32,0.27-0.47,0.61-0.47,1.03c0,0.4,0.18,0.73,0.54,0.99c0.36,0.26,0.81,0.48,1.33,0.68c0.53,0.2,1.11,0.42,1.73,0.63
				c0.63,0.21,1.21,0.5,1.73,0.86c0.53,0.36,0.98,0.83,1.34,1.39c0.36,0.56,0.54,1.29,0.54,2.16c0,0.76-0.14,1.42-0.4,1.95
				c-0.27,0.54-0.64,0.99-1.12,1.35c-0.48,0.36-1.03,0.63-1.68,0.8s-1.35,0.26-2.12,0.26c-1.17,0-2.21-0.26-3.13-0.76
				c-0.92-0.5-1.7-1.22-2.35-2.17L383.6,69c0.4,0.55,0.88,1.04,1.44,1.46c0.54,0.42,1.19,0.63,1.94,0.63c0.62,0,1.11-0.15,1.49-0.46
				s0.57-0.7,0.57-1.18c0-0.4-0.18-0.75-0.54-1c-0.36-0.26-0.81-0.49-1.33-0.69c-0.53-0.2-1.11-0.43-1.73-0.65
				c-0.63-0.23-1.21-0.52-1.73-0.87c-0.53-0.35-0.98-0.8-1.34-1.33c-0.36-0.53-0.54-1.22-0.54-2.05c0-0.67,0.13-1.27,0.39-1.8
				c0.27-0.53,0.62-0.97,1.05-1.32c0.45-0.35,0.96-0.62,1.53-0.81s1.18-0.28,1.81-0.28c0.97,0,1.89,0.18,2.8,0.54
				c0.89,0.36,1.66,0.92,2.3,1.66L389.52,62.69z"/>
		</g>
		<rect id="Separator_5_" x="265.13" y="26.97" class="st1" width="0.71" height="76.04"/>
		<g id="SMU_Logo_5_">
			<g>
				<g>
					<path class="st1" d="M77.05,61.06c-0.66-0.32-0.71-0.5-0.71-1.75c0-2.29,0.18-4.13,0.23-4.86c0.05-0.5,0.15-0.73,0.38-0.73
						c0.29,0,0.33,0.13,0.33,0.51c0,0.42,0,1.04,0.15,1.69c0.73,3.41,3.9,4.68,7.14,4.68c4.62,0,6.89-3.17,6.89-6.11
						c0-3.17-1.39-4.99-5.55-8.25l-2.17-1.69c-5.1-3.98-6.26-6.84-6.26-9.94c0-4.92,3.85-8.25,9.97-8.25c1.87,0,3.27,0.18,4.48,0.45
						c0.92,0.18,1.3,0.23,1.69,0.23c0.38,0,0.48,0.1,0.48,0.32c0,0.23-0.2,1.75-0.2,4.86c0,0.73-0.1,1.04-0.33,1.04
						c-0.29,0-0.33-0.23-0.38-0.6c-0.05-0.54-0.33-1.79-0.63-2.29c-0.29-0.5-1.6-2.43-6.02-2.43c-3.32,0-5.93,1.98-5.93,5.31
						c0,2.62,1.34,4.18,5.88,7.71l1.34,1.01c5.69,4.27,7.04,7.1,7.04,10.77c0,1.87-0.78,5.36-4.1,7.62
						c-2.08,1.37-4.66,1.93-7.27,1.93C81.25,62.28,79.04,61.97,77.05,61.06z"/>
					<path class="st1" d="M140.37,56.23c0.2,1.66,0.53,4.21,2.59,4.86c1.39,0.42,2.66,0.42,3.14,0.42c0.24,0,0.38,0.05,0.38,0.23
						c0,0.29-0.44,0.42-1.01,0.42c-1.06,0-6.26-0.13-8.05-0.29c-1.1-0.09-1.34-0.21-1.34-0.45c0-0.18,0.1-0.29,0.33-0.32
						c0.24-0.05,0.29-0.83,0.2-1.64l-2.32-23.67h-0.13l-11.8,23.85c-1.01,2.02-1.16,2.44-1.6,2.44c-0.33,0-0.59-0.47-1.49-2.11
						c-1.25-2.25-5.4-10.2-5.63-10.64c-0.44-0.83-5.82-11.84-6.35-13.08h-0.2l-1.93,21.28c-0.05,0.73-0.05,1.56-0.05,2.34
						c0,0.7,0.53,1.28,1.25,1.43c0.81,0.18,1.54,0.23,1.83,0.23c0.2,0,0.38,0.09,0.38,0.23c0,0.32-0.3,0.42-0.88,0.42
						c-1.78,0-4.1-0.13-4.48-0.13c-0.44,0-2.74,0.13-4.03,0.13c-0.48,0-0.83-0.1-0.83-0.42c0-0.13,0.24-0.23,0.48-0.23
						c0.38,0,0.71,0,1.45-0.13c1.6-0.29,1.75-2.05,1.93-3.8l3.47-29.91c0.1-0.5,0.23-0.83,0.53-0.83c0.29,0,0.48,0.18,0.73,0.68
						l14.74,28.85l14.16-28.8c0.2-0.42,0.38-0.73,0.73-0.73c0.33,0,0.48,0.36,0.59,1.22L140.37,56.23z"/>
					<path class="st1" d="M148.92,40.27c0-7.15,0-8.45-0.1-9.91c-0.1-1.56-0.48-2.29-2.05-2.61c-0.38-0.1-1.21-0.13-1.64-0.13
						c-0.2,0-0.38-0.09-0.38-0.29c0-0.27,0.24-0.36,0.78-0.36c2.17,0,5.11,0.13,5.55,0.13c0.44,0,3.32-0.13,4.77-0.13
						c0.53,0,0.77,0.09,0.77,0.36c0,0.18-0.2,0.29-0.38,0.29c-0.33,0-0.63,0.05-1.21,0.13c-1.3,0.18-1.68,1.01-1.78,2.61
						c-0.1,1.46-0.1,2.76-0.1,9.91v6.43c0,6.61,1.54,9.44,3.6,11.34c2.35,2.11,4.53,2.52,7.27,2.52c2.94,0,5.82-1.33,7.56-3.3
						c2.22-2.62,2.79-6.52,2.79-11.24v-5.73c0-7.15,0-8.45-0.1-9.91c-0.1-1.56-0.48-2.29-2.08-2.61c-0.38-0.1-1.19-0.13-1.63-0.13
						c-0.2,0-0.38-0.09-0.38-0.29c0-0.27,0.24-0.36,0.77-0.36c2.17,0,4.81,0.13,5.1,0.13c0.33,0,2.61-0.13,4.06-0.13
						c0.53,0,0.78,0.09,0.78,0.36c0,0.18-0.2,0.29-0.38,0.29c-0.33,0-0.63,0-1.21,0.13c-1.3,0.23-1.68,1.01-1.78,2.61
						c-0.1,1.46-0.1,2.76-0.1,9.91v4.92c0,4.96-0.59,10.46-4.43,13.71c-3.47,2.94-7.09,3.38-9.93,3.38c-1.63,0-6.49-0.18-9.91-3.26
						c-2.35-2.16-4.2-5.36-4.2-12.05L148.92,40.27L148.92,40.27z"/>
				</g>
				<g>
					<polygon class="st1" points="50.26,62.18 40.61,53.35 40.61,53.34 40.61,53.35 40.61,53.34 40.61,53.35 30.97,62.18 
						40.59,59.07 40.61,59.07 					"/>
					<g>
						<polygon class="st1" points="40.61,53.34 43.8,44.61 50.89,43.76 						"/>
						<polygon class="st1" points="58.06,46.61 50.89,43.76 50.69,32.02 						"/>
						<polygon class="st1" points="52.45,26.75 59.6,26.75 50.69,32.02 						"/>
					</g>
					<polygon class="st1" points="40.61,53.34 37.42,44.61 30.34,43.76 					"/>
					<polygon class="st1" points="23.17,46.61 30.34,43.76 30.54,32.02 					"/>
					<polygon class="st1" points="28.78,26.75 21.63,26.75 30.54,32.02 					"/>
					<path class="st1" d="M65.18,9.21c-6.39,6.02-10.79,3.37-13.05,2.88c-1.19-0.48-2.67-0.77-4.3-0.77c-3.9,0-7.07,1.66-7.07,3.71
						c0,0.75,0.42,1.43,1.13,2.01c0.73-0.68,1.86-1.22,3.22-1.54l0,0c1.37-0.23,3.71-0.44,6.49,0.29c0.24,0.06,0.51,0.15,0.8,0.21
						l0,0c0.33,0.1,0.63,0.18,0.89,0.23c0.12,0.03,0.21,0.05,0.35,0.06c7.24,1.61,11.59-2.02,11.59-2.02L65.18,9.21z"/>
					<path class="st1" d="M39.97,72.48c0,0-4.03-0.02-6.01-0.98c-3.57-1.72-4.27-7.02-4.71-11.4c-0.05-0.48-3.38-1.52-4.96-2.99
						c-2.58-2.35-2.17-9.7-2.17-10.17s-4.16-2.52-4.16-7.07c0-1.93,0.03-12.67,0.03-12.67c-2.72-3.37-4.45-3.42-6.61-2.74
						c-2.69,0.86-3.47,2.85-6.28,3.26c0,0.62-0.03,32.65-0.03,32.65c0,9.88,1.81,16.68,11.92,24.29
						c9.38,7.04,16.65,6.85,22.97,18.37C40.06,103.22,40,72.48,39.97,72.48z"/>
				</g>
			</g>
			<g>
				<path class="st1" d="M76.54,80.61c-0.18-0.09-0.21-0.13-0.21-0.38c0-0.6,0.05-1.27,0.05-1.43c0.02-0.17,0.05-0.29,0.13-0.29
					c0.1,0,0.12,0.1,0.12,0.18c0,0.15,0.05,0.36,0.1,0.56c0.24,0.81,0.89,1.11,1.6,1.11c1,0,1.49-0.66,1.49-1.25
					c0-0.53-0.17-1.04-1.1-1.75l-0.51-0.39c-1.22-0.95-1.64-1.71-1.64-2.59c0-1.21,1.03-2.08,2.58-2.08c0.73,0,1.19,0.12,1.48,0.18
					c0.1,0.02,0.17,0.05,0.17,0.13c0,0.15-0.05,0.47-0.05,1.31c0,0.24-0.03,0.33-0.13,0.33c-0.09,0-0.12-0.06-0.12-0.2
					c0-0.1-0.06-0.44-0.3-0.73c-0.17-0.21-0.5-0.53-1.21-0.53c-0.83,0-1.33,0.47-1.33,1.13c0,0.5,0.27,0.88,1.18,1.58l0.32,0.23
					c1.34,1.01,1.83,1.76,1.83,2.79c0,0.63-0.24,1.39-1.04,1.91c-0.54,0.35-1.18,0.45-1.76,0.45C77.51,80.9,77.01,80.82,76.54,80.61
					z"/>
				<path class="st1" d="M83.69,75.65c0-1.66,0-1.98-0.02-2.32c-0.03-0.36-0.13-0.56-0.38-0.62c-0.12-0.03-0.27-0.05-0.39-0.05
					c-0.12,0-0.18-0.02-0.18-0.12c0-0.06,0.09-0.09,0.27-0.09c0.42,0,1.11,0.03,1.45,0.03c0.29,0,0.93-0.03,1.36-0.03
					c0.15,0,0.23,0.02,0.23,0.09c0,0.09-0.06,0.12-0.18,0.12s-0.2,0.02-0.33,0.03c-0.3,0.05-0.38,0.24-0.42,0.63
					c-0.02,0.35-0.02,0.65-0.02,2.32v1.93c0,1.06,0,1.93,0.05,2.39c0.03,0.3,0.12,0.5,0.45,0.53c0.15,0.02,0.39,0.05,0.56,0.05
					c0.12,0,0.18,0.03,0.18,0.09c0,0.09-0.09,0.12-0.21,0.12c-0.73,0-1.45-0.03-1.75-0.03c-0.24,0-0.96,0.03-1.39,0.03
					c-0.15,0-0.21-0.03-0.21-0.12c0-0.05,0.05-0.09,0.18-0.09c0.17,0,0.3-0.02,0.39-0.05c0.21-0.05,0.3-0.23,0.32-0.54
					c0.06-0.45,0.06-1.33,0.06-2.39v-1.91L83.69,75.65L83.69,75.65z"/>
				<path class="st1" d="M89.38,79.25c0.03,0.85,0.17,1.15,0.39,1.21c0.18,0.06,0.39,0.09,0.59,0.09c0.13,0,0.2,0.02,0.2,0.09
					c0,0.09-0.1,0.12-0.24,0.12c-0.73,0-1.16-0.03-1.37-0.03c-0.1,0-0.62,0.03-1.19,0.03c-0.15,0-0.24-0.02-0.24-0.12
					c0-0.06,0.06-0.09,0.18-0.09c0.15,0,0.35-0.02,0.5-0.05c0.29-0.09,0.33-0.39,0.35-1.36l0.1-6.47c0-0.21,0.03-0.38,0.15-0.38
					c0.12,0,0.23,0.15,0.42,0.33c0.13,0.15,1.83,1.93,3.45,3.52c0.77,0.75,2.26,2.32,2.44,2.49h0.05l-0.12-4.92
					c-0.02-0.66-0.12-0.88-0.38-0.98c-0.17-0.06-0.44-0.06-0.59-0.06c-0.13,0-0.18-0.03-0.18-0.1c0-0.09,0.12-0.1,0.29-0.1
					c0.59,0,1.11,0.03,1.34,0.03c0.12,0,0.54-0.03,1.1-0.03c0.15,0,0.24,0.02,0.24,0.1c0,0.06-0.06,0.1-0.2,0.1
					c-0.12,0-0.2,0-0.33,0.03c-0.32,0.09-0.39,0.32-0.42,0.93l-0.12,6.91c0,0.23-0.05,0.33-0.15,0.33c-0.12,0-0.24-0.12-0.38-0.24
					c-0.7-0.66-2.13-2.1-3.29-3.22c-1.21-1.18-2.46-2.55-2.66-2.76h-0.03L89.38,79.25z"/>
				<path class="st1" d="M106.05,80.02c0,0.3-0.02,0.32-0.15,0.39c-0.73,0.36-1.81,0.5-2.67,0.5c-2.72,0-5.14-1.27-5.14-4.3
					c0-1.75,0.93-2.97,1.93-3.59c1.06-0.63,2.05-0.71,2.99-0.71c0.77,0,1.75,0.13,1.98,0.18s0.63,0.12,0.88,0.12
					c0.13,0.02,0.17,0.05,0.17,0.13c0,0.12-0.09,0.44-0.09,1.79c0,0.18-0.03,0.23-0.12,0.23c-0.09,0-0.1-0.05-0.12-0.15
					c-0.03-0.24-0.09-0.6-0.38-0.92c-0.33-0.35-1.22-0.85-2.47-0.85c-0.62,0-1.43,0.05-2.2,0.68c-0.63,0.51-1.03,1.33-1.03,2.69
					c0,2.35,1.52,4.12,3.86,4.12c0.3,0,0.68,0,0.95-0.12c0.17-0.09,0.21-0.21,0.21-0.42v-1.01c0-0.54,0-0.96-0.02-1.3
					c-0.02-0.36-0.12-0.54-0.48-0.63c-0.1-0.02-0.29-0.03-0.44-0.03c-0.1,0-0.17-0.02-0.17-0.09c0-0.09,0.09-0.12,0.23-0.12
					c0.59,0,1.28,0.03,1.61,0.03c0.35,0,0.93-0.03,1.3-0.03c0.15,0,0.23,0.02,0.23,0.12c0,0.06-0.06,0.09-0.15,0.09
					c-0.09,0-0.17,0.02-0.3,0.03c-0.3,0.05-0.42,0.24-0.44,0.63c0,0.33,0,0.77,0,1.31v1.21C106.04,80.02,106.05,80.02,106.05,80.02z
					"/>
				<path class="st1" d="M109.65,77.89c-0.05,0-0.09,0.02-0.1,0.09l-0.6,1.56c-0.12,0.27-0.17,0.53-0.17,0.66
					c0,0.2,0.1,0.33,0.45,0.33h0.17c0.13,0,0.17,0.02,0.17,0.09c0,0.09-0.06,0.12-0.2,0.12c-0.35,0-0.83-0.03-1.18-0.03
					c-0.12,0-0.73,0.03-1.31,0.03c-0.15,0-0.21-0.02-0.21-0.12c0-0.06,0.05-0.09,0.13-0.09c0.1,0,0.24-0.02,0.35-0.02
					c0.51-0.06,0.73-0.44,0.95-0.98l2.79-6.88c0.13-0.32,0.2-0.44,0.32-0.44c0.1,0,0.17,0.1,0.29,0.35c0.27,0.6,2.04,5.07,2.76,6.73
					c0.42,0.98,0.75,1.15,0.98,1.19c0.17,0.03,0.33,0.05,0.47,0.05c0.09,0,0.15,0.02,0.15,0.09c0,0.09-0.1,0.12-0.51,0.12
					c-0.39,0-1.21,0-2.11-0.02c-0.2-0.02-0.33-0.02-0.33-0.09c0-0.06,0.05-0.09,0.17-0.1c0.09-0.02,0.15-0.12,0.1-0.24l-0.89-2.32
					c-0.02-0.05-0.05-0.09-0.12-0.09L109.65,77.89L109.65,77.89z M111.92,77.34c0.05,0,0.06-0.03,0.05-0.06l-1-2.7
					c-0.02-0.05-0.02-0.1-0.06-0.1c-0.03,0-0.05,0.05-0.06,0.1l-1.03,2.69c-0.02,0.05,0,0.09,0.05,0.09
					C109.86,77.34,111.92,77.34,111.92,77.34z"/>
				<path class="st1" d="M117.05,75.65c0-1.66,0-1.98-0.02-2.32c-0.02-0.36-0.12-0.54-0.48-0.63c-0.09-0.02-0.29-0.03-0.44-0.03
					c-0.12,0-0.18-0.02-0.18-0.1c0-0.09,0.06-0.1,0.24-0.1c0.59,0,1.3,0.03,1.61,0.03c0.45,0,1.1-0.03,1.61-0.03
					c1.39,0,1.89,0.47,2.08,0.63c0.24,0.23,0.54,0.73,0.54,1.3c0,1.56-1.16,2.66-2.74,2.66c-0.05,0-0.18,0-0.23-0.02
					c-0.05-0.02-0.13-0.02-0.13-0.1c0-0.09,0.09-0.12,0.32-0.12c0.62,0,1.49-0.7,1.49-1.81c0-0.36-0.03-1.1-0.66-1.64
					c-0.39-0.36-0.86-0.44-1.11-0.44c-0.17,0-0.33,0.02-0.44,0.05c-0.05,0.02-0.09,0.09-0.09,0.2v4.39c0,1.01,0,1.87,0.05,2.34
					c0.03,0.32,0.1,0.54,0.44,0.6c0.15,0.02,0.39,0.05,0.56,0.05c0.12,0,0.18,0.03,0.18,0.09c0,0.09-0.09,0.12-0.21,0.12
					c-0.73,0-1.45-0.03-1.72-0.03c-0.24,0-0.96,0.03-1.39,0.03c-0.15,0-0.21-0.03-0.21-0.12c0-0.05,0.05-0.09,0.18-0.09
					c0.17,0,0.3-0.02,0.39-0.05c0.21-0.05,0.29-0.29,0.32-0.6c0.05-0.47,0.05-1.33,0.05-2.32v-1.93h-0.02L117.05,75.65L117.05,75.65
					z"/>
				<path class="st1" d="M123.17,76.61c0-1.87,1.27-4.28,4.6-4.28c2.77,0,4.5,1.6,4.5,4.1s-1.78,4.48-4.6,4.48
					C124.47,80.9,123.17,78.56,123.17,76.61z M130.71,76.81c0-2.46-1.45-3.97-3.26-3.97c-1.28,0-2.74,0.7-2.74,3.42
					c0,2.28,1.28,4.09,3.42,4.09C128.9,80.35,130.71,79.98,130.71,76.81z"/>
				<path class="st1" d="M134.65,75.65c0-1.66,0-1.98-0.02-2.32c-0.03-0.36-0.12-0.54-0.48-0.63c-0.09-0.02-0.29-0.03-0.44-0.03
					c-0.12,0-0.18-0.02-0.18-0.1c0-0.09,0.09-0.1,0.24-0.1c0.59,0,1.3,0.03,1.52,0.03c0.38,0,1.22-0.03,1.56-0.03
					c0.7,0,1.45,0.06,2.04,0.47c0.32,0.2,0.77,0.77,0.77,1.49c0,0.81-0.35,1.56-1.48,2.46c1,1.22,1.76,2.19,2.41,2.87
					c0.63,0.63,1.07,0.71,1.25,0.75c0.12,0.02,0.21,0.03,0.32,0.03c0.09,0,0.13,0.03,0.13,0.09c0,0.09-0.09,0.12-0.21,0.12h-1.06
					c-0.63,0-0.89-0.05-1.19-0.2c-0.48-0.24-0.89-0.77-1.52-1.61c-0.45-0.6-0.96-1.34-1.1-1.51c-0.05-0.06-0.12-0.09-0.2-0.09
					l-0.96-0.02c-0.05,0-0.09,0.02-0.09,0.09v0.15c0,1.01,0,1.87,0.05,2.34c0.03,0.32,0.1,0.56,0.44,0.6
					c0.17,0.02,0.42,0.05,0.54,0.05c0.09,0,0.13,0.03,0.13,0.09c0,0.09-0.09,0.12-0.23,0.12c-0.65,0-1.46-0.03-1.63-0.03
					c-0.21,0-0.92,0.03-1.36,0.03c-0.15,0-0.21-0.03-0.21-0.12c0-0.05,0.05-0.09,0.18-0.09c0.17,0,0.3-0.02,0.39-0.05
					c0.21-0.05,0.29-0.29,0.33-0.6c0.05-0.47,0.05-1.33,0.05-2.32C134.65,77.56,134.65,75.65,134.65,75.65z M135.96,76.51
					c0,0.12,0.02,0.17,0.1,0.2c0.23,0.09,0.56,0.12,0.85,0.12c0.45,0,0.59-0.05,0.8-0.18c0.33-0.24,0.66-0.75,0.66-1.64
					c0-1.56-1.04-2.01-1.69-2.01c-0.29,0-0.48,0.02-0.6,0.05c-0.09,0.02-0.1,0.06-0.1,0.15v3.32h-0.02V76.51z"/>
				<path class="st1" d="M143.11,75.65c0-1.66,0-1.98-0.02-2.32c-0.02-0.36-0.12-0.54-0.48-0.63c-0.09-0.02-0.29-0.03-0.44-0.03
					c-0.12,0-0.18-0.02-0.18-0.1c0-0.09,0.09-0.1,0.24-0.1c0.3,0,0.62,0.02,0.89,0.02c0.3,0.02,0.54,0.02,0.69,0.02
					c0.36,0,2.58,0,2.79-0.02s0.38-0.05,0.48-0.06c0.05-0.02,0.12-0.05,0.18-0.05c0.05,0,0.06,0.05,0.06,0.1
					c0,0.09-0.05,0.21-0.09,0.71c-0.02,0.12-0.03,0.6-0.05,0.73c-0.02,0.05-0.03,0.12-0.12,0.12s-0.1-0.05-0.1-0.15
					c0-0.09-0.02-0.27-0.06-0.39c-0.09-0.2-0.18-0.33-0.75-0.39c-0.2-0.02-1.36-0.05-1.58-0.05c-0.05,0-0.09,0.03-0.09,0.12v2.77
					c0,0.09,0.02,0.12,0.09,0.12c0.24,0,1.52,0,1.78-0.02c0.27-0.02,0.44-0.05,0.53-0.17c0.09-0.09,0.12-0.15,0.18-0.15
					c0.05,0,0.09,0.02,0.09,0.09c0,0.06-0.06,0.23-0.1,0.8c-0.02,0.21-0.05,0.66-0.05,0.73c0,0.09,0,0.2-0.1,0.2
					c-0.09,0-0.1-0.05-0.1-0.1c-0.02-0.12-0.02-0.24-0.05-0.39c-0.05-0.21-0.21-0.38-0.63-0.44c-0.21-0.02-1.31-0.03-1.58-0.03
					c-0.05,0-0.06,0.05-0.06,0.12v0.86c0,0.36-0.02,1.37,0,1.69c0.02,0.75,0.2,0.92,1.34,0.92c0.29,0,0.75,0,1.04-0.13
					c0.29-0.13,0.42-0.36,0.5-0.81c0.02-0.12,0.05-0.17,0.12-0.17c0.09,0,0.09,0.09,0.09,0.2c0,0.24-0.09,1-0.15,1.21
					c-0.09,0.29-0.18,0.29-0.6,0.29c-0.83,0-1.45-0.02-1.93-0.03c-0.48-0.02-0.83-0.03-1.16-0.03c-0.12,0-0.36,0.02-0.63,0.02
					c-0.24,0.02-0.54,0.02-0.77,0.02c-0.15,0-0.21-0.03-0.21-0.12c0-0.05,0.05-0.09,0.18-0.09c0.17,0,0.3-0.02,0.39-0.05
					c0.21-0.05,0.29-0.29,0.32-0.6c0.05-0.47,0.05-1.33,0.05-2.32V75.65L143.11,75.65z"/>
				<path class="st1" d="M154,72.51c0.03-0.18,0.1-0.29,0.18-0.29c0.09,0,0.15,0.05,0.3,0.33l3.03,6.17l3.02-6.24
					c0.09-0.18,0.15-0.27,0.24-0.27s0.17,0.12,0.2,0.33l1.01,6.76c0.1,0.68,0.21,1.01,0.54,1.1c0.33,0.1,0.54,0.12,0.7,0.12
					c0.1,0,0.18,0.02,0.18,0.09c0,0.09-0.13,0.12-0.29,0.12c-0.29,0-1.81-0.03-2.26-0.06c-0.24-0.02-0.33-0.05-0.33-0.12
					c0-0.05,0.05-0.1,0.12-0.12s0.1-0.17,0.05-0.47l-0.66-4.81H160l-2.43,4.96c-0.24,0.51-0.32,0.62-0.42,0.62
					c-0.1,0-0.21-0.21-0.38-0.54c-0.27-0.5-1.15-2.17-1.28-2.49c-0.1-0.23-0.77-1.61-1.16-2.43h-0.05l-0.56,4.35
					c-0.02,0.2-0.03,0.33-0.03,0.51c0,0.21,0.15,0.3,0.33,0.35c0.2,0.05,0.36,0.05,0.47,0.05c0.09,0,0.17,0.02,0.17,0.09
					c0,0.1-0.1,0.12-0.27,0.12c-0.47,0-0.96-0.03-1.16-0.03c-0.21,0-0.75,0.03-1.1,0.03c-0.12,0-0.2-0.02-0.2-0.12
					c0-0.05,0.06-0.09,0.18-0.09c0.09,0,0.17,0,0.33-0.03c0.32-0.06,0.39-0.5,0.47-0.86L154,72.51z"/>
				<path class="st1" d="M165.8,77.89c-0.06,0-0.09,0.02-0.1,0.09l-0.6,1.56c-0.12,0.27-0.17,0.53-0.17,0.66
					c0,0.2,0.1,0.33,0.45,0.33h0.17c0.13,0,0.17,0.02,0.17,0.09c0,0.09-0.06,0.12-0.2,0.12c-0.35,0-0.83-0.03-1.18-0.03
					c-0.12,0-0.73,0.03-1.31,0.03c-0.15,0-0.21-0.02-0.21-0.12c0-0.06,0.05-0.09,0.13-0.09c0.1,0,0.24-0.02,0.35-0.02
					c0.51-0.06,0.73-0.44,0.95-0.98l2.79-6.88c0.13-0.32,0.2-0.44,0.32-0.44c0.1,0,0.17,0.1,0.29,0.35c0.27,0.6,2.04,5.07,2.76,6.73
					c0.44,0.98,0.75,1.15,0.98,1.19c0.17,0.03,0.33,0.05,0.47,0.05c0.09,0,0.15,0.02,0.15,0.09c0,0.09-0.1,0.12-0.51,0.12
					c-0.39,0-1.21,0-2.11-0.02c-0.2-0.02-0.33-0.02-0.33-0.09c0-0.06,0.05-0.09,0.17-0.1c0.09-0.02,0.15-0.12,0.1-0.24l-0.89-2.32
					c-0.02-0.05-0.06-0.09-0.12-0.09L165.8,77.89L165.8,77.89z M168.06,77.34c0.05,0,0.06-0.03,0.05-0.06l-1-2.7
					c-0.02-0.05-0.03-0.1-0.06-0.1c-0.03,0-0.05,0.05-0.06,0.1l-1.03,2.69c-0.02,0.05,0,0.09,0.05,0.09
					C166,77.34,168.06,77.34,168.06,77.34z"/>
				<path class="st1" d="M173.81,79.25c0.02,0.85,0.17,1.15,0.38,1.21c0.18,0.06,0.39,0.09,0.59,0.09c0.12,0,0.18,0.02,0.18,0.09
					c0,0.09-0.1,0.12-0.24,0.12c-0.73,0-1.16-0.03-1.37-0.03c-0.1,0-0.63,0.03-1.19,0.03c-0.15,0-0.24-0.02-0.24-0.12
					c0-0.06,0.06-0.09,0.18-0.09c0.15,0,0.35-0.02,0.5-0.05c0.29-0.09,0.33-0.39,0.35-1.36l0.1-6.47c0-0.21,0.03-0.38,0.15-0.38
					c0.12,0,0.23,0.15,0.42,0.33c0.13,0.15,1.83,1.93,3.45,3.52c0.77,0.75,2.26,2.32,2.46,2.49h0.05l-0.12-4.92
					c-0.02-0.66-0.12-0.88-0.38-0.98c-0.17-0.06-0.44-0.06-0.59-0.06c-0.13,0-0.18-0.03-0.18-0.1c0-0.09,0.13-0.1,0.3-0.1
					c0.59,0,1.11,0.03,1.34,0.03c0.12,0,0.54-0.03,1.1-0.03c0.15,0,0.24,0.02,0.24,0.1c0,0.06-0.06,0.1-0.2,0.1
					c-0.12,0-0.2,0-0.33,0.03c-0.32,0.09-0.39,0.32-0.42,0.93l-0.12,6.91c0,0.23-0.05,0.33-0.15,0.33c-0.12,0-0.27-0.12-0.38-0.24
					c-0.7-0.66-2.13-2.1-3.29-3.22c-1.21-1.18-2.44-2.55-2.66-2.76h-0.03L173.81,79.25z"/>
				<path class="st1" d="M184.22,77.89c-0.05,0-0.09,0.02-0.1,0.09l-0.6,1.56c-0.12,0.27-0.17,0.53-0.17,0.66
					c0,0.2,0.1,0.33,0.45,0.33h0.17c0.13,0,0.17,0.02,0.17,0.09c0,0.09-0.06,0.12-0.18,0.12c-0.36,0-0.83-0.03-1.18-0.03
					c-0.12,0-0.73,0.03-1.31,0.03c-0.15,0-0.21-0.02-0.21-0.12c0-0.06,0.05-0.09,0.13-0.09c0.1,0,0.24-0.02,0.35-0.02
					c0.51-0.06,0.73-0.44,0.95-0.98l2.79-6.88c0.13-0.32,0.2-0.44,0.32-0.44c0.1,0,0.17,0.1,0.29,0.35c0.27,0.6,2.04,5.07,2.76,6.73
					c0.42,0.98,0.75,1.15,0.98,1.19c0.17,0.03,0.33,0.05,0.47,0.05c0.09,0,0.15,0.02,0.15,0.09c0,0.09-0.1,0.12-0.51,0.12
					c-0.39,0-1.21,0-2.11-0.02c-0.2-0.02-0.33-0.02-0.33-0.09c0-0.06,0.05-0.09,0.15-0.1c0.09-0.02,0.15-0.12,0.1-0.24l-0.89-2.32
					c-0.03-0.05-0.05-0.09-0.12-0.09L184.22,77.89L184.22,77.89z M186.5,77.34c0.05,0,0.06-0.03,0.05-0.06l-1-2.7
					c-0.02-0.05-0.02-0.1-0.05-0.1c-0.03,0-0.05,0.05-0.06,0.1l-1.03,2.69c-0.02,0.05,0,0.09,0.05,0.09
					C184.46,77.34,186.5,77.34,186.5,77.34z"/>
				<path class="st1" d="M198.37,80.02c0,0.3-0.02,0.32-0.15,0.39c-0.73,0.36-1.81,0.5-2.69,0.5c-2.72,0-5.14-1.27-5.14-4.3
					c0-1.75,0.93-2.97,1.94-3.59c1.06-0.63,2.05-0.71,2.99-0.71c0.77,0,1.75,0.13,1.96,0.18c0.23,0.05,0.63,0.12,0.88,0.12
					c0.13,0.02,0.15,0.05,0.15,0.13c0,0.12-0.09,0.44-0.09,1.79c0,0.18-0.03,0.23-0.12,0.23s-0.1-0.05-0.12-0.15
					c-0.03-0.24-0.09-0.6-0.38-0.92c-0.33-0.35-1.22-0.85-2.47-0.85c-0.62,0-1.43,0.05-2.2,0.68c-0.63,0.51-1.03,1.33-1.03,2.69
					c0,2.35,1.52,4.12,3.86,4.12c0.29,0,0.68,0,0.95-0.12c0.17-0.09,0.21-0.21,0.21-0.42v-1.01c0-0.54,0-0.96,0-1.3
					c-0.02-0.36-0.12-0.54-0.48-0.63c-0.09-0.02-0.29-0.03-0.44-0.03c-0.1,0-0.17-0.02-0.17-0.09c0-0.09,0.09-0.12,0.23-0.12
					c0.59,0,1.28,0.03,1.61,0.03c0.35,0,0.93-0.03,1.31-0.03c0.15,0,0.21,0.02,0.21,0.12c0,0.06-0.06,0.09-0.15,0.09
					s-0.17,0.02-0.3,0.03c-0.3,0.05-0.42,0.24-0.42,0.63c-0.02,0.33-0.02,0.77-0.02,1.31v1.21
					C198.32,80.02,198.37,80.02,198.37,80.02z"/>
				<path class="st1" d="M201.54,75.65c0-1.66,0-1.98-0.02-2.32c-0.02-0.36-0.12-0.54-0.48-0.63c-0.09-0.02-0.29-0.03-0.44-0.03
					c-0.12,0-0.18-0.02-0.18-0.1c0-0.09,0.09-0.1,0.24-0.1c0.3,0,0.62,0.02,0.89,0.02c0.3,0.02,0.54,0.02,0.7,0.02
					c0.36,0,2.58,0,2.79-0.02s0.38-0.05,0.48-0.06c0.05-0.02,0.12-0.05,0.18-0.05s0.06,0.05,0.06,0.1c0,0.09-0.06,0.21-0.09,0.71
					c-0.02,0.12-0.03,0.6-0.06,0.73c-0.02,0.05-0.03,0.12-0.12,0.12c-0.09,0-0.1-0.05-0.1-0.15c0-0.09-0.02-0.27-0.06-0.39
					c-0.09-0.2-0.18-0.33-0.75-0.39c-0.18-0.02-1.36-0.05-1.58-0.05c-0.05,0-0.09,0.03-0.09,0.12v2.77c0,0.09,0.02,0.12,0.09,0.12
					c0.24,0,1.52,0,1.78-0.02c0.27-0.02,0.44-0.05,0.53-0.17c0.09-0.09,0.12-0.15,0.18-0.15c0.05,0,0.09,0.02,0.09,0.09
					c0,0.06-0.05,0.23-0.09,0.8c-0.02,0.21-0.05,0.66-0.05,0.73c0,0.09,0,0.2-0.1,0.2c-0.09,0-0.1-0.05-0.1-0.1
					c-0.02-0.12-0.02-0.24-0.05-0.39c-0.05-0.21-0.21-0.38-0.63-0.44c-0.21-0.02-1.31-0.03-1.58-0.03c-0.05,0-0.06,0.05-0.06,0.12
					v0.86c0,0.36-0.02,1.37,0,1.69c0.03,0.75,0.2,0.92,1.33,0.92c0.3,0,0.77,0,1.04-0.13c0.29-0.13,0.42-0.36,0.5-0.81
					c0.03-0.12,0.05-0.17,0.12-0.17c0.09,0,0.09,0.09,0.09,0.2c0,0.24-0.09,1-0.15,1.21c-0.06,0.29-0.18,0.29-0.6,0.29
					c-0.83,0-1.45-0.02-1.93-0.03c-0.48-0.02-0.81-0.03-1.16-0.03c-0.12,0-0.36,0.02-0.63,0.02c-0.24,0.02-0.54,0.02-0.77,0.02
					c-0.15,0-0.21-0.03-0.21-0.12c0-0.05,0.05-0.09,0.18-0.09c0.17,0,0.3-0.02,0.39-0.05c0.21-0.05,0.29-0.29,0.32-0.6
					c0.05-0.47,0.05-1.33,0.05-2.32V75.7l0,0L201.54,75.65L201.54,75.65z"/>
				<path class="st1" d="M209.02,72.51c0.03-0.18,0.1-0.29,0.2-0.29c0.09,0,0.15,0.05,0.3,0.33l3.03,6.17l3.02-6.24
					c0.09-0.18,0.15-0.27,0.24-0.27s0.17,0.12,0.2,0.33l1.01,6.76c0.1,0.68,0.21,1.01,0.54,1.1c0.32,0.1,0.54,0.12,0.7,0.12
					c0.1,0,0.18,0.02,0.18,0.09c0,0.09-0.13,0.12-0.29,0.12c-0.29,0-1.81-0.03-2.26-0.06c-0.24-0.02-0.32-0.05-0.32-0.12
					c0-0.05,0.05-0.1,0.12-0.12c0.06-0.02,0.1-0.17,0.05-0.47l-0.66-4.81h-0.03l-2.43,4.96c-0.27,0.51-0.32,0.62-0.42,0.62
					c-0.1,0-0.21-0.21-0.38-0.54c-0.27-0.5-1.15-2.17-1.28-2.49c-0.1-0.23-0.77-1.61-1.16-2.43h-0.05l-0.59,4.35
					c-0.03,0.2-0.03,0.33-0.03,0.51c0,0.21,0.15,0.3,0.33,0.35c0.2,0.05,0.35,0.05,0.47,0.05c0.09,0,0.17,0.02,0.17,0.09
					c0,0.1-0.1,0.12-0.27,0.12c-0.47,0-0.96-0.03-1.16-0.03c-0.21,0-0.75,0.03-1.1,0.03c-0.12,0-0.2-0.02-0.2-0.12
					c0-0.05,0.06-0.09,0.18-0.09c0.09,0,0.17,0,0.33-0.03c0.32-0.06,0.39-0.5,0.45-0.86L209.02,72.51z"/>
				<path class="st1" d="M220.28,75.65c0-1.66,0-1.98-0.03-2.32c-0.02-0.36-0.12-0.54-0.48-0.63c-0.09-0.02-0.29-0.03-0.44-0.03
					c-0.12,0-0.2-0.02-0.2-0.1c0-0.09,0.09-0.1,0.24-0.1c0.3,0,0.63,0.02,0.89,0.02c0.29,0.02,0.54,0.02,0.69,0.02
					c0.35,0,2.58,0,2.79-0.02s0.38-0.05,0.48-0.06c0.05-0.02,0.12-0.05,0.18-0.05c0.05,0,0.06,0.05,0.06,0.1
					c0,0.09-0.05,0.21-0.1,0.71c-0.02,0.12-0.03,0.6-0.05,0.73c-0.02,0.05-0.03,0.12-0.12,0.12c-0.09,0-0.1-0.05-0.1-0.15
					c0-0.09-0.02-0.27-0.06-0.39c-0.09-0.2-0.2-0.33-0.75-0.39c-0.2-0.02-1.36-0.05-1.58-0.05c-0.06,0-0.09,0.03-0.09,0.12v2.77
					c0,0.09,0.02,0.12,0.09,0.12c0.24,0,1.52,0,1.78-0.02c0.27-0.02,0.44-0.05,0.53-0.17c0.09-0.09,0.12-0.15,0.18-0.15
					c0.05,0,0.09,0.02,0.09,0.09c0,0.06-0.05,0.23-0.09,0.8c-0.02,0.21-0.05,0.66-0.05,0.73c0,0.09,0,0.2-0.1,0.2
					c-0.09,0-0.1-0.05-0.1-0.1c-0.02-0.12-0.02-0.24-0.05-0.39c-0.06-0.21-0.21-0.38-0.63-0.44c-0.21-0.02-1.31-0.03-1.58-0.03
					c-0.06,0-0.06,0.05-0.06,0.12v0.86c0,0.36-0.02,1.37,0,1.69c0.02,0.75,0.2,0.92,1.33,0.92c0.29,0,0.77,0,1.04-0.13
					c0.29-0.13,0.42-0.36,0.5-0.81c0.02-0.12,0.05-0.17,0.12-0.17c0.09,0,0.09,0.09,0.09,0.2c0,0.24-0.09,1-0.15,1.21
					c-0.09,0.29-0.18,0.29-0.6,0.29c-0.83,0-1.45-0.02-1.93-0.03c-0.48-0.02-0.83-0.03-1.16-0.03c-0.12,0-0.36,0.02-0.63,0.02
					c-0.24,0.02-0.54,0.02-0.77,0.02c-0.15,0-0.21-0.03-0.21-0.12c0-0.05,0.05-0.09,0.18-0.09c0.17,0,0.3-0.02,0.39-0.05
					c0.21-0.05,0.29-0.29,0.33-0.6c0.05-0.47,0.05-1.33,0.05-2.32V75.7h0.03V75.65z"/>
				<path class="st1" d="M227.98,79.25c0.03,0.85,0.17,1.15,0.38,1.21c0.18,0.06,0.39,0.09,0.59,0.09c0.12,0,0.2,0.02,0.2,0.09
					c0,0.09-0.1,0.12-0.27,0.12c-0.73,0-1.16-0.03-1.37-0.03c-0.1,0-0.63,0.03-1.19,0.03c-0.15,0-0.24-0.02-0.24-0.12
					c0-0.06,0.06-0.09,0.18-0.09c0.15,0,0.35-0.02,0.5-0.05c0.29-0.09,0.33-0.39,0.35-1.36l0.1-6.47c0-0.21,0.03-0.38,0.15-0.38
					c0.12,0,0.21,0.15,0.42,0.33c0.13,0.15,1.83,1.93,3.45,3.52c0.75,0.75,2.26,2.32,2.44,2.49h0.06l-0.12-4.92
					c-0.02-0.66-0.12-0.88-0.38-0.98c-0.17-0.06-0.44-0.06-0.6-0.06c-0.13,0-0.18-0.03-0.18-0.1c0-0.09,0.12-0.1,0.29-0.1
					c0.59,0,1.11,0.03,1.34,0.03c0.12,0,0.54-0.03,1.07-0.03c0.15,0,0.24,0.02,0.24,0.1c0,0.06-0.06,0.1-0.2,0.1
					c-0.12,0-0.2,0-0.33,0.03c-0.32,0.09-0.39,0.32-0.42,0.93l-0.12,6.91c0,0.23-0.05,0.33-0.15,0.33c-0.12,0-0.24-0.12-0.38-0.24
					c-0.7-0.66-2.13-2.1-3.29-3.22c-1.21-1.18-2.44-2.55-2.66-2.76h-0.03L227.98,79.25z"/>
				<path class="st1" d="M239.43,73.1l-1.66,0.05c-0.65,0.02-0.92,0.09-1.07,0.32c-0.12,0.17-0.17,0.3-0.18,0.38
					c-0.02,0.09-0.05,0.13-0.12,0.13c-0.09,0-0.1-0.05-0.1-0.18c0-0.18,0.21-1.18,0.23-1.27c0.03-0.15,0.06-0.2,0.13-0.2
					c0.09,0,0.2,0.12,0.48,0.13c0.32,0.03,0.75,0.05,1.11,0.05h4.4c0.35,0,0.6-0.03,0.77-0.05c0.17-0.03,0.24-0.05,0.3-0.05
					c0.06,0,0.09,0.06,0.09,0.23c0,0.23-0.03,0.98-0.03,1.27c-0.02,0.12-0.03,0.18-0.1,0.18c-0.09,0-0.12-0.05-0.12-0.21l-0.02-0.12
					c-0.02-0.29-0.32-0.59-1.31-0.62l-1.42-0.03v4.48c0,1.01,0,1.87,0.05,2.34c0.03,0.32,0.1,0.54,0.44,0.6
					c0.17,0.02,0.39,0.05,0.56,0.05c0.12,0,0.18,0.03,0.18,0.09c0,0.09-0.09,0.12-0.21,0.12c-0.73,0-1.45-0.03-1.75-0.03
					c-0.27,0-0.96,0.03-1.42,0.03c-0.15,0-0.21-0.03-0.21-0.12c0-0.05,0.05-0.09,0.18-0.09c0.17,0,0.3-0.02,0.39-0.05
					c0.21-0.05,0.29-0.29,0.32-0.6c0.06-0.47,0.06-1.33,0.06-2.32V73.1C239.41,73.1,239.43,73.1,239.43,73.1z"/>
				<path class="st1" d="M76.66,88.7c0-1.66,0-1.98-0.03-2.32c-0.02-0.36-0.12-0.54-0.48-0.62c-0.09-0.02-0.29-0.03-0.44-0.03
					c-0.12,0-0.2-0.02-0.2-0.1c0-0.09,0.09-0.1,0.24-0.1c0.6,0,1.3,0.03,1.63,0.03c0.27,0,0.96-0.03,1.36-0.03
					c0.17,0,0.24,0.02,0.24,0.1c0,0.09-0.06,0.1-0.18,0.1c-0.12,0-0.18,0.02-0.32,0.03c-0.3,0.05-0.38,0.24-0.42,0.62
					c-0.03,0.35-0.03,0.66-0.03,2.32v1.52c0,1.6,0.32,2.26,0.86,2.69c0.5,0.39,1.01,0.45,1.39,0.45c0.48,0,1.1-0.15,1.52-0.6
					c0.62-0.6,0.65-1.6,0.65-2.7V88.7c0-1.66,0-1.98-0.03-2.32c-0.02-0.36-0.12-0.54-0.48-0.62c-0.09-0.02-0.29-0.03-0.39-0.03
					s-0.18-0.02-0.18-0.1c0-0.09,0.09-0.1,0.23-0.1c0.56,0,1.27,0.03,1.28,0.03c0.13,0,0.83-0.03,1.27-0.03
					c0.15,0,0.23,0.02,0.23,0.1c0,0.09-0.06,0.1-0.2,0.1c-0.12,0-0.2,0.02-0.33,0.03c-0.3,0.05-0.38,0.24-0.42,0.62
					c-0.02,0.35-0.02,0.66-0.02,2.32v1.18c0,1.21-0.12,2.5-1.06,3.29c-0.8,0.66-1.6,0.8-2.32,0.8c-0.59,0-1.66-0.03-2.47-0.77
					c-0.56-0.5-0.98-1.31-0.98-2.91v-1.6C76.6,88.7,76.66,88.7,76.66,88.7z"/>
				<path class="st1" d="M87.31,92.32c0.02,0.85,0.17,1.15,0.38,1.21c0.18,0.06,0.39,0.09,0.59,0.09c0.12,0,0.2,0.02,0.2,0.09
					c0,0.09-0.1,0.12-0.27,0.12c-0.73,0-1.16-0.03-1.37-0.03c-0.1,0-0.63,0.03-1.19,0.03c-0.15,0-0.24-0.02-0.24-0.12
					c0-0.06,0.06-0.09,0.18-0.09c0.15,0,0.35,0,0.5-0.05c0.3-0.09,0.33-0.39,0.35-1.36l0.1-6.47c0-0.21,0.03-0.36,0.15-0.36
					c0.12,0,0.21,0.15,0.42,0.33c0.13,0.15,1.83,1.93,3.45,3.52c0.77,0.75,2.26,2.32,2.44,2.49h0.06l-0.12-4.92
					c-0.02-0.66-0.12-0.88-0.38-0.98c-0.17-0.06-0.44-0.06-0.6-0.06c-0.13,0-0.18-0.03-0.18-0.1c0-0.09,0.12-0.1,0.29-0.1
					c0.59,0,1.11,0.03,1.34,0.03c0.12,0,0.54-0.03,1.1-0.03c0.15,0,0.24,0.02,0.24,0.1c0,0.06-0.06,0.1-0.2,0.1
					c-0.12,0-0.2,0-0.33,0.03c-0.32,0.09-0.39,0.32-0.42,0.93l-0.12,6.91c0,0.23-0.05,0.33-0.15,0.33c-0.12,0-0.24-0.12-0.38-0.24
					c-0.7-0.66-2.13-2.1-3.29-3.22c-1.21-1.18-2.44-2.55-2.64-2.76h-0.03L87.31,92.32z"/>
				<path class="st1" d="M97.27,88.7c0-1.66,0-1.98-0.02-2.32c-0.02-0.36-0.13-0.56-0.38-0.62c-0.12-0.03-0.27-0.05-0.39-0.05
					c-0.12,0-0.18-0.02-0.18-0.12c0-0.06,0.09-0.09,0.27-0.09c0.42,0,1.13,0.03,1.45,0.03c0.29,0,0.93-0.03,1.36-0.03
					c0.15,0,0.23,0.02,0.23,0.09c0,0.09-0.06,0.12-0.18,0.12c-0.12,0-0.2,0.02-0.33,0.03c-0.3,0.05-0.38,0.24-0.42,0.62
					c-0.03,0.35-0.03,0.66-0.03,2.32v1.93c0,1.06,0,1.93,0.05,2.39c0.03,0.3,0.12,0.5,0.45,0.53c0.15,0.02,0.39,0.03,0.56,0.03
					c0.12,0,0.18,0.03,0.18,0.09c0,0.09-0.09,0.12-0.21,0.12c-0.73,0-1.45-0.03-1.75-0.03c-0.24,0-0.95,0.03-1.39,0.03
					c-0.15,0-0.23-0.03-0.23-0.12c0-0.05,0.05-0.09,0.18-0.09c0.17,0,0.3-0.02,0.39-0.03c0.21-0.05,0.29-0.23,0.32-0.54
					c0.05-0.47,0.05-1.33,0.05-2.39V88.7C97.25,88.7,97.27,88.7,97.27,88.7z"/>
				<path class="st1" d="M101.33,86.6c-0.24-0.6-0.45-0.73-0.85-0.83c-0.17-0.05-0.35-0.05-0.44-0.05c-0.1,0-0.13-0.03-0.13-0.1
					c0-0.09,0.12-0.1,0.29-0.1c0.6,0,1.22,0.03,1.61,0.03c0.29,0,0.81-0.03,1.37-0.03c0.13,0,0.24,0.02,0.24,0.1
					c0,0.09-0.06,0.1-0.17,0.1c-0.18,0-0.35,0.02-0.44,0.09c-0.09,0.05-0.12,0.13-0.12,0.23c0,0.15,0.1,0.45,0.27,0.85l1.91,4.96
					h0.05c0.48-1.19,1.93-4.73,2.19-5.45c0.05-0.13,0.1-0.3,0.1-0.39c0-0.09-0.05-0.18-0.15-0.2c-0.13-0.05-0.3-0.05-0.45-0.05
					c-0.1,0-0.18-0.02-0.18-0.09c0-0.09,0.1-0.12,0.32-0.12c0.56,0,1.03,0.03,1.18,0.03c0.18,0,0.71-0.03,1.04-0.03
					c0.15,0,0.23,0.02,0.23,0.1c0,0.09-0.06,0.1-0.18,0.1c-0.12,0-0.35,0-0.54,0.13c-0.15,0.1-0.32,0.29-0.62,0.98
					c-0.44,1.03-0.73,1.63-1.33,2.97c-0.71,1.6-1.25,2.79-1.48,3.33c-0.3,0.63-0.35,0.81-0.51,0.81c-0.15,0-0.21-0.15-0.42-0.66
					L101.33,86.6z"/>
				<path class="st1" d="M110.47,88.7c0-1.66,0-1.98-0.02-2.32c-0.02-0.36-0.12-0.54-0.48-0.62c-0.09-0.02-0.29-0.03-0.44-0.03
					c-0.12,0-0.18-0.02-0.18-0.1c0-0.09,0.09-0.1,0.24-0.1c0.3,0,0.63,0.02,0.89,0.02c0.3,0.02,0.54,0.02,0.7,0.02
					c0.36,0,2.58,0,2.79-0.02c0.21-0.02,0.38-0.05,0.48-0.06c0.05-0.02,0.12-0.05,0.18-0.05c0.05,0,0.06,0.05,0.06,0.1
					c0,0.09-0.05,0.21-0.09,0.71c-0.02,0.12-0.03,0.6-0.05,0.73c-0.02,0.05-0.03,0.12-0.12,0.12c-0.09,0-0.1-0.05-0.1-0.15
					c0-0.09-0.02-0.27-0.06-0.39c-0.09-0.2-0.2-0.33-0.75-0.39c-0.18-0.02-1.36-0.05-1.58-0.05c-0.05,0-0.09,0.03-0.09,0.12V89
					c0,0.09,0.02,0.12,0.09,0.12c0.24,0,1.52,0,1.78-0.02c0.27-0.02,0.44-0.05,0.53-0.17c0.09-0.09,0.12-0.15,0.18-0.15
					c0.05,0,0.09,0.02,0.09,0.09c0,0.06-0.05,0.23-0.09,0.8c-0.02,0.21-0.05,0.66-0.05,0.73c0,0.09,0,0.2-0.1,0.2
					c-0.09,0-0.1-0.05-0.1-0.1c-0.02-0.12-0.02-0.24-0.05-0.39c-0.05-0.21-0.21-0.38-0.62-0.44c-0.21-0.02-1.31-0.03-1.58-0.03
					c-0.05,0-0.06,0.05-0.06,0.12v0.86c0,0.36,0,1.37,0,1.69c0.02,0.77,0.2,0.92,1.33,0.92c0.29,0,0.77,0,1.04-0.13
					c0.29-0.13,0.42-0.36,0.5-0.81c0.03-0.12,0.05-0.17,0.12-0.17c0.09,0,0.09,0.09,0.09,0.2c0,0.24-0.09,1-0.15,1.21
					c-0.09,0.29-0.18,0.29-0.6,0.29c-0.83,0-1.45-0.02-1.93-0.03c-0.48-0.02-0.83-0.03-1.16-0.03c-0.12,0-0.36,0.02-0.63,0.02
					c-0.24,0.02-0.54,0.02-0.77,0.02c-0.15,0-0.21-0.03-0.21-0.12c0-0.05,0.05-0.09,0.18-0.09c0.17,0,0.3-0.02,0.39-0.03
					c0.21-0.05,0.29-0.29,0.32-0.6c0.05-0.47,0.05-1.33,0.05-2.32v-1.89h-0.02L110.47,88.7L110.47,88.7z"/>
				<path class="st1" d="M117.54,88.7c0-1.66,0-1.98-0.02-2.32c-0.03-0.36-0.12-0.54-0.48-0.62c-0.09-0.02-0.29-0.03-0.44-0.03
					c-0.12,0-0.2-0.02-0.2-0.1c0-0.09,0.09-0.1,0.24-0.1c0.6,0,1.3,0.03,1.52,0.03c0.38,0,1.22-0.03,1.58-0.03
					c0.7,0,1.45,0.06,2.04,0.47c0.32,0.2,0.77,0.77,0.77,1.49c0,0.81-0.35,1.56-1.48,2.46c1,1.22,1.76,2.2,2.43,2.87
					c0.62,0.63,1.07,0.71,1.25,0.75c0.12,0.02,0.21,0.03,0.32,0.03c0.09,0,0.13,0.03,0.13,0.09c0,0.09-0.09,0.12-0.21,0.12h-1.06
					c-0.62,0-0.89-0.05-1.19-0.2c-0.48-0.24-0.89-0.77-1.52-1.61c-0.45-0.6-0.96-1.34-1.1-1.51c-0.05-0.06-0.12-0.09-0.2-0.09
					l-0.96-0.02c-0.05,0-0.09,0.02-0.09,0.09v0.15c0,1.01,0,1.87,0.05,2.34c0.03,0.32,0.1,0.56,0.44,0.6
					c0.17,0.02,0.42,0.03,0.54,0.03c0.09,0,0.13,0.03,0.13,0.09c0,0.09-0.09,0.12-0.21,0.12c-0.65,0-1.46-0.03-1.64-0.03
					c-0.21,0-0.92,0.03-1.36,0.03c-0.15,0-0.21-0.03-0.21-0.12c0-0.05,0.05-0.09,0.18-0.09c0.17,0,0.3-0.02,0.39-0.03
					c0.21-0.05,0.29-0.29,0.32-0.6c0.05-0.47,0.05-1.33,0.05-2.32L117.54,88.7L117.54,88.7z M118.86,89.57c0,0.12,0.02,0.17,0.1,0.2
					c0.23,0.09,0.56,0.12,0.85,0.12c0.45,0,0.59-0.05,0.8-0.18c0.33-0.24,0.66-0.75,0.66-1.64c0-1.56-1.04-2.01-1.71-2.01
					c-0.29,0-0.48,0.02-0.6,0.05c-0.09,0.02-0.1,0.06-0.1,0.15C118.86,86.25,118.86,89.57,118.86,89.57z"/>
				<path class="st1" d="M125.22,93.68c-0.18-0.06-0.21-0.13-0.21-0.36c0-0.6,0.05-1.27,0.05-1.43c0.02-0.17,0.05-0.29,0.13-0.29
					c0.1,0,0.12,0.1,0.12,0.18c0,0.15,0.05,0.36,0.1,0.56c0.24,0.81,0.89,1.11,1.6,1.11c1,0,1.49-0.66,1.49-1.25
					c0-0.53-0.17-1.04-1.1-1.75l-0.51-0.39c-1.22-0.95-1.64-1.71-1.64-2.59c0-1.21,1.03-2.08,2.58-2.08c0.73,0,1.19,0.12,1.48,0.18
					c0.1,0.02,0.15,0.05,0.15,0.13c0,0.15-0.05,0.47-0.05,1.31c0,0.23-0.03,0.33-0.12,0.33c-0.06,0-0.12-0.06-0.12-0.2
					c0-0.1-0.06-0.44-0.29-0.73c-0.17-0.21-0.5-0.53-1.21-0.53c-0.83,0-1.33,0.47-1.33,1.13c0,0.5,0.24,0.88,1.18,1.58l0.32,0.23
					c1.34,1.01,1.83,1.75,1.83,2.79c0,0.63-0.24,1.39-1.04,1.91c-0.56,0.35-1.18,0.45-1.78,0.45
					C126.22,93.96,125.7,93.87,125.22,93.68z"/>
				<path class="st1" d="M132.37,88.7c0-1.66,0-1.98-0.02-2.32c-0.02-0.36-0.13-0.56-0.38-0.62c-0.12-0.03-0.27-0.05-0.39-0.05
					c-0.12,0-0.18-0.02-0.18-0.12c0-0.06,0.09-0.09,0.27-0.09c0.42,0,1.13,0.03,1.45,0.03c0.29,0,0.93-0.03,1.36-0.03
					c0.15,0,0.23,0.02,0.23,0.09c0,0.09-0.06,0.12-0.18,0.12c-0.12,0-0.2,0.02-0.33,0.03c-0.3,0.05-0.38,0.24-0.42,0.62
					c-0.02,0.35-0.02,0.66-0.02,2.32v1.93c0,1.06,0,1.93,0.05,2.39c0.03,0.3,0.12,0.5,0.45,0.53c0.15,0.02,0.39,0.03,0.56,0.03
					c0.12,0,0.18,0.03,0.18,0.09c0,0.09-0.09,0.12-0.21,0.12c-0.73,0-1.45-0.03-1.72-0.03c-0.27,0-0.96,0.03-1.42,0.03
					c-0.15,0-0.21-0.03-0.21-0.12c0-0.05,0.05-0.09,0.18-0.09c0.17,0,0.3-0.02,0.39-0.03c0.21-0.05,0.29-0.23,0.32-0.54
					c0.05-0.47,0.05-1.33,0.05-2.39V88.7C132.38,88.7,132.37,88.7,132.37,88.7z"/>
				<path class="st1" d="M138.93,86.15l-1.66,0.05c-0.65,0.02-0.92,0.09-1.07,0.32c-0.12,0.17-0.17,0.3-0.18,0.38
					c-0.03,0.09-0.06,0.13-0.12,0.13c-0.09,0-0.1-0.05-0.1-0.18c0-0.18,0.21-1.18,0.23-1.27c0.03-0.13,0.06-0.21,0.13-0.21
					c0.09,0,0.2,0.12,0.48,0.13c0.32,0.03,0.75,0.05,1.11,0.05h4.4c0.35,0,0.6-0.03,0.77-0.05c0.17-0.03,0.24-0.05,0.3-0.05
					c0.09,0,0.09,0.06,0.09,0.23c0,0.23-0.03,0.98-0.03,1.28c-0.02,0.12-0.03,0.18-0.1,0.18c-0.09,0-0.12-0.05-0.12-0.21l-0.02-0.12
					c-0.02-0.29-0.33-0.6-1.31-0.62l-1.42-0.03v4.48c0,1.01,0,1.87,0.05,2.34c0.03,0.32,0.1,0.54,0.44,0.6
					c0.15,0.02,0.39,0.03,0.56,0.03c0.12,0,0.18,0.03,0.18,0.09c0,0.09-0.09,0.12-0.21,0.12c-0.73,0-1.45-0.03-1.75-0.03
					c-0.24,0-0.95,0.03-1.39,0.03c-0.15,0-0.21-0.03-0.21-0.12c0-0.05,0.05-0.09,0.18-0.09c0.17,0,0.3-0.02,0.39-0.03
					c0.23-0.05,0.29-0.29,0.32-0.6c0.06-0.47,0.06-1.33,0.06-2.32L138.93,86.15L138.93,86.15z"/>
				<path class="st1" d="M146.7,90.97c0-0.6-0.12-0.83-0.24-1.15c-0.09-0.18-1.58-2.59-1.96-3.15c-0.29-0.39-0.54-0.68-0.77-0.8
					c-0.15-0.09-0.33-0.15-0.47-0.15c-0.09,0-0.17-0.02-0.17-0.1c0-0.06,0.09-0.1,0.21-0.1c0.2,0,1.03,0.03,1.42,0.03
					c0.23,0,0.7-0.03,1.19-0.03c0.12,0,0.17,0.03,0.17,0.1s-0.09,0.09-0.24,0.12c-0.1,0.02-0.15,0.12-0.15,0.2
					c0,0.09,0.06,0.21,0.13,0.36c0.17,0.33,1.71,2.97,1.89,3.27c0.12-0.27,1.51-2.67,1.66-3c0.12-0.23,0.15-0.44,0.15-0.56
					c0-0.12-0.05-0.23-0.23-0.29c-0.1-0.02-0.2-0.05-0.2-0.12c0-0.09,0.05-0.1,0.18-0.1c0.36,0,0.73,0.03,1.04,0.03
					c0.24,0,0.98-0.03,1.19-0.03c0.12,0,0.2,0.02,0.2,0.09c0,0.09-0.09,0.12-0.21,0.12c-0.12,0-0.33,0.05-0.5,0.13
					c-0.23,0.12-0.35,0.23-0.6,0.53c-0.36,0.44-1.93,3-2.13,3.49c-0.17,0.39-0.17,0.73-0.17,1.1v0.89c0,0.18,0,0.63,0.03,1.1
					c0.02,0.32,0.12,0.56,0.45,0.6c0.15,0.02,0.39,0.03,0.54,0.03c0.12,0,0.18,0.03,0.18,0.09c0,0.09-0.09,0.12-0.23,0.12
					c-0.7,0-1.39-0.03-1.71-0.03c-0.29,0-0.98,0.03-1.39,0.03c-0.15,0-0.24-0.02-0.24-0.12c0-0.05,0.05-0.09,0.18-0.09
					c0.17,0,0.3-0.02,0.39-0.03c0.21-0.05,0.32-0.29,0.35-0.6c0.03-0.47,0.03-0.92,0.03-1.1C146.7,91.85,146.7,90.97,146.7,90.97z"
					/>
			</g>
		</g>
		<rect x="-37.78" y="-35.85" class="st2" width="481" height="190.11"/>
	</g>
</g>
</svg>
