<?xml version="1.0" encoding="UTF-8" standalone="no"?>
<!-- Created with Inkscape (http://www.inkscape.org/) -->

<svg
   xmlns:dc="http://purl.org/dc/elements/1.1/"
   xmlns:cc="http://creativecommons.org/ns#"
   xmlns:rdf="http://www.w3.org/1999/02/22-rdf-syntax-ns#"
   xmlns:svg="http://www.w3.org/2000/svg"
   xmlns="http://www.w3.org/2000/svg"
   xmlns:sodipodi="http://sodipodi.sourceforge.net/DTD/sodipodi-0.dtd"
   xmlns:inkscape="http://www.inkscape.org/namespaces/inkscape"
   width="14"
   height="14"
   viewBox="0 0 3.7041668 3.7041667"
   version="1.1"
   id="svg8"
   inkscape:version="0.92.1 r15371"
   sodipodi:docname="smoo_smoo_white_tiny.svg">
  <defs
     id="defs2" />
  <sodipodi:namedview
     id="base"
     pagecolor="#ffffff"
     bordercolor="#666666"
     borderopacity="1.0"
     inkscape:pageopacity="0.0"
     inkscape:pageshadow="2"
     inkscape:zoom="11.2"
     inkscape:cx="5.057371"
     inkscape:cy="6.3091936"
     inkscape:document-units="mm"
     inkscape:current-layer="layer1"
     showgrid="false"
     inkscape:pagecheckerboard="true"
     fit-margin-top="0"
     fit-margin-left="0"
     fit-margin-right="0"
     fit-margin-bottom="0"
     units="px"
     inkscape:window-width="1323"
     inkscape:window-height="763"
     inkscape:window-x="1566"
     inkscape:window-y="200"
     inkscape:window-maximized="0" />
  <metadata
     id="metadata5">
    <rdf:RDF>
      <cc:Work
         rdf:about="">
        <dc:format>image/svg+xml</dc:format>
        <dc:type
           rdf:resource="http://purl.org/dc/dcmitype/StillImage" />
        <dc:title></dc:title>
      </cc:Work>
    </rdf:RDF>
  </metadata>
  <g
     inkscape:label="Layer 1"
     inkscape:groupmode="layer"
     id="layer1"
     transform="translate(-345.1068,-276.65103)">
    <g
       transform="matrix(0.0175676,0,0,0.0175676,345.09965,274.31983)"
       inkscape:label="Layer 2"
       id="layer2">
      <g
         id="g40">
        <g
           id="g845"
           transform="matrix(1.1456967,0,0,1.1456967,-116.32072,46.837149)">
          <path
             style="fill:#ffffff;stroke-width:1.52759576"
             d="M 306.85352,8.4433594 C 277.51707,42.665181 236.53865,68.423475 216.04883,109.41211 c -11.99602,30.43313 4.30174,73.02514 -7.36328,98.33594 C 191.78385,174.07041 201.80783,126.2876 184.91211,97.955078 153.77552,129.17545 115.61404,155.73067 92.291016,194.20508 85.212364,242.62317 43.46033,275.94832 26.521484,320.54883 6.0324436,363.75384 44.978777,416.61016 10.970703,454.4043 c -4.4620032,37.99588 7.563938,78.9869 6.634766,118.57226 5.75764,56.08383 8.915137,122.63575 57.808593,159.86133 29.945578,25.27382 56.639408,63.80672 101.697268,46.11719 104.26566,-4.4869 208.53669,5.86246 312.80469,7.8789 33.93649,16.51653 63.21914,-13.13199 55.5625,-45.14843 30.08063,-31.72113 91.21695,-7.17779 116.70117,-39.42188 -9.1694,-20.7492 -9.37308,-46.38044 20.35351,-29.35742 41.39664,-11.72607 24.57118,-72.28239 42.90821,-104.19141 19.88809,-35.88452 -5.07562,-64.81152 -42.49805,-65.17382 -18.51192,-16.14378 42.69265,10.06089 51.98633,-9.1504 38.71057,-26.83454 36.27802,-98.35943 -19.85547,-98.98242 -16.77478,-7.80976 -59.01619,-28.79714 -13.58594,-25.52148 24.17291,9.45419 48.2565,17.41158 60.58984,-2.9961 9.43688,-15.61497 25.53631,-32.92143 27.94727,-64.4121 -4.7122,-46.17536 -73.3404,-46.33546 -112.11523,-66.44141 C 633.66702,221.9888 588.37424,211.6726 544.46289,196.45898 521.4248,185.81442 584.46842,187.46002 597.24023,179.55664 660.76299,163.10875 724.50662,147.62106 788.11914,131.58203 765.35606,114.12192 726.97631,116.7097 712.61328,105.55078 635.938,82.941925 559.55111,59.176734 481.89258,40.09375 c -36.39756,24.130871 -67.90993,55.030722 -100.5332,83.82617 -9.9733,11.24153 -49.21041,52.51512 -43.20704,38.99414 C 372.62773,122.29599 403.95775,78.031303 436.44727,36.589844 418.71929,-0.27129019 356.74486,19.712296 321.14258,9.3085938 L 313.99805,8.859375 Z M 115.84961,229.66797 c 26.32649,1.28572 84.5952,32.49028 64.23437,59.73633 C 158.76,274.19025 128.48931,264.455 141.75,303.70312 c 43.42958,-3.67693 89.67268,-30.07179 137.05273,-29.17968 51.59069,-5.51286 103.36485,2.58525 153.51368,13.34375 35.98749,3.95987 80.57736,-73.70414 102.83398,-24.62696 4.09818,41.22326 14.52695,81.84804 14.22656,123.37891 -3.03139,110.68041 -17.19652,221.36606 -14.56836,332.00195 5.66437,38.96896 -33.99546,30.20373 -53.51367,25.59766 -12.76004,30.75489 -65.22009,1.59281 -93.76758,8.94141 -96.23713,-4.68415 -192.51169,-10.06112 -288.898434,-9.67188 -7.434074,-18.76437 -8.913883,-51.79242 -6.097656,-79.35937 2.304528,-101.03118 6.331474,-202.14838 3.949219,-303.16211 7.543581,-42.53674 8.115181,-86.97005 15.210941,-128.63477 z"
             transform="matrix(0.23093663,0,0,0.23093663,101.52837,74.587368)"
             id="path31"
             inkscape:connector-curvature="0" />
          <path
             style="fill:#ffffff;stroke-width:0.35277781"
             d="m 218.06067,140.07521 c -4.52657,0.54962 -11.64593,8.01658 -2.90475,8.23569 7.64579,6.60174 5.42071,-4.82013 2.90475,-8.23569 z"
             id="path27"
             inkscape:connector-curvature="0" />
          <path
             style="fill:#ffffff;stroke-width:0.35277781"
             d="m 198.67959,159.61229 c -6.07804,6.04154 -7.29809,18.50561 0.18793,23.78356 9.95595,0.23501 8.95699,-14.159 4.88615,-20.25592 -1.18878,-1.7443 -3.02057,-3.02753 -5.07408,-3.52764 z"
             id="path25"
             inkscape:connector-curvature="0" />
          <path
             style="fill:#ffffff;stroke-width:0.35277781"
             d="m 148.86809,167.15111 c -11.26324,-3.24443 -10.4594,15.02299 -1.61112,14.88821 3.54463,0.11998 7.08926,0.23995 10.63389,0.35992 3.37565,-5.44058 6.78089,-17.80382 -4.20185,-14.98505 -1.60381,-0.13409 -3.21063,-0.25222 -4.82092,-0.26308 z"
             id="path23"
             inkscape:connector-curvature="0" />
          <path
             style="fill:#ffffff;stroke-width:0.35277781"
             d="m 172.8449,192.18389 c -9.23736,1.02108 -20.25155,1.5891 -26.86948,8.82939 -2.69372,10.60287 9.42176,18.98883 18.40854,21.8569 10.85201,-1.25282 9.66584,14.09235 -0.40224,11.83259 -7.32137,-0.48879 -12.79112,-8.63193 -17.09955,-11.35779 0.4268,9.38032 10.13428,18.51001 19.62672,14.60875 8.98958,-3.97709 16.62111,5.12908 25.29181,2.59358 5.31938,1.36441 14.11873,-11.14533 5.76421,-8.00333 -6.05032,5.40133 -25.87287,5.89602 -19.79158,-6.02456 8.83981,-4.42207 19.7671,-5.72852 25.82454,-14.79297 8.70103,-12.54898 -12.60043,-16.05953 -20.9275,-18.54607 -3.23053,-0.65779 -6.52622,-1.02802 -9.82547,-0.99649 z"
             id="path10"
             inkscape:connector-curvature="0" />
        </g>
      </g>
    </g>
  </g>
</svg>
