<?xml version="1.0" encoding="UTF-8" standalone="no"?>
<!-- Created with Inkscape (http://www.inkscape.org/) -->

<svg
   xmlns:dc="http://purl.org/dc/elements/1.1/"
   xmlns:cc="http://creativecommons.org/ns#"
   xmlns:rdf="http://www.w3.org/1999/02/22-rdf-syntax-ns#"
   xmlns:svg="http://www.w3.org/2000/svg"
   xmlns="http://www.w3.org/2000/svg"
   xmlns:sodipodi="http://sodipodi.sourceforge.net/DTD/sodipodi-0.dtd"
   xmlns:inkscape="http://www.inkscape.org/namespaces/inkscape"
   width="800"
   height="800"
   viewBox="0 0 211.66666 211.66666"
   version="1.1"
   id="svg8"
   inkscape:version="0.92pre2 15127"
   sodipodi:docname="smoo_smoo_white.svg">
  <defs
     id="defs2" />
  <sodipodi:namedview
     id="base"
     pagecolor="#ffffff"
     bordercolor="#666666"
     borderopacity="1.0"
     inkscape:pageopacity="0.0"
     inkscape:pageshadow="2"
     inkscape:zoom="0.9899495"
     inkscape:cx="409.32362"
     inkscape:cy="326.08104"
     inkscape:document-units="mm"
     inkscape:current-layer="layer2"
     showgrid="false"
     inkscape:pagecheckerboard="true"
     fit-margin-top="0"
     fit-margin-left="0"
     fit-margin-right="0"
     fit-margin-bottom="0"
     inkscape:window-width="2560"
     inkscape:window-height="1377"
     inkscape:window-x="-8"
     inkscape:window-y="-8"
     inkscape:window-maximized="1"
     units="px" />
  <metadata
     id="metadata5">
    <rdf:RDF>
      <cc:Work
         rdf:about="">
        <dc:format>image/svg+xml</dc:format>
        <dc:type
           rdf:resource="http://purl.org/dc/dcmitype/StillImage" />
        <dc:title />
      </cc:Work>
    </rdf:RDF>
  </metadata>
  <g
     inkscape:groupmode="layer"
     id="layer2"
     inkscape:label="Layer 2"
     transform="translate(0,-132.29165)">
    <g
       id="g40">
      <g
         transform="matrix(1.1456967,0,0,1.1456967,-116.32072,46.837149)"
         id="g845">
        <path
           id="path31"
           transform="matrix(0.23093663,0,0,0.23093663,101.52837,74.587368)"
           d="M 306.85352 8.4433594 C 277.51707 42.665181 236.53865 68.423475 216.04883 109.41211 C 204.05281 139.84524 220.35057 182.43725 208.68555 207.74805 C 191.78385 174.07041 201.80783 126.2876 184.91211 97.955078 C 153.77552 129.17545 115.61404 155.73067 92.291016 194.20508 C 85.212364 242.62317 43.46033 275.94832 26.521484 320.54883 C 6.0324436 363.75384 44.978777 416.61016 10.970703 454.4043 C 6.5086998 492.40018 18.534641 533.3912 17.605469 572.97656 C 23.363109 629.06039 26.520606 695.61231 75.414062 732.83789 C 105.35964 758.11171 132.05347 796.64461 177.11133 778.95508 C 281.37699 774.46818 385.64802 784.81754 489.91602 786.83398 C 523.85251 803.35051 553.13516 773.70199 545.47852 741.68555 C 575.55915 709.96442 636.69547 734.50776 662.17969 702.26367 C 653.01029 681.51447 652.80661 655.88323 682.5332 672.90625 C 723.92984 661.18018 707.10438 600.62386 725.44141 568.71484 C 745.3295 532.83032 720.36579 503.90332 682.94336 503.54102 C 664.43144 487.39724 725.63601 513.60191 734.92969 494.39062 C 773.64026 467.55608 771.20771 396.03119 715.07422 395.4082 C 698.29944 387.59844 656.05803 366.61106 701.48828 369.88672 C 725.66119 379.34091 749.74478 387.2983 762.07812 366.89062 C 771.515 351.27565 787.61443 333.96919 790.02539 302.47852 C 785.31319 256.30316 716.68499 256.14306 677.91016 236.03711 C 633.66702 221.9888 588.37424 211.6726 544.46289 196.45898 C 521.4248 185.81442 584.46842 187.46002 597.24023 179.55664 C 660.76299 163.10875 724.50662 147.62106 788.11914 131.58203 C 765.35606 114.12192 726.97631 116.7097 712.61328 105.55078 C 635.938 82.941925 559.55111 59.176734 481.89258 40.09375 C 445.49502 64.224621 413.98265 95.124472 381.35938 123.91992 C 371.38608 135.16145 332.14897 176.43504 338.15234 162.91406 C 372.62773 122.29599 403.95775 78.031303 436.44727 36.589844 C 418.71929 -0.27129019 356.74486 19.712296 321.14258 9.3085938 L 313.99805 8.859375 L 306.85352 8.4433594 z M 115.84961 229.66797 C 142.1761 230.95369 200.44481 262.15825 180.08398 289.4043 C 158.76 274.19025 128.48931 264.455 141.75 303.70312 C 185.17958 300.02619 231.42268 273.63133 278.80273 274.52344 C 330.39342 269.01058 382.16758 277.10869 432.31641 287.86719 C 468.3039 291.82706 512.89377 214.16305 535.15039 263.24023 C 539.24857 304.46349 549.67734 345.08827 549.37695 386.61914 C 546.34556 497.29955 532.18043 607.9852 534.80859 718.62109 C 540.47296 757.59005 500.81313 748.82482 481.29492 744.21875 C 468.53488 774.97364 416.07483 745.81156 387.52734 753.16016 C 291.29021 748.47601 195.01565 743.09904 98.628906 743.48828 C 91.194832 724.72391 89.715023 691.69586 92.53125 664.12891 C 94.835778 563.09773 98.862724 461.98053 96.480469 360.9668 C 104.02405 318.43006 104.59565 273.99675 111.69141 232.33203 L 115.84961 229.66797 z "
           style="fill:#ffffff;stroke-width:1.52759576" />
        <path
           id="path27"
           d="m 218.06067,140.07521 c -4.52657,0.54962 -11.64593,8.01658 -2.90475,8.23569 7.64579,6.60174 5.42071,-4.82013 2.90475,-8.23569 z"
           style="fill:#ffffff;stroke-width:0.35277781" />
        <path
           inkscape:connector-curvature="0"
           id="path25"
           d="m 198.67959,159.61229 c -6.07804,6.04154 -7.29809,18.50561 0.18793,23.78356 9.95595,0.23501 8.95699,-14.159 4.88615,-20.25592 -1.18878,-1.7443 -3.02057,-3.02753 -5.07408,-3.52764 z"
           style="fill:#ffffff;stroke-width:0.35277781" />
        <path
           inkscape:connector-curvature="0"
           id="path23"
           d="m 148.86809,167.15111 c -11.26324,-3.24443 -10.4594,15.02299 -1.61112,14.88821 3.54463,0.11998 7.08926,0.23995 10.63389,0.35992 3.37565,-5.44058 6.78089,-17.80382 -4.20185,-14.98505 -1.60381,-0.13409 -3.21063,-0.25222 -4.82092,-0.26308 z"
           style="fill:#ffffff;stroke-width:0.35277781" />
        <path
           id="path10"
           d="m 172.8449,192.18389 c -9.23736,1.02108 -20.25155,1.5891 -26.86948,8.82939 -2.69372,10.60287 9.42176,18.98883 18.40854,21.8569 10.85201,-1.25282 9.66584,14.09235 -0.40224,11.83259 -7.32137,-0.48879 -12.79112,-8.63193 -17.09955,-11.35779 0.4268,9.38032 10.13428,18.51001 19.62672,14.60875 8.98958,-3.97709 16.62111,5.12908 25.29181,2.59358 5.31938,1.36441 14.11873,-11.14533 5.76421,-8.00333 -6.05032,5.40133 -25.87287,5.89602 -19.79158,-6.02456 8.83981,-4.42207 19.7671,-5.72852 25.82454,-14.79297 8.70103,-12.54898 -12.60043,-16.05953 -20.9275,-18.54607 -3.23053,-0.65779 -6.52622,-1.02802 -9.82547,-0.99649 z"
           style="fill:#ffffff;stroke-width:0.35277781" />
      </g>
    </g>
  </g>
</svg>
