<svg xmlns="http://www.w3.org/2000/svg" height="32" overflow="visible" viewBox="-0.001 -3.266 32 32" width="32"><path d="M32 3.078a13.15 13.15 0 0 1-3.771 1.035A6.598 6.598 0 0 0 31.116.48a13.22 13.22 0 0 1-4.168 1.594A6.558 6.558 0 0 0 22.155 0a6.565 6.565 0 0 0-6.565 6.566c0 .512.058 1.016.17 1.496A18.647 18.647 0 0 1 2.228 1.203a6.529 6.529 0 0 0-.889 3.299A6.562 6.562 0 0 0 4.26 9.967a6.524 6.524 0 0 1-2.974-.822l-.001.084a6.57 6.57 0 0 0 5.267 6.438 6.575 6.575 0 0 1-2.964.112 6.568 6.568 0 0 0 6.133 4.559 13.167 13.167 0 0 1-9.719 2.718 18.579 18.579 0 0 0 10.063 2.951c12.076 0 18.679-10.004 18.679-18.68 0-.283-.006-.568-.018-.85A13.36 13.36 0 0 0 32 3.078z" fill="#fff"/></svg>