<?xml version="1.0" encoding="UTF-8" standalone="no"?>
<svg
   xmlns:dc="http://purl.org/dc/elements/1.1/"
   xmlns:cc="http://creativecommons.org/ns#"
   xmlns:rdf="http://www.w3.org/1999/02/22-rdf-syntax-ns#"
   xmlns:svg="http://www.w3.org/2000/svg"
   xmlns="http://www.w3.org/2000/svg"
   xmlns:sodipodi="http://sodipodi.sourceforge.net/DTD/sodipodi-0.dtd"
   xmlns:inkscape="http://www.inkscape.org/namespaces/inkscape"
   enable-background="new -0.001 -0.266 32 32"
   height="32px"
   overflow="visible"
   version="1.1"
   viewBox="-0.001 -0.266 32 32"
   width="32px"
   xml:space="preserve"
   id="svg5"
   sodipodi:docname="facebook.svg"
   inkscape:version="0.92.1 r15371"><metadata
     id="metadata9"><rdf:RDF><cc:Work
         rdf:about=""><dc:format>image/svg+xml</dc:format><dc:type
           rdf:resource="http://purl.org/dc/dcmitype/StillImage" /><dc:title></dc:title></cc:Work></rdf:RDF></metadata><sodipodi:namedview
     pagecolor="#ffffff"
     bordercolor="#666666"
     borderopacity="1"
     objecttolerance="10"
     gridtolerance="10"
     guidetolerance="10"
     inkscape:pageopacity="0"
     inkscape:pageshadow="2"
     inkscape:window-width="1361"
     inkscape:window-height="919"
     id="namedview7"
     showgrid="false"
     inkscape:pagecheckerboard="true"
     inkscape:zoom="7.375"
     inkscape:cx="16"
     inkscape:cy="16"
     inkscape:window-x="992"
     inkscape:window-y="286"
     inkscape:window-maximized="0"
     inkscape:current-layer="svg5" /><defs
     id="defs2" /><path
     d="M30.172,0H1.828C0.823,0,0,0.824,0,1.828v28.344C0,31.176,0.823,32,1.828,32h28.344  C31.177,32,32,31.176,32,30.172V1.828C32,0.824,31.177,0,30.172,0z M27.161,17.949h-4.396v11.766h-4.479V17.949h-3.111v-4.234h3.111  c0,0,0-1.736,0-3.617c0-2.844,1.837-5.455,6.071-5.455c1.714,0,2.981,0.166,2.981,0.166l-0.1,3.953c0,0-1.293-0.012-2.703-0.012  c-1.527,0-1.771,0.703-1.771,1.871c0,0.145,0,0.195,0,0.199c0,0.328,0,1.121,0,2.895h4.596L27.161,17.949z"
     id="facebook_1_"
     style="fill:#ffffff" /></svg>