<?xml version="1.0" encoding="UTF-8" standalone="no"?>
<svg
   xmlns:dc="http://purl.org/dc/elements/1.1/"
   xmlns:cc="http://creativecommons.org/ns#"
   xmlns:rdf="http://www.w3.org/1999/02/22-rdf-syntax-ns#"
   xmlns:svg="http://www.w3.org/2000/svg"
   xmlns="http://www.w3.org/2000/svg"
   xmlns:sodipodi="http://sodipodi.sourceforge.net/DTD/sodipodi-0.dtd"
   xmlns:inkscape="http://www.inkscape.org/namespaces/inkscape"
   enable-background="new -0.001 -3.266 32 32"
   height="32px"
   overflow="visible"
   version="1.1"
   viewBox="-0.001 -3.266 32 32"
   width="32px"
   xml:space="preserve"
   id="svg5"
   sodipodi:docname="twitter.svg"
   inkscape:version="0.92.1 r15371"><metadata
     id="metadata9"><rdf:RDF><cc:Work
         rdf:about=""><dc:format>image/svg+xml</dc:format><dc:type
           rdf:resource="http://purl.org/dc/dcmitype/StillImage" /><dc:title></dc:title></cc:Work></rdf:RDF></metadata><sodipodi:namedview
     pagecolor="#ffffff"
     bordercolor="#666666"
     borderopacity="1"
     objecttolerance="10"
     gridtolerance="10"
     guidetolerance="10"
     inkscape:pageopacity="0"
     inkscape:pageshadow="2"
     inkscape:window-width="1268"
     inkscape:window-height="809"
     id="namedview7"
     showgrid="false"
     inkscape:pagecheckerboard="true"
     inkscape:zoom="7.375"
     inkscape:cx="16"
     inkscape:cy="16"
     inkscape:window-x="1086"
     inkscape:window-y="212"
     inkscape:window-maximized="0"
     inkscape:current-layer="svg5" /><defs
     id="defs2" /><path
     d="M32,3.078c-1.178,0.523-2.443,0.875-3.771,1.035c1.355-0.812,2.396-2.102,2.887-3.633  c-1.268,0.752-2.674,1.297-4.168,1.594C25.749,0.797,24.043,0,22.155,0c-3.626,0-6.565,2.939-6.565,6.566  c0,0.512,0.058,1.016,0.17,1.496C10.304,7.787,5.466,5.174,2.228,1.203C1.663,2.172,1.339,3.299,1.339,4.502  c0,2.279,1.159,4.287,2.921,5.465c-1.076-0.033-2.089-0.33-2.974-0.822C1.285,9.172,1.285,9.199,1.285,9.229  c0,3.182,2.264,5.834,5.267,6.438c-0.551,0.15-1.131,0.229-1.729,0.229c-0.423,0-0.835-0.039-1.235-0.117  c0.835,2.609,3.26,4.508,6.133,4.559c-2.247,1.762-5.078,2.812-8.153,2.812c-0.53,0-1.053-0.031-1.566-0.094  c2.905,1.863,6.356,2.951,10.063,2.951c12.076,0,18.679-10.004,18.679-18.68c0-0.283-0.006-0.568-0.018-0.85  C30.008,5.551,31.119,4.395,32,3.078z"
     id="twitter_1_"
     style="fill:#ffffff" /></svg>